/* XPM */
static char *result[] = {
/* columns rows colors chars-per-pixel */
"64 64 154 2 ",
"   c #232526",
".  c #282726",
"X  c #2B2926",
"o  c #252728",
"O  c #26292A",
"+  c #2A2C2D",
"@  c #332D26",
"#  c #382F25",
"$  c #373025",
"%  c #3A3125",
"&  c #2C2E30",
"*  c #2F3132",
"=  c #393B3D",
"-  c #443626",
";  c #4A3A26",
":  c #4B3C29",
">  c #544026",
",  c #5C4526",
"<  c #47423B",
"1  c #674C26",
"2  c #694F28",
"3  c #6C5126",
"4  c #745627",
"5  c #725936",
"6  c #383D40",
"7  c #3E4346",
"8  c #474642",
"9  c #5D564B",
"0  c #4B5357",
"q  c #4E575D",
"w  c #6A6153",
"e  c #555F65",
"r  c #566166",
"t  c #5D686F",
"y  c #636566",
"u  c #626E75",
"i  c #66737A",
"p  c #69757E",
"a  c #767878",
"s  c #967328",
"d  c #987629",
"f  c #AC892C",
"g  c #B7972D",
"h  c #B9902B",
"j  c #BA9C2E",
"k  c #AA8B31",
"l  c #C2A72F",
"z  c #CCAE3B",
"x  c #D9AF32",
"c  c #DCB133",
"v  c #D7B03B",
"b  c #E4B93A",
"n  c #EABE3E",
"m  c #E9D53D",
"M  c #D4B95B",
"N  c #E6BE43",
"B  c #E9BE40",
"V  c #E1BD4E",
"C  c #C4B46C",
"Z  c #DDB560",
"A  c #D8B468",
"S  c #ECC141",
"D  c #F4D84F",
"F  c #E7C756",
"G  c #ECD657",
"H  c #EEDE57",
"J  c #F0DB5E",
"K  c #F5E64C",
"L  c #F6E855",
"P  c #FBF252",
"I  c #FEFB5C",
"U  c #D8C07A",
"Y  c #E9CF68",
"T  c #E2CA7B",
"R  c #FDFB61",
"E  c #798893",
"W  c #849499",
"Q  c #909192",
"!  c #9B9C9C",
"~  c #9FA897",
"^  c #9FA99A",
"/  c #A8AA8A",
"(  c #B5B48D",
")  c #ACA496",
"_  c #BBAB94",
"`  c #B6AC9C",
"'  c #B9AC99",
"]  c #ACB29E",
"[  c #BEB199",
"{  c #8A9BA3",
"}  c #8FA2A5",
"|  c #90A2A6",
" . c #93A5AA",
".. c #96A8AD",
"X. c #9CA8AB",
"o. c #97AAB3",
"O. c #95A9B4",
"+. c #99ADB3",
"@. c #9CB0B7",
"#. c #9EB2BA",
"$. c #A1AFA7",
"%. c #ACADAD",
"&. c #B2AEA3",
"*. c #B8AFA0",
"=. c #B8B8A9",
"-. c #ABBBB6",
";. c #A1B5BE",
":. c #B7B7B7",
">. c #B7B8B9",
",. c #C6AB83",
"<. c #D5BF94",
"1. c #D0BE9A",
"2. c #C7BBA2",
"3. c #DEC483",
"4. c #D9C981",
"5. c #DBC38C",
"6. c #D8C392",
"7. c #D4C698",
"8. c #CEC6AD",
"9. c #D2C4A4",
"0. c #D1C7A8",
"q. c #CBC6B4",
"w. c #CBCBB3",
"e. c #C8C7BC",
"r. c #C9C9BE",
"t. c #9FB4C1",
"y. c #A3B7C0",
"u. c #A5BAC4",
"i. c #A5BBC9",
"p. c #A8BEC9",
"a. c #ABC1CC",
"s. c #ADC4D0",
"d. c #B1C7D5",
"f. c #B2C9D6",
"g. c #BFCED5",
"h. c #B4CCDB",
"j. c #BFCFD9",
"k. c #BFD1D3",
"l. c #B7D0DE",
"z. c #BED1DC",
"x. c #BBD4E4",
"c. c #C5C7C1",
"v. c #C6CAC4",
"b. c #C8C9C0",
"n. c #C3CCCC",
"m. c #CACBCB",
"M. c #C1CED3",
"N. c #C1D0D6",
"B. c #C0D0D8",
"V. c #D1D2D2",
"C. c #DCDCDC",
"Z. c #ECECEC",
"A. c #F4F4F4",
"S. c #FFFFFF",
/* pixels */
"x.x.x.x.x.x.x.x.x.x.x.x.x.x.x.x.x.x.x.x.x.x.x.x.x.x.x.x.x.x.x.x.x.x.x.x.x.x.x.x.z.B.z.B.B.z.z.x.z.x.x.z.z.z.x.z.x.x.x.x.x.x.x.x.",
"x.x.x.x.x.x.x.x.x.x.x.x.x.x.x.x.x.x.x.x.x.x.x.x.x.x.x.x.x.x.x.x.x.x.x.x.x.x.x.x.B.N.M.M.M.N.B.z.z.z.z.B.z.j.z.z.x.z.x.x.x.x.x.x.",
"x.x.x.x.x.x.x.x.x.x.x.x.x.x.x.x.x.x.x.x.x.x.x.x.x.x.x.x.x.x.x.x.x.x.x.x.x.x.x.z.M.v.r.r.b.n.M.N.z.B.M.M.k.n.M.z.z.z.x.x.x.x.x.x.",
"x.x.x.x.x.x.x.x.x.x.x.x.x.x.x.x.x.x.x.x.x.x.x.x.x.x.x.x.x.x.x.x.x.x.x.x.x.x.z.M.r.0.6.T 3.q.n.M.N.M.n.v.b.c.m.M.z.z.l.x.x.x.x.x.",
"x.x.x.x.x.x.x.x.x.x.x.x.x.x.x.x.x.x.x.x.x.x.x.x.x.x.x.x.x.x.x.x.x.x.x.x.x.z.j.v.6.J P P D <.v.M.n.n.b.0.7.9.e.n.N.z.x.x.x.x.x.x.",
"x.x.x.x.x.x.x.x.x.x.x.x.x.x.x.x.x.x.x.x.x.x.x.x.x.x.x.x.x.x.x.x.x.x.x.x.z.z.N.b.T J L L Y 1.c.=.*._ ,.K R K 9.v.n.z.z.z.z.x.x.x.",
"x.x.x.x.x.x.x.x.x.x.x.x.x.x.x.x.x.x.x.x.x.x.x.x.x.x.x.x.x.x.x.x.x.z.x.z.z.z.g.n.0.9.0.2.q._ ' ' ` _ ,.K I K 7.b.N.B.z.x.x.x.x.x.",
"x.x.x.x.x.x.x.x.x.x.x.x.x.x.x.x.x.x.x.x.x.x.x.x.x.x.x.x.x.x.x.x.x.x.z.z.N.j.M.M.n.v.b.2._ _ ' ` ' ' ,.Z F A 2.n.M.z.z.x.x.x.x.x.",
"x.x.x.x.x.x.x.x.x.x.x.x.x.x.x.x.x.x.x.x.x.x.x.x.x.x.x.x.x.x.x.x.z.z.M.n.c.m.< @ @ ) ` ' ' _ _ _ [ [ :.b.e.e.v.M.M.z.z.x.x.x.x.x.",
"x.x.x.x.x.x.x.x.x.x.x.x.x.x.x.x.x.x.x.x.x.x.x.x.x.x.x.x.x.x.x.z.d.X.w 5 f d - # 8 *.` ' ,.1.5.0.v.n.n.m.n.n.M.M.z.z.x.x.x.x.x.x.",
"x.x.x.x.x.x.x.x.x.x.x.x.x.x.x.x.x.x.x.x.x.x.x.x.x.x.x.x.x.x.7   X % 2 g m h - # < &.) - 3 G K 5.v.n.M.M.M.M.M.B.j.z.x.z.x.x.x.x.",
"x.x.x.x.x.x.x.x.x.x.x.x.x.x.x.x.x.x.x.x.x.x.x.x.x.x.x.x.e       X % s l g 4 - # X X $ > d K H 9.v.M.z.j.j.B.n.n.j.z.x.x.x.x.x.x.",
"x.x.x.x.x.x.x.x.x.x.x.x.x.x.x.x.x.x.x.x.x.x.x.x.x.s.O           X % 4 4 , ; % X X X % , j H 5.w.n.g.z.z.z.N.8.7.b.z.x.x.x.x.x.x.",
"x.x.x.x.x.x.x.x.x.x.x.x.x.x.x.x.x.x.x.x.x.x.x.x.+               o X $ % $ @ X X   X # > k A w.v.N.z.z.z.z.j.9.3.q.z.z.x.x.x.x.x.",
"x.x.x.x.x.x.x.x.x.x.x.x.x.x.x.x.x.x.x.x.x.x.t.                  . . . X X X X o   X X % 2 > 9 g.z.z.x.z.x.g.e.5.b.z.x.x.x.x.x.x.",
"x.x.x.x.x.x.x.x.x.x.x.x.x.x.x.x.x.x.x.x.x.i                     o o .       o o     o X * $ X + z.z.z.z.z.z.j.g.z.x.x.x.x.x.x.x.",
"x.x.x.x.x.x.x.x.x.x.x.x.x.x.x.x.x.x.x.x.t                     o               O         . o . . X N.n.n.M.B.z.z.x.x.x.x.x.x.x.x.",
"x.x.x.x.x.x.x.x.x.x.x.x.x.x.x.x.x.x.x.E                     o o O o O O O O                 . o @ : 6.U v.B.x.x.x.x.x.x.x.x.x.x.",
"x.x.x.x.x.x.x.x.x.x.x.x.x.x.x.x.x.x.h.o               o o o o o O O O O O O O               o + @ , z Y e.M.z.x.x.x.x.x.x.x.x.x.",
"x.x.x.x.x.x.x.x.x.x.x.x.x.x.x.x.x.x.o o               o o O + O O O + O + O O O o o         o . @ 1 j U c.B.z.x.x.x.x.x.x.x.x.x.",
"x.x.x.x.x.x.x.x.x.x.x.x.x.x.x.x.x.u                 o O O + + + + + + + + + + X                 X ; s , n.h.z.x.x.x.x.x.x.x.x.x.",
"x.x.x.x.x.x.x.x.x.x.x.x.x.x.x.x.x.              o o O O + + + + & & & + + + + + + + + O   o     . @ # # X.z.x.x.x.x.x.x.x.x.x.x.",
"x.x.x.x.x.x.x.x.x.x.x.x.x.x.x.x.p               o O + + + + * + + + + * & & + + + + + o o o     o . . . O x.x.x.x.x.x.x.x.x.x.x.",
"x.x.x.x.x.x.x.x.x.x.x.x.x.x.x.x.                O O + + + + + + * & & & & & + + + + +   o             .   d.x.x.x.x.x.x.x.x.x.x.",
"x.x.x.x.x.x.x.x.x.x.x.x.x.x.x.h.            o O O + + + + * & & & & & & & & + * + + + O O o o           O 7 x.x.x.x.x.x.x.x.x.x.",
"x.x.x.x.x.x.x.x.x.x.x.x.x.x.x.u             O O + + & & & & & & & & & & & & & + + & & + + o o           o O x.x.x.x.x.x.x.x.x.x.",
"x.x.x.x.x.x.x.x.x.x.x.x.x.x.x.o           o O O + + + & & & & & & & & & & & & & & & & O + O o o         o   x.x.x.x.x.x.x.x.x.x.",
"x.x.x.x.x.x.x.x.x.x.x.x.x.x.x.            o O + + + & & & & & & & & & & & & & & & & & & + O o o             p.x.x.x.x.x.x.x.x.x.",
"x.x.x.x.x.x.x.x.x.x.x.x.x.x.x.o       { A.S.S.V.* + + & & & & & & & & & & & & & & & & + & o O o             i.x.x.x.x.x.x.x.x.x.",
"x.x.x.x.x.x.x.x.x.x.x.x.x.x.x.o       E S.S.S.S.S.a & & & & & & & & & & & & & & & & & + & o O o             O.x.x.x.x.x.x.x.x.x.",
"x.x.x.x.x.x.x.x.x.x.x.x.x.x.x.o           = A.S.S.S.C.& & & & & & & & & & & & & & & & & & o o o         o   O.x.x.x.x.x.x.x.x.x.",
"x.x.x.x.x.x.x.x.x.x.x.x.x.x.x.6           o & 7 S.S.S.%.& & & & & & & & & & & & & & & & & & o o         o o i.x.x.x.x.x.x.x.x.x.",
"x.x.x.x.x.x.x.x.x.x.x.x.x.x.x.            O + + & A.S.S.& & & & & & & & & & & & & & & & + + O O             i.x.x.x.x.x.x.x.x.x.",
"x.x.x.x.x.x.x.x.x.x.x.x.x.x.x.          o O O + + + S.S.Q & & & & & & & & & & & & & & + + O O o o           x.x.x.x.x.x.x.x.x.x.",
"x.x.x.x.x.x.x.x.x.x.x.x.x.x.x.6           O + + & + * m.* & & & & & & & & & & & & + + + + O O o             x.x.x.x.x.x.x.x.x.x.",
"x.x.x.x.x.x.x.x.x.x.x.x.x.x.x.a.        o O   + + * & & & & & & & & & & & * y Z.S.S.S.S.>.+ O             O x.x.x.x.x.x.x.x.x.x.",
"x.x.x.x.x.x.x.x.x.x.x.x.x.x.x.x.        o o O + + + * + & & & & & & & & C.S.S.S.S.S.S.S.S.S.:.            { x.x.x.x.x.x.x.x.x.x.",
"x.x.x.x.x.x.x.x.x.x.x.x.x.x.x.x.O           O + + + * A.! O & & & & & & V.S.S.A.S.S.S.S.S.S.S.S.          x.x.x.x.x.x.x.x.x.x.x.",
"x.x.x.x.x.x.x.x.x.x.x.x.x.x.x.x.s.      o   o O + + >.S.C.= V.= & & + & & * + + + + + + O + S.S.        7 x.x.x.x.x.x.x.x.x.x.x.",
"x.x.x.x.x.x.x.x.x.x.x.x.x.x.x.x.x.          o o + + S.S.m.S.S.S.& %.V.& & + & + + + + O O o             x.x.x.x.x.x.x.x.x.x.x.x.",
"x.x.x.x.x.x.x.x.x.x.x.x.x.x.x.x.x.h.        o o O O S.S.S.S.S.S.& S.S.+ + + + + + + O O   o       o o r x.x.x.x.x.x.x.x.x.x.x.x.",
"x.x.x.x.x.x.x.x.x.x.x.x.x.x.x.x.x.x.0         o O o * S.C.* C.S.S.S.S.& + + + + + + O o           o o x.x.x.x.x.x.x.x.x.x.x.x.x.",
"x.x.x.x.x.x.x.x.x.x.x.r.F 7.x.x.x.x.x.O         o o o + O + & S.S.S.= + + + + O O O o o             x.x.x.x.x.x.x.x.x.x.x.x.x.x.",
"x.x.x.x.x.x.x.x.x.x.c c S S S S 4.x.b c             o o O O O + + + + + + O O + O O o             O.x.x.x.x.x.x.x.x.x.x.x.x.x.x.",
"x.x.x.x.x.x.x.x.x.x.c c n S S S S S B c x o             O O   + O O + O O o O                   t.x.x.x.x.x.x.x.x.x.x.x.x.x.x.x.",
"x.x.x.x.x.x.x.x.x.x.N.c b S S B S S S B x v O       o         O o O o o   o     o             i.x.x.x.x.x.x.x.x.x.x.x.x.x.x.x.x.",
"x.x.x.x.x.x.x.x.x.x.x.c x c n n S S B B m f.f.q                 o     o o o               + x.x.x.x.x.x.x.x.x.x.x.x.x.x.x.x.x.x.",
"x.x.x.x.x.x.x.x.x.x.x.0.c c b B B n x b =.u.;.#.@.+                     o o             t.x.x.x.x.x.x.x.x.x.x.x.x.x.x.x.x.x.x.x.",
"x.x.x.x.x.x.x.x.x.x.x.x.x.v v c c c c $.X...| | ..| { *                       o   o #.h.h.h.h.x.x.x.x.x.x.x.x.x.x.x.x.x.x.x.x.x.",
"x.x.x.x.x.x.x.x.x.x.x.x.x.k.c c c c / | | } | } | | | | | W 0             o - h ] #.;.;.u.p.s.d.h.x.x.x.x.x.x.x.x.x.x.x.x.x.x.x.",
"x.x.x.x.x.x.x.x.x.x.x.x.l.s.-.( ~ | } | } } } } } } } } | | | | {  . .B x b S S ^  . . ...+.#.y.i.h.h.x.x.x.x.x.x.x.x.x.x.x.x.x.",
"x.x.x.x.x.x.x.x.x.x.x.x.f.a.+...| | } } } } } } } } } } } } } | | | | V B B S S / | | | |  . . .t.i.d.x.x.x.x.x.x.x.x.x.x.x.x.x.",
"x.x.x.x.x.x.x.x.x.x.l.l.a.@. .} | } } } } } } } } } } } } } } } } } } M B S S S B S S | | | |  .O.t.a.l.x.x.x.x.x.x.x.x.x.x.x.x.",
"x.x.x.x.x.x.x.x.x.x.x.h.a...} } } } } } } } } } } } } } } } } } } } } M n B S S S S S S N | | | } O.u.h.x.x.x.x.x.x.x.x.x.x.x.x.",
"x.x.x.x.x.x.x.x.x.x.x.f.u...} } } } } } } } } } } } } } } } } } } } } x c B B B B B S S B C } } } O.u.h.l.x.x.x.x.x.x.x.x.x.x.x.",
"x.x.x.x.x.x.x.x.x.x.l.h.u...} } | } } | } } } } } } } } } } } } } } | v c b B B B m S n c B } } } O.;.h.x.x.x.x.x.x.x.x.x.x.x.x.",
"x.x.x.x.x.x.x.x.x.x.x.h.u.@.| } | } } } } } } } } } } } } } } } } } } | c c c c c c c c c m | |  .O.t.h.x.x.x.x.x.x.x.x.x.x.x.x.",
"x.x.x.x.x.x.x.x.x.x.x.l.a.#...| | | } } } } } } } } } } } } } } } } } } C b c c c c c c B { |  ...#.s.h.x.x.x.x.x.x.x.x.x.x.x.x.",
"x.x.x.x.x.x.x.x.x.x.x.x.f.p.#...| | | | | | | | | | } } } | } | | | | | | | | } | | } } | |  . .@.a.x.x.x.x.x.x.x.x.x.x.x.x.x.x.",
"x.x.x.x.x.x.x.x.x.x.x.x.l.d.a.#.+... . .| | | | } | }  .} | } } | | | | | | | | | | | |  ...o.;.a.f.x.x.x.x.x.x.x.x.x.x.x.x.x.x.",
"x.x.x.x.x.x.x.x.x.x.x.x.x.x.h.a.u.;.@.@.O......... ... ...........................o.O...#.#.u.s.f.l.x.x.x.x.x.x.x.x.x.x.x.x.x.x.",
"x.x.x.x.x.x.x.x.x.x.x.x.x.x.x.x.h.h.a.a.a.u.y.#.;.;.;.y.#.;.y.y.;.;.y.;.y.y.u.y.u.u.a.a.s.f.l.x.x.x.x.x.x.x.x.x.x.x.x.x.x.x.x.x.",
"x.x.x.x.x.x.x.x.x.x.x.x.x.x.x.x.x.x.l.l.h.h.f.h.f.f.f.f.f.h.f.f.f.h.f.h.f.h.f.h.f.l.l.l.x.x.x.x.x.x.x.x.x.x.x.x.x.x.x.x.x.x.x.x.",
"x.x.x.x.x.x.x.x.x.x.x.x.x.x.x.x.x.x.x.x.x.x.x.x.x.x.x.x.x.x.x.x.x.x.x.x.x.x.x.x.x.x.x.x.x.x.x.x.x.x.x.x.x.x.x.x.x.x.x.x.x.x.x.x."
};
