/* XPM */
static char *result[] = {
/* columns rows colors chars-per-pixel */
"64 64 153 2 ",
"   c #232526",
".  c #282726",
"X  c #2B2926",
"o  c #252728",
"O  c #26292A",
"+  c #2A2C2D",
"@  c #322D26",
"#  c #392F26",
"$  c #393025",
"%  c #353228",
"&  c #2C2E30",
"*  c #2E3031",
"=  c #373835",
"-  c #393B3C",
";  c #433526",
":  c #4E3C26",
">  c #5B4326",
",  c #544028",
"<  c #644A25",
"1  c #755727",
"2  c #7B5B27",
"3  c #7C5F2F",
"4  c #3B3E40",
"5  c #3E4143",
"6  c #434547",
"7  c #454C51",
"8  c #4A5256",
"9  c #50595F",
"0  c #6C685D",
"q  c #626465",
"w  c #676A6A",
"e  c #79776E",
"r  c #626E75",
"t  c #6E7070",
"y  c #6D7579",
"u  c #767879",
"i  c #7B7C7D",
"p  c #957128",
"a  c #987629",
"s  c #A98A2F",
"d  c #B78F2B",
"f  c #B5982D",
"g  c #C1A32F",
"h  c #CEA631",
"j  c #C8A539",
"k  c #DCB132",
"l  c #D4B33A",
"z  c #E4B939",
"x  c #E9BE3E",
"c  c #DEBB4C",
"v  c #CEB353",
"b  c #DDBC50",
"n  c #D4B95B",
"m  c #E6BE44",
"M  c #E9BE40",
"N  c #E2BF5B",
"B  c #C4B46C",
"V  c #CFB67C",
"C  c #ECC141",
"Z  c #EEDA4F",
"A  c #EDC75E",
"S  c #EDCF5F",
"D  c #EAD152",
"F  c #F2D552",
"G  c #F1DE59",
"H  c #F5E555",
"J  c #F6EA56",
"K  c #F9EC53",
"L  c #FBF353",
"P  c #FDFB5A",
"I  c #E4C76E",
"U  c #E8C968",
"Y  c #EBD364",
"T  c #EFDD61",
"R  c #E3C372",
"E  c #E4CE76",
"W  c #E1CB7D",
"Q  c #858784",
"!  c #82919B",
"~  c #949595",
"^  c #98999A",
"/  c #99A59C",
"(  c #A6A98C",
")  c #B8AC88",
"_  c #A0A793",
"`  c #B8AB99",
"'  c #ACB29E",
"]  c #8999A5",
"[  c #8FA2A5",
"{  c #90A2A6",
"}  c #93A5AA",
"|  c #96A8AD",
" . c #91A5B0",
".. c #97AAB3",
"X. c #99ADB3",
"o. c #98ACB9",
"O. c #9CB0B7",
"+. c #9EB2BA",
"@. c #A9AAA4",
"#. c #ACAEAD",
"$. c #B2ACA4",
"%. c #AEB3AF",
"&. c #AAAFB1",
"*. c #ABB0B1",
"=. c #A1B5BE",
"-. c #AAB6BA",
";. c #B5B8B9",
":. c #C6AB83",
">. c #DBBF86",
",. c #C0AE92",
"<. c #DEC583",
"1. c #DFC881",
"2. c #DBC68C",
"3. c #D7C293",
"4. c #D9C592",
"5. c #D5C59E",
"6. c #CEC6AD",
"7. c #D2C5A3",
"8. c #D0C6A9",
"9. c #CCC7B4",
"0. c #CBC8B6",
"q. c #C7C7BE",
"w. c #CAC7BA",
"e. c #C7C8BE",
"r. c #C9C8BC",
"t. c #9FB4C0",
"y. c #A3B7C1",
"u. c #A5BAC4",
"i. c #A5BBC9",
"p. c #A8BEC9",
"a. c #ABC1CC",
"s. c #B1C4C4",
"d. c #ADC4D1",
"f. c #B0C7D5",
"g. c #B2C9D6",
"h. c #BFCFD5",
"j. c #B4CCDB",
"k. c #BDCFD9",
"l. c #B7D0DE",
"z. c #BED1DC",
"x. c #BBD4E4",
"c. c #C2C3C3",
"v. c #C6CAC4",
"b. c #C3CCCC",
"n. c #C1CED3",
"m. c #C0D0D7",
"M. c #C0D0D8",
"N. c gray82",
"B. c #DBDBDC",
"V. c #E4E4E4",
"C. c #EBEBEB",
"Z. c #F3F3F3",
"A. c #FFFFFF",
/* pixels */
"x.x.x.x.x.x.x.x.x.x.x.x.x.x.x.x.x.x.x.x.x.x.x.x.z.z.x.x.x.x.x.x.z.x.M.n.b.b.b.b.m.z.x.x.x.x.x.x.x.x.x.x.x.x.x.x.x.x.x.x.x.x.x.x.",
"x.x.x.x.x.x.x.x.x.x.x.x.x.x.x.x.x.x.x.x.x.x.x.z.z.z.z.z.z.x.x.x.z.z.n.v.8.7.9.b.m.z.z.x.x.z.z.x.z.x.x.x.x.x.x.x.x.x.x.x.x.x.x.x.",
"x.x.x.x.x.x.x.x.x.x.x.x.x.x.x.x.x.x.x.x.x.x.z.m.n.b.b.m.m.z.x.x.x.h.b.,.Z L N q.b.z.z.z.z.z.z.z.z.z.x.x.x.x.x.x.z.x.x.x.x.x.x.x.",
"x.x.x.x.x.x.x.x.x.x.x.x.x.x.x.x.x.x.x.x.z.z.m.v.r.6.6.0.m.M.z.l.z.;.$.) D L N q.n.M.z.n.b.b.b.b.m.z.x.z.x.x.z.z.x.z.z.x.x.x.x.x.",
"x.x.x.x.x.x.x.x.x.x.x.x.x.x.x.x.x.x.x.x.z.h.b.6.<.G G 3.v.z.z.x.#.#.$.` :.3.8.b.n.n.n.b.v.9.r.v.b.m.z.x.z.x.z.m.M.M.z.x.x.x.x.x.",
"x.x.x.x.x.x.x.x.x.x.x.x.x.x.x.x.x.x.x.x.z.m.r.1.H K T 5.v.k.x.&.#.#.#.n.v.v.v.n.m.m.n.v.>.F E 9.r.b.h.z.z.z.n.v.v.b.m.x.x.x.x.x.",
"x.x.x.x.x.x.x.x.x.x.x.x.x.x.x.x.x.x.x.x.x.m.8.E Y 1.8.r.b.n.z.*.&.;.x.n.n.n.n.n.M.M.n.r.W K L W 9.v.m.M.z.m.v.A I 9.b.z.x.x.x.x.",
"x.x.x.x.x.x.x.x.x.x.x.x.x.x.x.x.x.x.x.x.x.M.v.8.6.0.e.v.b.n.-.*.&.x.k.n.b.n.n.z.k.z.b.q.8.G P H 7.r.b.m.z.m.v.R Y 4.b.z.x.x.x.x.",
"x.x.x.x.x.x.x.x.x.x.x.x.x.x.x.x.x.x.x.x.x.x.z.m.b.b.v.0., ; @ Q O . @ @.9.w.b.k.x.M.n.v.9.4.K L 2.w.b.M.x.M.n.r.8.9.b.z.x.x.x.x.",
"x.x.x.x.x.x.x.x.x.x.x.x.x.x.x.x.x.x.x.x.x.z.x.z.m.b.0.V d < # X   X @ : U <.v.k.M.x.M.b.r.8.E J E 9.b.z.z.z.M.m.n.m.M.x.x.x.x.x.",
"x.x.x.x.x.x.x.x.x.x.x.x.x.x.x.x.x.x.x.x.x.x.x.z.z.b.5.l g < $ X . X # > Y <.v.M.z.x.x.n.b.r.7.E 1.r.m.M.x.x.x.x.M.z.z.x.x.x.x.x.",
"x.x.x.x.x.x.x.x.x.x.x.x.x.x.x.x.z.x.x.x.x.x.x.x.k.0 a f 2 : @ X   . @ : p 3 %.z.x.x.x.z.m.b.v.6.9.b.M.x.z.x.x.x.x.x.x.x.x.x.x.x.",
"x.x.x.x.x.x.x.x.x.x.x.M.z.M.M.M.z.l.x.x.x.x.a.O X $ p 1 : $ X     . X @ : ; @ . ! x.x.z.l.M.M.n.m.M.x.x.x.x.x.x.x.x.x.x.x.x.x.x.",
"x.x.x.x.x.x.x.x.z.z.M.m.m.b.m.M.z.z.x.x.x.&       X # $ X + . .       X @ X .       d.x.x.x.z.z.z.x.z.x.x.x.x.x.x.x.x.x.x.x.x.x.",
"x.x.x.x.x.x.x.x.x.M.n.v.r.9.w.b.h.k.x.+.            . . O .                           7 x.x.x.x.x.x.x.x.x.x.x.x.x.x.x.x.x.x.x.x.",
"x.x.x.x.x.x.x.x.M.m.b.w.2.F S r.h.k.y           .       o     o                         . x.x.x.x.x.x.x.x.x.x.x.x.x.x.x.x.x.x.x.",
"x.x.x.x.x.x.x.x.M.n.r.7.H L Y w.b.w . .                           o o o o                 o x.x.x.x.x.x.x.x.x.x.x.x.x.x.x.x.x.x.",
"x.x.x.x.x.x.x.x.n.b.8.E L J 4.e.Q X . .               O   O . O o o o o                   o O x.x.x.x.x.x.x.x.x.x.x.x.x.x.x.x.x.",
"x.x.x.x.x.x.x.x.m.b.7.G J W 6.q.$ X .             .     O O O O o o O O o   o o               5 x.x.x.x.x.x.x.x.x.x.x.x.x.x.x.x.",
"x.x.x.x.x.x.x.x.M.b.2.T W 8.r.; # X .               + O O O + O + O O O o o o o                 g.x.x.x.x.x.x.x.x.x.x.x.x.x.x.x.",
"x.x.x.x.x.x.x.x.z.b.W W 7.q.e + X .             O O + + + + + + & + O + O O O o                 o x.x.x.x.x.x.x.x.x.x.x.x.x.x.x.",
"x.x.x.x.x.x.x.x.x.n.9.w.v.n.@ O . .         o O + + + + + + & & & + + & & O O O                   o.x.x.x.x.x.x.x.x.x.x.x.x.x.x.",
"x.x.x.x.x.x.x.x.x.z.z.z.k.y o             O O O + + + * * + & + & + + & O & & o o o                 x.x.x.x.x.x.x.x.x.x.x.x.x.x.",
"x.x.x.x.x.x.x.x.x.x.x.x.x..         o   o O O + + + & + + * & & & & + & & & + & o o                 f.x.x.x.x.x.x.x.x.x.x.x.x.x.",
"x.x.x.x.x.x.x.x.x.x.x.x.f.            o O O + + + * + * & & & & & & & & & & + + O O O o o       o o 5 x.x.x.x.x.x.x.x.x.x.x.x.x.",
"x.x.x.x.x.x.x.x.x.x.x.x.r             o   + + + & + & & & & & & & & & & & & & + + O O o           o O x.x.x.x.x.x.x.x.x.x.x.x.x.",
"x.x.x.x.x.x.x.x.x.x.x.x.          o o o + + + & + & & & & & & & & & & & & & & & + + O O o o         O x.x.x.x.x.x.x.x.x.x.x.x.x.",
"x.x.x.x.x.x.x.x.x.x.x.x.            o O + + * + & & & & & & & & & & & & & & & & + + O O o           O l.x.x.x.x.x.x.x.x.x.x.x.x.",
"x.x.x.x.x.x.x.x.x.x.x.x.& +           + + + + * & & & & & & & & & & & & & & & & + + + O               i.x.x.x.x.x.x.x.x.x.x.x.x.",
"x.x.x.x.x.x.x.x.x.x.x.x.o o       o + + + + + & & & & & & & & & & & & & & & & & + + O O               t.x.x.x.x.x.x.x.x.x.x.x.x.",
"x.x.x.x.x.x.x.x.x.x.x.x.o           O X + + + & & & & & & & & & & & & & & & & & + + O o                .x.x.x.x.x.x.x.x.x.x.x.x.",
"x.x.x.x.x.x.x.x.x.x.x.x.          & w { A.c.+ & & & & & & & & & & & & & & & & & B.A.A.A.Z.!           t.x.x.x.x.x.x.x.x.x.x.x.x.",
"x.x.x.x.x.x.x.x.x.x.x.x.        * A.A.A.A.A.A.A.6 & & & & & & & & & & & & 5 A.A.A.A.A.A.A.A.          i.x.x.x.x.x.x.x.x.x.x.x.x.",
"x.x.x.x.x.x.x.x.x.x.x.x.        . Z.A.A.A.A.A.A.A.A.~ & & & & & & & & & A.A.A.A.A.A.A.#.q *           x.x.x.x.x.x.x.x.x.x.x.x.x.",
"x.x.x.x.x.x.x.x.x.x.x.x.4       .   O + + q A.A.A.A.A.u & & & & & & & V.A.A.A.A.7 + O O O             x.x.x.x.x.x.x.x.x.x.x.x.x.",
"x.x.x.x.x.x.x.x.x.x.x.x.t.        o O O + + + 5 A.A.A.Z.& & & & & & & B.A.A.- + + + O O             O x.x.x.x.x.x.x.x.x.x.x.x.x.",
"x.x.x.x.x.x.x.x.x.x.x.x.x.o         o O + + + + + - i * & & & & & & & = ;.* & O + + O o             ] x.x.x.x.x.x.x.x.x.x.x.x.x.",
"x.x.x.x.x.x.x.x.x.x.x.x.x.O         o O + + + + & & & & & & & & & & & & & & & * + O O O             x.x.x.x.x.x.x.x.x.x.x.x.x.x.",
"x.x.x.x.x.x.x.x.x.x.x.x.x.f.  o     o o + O + & + & & & & & & & & & * + * + + O O O o             5 x.x.x.x.x.x.x.x.x.x.x.x.x.x.",
"x.x.x.x.x.x.x.x.x.x.x.x.x.x.o o       o O + + + & & + & & & & & & & + * + & + + O o o             x.x.x.x.x.x.x.x.x.x.x.x.x.x.x.",
"x.x.x.x.x.x.x.x.x.x.x.x.x.x.l.o         O O O + + + & i C.* ^ A.t 5 A.u & O O O O O o           r x.x.x.x.x.x.x.x.x.x.x.x.x.x.x.",
"x.x.x.x.x.x.x.x.x.x.x.x.x.x.x.8           O O O + & + Z.A.w A.A.A.V.A.y + & & O o               x.x.x.x.x.x.x.x.x.x.x.x.x.x.x.x.",
"x.x.x.x.x.x.x.x.x.x.x.x.x.x.x.x.o         O O O O O + 5 A.A.A.B.A.A.A.+ O O O o               l.x.x.x.x.x.x.x.x.x.x.x.x.x.x.x.x.",
"x.x.x.x.x.x.x.x.x.x.x.x.x.x.x.x.x.              O O O O N.A.C.O C.A.Z.O O o O o             o.x.x.x.x.x.x.x.x.x.x.x.x.x.x.x.x.x.",
"x.x.x.x.x.x.x.x.x.x.x.x.x.x.x.x.x.x.              o O O O O O O O O O O         O         o.x.x.x.x.x.x.x.x.x.x.x.x.x.x.x.x.x.x.",
"x.x.x.x.x.x.x.x.x.x.x.x.x.x.x.x.x.x.x.O               o o O O o O O O     .             i.x.x.x.x.x.x.x.x.x.x.x.x.x.x.x.x.x.x.x.",
"x.x.x.x.x.x.x.x.x.x.x.x.x.x.x.x.x.x.x.l.9             o   o     O                   + x.x.x.x.x.x.x.x.x.x.x.x.x.x.x.x.x.x.x.x.x.",
"x.x.x.x.x.x.x.x.x.x.x.x.x.x.x.x.x.j.d.d.i.t.O                                     t.x.x.x.x.x.x.x.x.x.x.x.x.x.x.x.x.x.x.x.x.x.x.",
"x.x.x.x.x.x.x.x.x.x.x.x.x.x.x.l.a.p.+.O.| | v h %                           o j s.f.g.j.j.j.x.x.x.x.x.x.x.x.x.x.x.x.x.x.x.x.x.x.",
"x.x.x.x.x.x.x.x.x.x.x.x.x.x.j.i.+...} { [ { C k k k g 8 o O           = s k k k ' +.+.+.t.a.a.g.x.x.x.x.x.x.x.x.x.x.x.x.x.x.x.x.",
"x.x.x.x.x.x.x.x.x.x.x.x.l.f.i.t.} { / { [ [ M C z k k [ { [ [ [ [ [ } m k k C C _ | | | | X.O.+.i.j.x.x.x.x.x.x.x.x.x.x.x.x.x.x.",
"x.x.x.x.x.x.x.x.x.x.x.x.g.t.o.] [ [ [ { / ) x C C C C [ [ [ [ } [ [ [ C C C C C ( [ [ } [ [ | | t.i.j.l.x.x.x.x.x.x.x.x.x.x.x.x.",
"x.x.x.x.x.x.x.x.x.x.x.l.a.+. .[ [ / C C C C C C C C C [ [ [ [ [ [ [ [ n C C C C C C C [ [ [ [ }  .t.d.l.x.x.x.x.x.x.x.x.x.x.x.x.",
"x.x.x.x.x.x.x.x.x.x.x.g.i. . .[ [ C C C C C C C C C C [ [ [ [ [ [ [ [ n C C C C C C C C C [ [ [  .o.u.j.x.x.x.x.x.x.x.x.x.x.x.x.",
"x.x.x.x.x.x.x.x.x.x.x.g.u.| [ [ b C C C C C C C C C C [ [ [ [ [ [ [ [ k k C C C C C C C C B [ [ [  .u.g.x.x.x.x.x.x.x.x.x.x.x.x.",
"x.x.x.x.x.x.x.x.x.x.l.g.u.| [ [ k k M C C C C C C z k [ [ [ [ [ [ [ [ l k k C x C C C x k C [ [ [  .u.g.x.x.x.x.x.x.x.x.x.x.x.x.",
"x.x.x.x.x.x.x.x.x.x.x.j.i.X.[ [ z k k k k k k k k k k [ [ [ [ [ [ [ [ { k k k k k k k k k x [ [  .o.i.j.x.x.x.x.x.x.x.x.x.x.x.x.",
"x.x.x.x.x.x.x.x.x.x.x.l.d.+.| [ / c k k k k k k k k / [ [ [ [ [ [ [ [ [ B z k k k l k k x [ [ [  .t.i.l.x.x.x.x.x.x.x.x.x.x.x.x.",
"x.x.x.x.x.x.x.x.x.x.x.x.g.p.+.| { { [ [ [ [ [ [ [ [ [ { { { { [ [ [ [ [ { { [ { [ [ [ [ [ [ } | o.i.x.x.x.x.x.x.x.x.x.x.x.x.x.x.",
"x.x.x.x.x.x.x.x.x.x.x.x.x.g.p.+.X.| } [ [ } { { [ [ { { [ { { [ [ [ } [ } { { { } [ } [ } | X.+.i.g.x.x.x.x.x.x.x.x.x.x.x.x.x.x.",
"x.x.x.x.x.x.x.x.x.x.x.x.x.l.l.d.u.+.O.O.| } | | | | | | | | | | | | | | | | | | | | X.X.O.=.i.d.j.x.x.x.x.x.x.x.x.x.x.x.x.x.x.x.",
"x.x.x.x.x.x.x.x.x.x.x.x.x.x.x.l.l.g.d.a.a.a.=.+.t.=.+.+.+.+.y.=.=.=.=.=.=.y.y.y.u.u.i.a.d.g.l.l.x.x.x.x.x.x.x.x.x.x.x.x.x.x.x.x.",
"x.x.x.x.x.x.x.x.x.x.x.x.x.x.x.x.x.x.x.l.l.g.g.j.f.j.j.g.g.j.g.g.j.j.g.j.g.j.j.j.g.l.l.l.x.x.x.x.x.x.x.x.x.x.x.x.x.x.x.x.x.x.x.x.",
"x.x.x.x.x.x.x.x.x.x.x.x.x.x.x.x.x.x.x.x.x.x.x.x.x.x.x.x.x.x.x.x.x.x.x.x.x.x.x.x.x.x.x.x.x.x.x.x.x.x.x.x.x.x.x.x.x.x.x.x.x.x.x.x."
};
