/* XPM */
static char *result[] = {
/* columns rows colors chars-per-pixel */
"64 64 160 2 ",
"   c #232526",
".  c #282726",
"X  c #2B2926",
"o  c #252728",
"O  c #26292A",
"+  c #2A2C2D",
"@  c #332D26",
"#  c #3B3225",
"$  c #373128",
"%  c #3F3A28",
"&  c #2C2E30",
"*  c #2F3132",
"=  c #343638",
"-  c #3B3C3D",
";  c #423626",
":  c #4F3D27",
">  c #4B443A",
",  c #735526",
"<  c #383D40",
"1  c #3D4346",
"2  c #534B40",
"3  c #4B5357",
"4  c #4E575D",
"5  c #505455",
"6  c #686054",
"7  c #596265",
"8  c #5D686F",
"9  c #636566",
"0  c #626E75",
"q  c #66737A",
"w  c #69757E",
"e  c #767878",
"r  c #846427",
"t  c #8B6A28",
"y  c #9A7C3F",
"u  c #AA8B2C",
"i  c #AA8B31",
"p  c #D9AF32",
"a  c #DCB133",
"s  c #D7B03B",
"d  c #E4B93A",
"f  c #EABE3E",
"g  c #D4B95B",
"h  c #E6BE43",
"j  c #E9BE40",
"k  c #E1BD4E",
"l  c #D5AD6B",
"z  c #C4B46C",
"x  c #DEB662",
"c  c #C4A676",
"v  c #ECC141",
"b  c #F0D44B",
"n  c #EED059",
"m  c #EED85F",
"M  c #F2D553",
"N  c #F0DC5C",
"B  c #F8E64F",
"V  c #F5E355",
"C  c #F6E954",
"Z  c #F9EE53",
"A  c #F1E15C",
"S  c #FCF453",
"D  c #FCF659",
"F  c #FDFA5C",
"G  c #E7CC6E",
"H  c #EDD763",
"J  c #EDDA64",
"K  c #E9D36B",
"L  c #EAD869",
"P  c #E5CE73",
"I  c #E0C37F",
"U  c #E2CB7C",
"Y  c #E7D270",
"T  c #FEFD65",
"R  c #798893",
"E  c #838686",
"W  c #849499",
"Q  c #909192",
"!  c #9B9C9C",
"~  c #9FA897",
"^  c #9FA99A",
"/  c #A8AA8A",
"(  c #B5B48D",
")  c #A3A49D",
"_  c #BCAB92",
"`  c #B6AC9D",
"'  c #ACB29E",
"]  c #8A9BA3",
"[  c #8FA2A5",
"{  c #90A2A6",
"}  c #93A5AA",
"|  c #96A8AD",
" . c #91A5B0",
".. c #97AAB3",
"X. c #99ADB3",
"o. c #98ACB8",
"O. c #9CB0B7",
"+. c #9EB2BA",
"@. c #A1AFA7",
"#. c #AFADA6",
"$. c #A1AAAB",
"%. c #ADAEAB",
"&. c #B2ADA3",
"*. c #B0AEA8",
"=. c #B2B2AC",
"-. c #B4BEAC",
";. c #A1B5BE",
":. c #B7B7B7",
">. c #BDBDB7",
",. c #B7B7B8",
"<. c #B5BABA",
"1. c #B9BFBC",
"2. c #C2AB8A",
"3. c #CDB180",
"4. c #BDC0BC",
"5. c #DEC383",
"6. c #DDC982",
"7. c #DAC38D",
"8. c #D6C295",
"9. c #D9C592",
"0. c #D5C49C",
"q. c #D2CB98",
"w. c #E0CB81",
"e. c #CEC6AC",
"r. c #D2C4A2",
"t. c #D0C6A9",
"y. c #CCC6B4",
"u. c #CBC9B6",
"i. c #C6C6BC",
"p. c #CAC7BA",
"a. c #C7C8BE",
"s. c #C9C9BC",
"d. c #9FB4C1",
"f. c #A3B7C0",
"g. c #A5BAC4",
"h. c #A5BBC9",
"j. c #A8BEC9",
"k. c #ABC1CC",
"l. c #B6C5C7",
"z. c #BAC7CE",
"x. c #ADC4D0",
"c. c #B1C7D4",
"v. c #B2C9D6",
"b. c #BFCFD6",
"n. c #B4CCDB",
"m. c #BFD1D3",
"M. c #B7D0DE",
"N. c #BED1DC",
"B. c #BBD4E4",
"V. c #C6CAC4",
"C. c #C8C9C0",
"Z. c #C3CCCB",
"A. c #CACBCB",
"S. c #C1CED3",
"D. c #C0D0D7",
"F. c #D1D2D2",
"G. c #DCDCDC",
"H. c #ECECEC",
"J. c #F4F4F4",
"K. c #FFFFFF",
/* pixels */
"B.B.B.B.B.B.B.B.B.B.B.B.B.B.B.B.B.B.B.B.B.B.B.B.B.B.B.B.m.m.Z.V.V.A.V.V.Z.S.D.N.N.B.B.N.B.B.B.B.B.B.B.N.B.B.B.B.N.D.S.S.Z.S.D.N.",
"B.B.B.B.B.B.B.B.B.B.B.B.B.B.B.B.B.B.B.B.B.B.B.B.B.B.B.D.S.Z.V.a.u.y.u.p.V.Z.S.N.N.B.B.B.B.B.B.B.B.B.B.N.N.B.N.N.N.Z.C.y.y.a.Z.S.",
"B.B.B.B.B.B.B.B.B.B.B.B.B.B.B.B.B.B.B.B.B.B.B.B.B.N.N.S.Z.V.u.t.r.0.8.r.y.V.Z.S.D.N.D.B.B.B.B.B.B.M.N.D.S.S.N.S.S.p.9.K L w.r.V.",
"B.B.B.B.B.B.B.B.B.B.B.B.B.B.B.B.B.B.B.B.B.B.B.B.B.B.D.S.V.u.r.U A S S M 7.V.Z.Z.D.D.D.D.N.N.N.B.N.N.Z.C.s.V.Z.S.Z.y.n Z C N U y.",
"B.B.B.B.B.B.B.B.B.B.B.B.B.B.B.B.B.B.B.B.B.B.B.B.N.N.D.Z.a.r.J D T T F B 5.a.V.Z.A.Z.V.V.Z.N.N.B.N.D.i.3.Y r.V.Z.Z.p.5.P w.9.0.V.",
"B.B.B.B.B.B.B.B.B.B.B.B.B.B.B.B.B.B.B.B.B.B.B.B.B.N.D.V.s.7.Z F F D Z K 0.a.V.V.C.t.9.w.t.S.b.<.*.&.2.M D x a.S.D.Z.C.a.p.s.Z.S.",
"B.B.B.B.B.B.B.B.B.B.B.B.B.B.B.B.B.B.B.B.B.B.B.B.B.N.D.S.a.0.Y J L w.q.t.p.V.V.V.r.Y A N 3.=.*.#.&.&.2.x b l V.D.D.D.S.Z.S.S.D.D.",
"B.B.B.B.B.B.B.B.B.B.B.B.B.B.B.B.B.B.B.B.B.B.B.B.B.N.N.S.A.u.e.t.t.t.e.p.C.V.Z.a.P L P 3.2.&.#.#.*.&.` 2.2.2.>.D.N.N.N.N.N.N.N.B.",
"B.B.B.B.B.B.B.B.B.B.B.B.B.B.B.B.B.B.B.B.B.B.B.B.B.B.B.D.S.V.a.p.p.p.i.a.Z.m.> : r c 2._ ` &.*.*.%.:.1.S.S.S.N.D.N.N.N.B.B.N.B.B.",
"B.B.B.B.B.B.B.B.B.B.B.B.B.B.B.B.B.B.B.B.B.B.B.B.B.N.B.D.D.S.Z.Z.4.#.6 > % @ X @ > ` ` &.&.z.b.N.N.D.D.N.D.N.N.S.b.N.B.N.B.B.B.B.",
"B.B.B.B.B.B.B.B.B.B.B.B.B.B.B.B.B.B.B.B.B.B.B.B.B.B.N.B.N.D.2 @ # # $ @ @ X . . - #.) X X k.b.V.V.Z.D.N.B.N.B.Z.8.i.N.B.B.B.B.B.",
"B.B.B.B.B.B.B.B.B.B.B.B.B.B.B.B.B.B.B.B.B.B.B.B.B.B.B.B.7 O X X X @ X X X . . . .     . X E i.9.5.a.S.N.N.B.D.V.7.e.N.B.B.B.B.B.",
"B.B.B.B.B.B.B.B.B.B.B.B.B.B.B.B.B.B.B.B.B.B.B.B.B.x.O       . X . . . . . .           . X <.e.m H y.Z.N.B.B.N.S.t.V.D.B.B.B.B.B.",
"B.B.B.B.B.B.B.B.B.B.B.B.B.B.B.B.B.B.B.B.B.B.B.B.+                 .   .                 X 4.8.C H e.Z.N.N.B.B.N.N.D.B.B.B.B.B.B.",
"B.B.B.B.B.B.B.B.B.B.B.B.B.B.B.B.B.B.B.B.B.B.d.                                        . @ ; y A 6.u.D.m.B.B.B.B.B.B.B.B.B.B.B.B.",
"B.B.B.B.B.B.B.B.B.B.B.B.B.B.B.B.B.B.B.B.B.q                   o   .                   . X % t u r.V.b.N.N.b.D.N.N.N.B.B.B.B.B.B.",
"B.B.B.B.B.B.B.B.B.B.B.B.B.B.B.B.B.B.B.B.8                         o o o                 . @ , r : D.D.D.N.S.Z.b.b.N.N.B.B.B.B.B.",
"B.B.B.B.B.B.B.B.B.B.B.B.B.B.B.B.B.B.B.R                     o o o O o O o o O             X @ % @ X B.D.Z.p.0.y.S.b.N.B.B.B.B.B.",
"B.B.B.B.B.B.B.B.B.B.B.B.B.B.B.B.B.B.n.            o   o o o o O O O O O O O O O           .     . . 5 D.V.7.M 5.Z.b.N.B.B.B.B.B.",
"B.B.B.B.B.B.B.B.B.B.B.B.B.B.B.B.B.B.o o               o o o O O O O O + O O O O O o               . O l.V.I V 5.V.S.N.B.B.B.B.B.",
"B.B.B.B.B.B.B.B.B.B.B.B.B.B.B.B.B.0               o o O O O + + & O & + & + X O O O O o             X @ V.0.G r.Z.D.N.B.B.B.B.B.",
"B.B.B.B.B.B.B.B.B.B.B.B.B.B.B.B.B.                o O O + + + + & & + & + + * + O O O O               X $.a.t.V.S.D.B.B.B.B.B.B.",
"B.B.B.B.B.B.B.B.B.B.B.B.B.B.B.B.w               O O O + + + * + & & & + + + & + + + O O o o           . X S.S.S.D.B.B.B.B.B.B.B.",
"B.B.B.B.B.B.B.B.B.B.B.B.B.B.B.B.                O O + + + * + & & & & & * + & & + + O O o             . X c.N.B.N.B.B.B.B.B.B.B.",
"B.B.B.B.B.B.B.B.B.B.B.B.B.B.B.n.            o o O O * + + & & & & & & & & & + & & + O O O O o o         o 1 B.B.B.B.B.B.B.B.B.B.",
"B.B.B.B.B.B.B.B.B.B.B.B.B.B.B.0         o o o o O * O * & & & & & & & & & & & & * O & + O O o               B.B.B.B.B.B.B.B.B.B.",
"B.B.B.B.B.B.B.B.B.B.B.B.B.B.B.o         o o O O O * * & & & & & & & & & & & & & & & & & & O o o             B.B.B.B.B.B.B.B.B.B.",
"B.B.B.B.B.B.B.B.B.B.B.B.B.B.B.o           o O O * O & & & & & & & & & & & & & & & & + + + O O o             x.B.B.B.B.B.B.B.B.B.",
"B.B.B.B.B.B.B.B.B.B.B.B.B.B.B.o       ] J.K.K.F.* O & & & & & & & & & & & & & & & & & + + + O o             h.B.B.B.B.B.B.B.B.B.",
"B.B.B.B.B.B.B.B.B.B.B.B.B.B.B.o       R K.K.K.K.K.e & & & & & & & & & & & & & & & & & & + O o o             o.B.B.B.B.B.B.B.B.B.",
"B.B.B.B.B.B.B.B.B.B.B.B.B.B.B.o           < J.K.K.K.G.& & & & & & & & & & & & & & & & + + + o o             ..B.B.B.B.B.B.B.B.B.",
"B.B.B.B.B.B.B.B.B.B.B.B.B.B.B.<           o + 1 K.K.K.%.& & & & & & & & & & & & & & & & + O o             o h.B.B.B.B.B.B.B.B.B.",
"B.B.B.B.B.B.B.B.B.B.B.B.B.B.B.          O O + + & J.K.K.& & & & & & & & & & & & & & & & + + O O o           h.B.B.B.B.B.B.B.B.B.",
"B.B.B.B.B.B.B.B.B.B.B.B.B.B.B.          o O O + + + K.K.Q & & & & & & & & & & & & & & + + O O o   o         B.B.B.B.B.B.B.B.B.B.",
"B.B.B.B.B.B.B.B.B.B.B.B.B.B.B.1         o O O + & + * A.* & & & & & & & & & & & & + + + + O O o             B.B.B.B.B.B.B.B.B.B.",
"B.B.B.B.B.B.B.B.B.B.B.B.B.B.B.h.        o O O + + * & & & & & & & & & & & * 9 H.K.K.K.K.<.O O o           + B.B.B.B.B.B.B.B.B.B.",
"B.B.B.B.B.B.B.B.B.B.B.B.B.B.B.B.          O O + + & + * & & & & & & & & G.K.K.K.K.K.K.K.K.K.,.            ] B.B.B.B.B.B.B.B.B.B.",
"B.B.B.B.B.B.B.B.B.B.B.B.B.B.B.B.O         O O O + + & J.! * & & & & & & F.K.K.J.K.K.K.K.K.K.K.K.          B.B.B.B.B.B.B.B.B.B.B.",
"B.B.B.B.B.B.B.B.B.B.B.B.B.B.B.B.x.          O O + + <.K.G.= F.= & & + & & * + + * + * O o O K.K.        < B.B.B.B.B.B.B.B.B.B.B.",
"B.B.B.B.B.B.B.B.B.B.B.B.B.B.B.B.B.o         O O O O K.K.A.K.K.K.& %.F.& & + & + O * O O O o             B.B.B.B.B.B.B.B.B.B.B.B.",
"B.B.B.B.B.B.B.B.B.B.B.B.B.B.B.B.B.n.          o O O K.K.K.K.K.K.& K.K.& & + & & + + O O o o         o 8 B.B.B.B.B.B.B.B.B.B.B.B.",
"B.B.B.B.B.B.B.B.B.B.B.B.B.B.B.B.B.B.3 o       o o o * K.G.* G.K.K.K.K.+ & + + O + O O O           o o B.B.B.B.B.B.B.B.B.B.B.B.B.",
"B.B.B.B.B.B.B.B.B.B.B.a.n q.B.B.B.B.B.O         o o O O O + * K.K.K.- + + + + O O O o o             B.B.B.B.B.B.B.B.B.B.B.B.B.B.",
"B.B.B.B.B.B.B.B.B.B.a a v v v v 6.B.d p         o o o o O O O O + + O + + O O O O o o o           d.B.B.B.B.B.B.B.B.B.B.B.B.B.B.",
"B.B.B.B.B.B.B.B.B.B.a a d v v v v v v a p         o     o O O O O O O O O O O o o               d.B.B.B.B.B.B.B.B.B.B.B.B.B.B.B.",
"B.B.B.B.B.B.B.B.B.B.D.a a v v v v v v f p s O               o O o O O   . O       o         o h.n.M.B.B.B.B.B.B.B.B.B.B.B.B.B.B.",
"B.B.B.B.B.B.B.B.B.B.B.a a a v v v v v v v v.n.4         o     o   o o o o o   o           O B.B.B.B.B.B.B.B.B.B.B.B.B.B.B.B.B.B.",
"B.B.B.B.B.B.B.B.B.B.B.e.a a a v v d a d -.f.;.+.O.O                                     d.B.B.B.B.B.B.B.B.B.B.B.B.B.B.B.B.B.B.B.",
"B.B.B.B.B.B.B.B.B.B.B.B.B.s a a a a a @.| |  .[ } } W *                         o O O.v.n.n.M.B.B.B.B.B.B.B.B.B.B.B.B.B.B.B.B.B.",
"B.B.B.B.B.B.B.B.B.B.B.B.B.M.a a a a / { { { ] ^ [ [ { } { W 3 O             % i ' +.+.;.f.j.x.v.n.B.B.B.B.B.B.B.B.B.B.B.B.B.B.B.",
"B.B.B.B.B.B.B.B.B.B.B.B.M.v.4.( ~ { [ { { [ [ [ [ [ [ [ { { { { [ { { h a a v v ^ } } | ..X.O.f.h.n.M.B.B.B.B.B.B.B.B.B.B.B.B.B.",
"B.B.B.B.B.B.B.B.B.B.B.B.v.g.X.[ { { [ [ { { [ [ [ [ [ [ [ [ [ [ { [ { k v v v v / [ } [ { [ } ..d.h.c.B.B.B.B.B.B.B.B.B.B.B.B.B.",
"B.B.B.B.B.B.B.B.B.B.B.M.k.+. .[ { [ [ [ [ [ [ [ [ [ [ [ [ [ [ [ [ [ [ g v v v v v v v { [ [ [ [  .d.x.n.B.B.B.B.B.B.B.B.B.B.B.B.",
"B.B.B.B.B.B.B.B.B.B.B.v.g...[ [ [ [ [ [ [ [ [ [ [ [ [ [ [ [ [ [ [ [ [ g f v v v v v v v v [ [ [  .o.k.v.B.B.B.B.B.B.B.B.B.B.B.B.",
"B.B.B.B.B.B.B.B.B.B.B.v.f.| [ [ [ [ [ [ [ [ [ [ [ [ [ [ [ [ [ [ [ [ [ a a v v v v v v v v z [ { [  .g.v.B.B.B.B.B.B.B.B.B.B.B.B.",
"B.B.B.B.B.B.B.B.B.B.M.v.g.X.[ [ { [ [ { [ [ [ [ [ [ [ [ [ [ [ [ [ [ [ s a a v j v v v f a v [ { [  .f.v.B.B.B.B.B.B.B.B.B.B.B.B.",
"B.B.B.B.B.B.B.B.B.B.B.n.g.X.[ [ [ [ [ [ [ [ [ [ [ [ [ [ [ [ [ [ [ [ [ { a a a a a a a a a v [ {  . .h.n.B.B.B.B.B.B.B.B.B.B.B.B.",
"B.B.B.B.B.B.B.B.B.B.B.M.x.+.| } { { [ [ [ [ [ [ [ [ [ [ [ [ [ [ [ [ [ [ z d a a a a a a h [ { {  .d.x.M.B.B.B.B.B.B.B.B.B.B.B.B.",
"B.B.B.B.B.B.B.B.B.B.B.B.v.k.O.| { { [ [ { [ [ { { [ { { { { [ { [ { [ [ { { [ { [ [ [ [ { [ { | X.k.M.B.B.B.B.B.B.B.B.B.B.B.B.B.",
"B.B.B.B.B.B.B.B.B.B.B.B.M.v.k.+.X.| } { } { { { { { [ { { [ { [ { { } { { { { { [ [ } [ } | X.+.g.v.B.B.B.B.B.B.B.B.B.B.B.B.B.B.",
"B.B.B.B.B.B.B.B.B.B.B.B.B.M.M.x.k.+.O.O.| } | | | | | | | | | | | | | | | | | | | ..X.| +.+.k.x.v.B.B.B.B.B.B.B.B.B.B.B.B.B.B.B.",
"B.B.B.B.B.B.B.B.B.B.B.B.B.B.B.M.v.v.x.k.k.k.;.+.;.+.+.;.+.f.f.d.;.;.f.;.f.f.f.f.g.g.k.k.x.v.v.B.B.B.B.B.B.B.B.B.B.B.B.B.B.B.B.B.",
"B.B.B.B.B.B.B.B.B.B.B.B.B.B.B.B.B.B.B.M.M.v.v.M.v.v.v.v.n.v.n.v.v.v.n.v.n.n.n.n.v.M.M.M.B.B.B.B.B.B.B.B.B.B.B.B.B.B.B.B.B.B.B.B.",
"B.B.B.B.B.B.B.B.B.B.B.B.B.B.B.B.B.B.B.B.B.B.B.B.B.B.B.B.B.B.B.B.B.B.M.B.B.B.B.B.B.B.B.B.B.B.B.B.B.B.B.B.B.B.B.B.B.B.B.B.B.B.B.B."
};
