/* XPM */
static char *result[] = {
/* columns rows colors chars-per-pixel */
"64 64 163 2 ",
"   c #232526",
".  c #282726",
"X  c #272827",
"o  c #2C2A26",
"O  c #252728",
"+  c #26292A",
"@  c #2A2C2D",
"#  c #332D26",
"$  c #322E28",
"%  c #3C3226",
"&  c #33322B",
"*  c #383028",
"=  c #2C2E30",
"-  c #2F3032",
";  c #313334",
":  c #343638",
">  c #36393A",
",  c #423526",
"<  c #463827",
"1  c #4C3B26",
"2  c #513E26",
"3  c #544025",
"4  c #5B4426",
"5  c #654C26",
"6  c #725527",
"7  c #785927",
"8  c #7A5C2B",
"9  c #634E30",
"0  c #635239",
"q  c #7F6027",
"w  c #383D40",
"e  c #3E4143",
"r  c #414244",
"t  c #43474A",
"y  c #4C4E4F",
"u  c #4D4F50",
"i  c #4D5154",
"p  c #585B5C",
"a  c #535D63",
"s  c #5D686F",
"d  c #626465",
"f  c #656768",
"g  c #70706B",
"h  c #626E75",
"j  c #66737A",
"k  c #69757E",
"l  c #747577",
"z  c #876728",
"x  c #906A27",
"c  c #9B7A29",
"v  c #A17728",
"b  c #867C68",
"n  c #B08F2F",
"m  c #B7982F",
"M  c #C59F31",
"N  c #CDAF30",
"B  c #D5AB32",
"V  c #DCB132",
"C  c #DCB43B",
"Z  c #E4B939",
"A  c #E5BA3A",
"S  c #D6C236",
"D  c #D9C235",
"F  c #E1D03B",
"G  c #BDA553",
"H  c #D0AF47",
"J  c #DBB747",
"K  c #DDBC50",
"L  c #E7BF46",
"P  c #D4AD6D",
"I  c #DDB763",
"U  c #C9AC7E",
"Y  c #ECC141",
"T  c #E7C34F",
"R  c #F2D048",
"E  c #F7DD4C",
"W  c #E5C457",
"Q  c #ECCC55",
"!  c #EFD95C",
"~  c #F4DB53",
"^  c #ECE042",
"/  c #FAE74B",
"(  c #F4EA4B",
")  c #FBF34C",
"_  c #F9EE50",
"`  c #FCF453",
"'  c #E6C86B",
"]  c #E8D46B",
"[  c #E2C677",
"{  c #E1CA7D",
"}  c #768489",
"|  c #798893",
" . c #838485",
".. c #92918B",
"X. c #869197",
"o. c #949697",
"O. c #9D9E9E",
"+. c #97A39E",
"@. c #B1AD81",
"#. c #A0A793",
"$. c #BBAC96",
"%. c #B8AB9A",
"&. c #BEB39F",
"*. c #8B9CA3",
"=. c #8FA2A5",
"-. c #90A2A6",
";. c #93A5AA",
":. c #96A8AD",
">. c #91A5B0",
",. c #97AAB0",
"<. c #99ACB3",
"1. c #98ACB9",
"2. c #9CB0B6",
"3. c #9EB2BA",
"4. c #AEAEAF",
"5. c #A6B2A9",
"6. c #B7B4A7",
"7. c #A1B5BE",
"8. c #B2B7B4",
"9. c #C4AB88",
"0. c #D7BF92",
"q. c #DDC486",
"w. c #DEC986",
"e. c #DCC38A",
"r. c #D7C395",
"t. c #D8C394",
"y. c #D5C49B",
"u. c #D0CC9D",
"i. c #CFC5AC",
"p. c #D1C3A3",
"a. c #D0C5AA",
"s. c #CBC7B5",
"d. c #CBC9B5",
"f. c #C5C7BB",
"g. c #C9C7BA",
"h. c #C7C8BF",
"j. c #C9C9BC",
"k. c #9FB4C1",
"l. c #A2B7C1",
"z. c #A5BAC4",
"x. c #A4BAC8",
"c. c #A8BEC9",
"v. c #ACC2CD",
"b. c #ADC4D1",
"n. c #B0C7D5",
"m. c #B2C9D6",
"M. c #BFCFD6",
"N. c #B4CCDA",
"B. c #B8CFDD",
"V. c #BFD0D7",
"C. c #B7D0DE",
"Z. c #BED1DC",
"A. c #BBD4E4",
"S. c #C6CAC4",
"D. c #C3CCCC",
"F. c #CACACA",
"G. c #C1CED3",
"H. c #C0D0D7",
"J. c #D4D5D5",
"K. c #E3E3E3",
"L. c #ECECEC",
"P. c #F6F6F6",
"I. c #FFFFFF",
/* pixels */
"A.A.A.A.A.A.A.A.A.A.A.A.A.A.A.A.Z.Z.Z.Z.Z.A.A.A.A.Z.Z.Z.G.D.S.S.F.D.G.Z.A.A.A.A.A.A.A.A.A.A.A.A.A.A.A.A.A.A.A.A.A.A.A.A.A.A.A.A.",
"A.A.A.A.A.A.A.A.A.A.A.A.A.A.A.A.Z.Z.Z.H.Z.Z.Z.Z.Z.A.Z.V.D.j.t.t.i.S.G.M.Z.Z.Z.A.A.A.Z.A.A.A.A.A.A.A.A.A.A.A.A.A.A.A.A.A.A.A.A.A.",
"A.A.A.A.A.A.A.A.A.A.A.A.A.A.H.H.V.D.D.D.D.V.V.Z.Z.Z.Z.G.S.p.) ` W g.D.G.Z.Z.Z.Z.A.Z.Z.A.Z.Z.A.A.A.A.A.A.A.A.A.A.A.A.A.A.A.A.A.A.",
"A.A.A.A.A.A.A.A.A.A.A.A.Z.A.Z.H.D.S.h.j.D.D.G.Z.Z.Z.V.D.$.U ` ` W j.S.G.Z.Z.Z.Z.V.V.V.Z.A.A.A.A.A.A.A.A.A.A.A.A.A.A.A.A.A.A.A.A.",
"A.A.A.A.A.A.A.A.A.A.A.A.A.Z.H.D.h.i.[ ' r.S.D.M.H.G.D.%.$.9.I ' r.j.S.D.M.Z.H.G.D.D.G.M.V.A.A.A.A.A.A.A.A.A.A.A.A.A.A.A.A.A.A.A.",
"A.A.A.A.A.A.A.A.A.A.A.A.Z.Z.H.S.i.! ` / ' h.D.D.S.S.$.$.$.6.d.d.d.h.S.D.G.H.D.g.p.s.F.G.V.Z.Z.A.A.A.A.A.A.A.A.A.A.A.A.A.A.A.A.A.",
"A.A.A.A.A.A.A.A.A.A.A.Z.A.Z.G.S.r._ ` / 0.f.S.S.i.P 9.$.6.S.j.d.d.j.S.D.D.G.D.0.E Q i.D.V.Z.Z.A.A.A.A.A.A.A.A.A.A.A.A.A.A.A.A.A.",
"A.A.A.A.A.A.A.A.A.A.A.A.A.Z.G.S.r.] q.p.s.S.S.s.I R P &.8...j.s.q.r.s.S.D.D.D.y.E ( e.F.G.Z.A.A.A.A.A.A.A.A.A.A.A.A.A.A.A.A.A.A.",
"A.A.A.A.A.A.A.A.A.A.A.A.A.Z.Z.D.j.d.s.j.S.D.S.s.' Q U < % < b p./ ~ y.g.S.M.S.h.r.[ y.D.G.Z.A.A.A.A.A.A.A.A.A.A.A.A.A.A.A.A.A.A.",
"A.A.A.A.A.A.A.A.A.A.A.A.A.Z.A.H.G.D.D.D.G.G.g 1 8 z 0 % % , 6.y.` ` w.s.h.D.M.S.S.j.h.D.M.Z.Z.A.A.A.A.A.A.A.A.A.A.A.A.A.A.A.A.A.",
"A.A.A.A.A.A.A.A.A.A.A.A.A.A.Z.Z.Z.H.H.H.H.H.$ # % % % # % % 2 8 ( ( { d.S.M.V.V.D.H.H.M.G.V.Z.Z.A.A.A.A.A.A.A.A.A.A.A.A.A.A.A.A.",
"A.A.A.A.A.A.A.A.A.A.A.A.A.A.A.A.Z.A.Z.Z.Z.Z.s o # # o # # % 1 6 F ^ c 9 6.H.V.V.Z.V.V.D.D.D.G.V.A.A.A.A.A.A.A.A.A.A.A.A.A.A.A.A.",
"A.A.A.A.A.A.A.A.A.A.A.A.A.A.A.Z.A.Z.A.Z.v.o # # # # o X o * < 5 m S z 3 % % X.Z.Z.Z.V.D.a.y.j.D.A.A.A.A.A.A.A.A.A.A.A.A.A.A.A.A.",
"A.A.A.A.A.A.A.A.A.A.A.A.A.A.A.A.A.A.A.@ o # # < , % # o o # % 2 q c 6 < # o .   b.Z.V.h.[ E q.S.Z.A.Z.A.A.A.A.A.A.A.A.A.A.A.A.A.",
"A.A.A.A.A.A.A.A.A.A.A.A.A.A.A.A.A.k.  . o * 2 x v 3 % o o o # % 1 4 1 % o . .   X y V.D.y.~ ' d.G.Z.A.A.A.A.A.A.A.A.A.A.A.A.A.A.",
"A.A.A.A.A.A.A.A.A.A.A.A.A.A.A.A.h   . . # % 5 D N 4 % o X X X $ # % # o . .     O X $ V.h.y.q.j.H.Z.A.A.A.A.A.A.A.A.A.A.A.A.A.A.",
"A.A.A.A.A.A.A.A.A.A.A.A.A.A.A.s       O + % 8 S n < # # .   O O X X O X X         X X $ D.D.S.M.H.Z.A.A.A.A.A.A.A.A.A.A.A.A.A.A.",
"A.A.A.A.A.A.A.A.A.A.A.A.A.A.|           + ; 7 c 5 < # o X . O O O o X               X X o V.Z.Z.A.A.A.A.A.A.A.A.A.A.A.A.A.A.A.A.",
"A.A.A.A.A.A.A.A.A.A.A.A.A.n.            o $ 1 4 < & o @ o + + O O O O O                 X i A.A.A.A.A.A.A.A.A.A.A.A.A.A.A.A.A.A.",
"A.A.A.A.A.A.A.A.A.A.A.A.A.O             O o o $ $ $ $ @ + @ @ @ @ @ O O O               . O b.A.A.A.A.A.A.A.A.A.A.A.A.A.A.A.A.A.",
"A.A.A.A.A.A.A.A.A.A.A.A.h           O   O o o @ @ @ @ @ @ @ @ @ @ @ O + O O O                 A.A.A.A.A.A.A.A.A.A.A.A.A.A.A.A.A.",
"A.A.A.A.A.A.A.A.A.A.A.A.              O O O + @ @ @ @ @ = @ - @ @ @ @ @ + O O O               >.A.A.A.A.A.A.A.A.A.A.A.A.A.A.A.A.",
"A.A.A.A.A.A.A.A.A.A.A.k             O O O + @ @ @ @ - @ = @ @ @ @ @ @ @ O @ O                   A.A.A.A.A.A.A.A.A.A.A.A.A.A.A.A.",
"A.A.A.A.A.A.A.A.A.A.A.              O O @ @ @ = - @ @ = = - - @ - @ - @ @ @ @                   m.A.A.A.A.A.A.A.A.A.A.A.A.A.A.A.",
"A.A.A.A.A.A.A.A.A.A.A.=           O O + @ @ = @ - = = = = = = = - @ @ @ @ @ @ + O   O           i A.A.A.A.A.A.A.A.A.A.A.A.A.A.A.",
"A.A.A.A.A.A.A.A.A.A.j O           O + @ @ @ - @ = = = = = = = = - @ - @ - @ @ + + O             = A.A.A.A.A.A.A.A.A.A.A.A.A.A.A.",
"A.A.A.A.A.A.A.A.A.A.O           O + + = @ @ @ = = = = = = = = = - @ - @ = = @ + O + i O         O A.A.A.A.A.A.A.A.A.A.A.A.A.A.A.",
"A.A.A.A.A.A.A.A.A.A.            O + + @ - @ - = = = - @ = = = = @ - @ - @ = o.I.I.I.I.P.          b.A.A.A.A.A.A.A.A.A.A.A.A.A.A.",
"A.A.A.A.A.A.A.A.A.A.          O O @ @ @ = = = = = = = = = = = = = = = = - I.I.I.P.P.P.i           x.A.A.A.A.A.A.A.A.A.A.A.A.A.A.",
"A.A.A.A.A.A.A.A.A.A.            O + @ = @ = = = = = = = = = = = = = = ; I.I.I.I.w O + O           k.A.A.A.A.A.A.A.A.A.A.A.A.A.A.",
"A.A.A.A.A.A.A.A.A.A.            O @ = @ = = = = = = = = = = = = = = = I.I.I.d @ = O               >.A.A.A.A.A.A.A.A.A.A.A.A.A.A.",
"A.A.A.A.A.A.A.A.A.A.            + @ @ = = = = = = = = = = = = = = = r I.I.- = @ + O               x.A.A.A.A.A.A.A.A.A.A.A.A.A.A.",
"A.A.A.A.A.A.A.A.A.A.            O @ @ = @ = = = = = = = = = = = = = = p = = @ @ + + + O           x.A.A.A.A.A.A.A.A.A.A.A.A.A.A.",
"A.A.A.A.A.A.A.A.A.A.          O O @ @ @ = = = : t = = = = = = = = = = = = @ = @ @ + +             A.A.A.A.A.A.A.A.A.A.A.A.A.A.A.",
"A.A.A.A.A.A.A.A.A.A.w       O   O : P.I.I.I.I.I.I.I.I.= = = = = = = = = w = @ @ + + O           O A.A.A.A.A.A.A.A.A.A.A.A.A.A.A.",
"A.A.A.A.A.A.A.A.A.A.x.        O J.I.I.I.I.I.I.I.L.I.I.; = = = = = = = l I.d @ @ + + O           + A.A.A.A.A.A.A.A.A.A.A.A.A.A.A.",
"A.A.A.A.A.A.A.A.A.A.A.          I.I.I.I.K.f - = @ = = = = = = = w = = O.I. .@ O + + O           *.A.A.A.A.A.A.A.A.A.A.A.A.A.A.A.",
"A.A.A.A.A.A.A.A.A.A.A.O         O : + o @ @ @ - = = = = = ; = r I.I.l S.I.f @ @ +     O         A.A.A.A.A.A.A.A.A.A.A.A.A.A.A.A.",
"A.A.A.A.A.A.A.A.A.A.A.n.        O + + @ = = = = = = = =  .F.@ d I.I.I.I.I.> O + O             e A.A.A.A.A.A.A.A.A.A.A.A.A.A.A.A.",
"A.A.A.A.A.A.A.A.A.A.A.A.O         + + + @ @ @ @ = @ = - P.I.P.I.I.u K.L.i @ @ o               A.A.A.A.A.A.A.A.A.A.A.A.A.A.A.A.A.",
"A.A.A.A.A.A.A.A.A.A.A.A.N.O     O   O + + @ @ = = = @ @ - I.I.I.P.= @ @ + @ + + O           a A.A.A.A.A.A.A.A.A.A.A.A.A.A.A.A.A.",
"A.A.A.A.A.A.A.A.A.A.A.A.A.i           + + + + @ @ = = = = = -.4.@ @ @ @ + + O O           O A.A.A.A.A.A.A.A.A.A.A.A.A.A.A.A.A.A.",
"A.A.A.A.A.A.A.A.A.A.A.A.A.A.O           + + + @ @ @ @ = @ @ = = + @ O @ + O O           O B C A.A.Z.T F d.A.A.A.A.A.A.A.A.A.A.A.",
"A.A.A.A.A.A.A.A.A.A.A.A.A.A.A.          O + + + + @ + @ + @ + + @ @ O O O O             n V C A.u.L Y Y Y Y A.A.A.A.A.A.A.A.A.A.",
"A.A.A.A.A.A.A.A.A.A.A.A.A.A.A.A.O       O   O O . + + + + + + . O O O O     O         m V V Y Y Y Y Y Y Y Y T A.A.A.A.A.A.A.A.A.",
"A.A.A.A.A.A.A.A.A.A.A.A.A.A.A.A.A.+             O O + + + O O . O O   O             G V V Y Y Y Y Y Y Y Y V V A.A.A.A.A.A.A.A.A.",
"A.A.A.A.A.A.A.A.A.A.A.A.A.A.A.A.A.A.a                   O O     O               + N.A.V V Z Y Y Y Y Y Y B V K A.A.A.A.A.A.A.A.A.",
"A.A.A.A.A.A.A.A.A.A.A.A.A.A.A.A.A.m.m.x.+           O             O           k.A.A.A.C.V V Y Y Y A Z Z C C A.A.A.A.A.A.A.A.A.A.",
"A.A.A.A.A.A.A.A.A.A.A.A.A.A.A.C.c.c.3.<.,.*., .   .                     O :.v.v.b.b.m.m.V V V Y Y V V V U A.A.A.A.A.A.A.A.A.A.A.",
"A.A.A.A.A.A.A.A.A.A.A.A.A.A.N.x.3.,.:.-.-.-.L V M 5 .             > } :.,.:.,.2.2.3.3.7.z.V V V Z V V G.A.A.A.A.A.A.A.A.A.A.A.A.",
"A.A.A.A.A.A.A.A.A.A.A.A.C.m.x.k.;.-.-.-.-.-.L L A V V -.=.=.-.-.=.-.-.;.;.-.-.-.;.;.:.:.:.<.V V V J B.A.A.A.A.A.A.A.A.A.A.A.A.A.",
"A.A.A.A.A.A.A.A.A.A.A.A.N.x.k.| -.-.-.5.+.@.F L F L L -.=.=.=.=.-.=.=.-.-.=.-.-.-.-.-.-.-.-.;.H 5.c.m.A.A.A.A.A.A.A.A.A.A.A.A.A.",
"A.A.A.A.A.A.A.A.A.A.A.C.c.3.>.=.-.#.L Y Y Y Y L L A L -.-.-.=.=.=.=.=.=.=.=.=.=.-.=.=.=.-.=.-.-.;.7.n.B.A.A.A.A.A.A.A.A.A.A.A.A.",
"A.A.A.A.A.A.A.A.A.A.A.m.x.1.=.=.-.A A Y Y Y Y A L L L ;.+.-.=.=.=.=.=.=.=.=.=.=.-.=.=.=.=.=.=.-.-.,.z.N.A.A.A.A.A.A.A.A.A.A.A.A.",
"A.A.A.A.A.A.A.A.A.A.A.m.l.:.=.=.L L Y Y Y Y L L F A L O.-.=.=.=.=.=.=.=.=.=.=.=.=.=.=.=.=.=.=.-.-.,.z.m.B.A.A.A.A.A.A.A.A.A.A.A.",
"A.A.A.A.A.A.A.A.A.A.A.m.l.:.;.=.Z A A Y Y Y F Y L A A O.-.-.=.=.=.=.=.=.=.=.=.=.=.=.=.=.=.=.=.=.-.,.l.m.A.A.A.A.A.A.A.A.A.A.A.A.",
"A.A.A.A.A.A.A.A.A.A.A.N.z.<.=.=.Z V V V V V V V V V V =.=.=.=.=.=.=.=.=.=.=.=.=.=.=.=.=.=.=.=.=.;.1.k.N.A.A.A.A.A.A.A.A.A.A.A.A.",
"A.A.A.A.A.A.A.A.A.A.A.C.b.3.:.;.+.K V V V V V V V V +.=.=.=.=.=.=.=.=.=.=.=.=.=.=.=.=.=.=.=.=.=.:.3.b.A.A.A.A.A.A.A.A.A.A.A.A.A.",
"A.A.A.A.A.A.A.A.A.A.A.A.n.v.2.:.-.-.=.=.-.-.-.-.=.=.-.-.-.=.=.-.=.-.-.-.-.-.-.-.=.=.=.=.=.=.;.:.2.v.A.A.A.A.A.A.A.A.A.A.A.A.A.A.",
"A.A.A.A.A.A.A.A.A.A.A.A.C.n.v.3.<.:.;.=.-.-.-.-.-.=.=.-.-.-.-.-.-.-.-.-.-.-.-.-.=.=.;.=.:.:.<.3.v.n.A.A.A.A.A.A.A.A.A.A.A.A.A.A.",
"A.A.A.A.A.A.A.A.A.A.A.A.A.A.N.b.z.3.3.2.<.:.:.:.:.:.:.:.:.:.:.:.:.:.:.:.,.,.:.:.:.,.,.,.3.3.v.v.m.C.A.A.A.A.A.A.A.A.A.A.A.A.A.A.",
"A.A.A.A.A.A.A.A.A.A.A.A.A.A.A.C.C.m.b.v.v.z.l.3.7.3.3.7.3.7.7.7.7.7.l.l.l.l.l.l.z.z.v.v.b.n.m.A.A.A.A.A.A.A.A.A.A.A.A.A.A.A.A.A.",
"A.A.A.A.A.A.A.A.A.A.A.A.A.A.A.A.A.C.A.C.N.N.m.N.m.m.N.m.m.N.N.m.m.N.N.m.m.N.m.N.N.N.C.C.A.A.A.A.A.A.A.A.A.A.A.A.A.A.A.A.A.A.A.A.",
"A.A.A.A.A.A.A.A.A.A.A.A.A.A.A.A.A.A.A.A.A.A.A.A.A.A.A.A.A.A.A.A.A.A.A.A.A.A.A.A.A.A.A.A.A.A.A.A.A.A.A.A.A.A.A.A.A.A.A.A.A.A.A.A."
};
