/* XPM */
static char *result[] = {
/* columns rows colors chars-per-pixel */
"64 64 164 2 ",
"   c #232526",
".  c #282726",
"X  c #2B2927",
"o  c #252728",
"O  c #26292A",
"+  c #2A2C2D",
"@  c #322C26",
"#  c #392F25",
"$  c #312D28",
"%  c #3D3327",
"&  c #363229",
"*  c #3C342A",
"=  c #2C2E30",
"-  c #2E3031",
";  c #373835",
":  c #393B3C",
">  c #423626",
",  c #493926",
"<  c #46392B",
"1  c #443A2C",
"2  c #5D4626",
"3  c #51412F",
"4  c #7C5D27",
"5  c #624E33",
"6  c #675234",
"7  c #3B3E40",
"8  c #3E4143",
"9  c #434547",
"0  c #454C51",
"q  c #4A5256",
"w  c #50595F",
"e  c #5D6363",
"r  c #5D686F",
"t  c #626465",
"y  c #67696A",
"u  c #626E75",
"i  c #6E7070",
"p  c #66737A",
"a  c #69757E",
"s  c #737475",
"d  c #767879",
"f  c #7B7C7D",
"g  c #906D28",
"h  c #8A703E",
"j  c #947439",
"k  c #856C43",
"l  c #A98A2F",
"z  c #C59F31",
"x  c #CBA635",
"c  c #DCB132",
"v  c #D4BE35",
"b  c #D7B03B",
"n  c #E0B536",
"m  c #E2B738",
"M  c #E4B939",
"N  c #E9BE3E",
"B  c #E3D23D",
"V  c #978974",
"C  c #DEBB4C",
"Z  c #CEB353",
"A  c #DDBC50",
"S  c #D4B95B",
"D  c #E6BE44",
"F  c #E9BE40",
"G  c #E1BD4E",
"H  c #C4B46C",
"J  c #ECC141",
"K  c #E7C757",
"L  c #F0D95C",
"P  c #EFE644",
"I  c #FAEE50",
"U  c #DFC764",
"Y  c #ECCA64",
"T  c #E6CD73",
"R  c #E2C279",
"E  c #E2CA7D",
"W  c #798893",
"Q  c #859299",
"!  c #949595",
"~  c #98999A",
"^  c #99A59C",
"/  c #A6A98C",
"(  c #B1AD81",
")  c #A0A793",
"_  c #BAAB96",
"`  c #B9AD9B",
"'  c #ACB29E",
"]  c #BEB19C",
"[  c #8999A5",
"{  c #9E9FA0",
"}  c #8FA2A5",
"|  c #90A2A6",
" . c #93A5AA",
".. c #96A8AD",
"X. c #91A5B0",
"o. c #97AAB3",
"O. c #99ADB3",
"+. c #98ACB9",
"@. c #9CB0B7",
"#. c #9EB2BA",
"$. c #ACAEAE",
"%. c #B4ADA2",
"&. c #B1AEA8",
"*. c #AFB0AD",
"=. c #BFB3A1",
"-. c #B5B6AF",
";. c #A1B5BE",
":. c #B9BAB8",
">. c #DDC783",
",. c #DCC58B",
"<. c #D9C592",
"1. c #D5C39A",
"2. c #DDCB9C",
"3. c #E8CB8A",
"4. c #EAD787",
"5. c #EDDF8E",
"6. c #E1D097",
"7. c #EAD790",
"8. c #E7DB91",
"9. c #EADC91",
"0. c #E1D49C",
"q. c #EFE48E",
"w. c #F3E58D",
"e. c #F5ED8F",
"r. c #F6EB93",
"t. c #FAF496",
"y. c #D2C4A4",
"u. c #D9CDA6",
"i. c #D1C6A9",
"p. c #D6CDAC",
"a. c #CDC6B3",
"s. c #CEC9B6",
"d. c #C9C7BA",
"f. c #CCCABC",
"g. c #D2CBB2",
"h. c #FBF8A5",
"j. c #9FB4C1",
"k. c #A3B7C1",
"l. c #A5BAC4",
"z. c #A5BBC9",
"x. c #A8BEC9",
"c. c #ABC1CC",
"v. c #B1C4C4",
"b. c #ADC4D1",
"n. c #B0C7D5",
"m. c #B2C9D6",
"M. c #BFCFD6",
"N. c #B4CCDB",
"B. c #B7D0DE",
"V. c #BED1DC",
"C. c #BBD4E4",
"Z. c #C7CAC3",
"A. c #C9CCC4",
"S. c #C5CDCC",
"D. c #C2CFD2",
"F. c #C1D0D6",
"G. c #C0D0D9",
"H. c gray82",
"J. c #DBDBDC",
"K. c #FDFBCB",
"L. c #E4E4E4",
"P. c #EBEBEB",
"I. c #F3F3F3",
"U. c #FFFFFF",
/* pixels */
"C.C.C.C.C.C.C.C.C.C.C.C.C.C.C.C.C.C.C.C.C.C.C.C.C.C.V.V.G.F.S.D.G.V.G.F.S.S.S.S.G.V.C.C.C.G.G.V.C.C.C.V.C.C.C.C.C.C.C.C.C.C.C.C.",
"C.C.C.C.C.C.C.C.C.C.C.C.C.C.C.C.C.C.C.C.C.C.C.C.C.C.V.M.A.f.p.f.D.G.F.S.p.0.u.A.D.G.G.V.G.G.G.G.G.G.V.C.V.C.C.C.C.C.C.C.C.C.C.C.",
"C.C.C.C.C.C.C.C.C.C.C.C.C.C.C.C.C.C.C.C.C.C.C.C.C.C.V.D.p.q.e.2.S.D.D.=.4.K.5.g.A.H.F.F.D.D.S.S.S.F.G.C.C.C.C.C.C.C.C.C.C.C.C.C.",
"C.C.C.C.C.C.C.C.C.C.C.C.C.C.C.C.C.C.C.C.C.C.V.C.V.V.V.S.6.5.8.g.S.-.&.] >.q.3.f.A.f.A.S.S.g.u.g.S.F.G.G.C.V.C.C.C.C.C.C.C.C.C.C.",
"C.C.C.C.C.C.C.C.C.C.C.C.C.C.C.C.C.C.V.V.M.M.V.V.C.V.M.S.s.g.f.A.%.&.*.] ] s.f.A.g.7.p.S.A.4.t.r.u.S.G.G.C.C.C.C.C.C.C.C.C.C.C.C.",
"C.C.C.C.C.C.C.C.C.C.C.C.C.C.C.C.C.C.C.M.d.y.a.D.V.V.M.S.f.s.f.` %.&.*.F.S.S.S.S.f.0.u.A.S.6.r.h.5.A.D.G.G.C.C.C.C.C.C.C.C.C.C.C.",
"C.C.C.C.C.C.C.C.C.C.C.C.C.C.C.C.C.C.V.d.,.T 1.S.V.M.S.d.y.Y R _ %.-.F.F.S.F.F.F.D.A.A.S.S.A.p.9.0.A.D.G.C.C.C.C.C.C.C.C.C.C.C.C.",
"C.C.C.C.C.C.C.C.C.C.C.C.C.C.C.C.C.C.V.1.R <.a.D.D.D.Z.i.L I K _ ` G.F.F.S.S.S.F.F.F.F.F.S.A.A.f.Z.S.G.C.C.C.C.C.C.C.C.C.C.C.C.C.",
"C.C.C.C.C.C.C.C.C.C.C.C.C.C.C.C.C.C.G.1.i.Z.D.V.V.S.d.E P B g V * % * %.3.2.S.D.V.G.V.G.Z.a.s.A.D.F.V.C.C.C.C.C.C.C.C.C.C.C.C.C.",
"C.C.C.C.C.C.C.C.C.C.C.C.C.C.C.C.C.C.C.G.D.V.V.V.V.D.d.U v g 2 , * * 1 6 t.w.Z.D.G.C.V.D.a.T <.d.D.G.C.C.C.C.C.C.C.C.C.C.C.C.C.C.",
"C.C.C.C.C.C.C.C.C.C.C.C.C.C.C.C.C.C.C.C.C.C.C.C.V.M.Z.j 4 2 , > & & 1 5 e.q.f.D.G.C.C.D.d.E T i.D.G.C.C.C.C.C.C.C.C.C.C.C.C.C.C.",
"C.C.C.C.C.C.C.C.C.C.C.C.C.C.C.C.C.C.C.C.C.C.C.C.B.e # > > > # @ @ X * 3 h k -.G.V.V.C.V.S.a.,.1.F.V.C.C.C.C.C.C.C.C.C.C.C.C.C.C.",
"C.C.C.C.C.C.C.C.C.C.C.C.C.C.C.C.C.C.C.C.C.C.x.o o   X @ @ @ X X X X @ * < 3 * @ Q C.C.C.V.D.S.S.V.C.C.C.C.C.C.C.C.C.C.C.C.C.C.C.",
"C.C.C.C.C.C.C.C.C.C.C.C.C.C.C.C.C.C.C.C.C.+ o           .   .   o . X X @ $ + . o o b.V.C.V.V.V.C.C.C.C.C.C.C.C.C.C.C.C.C.C.C.C.",
"C.C.C.C.C.C.C.C.C.C.C.C.C.C.C.C.C.C.C.#.o               o         o   . X . O . o     0 C.C.C.C.C.C.C.C.C.C.C.C.C.C.C.C.C.C.C.C.",
"C.C.C.C.C.C.C.C.C.C.C.C.C.C.C.C.C.C.p                     o o o   o o   . o       o     O C.C.C.C.C.C.C.C.C.C.C.C.C.C.C.C.C.C.C.",
"C.C.C.C.C.C.C.C.C.C.C.C.C.C.C.C.C.r               o         o o     o                       C.C.C.C.C.C.C.C.C.C.C.C.C.C.C.C.C.C.",
"C.C.C.C.C.C.C.C.C.C.C.C.C.C.C.C.W o             o o o o   o o . o o o o                       C.C.C.C.C.C.C.C.C.C.C.C.C.C.C.C.C.",
"C.C.C.C.C.C.C.C.C.C.C.C.C.C.C.n.o               o o o o o O O O O O O O O                     0 C.C.C.C.C.C.C.C.C.C.C.C.C.C.C.C.",
"C.C.C.C.C.C.C.C.C.C.C.C.C.C.C.o o               o o O O O O O + + + O O O O O                   m.C.C.C.C.C.C.C.C.C.C.C.C.C.C.C.",
"C.C.C.C.C.C.C.C.C.C.C.C.C.C.u                   O O + + + + + + + = + O O O O o                 . C.C.C.C.C.C.C.C.C.C.C.C.C.C.C.",
"C.C.C.C.C.C.C.C.C.C.C.C.C.C.          o     o o O + + + + + = + + + = = = O O O                 o +.C.C.C.C.C.C.C.C.C.C.C.C.C.C.",
"C.C.C.C.C.C.C.C.C.C.C.C.C.a         o o o o o o + + + + = + + - = = = O + + + O o o                 C.C.C.C.C.C.C.C.C.C.C.C.C.C.",
"C.C.C.C.C.C.C.C.C.C.C.C.C.          o o o o o + + + - = = = = = = = = = = + + + + o                 n.C.C.C.C.C.C.C.C.C.C.C.C.C.",
"C.C.C.C.C.C.C.C.C.C.C.C.N.              o O + + = = = = = = = = = = = = + + + + O o o o           o 8 C.C.C.C.C.C.C.C.C.C.C.C.C.",
"C.C.C.C.C.C.C.C.C.C.C.C.r               O + + + = + = = = = = = = = = = = = = = = o +             o o C.C.C.C.C.C.C.C.C.C.C.C.C.",
"C.C.C.C.C.C.C.C.C.C.C.C.          o o o O + + = + = = = = = = = = = = = = = = + + + + o             o C.C.C.C.C.C.C.C.C.C.C.C.C.",
"C.C.C.C.C.C.C.C.C.C.C.C.          o o o + + = = - = = = = = = = = = = = = = = = = + o O o o         O N.C.C.C.C.C.C.C.C.C.C.C.C.",
"C.C.C.C.C.C.C.C.C.C.C.C.7 o       o O O = = = = = = = = = = = = = = = = = = = = + + + o               z.C.C.C.C.C.C.C.C.C.C.C.C.",
"C.C.C.C.C.C.C.C.C.C.C.C.o o       o O O O = = = = = = = = = = = = = = = = = = = + + O o               j.C.C.C.C.C.C.C.C.C.C.C.C.",
"C.C.C.C.C.C.C.C.C.C.C.C.o         o o O = $ = = = = = = = = = = = = = = = = = = = = o o               X.C.C.C.C.C.C.C.C.C.C.C.C.",
"C.C.C.C.C.C.C.C.C.C.C.C.          O r  .U.x.- = = = = = = = = = = = = = = = = = J.U.U.U.I.[           j.C.C.C.C.C.C.C.C.C.C.C.C.",
"C.C.C.C.C.C.C.C.C.C.C.C.        + U.U.U.U.U.U.U.9 = = = = = = = = = = = = 9 U.U.U.U.U.U.U.U.          z.C.C.C.C.C.C.C.C.C.C.C.C.",
"C.C.C.C.C.C.C.C.C.C.C.C.        o U.U.U.U.U.U.U.U.U.! = = = = = = = = = U.U.U.U.U.U.U.$.t -           C.C.C.C.C.C.C.C.C.C.C.C.C.",
"C.C.C.C.C.C.C.C.C.C.C.C.7         o O O + t U.U.U.U.U.d = = = = = = = L.U.U.U.U.0 + O O O             C.C.C.C.C.C.C.C.C.C.C.C.C.",
"C.C.C.C.C.C.C.C.C.C.C.C.j.      o   O O + + + 8 U.U.U.I.= = = = = = = J.U.U.: + = = O O o           + C.C.C.C.C.C.C.C.C.C.C.C.C.",
"C.C.C.C.C.C.C.C.C.C.C.C.C.o         . O + + + - + : f - = = = = = = = ; :.- + + + O O o             [ C.C.C.C.C.C.C.C.C.C.C.C.C.",
"C.C.C.C.C.C.C.C.C.C.C.C.C.O         o O O + + - = = = = = = = = = = = = - + + - = O O o             C.C.C.C.C.C.C.C.C.C.C.C.C.C.",
"C.C.C.C.C.C.C.C.C.C.C.C.C.n.          o O + + = + = = = = = = = = = = = + - + + = O               8 C.C.C.C.C.C.C.C.C.C.C.C.C.C.",
"C.C.C.C.C.C.C.C.C.C.C.C.C.C.o         o O O + + = = + = = = = = = = + - = + + + O O               C.C.C.C.C.C.C.C.C.C.C.C.C.C.C.",
"C.C.C.C.C.C.C.C.C.C.C.C.C.C.B.          o o + O + + + f P.- ~ U.i 8 U.d + + + O O O o           r C.C.C.C.C.C.C.C.C.C.C.C.C.C.C.",
"C.C.C.C.C.C.C.C.C.C.C.C.C.C.C.q           O O + + + + I.U.y U.U.U.L.U.s + + O O o o             C.C.C.C.C.C.C.C.C.C.C.C.C.C.C.C.",
"C.C.C.C.C.C.C.C.C.C.C.C.C.C.C.C.o         o o O O + O 8 U.U.U.J.U.U.U.+ O O O o o             B.C.C.C.C.C.C.C.C.C.C.C.C.C.C.C.C.",
"C.C.C.C.C.C.C.C.C.C.C.C.C.C.C.C.C.            o O O O O H.U.P.O P.U.I.O O O o o             +.C.C.C.C.C.C.C.C.C.C.C.C.C.C.C.C.C.",
"C.C.C.C.C.C.C.C.C.C.C.C.C.C.C.C.C.B.              o o o O O O O O O O O o                 +.C.C.C.C.C.C.C.C.C.C.C.C.C.C.C.C.C.C.",
"C.C.C.C.C.C.C.C.C.C.C.C.C.C.C.C.C.C.C.+             o o O o o O O O o     o             z.C.C.C.C.C.C.C.C.C.C.C.C.C.C.C.C.C.C.C.",
"C.C.C.C.C.C.C.C.C.C.C.C.C.C.C.C.C.C.C.B.w             o o o     o o     o           O C.C.C.C.C.C.C.C.C.C.C.C.C.C.C.C.C.C.C.C.C.",
"C.C.C.C.C.C.C.C.C.C.C.C.C.C.C.C.C.N.n.b.z.#.O           o         o               k.C.C.C.C.C.C.C.C.C.C.C.C.C.C.C.C.C.C.C.C.C.C.",
"C.C.C.C.C.C.C.C.C.C.C.C.C.C.C.B.c.l.;.O.....Z x & o                   .   . X x v.b.m.m.N.N.C.C.C.C.C.C.C.C.C.C.C.C.C.C.C.C.C.C.",
"C.C.C.C.C.C.C.C.C.C.C.C.C.C.N.z.;.O. .| | | D c c c z q o o           ; l c c m ' #.#.;.k.x.c.b.B.C.C.C.C.C.C.C.C.C.C.C.C.C.C.C.",
"C.C.C.C.C.C.C.C.C.C.C.C.B.n.j.j...|  .| | } J J M c c | | | | | [  .| F c n J J ) ........O.#.;.z.N.B.C.C.C.C.C.C.C.C.C.C.C.C.C.",
"C.C.C.C.C.C.C.C.C.C.C.C.m.j.+.X.| | [ { ^ ( J J F N B } | | [ | | | | G F F J J /  .| } |  . ...j.z.m.C.C.C.C.C.C.C.C.C.C.C.C.C.",
"C.C.C.C.C.C.C.C.C.C.C.B.c.@.X.} } ^ B F J J J J F F J | | | } } | | | S F J J J J J J | } } |  .X.j.b.B.B.C.C.C.C.C.C.C.C.C.C.C.",
"C.C.C.C.C.C.C.C.C.C.C.m.z.o. .} } J N N J J J J J F J | } } } } | | } S N F J J J J J J D } } |  .+.l.B.C.C.C.C.C.C.C.C.C.C.C.C.",
"C.C.C.C.C.C.C.C.C.C.C.m.#...} } A J J J J J J J J F F | } } } } } } } c c N F F F F J J J H } } } ..l.m.C.C.C.C.C.C.C.C.C.C.C.C.",
"C.C.C.C.C.C.C.C.C.C.C.m.l... .} c c F J J J J J J N M { } } } } } } } b n M F F F F B N c J } } } o.j.m.C.C.C.C.C.C.C.C.C.C.C.C.",
"C.C.C.C.C.C.C.C.C.C.C.B.c.O. .} m c c c c c c c c c c } } } } } } } } | c c c c c c c c c N } }  .o.j.N.C.C.C.C.C.C.C.C.C.C.C.C.",
"C.C.C.C.C.C.C.C.C.C.C.B.c.@...} ^ C c c c c c c c c ^ } } } } } } } } } H m c c c c c c J | } } ..#.b.B.C.C.C.C.C.C.C.C.C.C.C.C.",
"C.C.C.C.C.C.C.C.C.C.C.B.n.c.@...| | } } } } } | } } } | | | | } } | | | | | | | } | } } } }  ...+.c.B.C.C.C.C.C.C.C.C.C.C.C.C.C.",
"C.C.C.C.C.C.C.C.C.C.C.C.B.n.c.#.O... .| |  .| | }  .| | | } | } | | | | | | | | |  .} }  ...O.#.c.n.C.C.C.C.C.C.C.C.C.C.C.C.C.C.",
"C.C.C.C.C.C.C.C.C.C.C.C.C.B.B.c.c.#.@.@... .........................................O...#.#.c.b.m.B.C.C.C.C.C.C.C.C.C.C.C.C.C.C.",
"C.C.C.C.C.C.C.C.C.C.C.C.C.C.C.C.B.m.c.c.c.c.;.#.#.#.#.j.#.#.k.;.k.;.k.#.;.k.k.k.l.l.c.c.b.n.m.C.C.C.C.C.C.C.C.C.C.C.C.C.C.C.C.C.",
"C.C.C.C.C.C.C.C.C.C.C.C.C.C.C.C.C.B.C.B.B.m.m.N.m.m.N.m.m.N.N.m.N.N.m.N.N.N.N.N.B.B.B.B.C.B.C.C.C.C.C.C.C.C.C.C.C.C.C.C.C.C.C.C.",
"C.C.C.C.C.C.C.C.C.C.C.C.C.C.C.C.C.C.C.C.C.C.C.C.C.C.C.C.C.C.C.B.C.C.C.C.V.C.C.C.C.C.C.C.C.C.C.C.C.C.C.C.C.C.C.C.C.C.C.C.C.C.C.C."
};
