/* XPM */
static char *result[] = {
/* columns rows colors chars-per-pixel */
"64 64 169 2 ",
"   c #232526",
".  c #282726",
"X  c #272826",
"o  c #2B2926",
"O  c #252728",
"+  c #26292A",
"@  c #2A2C2D",
"#  c #342D26",
"$  c #3B3226",
"%  c #33322B",
"&  c #2C2E30",
"*  c #2F3032",
"=  c #323334",
"-  c #373736",
";  c #36393A",
":  c #433626",
">  c #473826",
",  c #4D3C26",
"<  c #493A28",
"1  c #523E26",
"2  c #554126",
"3  c #5B4426",
"4  c #41413E",
"5  c #644A26",
"6  c #6A4E26",
"7  c #66582A",
"8  c #715526",
"9  c #7B5C27",
"0  c #383D40",
"q  c #3E4143",
"w  c #414244",
"e  c #43474A",
"r  c #53524E",
"t  c #4D4F50",
"y  c #4C5154",
"u  c #555658",
"i  c #535D63",
"p  c #5D686F",
"a  c #626465",
"s  c #656768",
"d  c #757168",
"f  c #626E75",
"g  c #67747A",
"h  c #69757E",
"j  c #777774",
"k  c #767878",
"l  c #825C25",
"z  c #876727",
"x  c #947429",
"c  c #987228",
"v  c #9E7C2A",
"b  c #8F764D",
"n  c #B08F2F",
"m  c #B6972E",
"M  c #B49233",
"N  c #C59F31",
"B  c #D5AB32",
"V  c #DCB132",
"C  c #DBBF35",
"Z  c #DCB43B",
"A  c #E4B939",
"S  c #E5BA3A",
"D  c #D6C036",
"F  c #E6D83E",
"G  c #BDA553",
"H  c #D0AF47",
"J  c #DBB747",
"K  c #DDBC50",
"L  c #E7BF46",
"P  c #DBB467",
"I  c #DEBF7E",
"U  c #ECC141",
"Y  c #E7C34F",
"T  c #EFCD5B",
"R  c #F2DB58",
"E  c #F8EB4D",
"W  c #FBF14F",
"Q  c #F4E353",
"!  c #F8E751",
"~  c #F7EB54",
"^  c #F9EE53",
"/  c #F2E25B",
"(  c #FAF253",
")  c #FDFA5C",
"_  c #E8CA6A",
"`  c #EDD462",
"'  c #E9D56B",
"]  c #E5CE74",
"[  c #E1CC7E",
"{  c #E6D171",
"}  c #768489",
"|  c #798893",
" . c #838485",
".. c #859197",
"X. c #949697",
"o. c #9D9E9E",
"O. c #97A39E",
"+. c #B1AD81",
"@. c #A0A793",
"#. c #BCAB94",
"$. c #B5AD9E",
"%. c #B8AE9F",
"&. c #8B9CA3",
"*. c #8FA2A5",
"=. c #90A2A6",
"-. c #93A5AA",
";. c #96A8AD",
":. c #91A5B0",
">. c #97AAB0",
",. c #99ACB3",
"<. c #98ACB9",
"1. c #9CB0B6",
"2. c #9EB2BA",
"3. c #AEAEAF",
"4. c #B2AEA5",
"5. c #B1AFA8",
"6. c #A6B2A9",
"7. c #B6B3A5",
"8. c #BBB7AB",
"9. c #A1B5BE",
"0. c #B6B9B4",
"q. c #C4AA87",
"w. c #D9BD8E",
"e. c #D8BF90",
"r. c #D5BF98",
"t. c #DDC384",
"y. c #DEC986",
"u. c #DBC58B",
"i. c #DCC98A",
"p. c #D7C395",
"a. c #D5C49B",
"s. c #D0CC9D",
"d. c #E0C881",
"f. c #CEC1A7",
"g. c #CFC6AC",
"h. c #D1C5A5",
"j. c #D0C5A9",
"k. c #CCC7B3",
"l. c #CBCAB5",
"z. c #CAC7BA",
"x. c #C7C9BF",
"c. c #C9C8BC",
"v. c #A2B7C1",
"b. c #A5BAC4",
"n. c #A7BBC6",
"m. c #A8BEC9",
"M. c #ABC2CD",
"N. c #ADC4D1",
"B. c #B0C7D5",
"V. c #B2C9D6",
"C. c #BFCFD6",
"Z. c #B4CCDA",
"A. c #B8CFDD",
"S. c #BFD0D7",
"D. c #B7D0DE",
"F. c #BED1DC",
"G. c #BBD4E4",
"H. c #C6C6C7",
"J. c #C6CAC4",
"K. c #C3CCCC",
"L. c #CDCDCD",
"P. c #C1CED3",
"I. c #C0D0D7",
"U. c #C0D0D8",
"Y. c #D4D5D5",
"T. c #E3E3E3",
"R. c #ECECEC",
"E. c #F6F6F6",
"W. c #FFFFFF",
/* pixels */
"G.G.G.G.G.G.G.G.G.G.G.G.G.G.G.G.G.F.F.F.F.S.S.F.G.F.G.F.S.I.J.J.K.K.P.C.F.G.G.G.G.G.G.G.G.G.G.G.F.G.G.F.G.G.G.G.G.G.G.G.G.G.G.G.",
"G.G.G.G.G.G.G.G.G.G.G.G.G.G.G.G.G.F.F.S.P.P.P.S.F.G.G.S.I.K.z.p.h.x.K.C.S.G.F.F.G.G.F.G.G.G.G.F.F.F.F.F.F.G.G.G.G.G.G.G.G.G.G.G.",
"G.G.G.G.G.G.G.G.G.G.G.G.G.G.G.G.G.I.I.H.J.J.J.K.P.F.U.C.K.c.P W E p.J.P.S.F.F.S.F.F.F.G.F.G.S.P.I.K.I.I.I.F.F.G.G.G.G.G.G.G.G.G.",
"G.G.G.G.G.G.G.G.G.G.G.G.G.G.G.G.S.K.x.k.a._ t.c.P.U.S.U.%.#.P ( E u.J.K.S.F.S.S.I.U.U.G.F.F.I.K.c.c.c.c.K.I.F.G.G.G.G.G.G.G.G.G.",
"G.G.G.G.G.G.G.G.G.G.G.G.G.G.G.G.I.x.h.] ! ~ _ k.P.F.F.4.$.#.q.t.u.k.K.K.U.C.P.K.J.K.P.S.S.S.K.k.y.y.h.g.x.K.S.F.G.G.G.G.G.G.G.G.",
"G.G.G.G.G.G.G.G.G.G.G.G.G.G.G.U.K.g.{ ~ ~ R u.x.K.C.4.4.$.8.J.J.J.J.K.P.P.P.J.I t.k.J.K.P.I.H.h.R ( ! y.g.c.K.S.G.G.G.G.G.G.G.G.",
"G.G.G.G.G.G.G.G.G.G.G.G.G.G.G.U.K.u.' ' i.g.c.K.P.4.4.4.0.I.K.K.K.K.P.I.C.K.k.T E ` g.H.I.P.H.g.] ( ) ^ y.k.J.P.G.G.G.G.G.G.G.G.",
"G.G.G.G.G.G.G.G.G.G.G.G.G.G.G.G.P.g.h.g.k.c.H.P.5.4.4.0.n...K.K.P.P.P.F.F.P.H.u.` ` h.K.P.P.K.c.h.[ ( ) ! a.c.K.U.F.G.G.G.G.G.G.",
"G.G.G.G.G.G.G.G.G.G.G.G.G.G.G.G.U.P.K.J.J.J.K.C.4.5.4.X o $ j J.K.P.C.S.F.F.K.J.c.k.z.K.F.U.P.J.z.j.d.~ ( [ k.P.G.G.G.G.G.G.G.G.",
"G.G.G.G.G.G.G.G.G.G.F.G.G.G.G.G.G.S.P.K.J.J.d $ = r 4 o # $ 7.e.h.J.P.S.F.F.P.P.P.K.P.U.F.F.F.P.J.c.g.d./ { g.K.U.G.G.G.G.G.G.G.",
"G.G.G.G.G.G.G.A.G.G.F.G.U.G.G.G.G.S.P.J.a.t.5 $ o o o o # < 9 C M , P.S.F.G.S.F.U.F.F.G.G.G.G.F.I.J.J.j.i.d.c.I.F.G.G.G.G.G.G.G.",
"G.G.G.G.G.G.G.G.G.U.I.P.U.G.G.U.G.U.K.j.R Q b $ o X o o # 2 x F m 3 : - v.F.G.G.F.G.F.G.F.G.G.F.U.U.P.K.J.J.I.F.G.G.G.G.G.G.G.G.",
"G.G.G.G.G.G.G.G.F.C.f.w.P.G.G.G.F.F.H.a.Q m 3 $ o X X o $ 1 x F m 3 : # X X ..F.G.G.G.G.G.G.G.G.G.G.U.U.U.F.F.G.G.G.G.G.G.G.G.G.",
"G.G.G.G.G.G.G.G.G.C.f.r.P.F.F.G.G.F.K.9 v 6 : # o X . o $ , z D n 2 $ o X     . M.F.G.G.G.G.G.G.G.G.G.G.G.G.G.G.G.G.G.G.G.G.G.G.",
"G.G.G.G.G.G.G.G.F.F.K.K.C.G.G.G.F.9.# , 1 > # o X X X . # : 8 m 9 , # o X   X $ $ r F.G.G.G.G.G.G.G.G.G.G.G.G.G.G.G.G.G.G.G.G.G.",
"G.G.G.G.G.G.G.G.G.G.F.F.G.F.G.G.g X . # # # . X X   X . o % 2 9 5 $ o o X X o 5 l , # G.G.G.G.G.G.G.G.G.G.G.G.G.G.G.G.G.G.G.G.G.",
"G.G.G.G.G.G.G.G.G.G.G.G.G.G.D.p         O     O O   O O O + # $ $ o + X   o o 3 c 3 @ O G.G.G.G.G.G.G.G.G.G.G.G.G.G.G.G.G.G.G.G.",
"G.G.G.G.G.G.G.G.G.G.G.G.G.G.|           O O     O O   O + + o o o + X     X o $ 2 $ + O O G.G.G.G.G.G.G.G.G.G.G.G.G.G.G.G.G.G.G.",
"G.G.G.G.G.G.G.G.G.G.G.G.G.B.                O O O O + + + O + + + + O     X   X o X       y G.G.G.G.G.G.G.G.G.G.G.G.G.G.G.G.G.G.",
"G.G.G.G.G.G.G.G.G.G.G.G.G.                  O O + + @ + @ @ @ @ @ + + O +       X           N.G.G.G.G.G.G.G.G.G.G.G.G.G.G.G.G.G.",
"G.G.G.G.G.G.G.G.G.G.G.G.f               O O O O @ @ @ @ @ @ @ @ @ @ + + O O O                 G.G.G.G.G.G.G.G.G.G.G.G.G.G.G.G.G.",
"G.G.G.G.G.G.G.G.G.G.G.G.              O O O @ @ @ @ @ @ & & @ @ @ @ @ @ @ X O                 :.G.G.G.G.G.G.G.G.G.G.G.G.G.G.G.G.",
"G.G.G.G.G.G.G.G.G.G.D.h             O O O O @ @ & @ @ & @ & @ & @ & @ @ @ O +                   G.G.G.G.G.G.G.G.G.G.G.G.G.G.G.G.",
"G.G.G.G.G.G.G.G.G.G.G.          O   O O @ @ @ & @ & & & & & & & & & @ @ @ @ @ O                 Z.G.G.G.G.G.G.G.G.G.G.G.G.G.G.G.",
"G.G.G.G.G.G.G.G.G.G.G.&           O O O + & & & & & & & & & & & * @ & & @ @ @ O O O O           i G.G.G.G.G.G.G.G.G.G.G.G.G.G.G.",
"G.G.G.G.G.G.G.G.G.G.f O           O O @ + & & & & & & & & & & & @ * @ * & & @ @ O O             O G.G.G.G.G.G.G.G.G.G.G.G.G.G.G.",
"G.G.G.G.G.G.G.G.G.G.O O         O O @ @ & & & & & & & & & & & & & & & @ & @ @ @ O O y +         O G.G.G.G.G.G.G.G.G.G.G.G.G.G.G.",
"G.G.G.G.G.G.G.G.G.G.  O         O O @ @ & + & & & & & & & & & & & & & & & @ X.W.W.W.W.E.          N.G.G.G.G.G.G.G.G.G.G.G.G.G.G.",
"G.G.G.G.G.G.G.G.G.G.            O @ @ & & & & & & & & & & & & & & & & & * W.W.W.E.E.E.y           m.G.G.G.G.G.G.G.G.G.G.G.G.G.G.",
"G.G.G.G.G.G.G.G.G.G.          O O @ @ @ & & & & & & & & & & & & & & & = W.W.W.W.* O @ O           <.G.G.G.G.G.G.G.G.G.G.G.G.G.G.",
"G.G.G.G.G.G.G.G.G.G.O           O @ @ & & & & & & & & & & & & & & & & W.W.W.a @ & O         O   * | G.G.G.G.G.G.G.G.G.G.G.G.G.G.",
"G.G.G.G.G.G.G.G.G.G.            O @ @ & & & & & & & & & & & & & & & q W.W.= @ @ + O O       O O & n.G.G.G.G.G.G.G.G.G.G.G.G.G.G.",
"G.G.G.G.G.G.G.G.G.G.          O + @ @ & & & & @ & & & & & & & & & & & u & & @ @ O @ O O           m.G.G.G.G.G.G.G.G.G.G.G.G.G.G.",
"G.G.G.G.G.G.G.G.G.G.O         O + @ @ @ @ & & ; e & & & & & & & & & & & & & & @ @ O O             G.G.G.G.G.G.G.G.G.G.G.G.G.G.G.",
"G.G.G.G.G.G.G.G.G.G.0 O     O   + = E.W.W.W.W.W.W.W.W.* & & & & & & & & 0 & @ @ O @ O O           G.G.G.G.G.G.G.G.G.G.G.G.G.G.G.",
"G.G.G.G.G.G.G.G.G.G.v.          Y.W.W.W.W.W.W.W.R.W.W.= & & & & & & & k W.a @ @ @ O             + G.G.G.G.G.G.G.G.G.G.G.G.G.G.G.",
"G.G.G.G.G.G.G.G.G.G.G.          W.W.W.W.T.s * @ @ & & & & & & & q & & o.W. .@ + O O O           &.G.G.G.G.G.G.G.G.G.G.G.G.G.G.G.",
"G.G.G.G.G.G.G.G.G.G.G.+         + * o @ @ & @ * & & & & * @ & w W.W.k H.W.s @ o O   O O         G.G.G.G.G.G.G.G.G.G.G.G.G.G.G.G.",
"G.G.G.G.G.G.G.G.G.G.G.B.          O @ @ @ & @ & & & & &  .L.@ a W.W.W.W.W.; @ O               0 G.G.G.G.G.G.G.G.G.G.G.G.G.G.G.G.",
"G.G.G.G.G.G.G.G.G.G.G.G.            O + @ @ & @ & @ & * E.W.E.W.W.t T.R.y @ O @               G.G.G.G.G.G.G.G.G.G.G.G.G.G.G.G.G.",
"G.G.G.G.G.G.G.G.G.G.G.G.D.        O O O @ @ @ @ & & & & * W.W.W.E.@ @ @ @ @ O O O           p G.G.G.G.G.G.G.G.G.G.G.G.G.G.G.G.G.",
"G.G.G.G.G.G.G.G.G.G.G.G.G.q   O       O O @ @ @ @ & @ & @ * =.3.@ @ @ @ + O O O O           G.G.G.G.G.A.G.G.G.G.G.G.G.G.G.G.G.G.",
"G.G.G.G.G.G.G.G.G.G.G.G.G.G.* O         O @ O @ @ @ @ @ @ @ @ @ @ @ @ + O O               B Z G.G.G.Y F l.D.G.G.G.G.G.G.G.G.G.G.",
"G.G.G.G.G.G.G.G.G.G.G.G.G.G.G.+         O O O O O @ O @ @ @ + @ O @ + O O O O           n V Z G.s.L U U U U G.G.G.G.G.G.G.G.G.G.",
"G.G.G.G.G.G.G.G.G.G.G.G.G.G.G.G.          O   O O @ O @ o + + + O + @                 m B V U U U U U U U U Y G.G.G.G.G.G.G.G.G.",
"G.G.G.G.G.G.G.G.G.G.G.G.G.G.G.G.G.O           O O O O O O O O X   X                 G V V U U U U U U U U V V G.G.G.G.G.G.G.G.G.",
"G.G.G.G.G.G.G.G.G.G.G.G.G.G.G.G.G.G.i                   O O                     O D.G.B V S U U L S U F B Z K G.G.G.G.G.G.G.G.G.",
"G.G.G.G.G.G.G.G.G.G.G.G.G.G.G.G.G.Z.B.m.+                                     v.G.G.G.G.V V U U S L A V Z Z G.G.G.G.G.G.G.G.G.G.",
"G.G.G.G.G.G.G.G.G.G.G.G.G.G.G.D.M.n.9.,.;.*.%                         X O ;.M.M.M.N.V.V.V V V U L S V V w.G.G.G.G.G.G.G.G.G.G.G.",
"G.G.G.G.G.G.G.G.G.G.G.G.G.G.B.m.9.,.=.=.=.=.L V N 7 X             ; } ;.;.;.,.,.2.2.2.9.b.V V V S V V L.G.G.G.G.G.G.G.G.G.G.G.G.",
"G.G.G.G.G.G.G.G.G.G.G.G.D.B.b.<.-.=.=.=.=.=.U U S V V *.=.=.=.=.*.=.=.=.-.=.=.=.-.;.;.;.;.,.V V V J F.G.G.G.G.G.G.G.G.G.G.G.G.G.",
"G.G.G.G.G.G.G.G.G.G.G.G.Z.M.b.| =.=.=.=.O.+.U U U U U *.*.*.*.=.*.*.=.=.=.=.=.=.=.=.=.=.=.=.-.H 6.m.V.A.G.G.G.G.G.G.G.G.G.G.G.G.",
"G.G.G.G.G.G.G.G.G.G.G.D.M.M.<.| o.@.U U U U U L U U U =.=.=.*.*.*.*.*.*.*.*.*.*.*.*.*.*.=.*.=.=.;.2.B.Z.F.G.G.G.G.G.G.G.G.G.G.G.",
"G.G.G.G.G.G.G.G.G.G.D.Z.b.| <.1.-.S U U U U U S U U S *.*.*.*.*.*.*.*.*.*.*.*.*.*.*.*.*.*.*.*.=.-.,.n.Z.G.G.G.G.G.G.G.G.G.G.G.G.",
"G.G.G.G.G.G.G.G.G.G.G.V.v.<.*.*.L L U U U U S L U U U *.*.*.*.*.*.*.*.*.*.*.*.*.*.*.*.*.*.*.*.*.=.;.n.B.G.G.G.G.G.G.G.G.G.G.G.G.",
"G.G.G.G.G.G.G.G.G.G.D.V.v.,.*.*.V A L U U U L F U A A *.*.*.*.*.*.*.*.*.*.*.*.*.*.*.*.*.*.*.*.*.=.>.v.B.G.G.G.G.G.G.G.G.G.G.G.G.",
"G.G.G.G.G.G.G.G.G.G.G.D.b.,.*.*.A V V V V V V V V V V *.*.*.*.*.*.*.*.*.*.*.*.*.*.*.*.*.*.*.*.*.:.<.n.Z.G.G.G.G.G.G.G.G.G.G.G.G.",
"G.G.G.G.G.G.G.G.G.G.G.D.N.2.>.*.O.K V V V V V V V V O.*.*.*.*.*.*.*.*.*.*.*.*.*.*.*.*.*.*.*.*.-.:.<.N.D.G.G.G.G.G.G.G.G.G.G.G.G.",
"G.G.G.G.G.G.G.G.G.G.G.G.Z.m.2.;.=.=.=.=.=.=.=.=.*.*.=.=.=.*.*.=.=.=.=.=.=.=.=.=.*.*.*.*.-.*.-.;.<.M.D.G.G.G.G.G.G.G.G.G.G.G.G.G.",
"G.G.G.G.G.G.G.G.G.G.G.G.D.V.m.2.,.;.;.=.=.=.=.=.=.*.*.=.=.=.=.*.=.=.=.=.=.=.=.=.*.*.*.*.-.;.,.2.M.B.G.G.G.G.G.G.G.G.G.G.G.G.G.G.",
"G.G.G.G.G.G.G.G.G.G.G.G.G.D.D.N.M.2.2.,.,.;.;.;.;.;.;.-.;.;.;.;.;.;.;.;.>.>.;.>.;.>.,.;.2.2.M.M.V.D.G.G.G.G.G.G.G.G.G.G.G.G.G.G.",
"G.G.G.G.G.G.G.G.G.G.G.G.G.G.G.D.V.B.M.M.M.b.9.v.v.2.2.v.2.2.v.v.2.v.v.2.v.v.v.v.b.b.M.M.N.B.Z.G.G.G.G.G.G.G.G.G.G.G.G.G.G.G.G.G.",
"G.G.G.G.G.G.G.G.G.G.G.G.G.G.G.G.G.G.G.D.V.D.V.V.B.V.Z.V.V.Z.Z.V.Z.Z.V.Z.Z.Z.V.Z.Z.D.Z.D.G.G.G.G.G.G.G.G.G.G.G.G.G.G.G.G.G.G.G.G.",
"G.G.G.G.G.G.G.G.G.G.G.G.G.G.G.G.G.G.G.G.G.G.G.G.G.G.G.G.G.G.G.G.G.G.G.G.G.G.G.G.G.G.G.G.G.G.G.G.G.G.G.G.G.G.G.G.G.G.G.G.G.G.G.G."
};
