/* XPM */
static char *result[] = {
/* columns rows colors chars-per-pixel */
"64 64 80 1 ",
"  c #232526",
". c #252728",
"X c #26292A",
"o c #292B2D",
"O c #2E3032",
"+ c #323536",
"@ c #343738",
"# c #36383A",
"$ c #393C3E",
"% c #3C3E40",
"& c #3F4243",
"* c #414446",
"= c #434648",
"- c #45484A",
"; c #494C4E",
": c #4B4E50",
"> c #4D5153",
", c #515456",
"< c #535759",
"1 c #55595B",
"2 c #5B5E5F",
"3 c #5C5F61",
"4 c #5E6365",
"5 c #5F676C",
"6 c #656A6C",
"7 c #6B6E6F",
"8 c #646D72",
"9 c #6E7173",
"0 c #6A747A",
"q c #727678",
"w c #74787B",
"e c #7A7F82",
"r c #79868E",
"t c #848789",
"y c #878B8E",
"u c #8C8E8F",
"i c #8D9295",
"p c #909699",
"a c #939A9D",
"s c #959DA1",
"d c #999FA1",
"f c #97A0A5",
"g c #9BA2A5",
"h c #93A5AF",
"j c #9CA5AA",
"k c #95A7B3",
"l c #95A9B4",
"z c #9EABB2",
"x c #9AACB8",
"c c #A1A7AA",
"v c #A4AAAD",
"b c #A7ADB1",
"n c #A9AFB2",
"m c #A1B0B7",
"M c #ACB1B4",
"N c #A4B3BC",
"B c #ADB6BC",
"V c #B0B4B7",
"C c #B2B6B9",
"Z c #B5B9BC",
"A c #B9BCBF",
"S c #A4B6C1",
"D c #A5B8C3",
"F c #A8B8C3",
"G c #A7BBCA",
"H c #BCBFC1",
"J c #BCC0C2",
"K c #ADC3D1",
"L c #B1C5D2",
"P c #B3C8D6",
"I c #B6CDDC",
"U c #B8CFDE",
"Y c #B8D0DF",
"T c #BBD4E4",
"R c #C5C7C9",
"E c #C7C9CB",
"W c #D2D4D5",
"Q c #D5D7D8",
"! c #D7D9DB",
"~ c #D8DADB",
/* pixels */
"TTTTTTTTTTTTTTTTTTTTTTTTTTTTTTTTTTTTTTTTTTTTTTTTTTTTTTTTTTTTTTTT",
"TTTTTTTTTTTTTTTTTTTTTTTTTTTTTTTTTTTTTTTTTTTTTTTTTTTTTTTTTTTTTTTT",
"TTTTTTTTTTTTTTTTTTTTTTTTTTTTTTTTTTTTTTTTTTTTTTTTTTTTTTTTTTTTTTTT",
"TTTTTTTTTTTTTTTTTTTTTTTTTTTTTTTTTTTTTTTTTTTTTTTTTTTTTTTTTTTTTTTT",
"TTTTTTTTTTTTTTTTTTTTTTTTTTTTTTTTTTTTTYl5>;----;rTTTTTTTTTTTTTTTT",
"TTTTTTTTTTTTTTTTTTTTTTTTTTTTTTTTTTIe---=---------;0STTTTTTTTTTTT",
"TTTTTTTTTTTTTTTTTTTTTTTTTTTTTTTTr;---=-9~~~~~;------=>GTTTTTTTTT",
"TTTTTTTTTTTTTTTTTTTTTTTTTTTTTI>-------W!~~~~~~:---------KTTTTTTT",
"TTTTTTTTTTTTTTTTTTTTTTTTTTTT8--------E!~<---d~~----------8TTTTTT",
"TTTTTTTTTTTTTTTTTTTTTTTTTTY----------~!--&@=-Q~1----------8TTTTT",
"TTTTTTTTTTTTTTTTTTTTTTTTTT-----------!!=    =E~1-----=-----YTTTT",
"TTTTTTTTTTTTTTTTTTTTTTTTT------------!!H    +~~------------8TTTT",
"TTTTTTTTTTTTTTTTTTTTTTTTx------------3!i     W4-------------TTTT",
"TTTTTTTTTTTTTTTTTTTTTTTT1=-------------&    o---------------YTTT",
"TTTTTTTTTTTTTTTTTTTTTTTTO+--------------=. o----------------DTTT",
"TTTTTTTTTTTTTTTTTTTTTTTS  @-------------------------------==kTTT",
"TTTTTTTTTTTTTTTTTTTTTTTT   ---------------------------------8TTT",
"TTTTTTTTTTTTTTTTTTTTTTTT    --------------------------------;TTT",
"TTTTTTTTTTTTTTTTTTTTTTTTk   o----------------------------==-3TTT",
"TTTTTTTTTTTTTTTTTTTTTTTTY     #-------------------------X o=KTTT",
"TTTTTTTTTTTTTTTTTTTTTTSppu.     o---------------------=  ..-TTTT",
"TTTTTTTTTTTTTTTTTTTFpppppp6     . .+-------------%O      .&YTTTT",
"TTTTTTTTTTTTTTTTTdppppppavv6  .       .+*---*$X          =ITTTTT",
"TTTTTTTTTTTTTTTzpppppcbMnMbnb$..                       #hTTTTTTT",
"TTTTTTTTTTTTTUppppdbnMAHHHHJHHA7.             .     o-kTTTTTTTTT",
"TTTTTTTTTTTTzpppabMZHHHHJHHHHHJHAM2.          .. .$6KTTTTTTTTTTT",
"TTTTTTTTTTTapppvbCHHHJHHHHHHAJAZCAHHHCut2*&*;7ycnvpppzTTTTTTTTTT",
"TTTTTTTTTTppppMMHHJHHHHHHHCnnnnnnnnnnnVAHHAHJJHHMnbpppjTTTTTTTTT",
"TTTTTTTTTpppaMMHHHHHHHZnnnnnnnnnnnnnnnnnnnnCHHHHHCnnpppzTTTTTTTT",
"TTTTTTTTpppdnMHHHHHHHMnnnnnnnnnnnnnbvnnnnnnnnCHHHHCnnjvpxTTTTTTT",
"TTTTTTTpppsnnHHHHHHCnnnnnnj<-6vnnnp----cnnnnnnMHHHHMnnnnpDTTTTTT",
"TTTTTTFapabnCHHHHJCnnnnnn:----;bnn-----,nMnnnnnMHHHHnnnncpYTTTTT",
"TTTTTTpppbnnHHHHJVnnnnnna-----;nnn;----6nnnnnnnnAHHHHnnnnapTTTTT",
"TTTTTfpppnnVHJHHVnnnnnnnM-----6nnnc;--;vnnnnnnnnMHHHAnnnMvpmTTTT",
"TTTTTpppcnnHHJHHnnnnnnVnna>-,cnnnnnncvnnnnnnnnnnnHHHHZnnnnppTTTT",
"TTTTIpppnnnHHJHAnnc---wnMMbMbbbappvnbnnnb;--6MnnnHHHHHnnnnppTTTT",
"TTTTIppannnHHHHAnn-----vMnnnnnpppppnnnnn----;qnnnAHHHHbnnnapTTTT",
"TTTTPppannnHHHHAnn;----bMnnnnnpppppnnnnn-----2nnMCHHHHMnnnapTTTT",
"TTTTPppannnHHHHHnnn,--6nnnnnnnapppnnnnnng----bnnbVAHHHMnnnapTTTT",
"TTTTTpppnnMAHHHHnnnnnnnnnnnnnnnnnnnndnnnnnnnnbnnnZHHHHnnbMppTTTT",
"TTTTTpppnnnCJHHHVnnnnnnnnj---,bnnni---7nnnnnnnnnnJHHAAbMnnppTTTT",
"TTTTTFpppnnnHHHHJnnnnnnnn-----;nnn-----qnnnnnnnnnHHHJnnbncpNTTTT",
"TTTTTTpppbnnHHHHJHnnnnnnn------nnn-----6nnnnnnnMHHAHAMbMnppUTTTT",
"TTTTTTYpppcnBHHHJAHMnnnnM4----qbnn<----vnnnnnbMHHHJJnbMbapgTTTTT",
"TTTTTTTNpppnnHARHHHJCnnnnncpivnnnnncqynnnnnnnAAAHHAnnnncppTTTTTT",
"TTTTTTTTspppnnZAHHHJHHVnnMnnMnnnnnnnnnnnnnZAHAARHHnnnnbppPTTTTTT",
"TTTTTTTTTapppMnMAHJAHHAJAMnnnnnnnnnnnnMZAHHHHHHAAnnnMvppPTTTTTTT",
"TTTTTTTTTTapppnnnnAHHHAJHHHHZMMnnnVZAHHHHHHHHHAMnnnnappTTTTTTTTT",
"TTTTTTTTTTTfpppgnnnnZHHHHHHHJHHHHJHHJJJJHJHHAMMbnaaapbTTTTTTTTTT",
"TTTTTTTTTTTTNppppabnnnMZHHHJJJHHHHHAJJAAAZMnbbbgppppYTTTTTTTTTTT",
"TTTTTTTTTTTTTTapppppdbnMnMnMMCAAHHHAMMbMnnMbvapppacYTTTTTTTTTTTT",
"TTTTTTTTTTTTTTTTjpppppppgvnbnnMMnnnnnnMbjapppppppYTTTTTTTTTTTTTT",
"TTTTTTTTTTTTTTTTTTLdppppppppppafaaaappppppppppfUTTTTTTTTTTTTTTTT",
"TTTTTTTTTTTTTTTTTTTTTPNappppppppapppppppppaNUTTTTTTTTTTTTTTTTTTT",
"TTTTTTTTTTTTTTTTTTTTTTTTTTGgpppppppppgFUTTTTTTTTTTTTTTTTTTTTTTTT",
"TTTTTTTTTTTTTTTTTTTTTTTTTTTTTTTTTTTTTTTTTTTTTTTTTTTTTTTTTTTTTTTT",
"TTTTTTTTTTTTTTTTTTTTTTTTTTTTTTTTTTTTTTTTTTTTTTTTTTTTTTTTTTTTTTTT",
"TTTTTTTTTTTTTTTTTTTTTTTTTTTTTTTTTTTTTTTTTTTTTTTTTTTTTTTTTTTTTTTT",
"TTTTTTTTTTTTTTTTTTTTTTTTTTTTTTTTTTTTTTTTTTTTTTTTTTTTTTTTTTTTTTTT",
"TTTTTTTTTTTTTTTTTTTTTTTTTTTTTTTTTTTTTTTTTTTTTTTTTTTTTTTTTTTTTTTT",
"TTTTTTTTTTTTTTTTTTTTTTTTTTTTTTTTTTTTTTTTTTTTTTTTTTTTTTTTTTTTTTTT",
"TTTTTTTTTTTTTTTTTTTTTTTTTTTTTTTTTTTTTTTTTTTTTTTTTTTTTTTTTTTTTTTT",
"TTTTTTTTTTTTTTTTTTTTTTTTTTTTTTTTTTTTTTTTTTTTTTTTTTTTTTTTTTTTTTTT",
"TTTTTTTTTTTTTTTTTTTTTTTTTTTTTTTTTTTTTTTTTTTTTTTTTTTTTTTTTTTTTTTT"
};
