/* XPM */
static char *result[] = {
/* columns rows colors chars-per-pixel */
"64 64 74 1 ",
"  c #232526",
". c #252728",
"X c #26292A",
"o c #292B2D",
"O c #2E3032",
"+ c #323536",
"@ c #343738",
"# c #36383A",
"$ c #393C3E",
"% c #3D3E40",
"& c #3F4243",
"* c #414446",
"= c #434648",
"- c #45484A",
"; c #494C4E",
": c #4C4F50",
"> c #4D5052",
", c #535658",
"< c #56595B",
"1 c #5A5D5F",
"2 c #5C5F61",
"3 c #616466",
"4 c #636668",
"5 c #66686A",
"6 c #6B6D6F",
"7 c #6B6E70",
"8 c #6D7172",
"9 c #767A7A",
"0 c #797C7E",
"q c #808386",
"w c #848789",
"e c #8B8D8F",
"r c #8E9194",
"t c #909699",
"y c #93999C",
"u c #9A9D9F",
"i c #959DA1",
"p c #999EA1",
"a c #97A1A5",
"s c #9AA2A6",
"d c #9BA5AB",
"f c #9EABB3",
"g c #A1A4A7",
"h c #A1A7AA",
"j c #A4AAAD",
"k c #A6ADB1",
"l c #A9AFB2",
"z c #A1B0B7",
"x c #ACB1B4",
"c c #A4B3BC",
"v c #ADB6BC",
"b c #B0B4B7",
"n c #B2B6B9",
"m c #B6BABC",
"M c #B9BCBE",
"N c #A7B7C1",
"B c #A7B8C1",
"V c #A8B8C3",
"C c #ACBFCA",
"Z c #BCBFC1",
"A c #AEC1CD",
"S c #BCC0C1",
"D c #AFC3D0",
"F c #B1C5D2",
"G c #B3C9D6",
"H c #B6CCDB",
"J c #B8CFDE",
"K c #B8D0DF",
"L c #BBD4E4",
"P c #C5C7C9",
"I c #C7C9CB",
"U c #D2D4D5",
"Y c #D5D7D8",
"T c #D8DADB",
/* pixels */
"LLLLLLLLLLLLLLLLLLLLLLLLLLLLLLLLLLLLLLLLLLLLLLLLLLLLLLLLLLLLLLLL",
"LLLLLLLLLLLLLLLLLLLLLLLLLLLLLLLLLLLLLLLLLLLLLLLLLLLLLLLLLLLLLLLL",
"LLLLLLLLLLLLLLLLLLLLLLLLLLLLLLLLLLLLLLLLLLLLLLLLLLLLLLLLLLLLLLLL",
"LLLLLLLLLLLLLLLLLLLLLLLLLLLLLLLLLLLLLLLLLLLLLLLLLLLLLLLLLLLLLLLL",
"LLLLLLLLLLLLLLLLLLLLLLLLLLLLLLLLLLLLLLLLLLLLLLLLLLLLLLLLLLLLLLLL",
"LLLLLLLLLLLLLLLLLLLLLLLLLLLLLLLLLLLLLLLLLLLLLLLLLLLLLLLLLLLLLLLL",
"LLLLLLLLLLLLLLLLLLLLLLLLLLLLLLLLLLLLLLLLLLLLLLLLLLLLLLLLLLLLLLLL",
"LLLLLLLLLLLLLLLLLLLLLLLLLLLLLLLLLLLLLLLLLLLLLLLLLLLLLLLLLLLLLLLL",
"LLLLLLLLLLLLLLLLLLLLLLLLLLLLLLLLLLLLLLLLLLLLLLLLLLLLLLLLLLLLLLLL",
"LLLLLLLLLLLLLLLLLLLLLLLLLLLLLLLLLLLLLLLLLLLLLLLLLLLLLLLLLLLLLLLL",
"LLLLLLLLLLLLLLLLLLLLLLLLLLLLLLLLLLLLLLLLLLLLLLLLLLLLLLLLLLLLLLLL",
"LLLLLLLLLLLLLLLLLLLLLLLLLLLLLLLLLLLLLLLLLLLLLLLLLLLLLLLLLLLLLLLL",
"LLLLLLLLLLLLLLLLLLLLLLLLLLLLLLLLLLLLLLLLLLLLLLLLLLLLLLLLLLLLLLLL",
"LLLLLLLLLLLLLLLLLLLLLLLLLLLLLLLLLLLLLLLLLLLLLLLLLLLLLLLLLLLLLLLL",
"LLLLLLLLLLLLLLLLLLLLLLLLLLLLLLLLLLLLLLLLLLLLLLLLLLLLLLLLLLLLLLLL",
"LLLLLLLLLLLLLLLLLLLLLLLLLLLLLLLLLLLLLLLLLLLLLLLLLLLLLLLLLLLLLLLL",
"LLLLLLLLLLLLLLLLLLLLLLLLLLLLLLLLLLLLLLLLLLLLLLLLLLLLLLLLLLLLLLLL",
"LLLLLLLLLLLLLLLLLLLLLLLLLLLLLLLLLLLLLLLLLLLLLLLLLLLLLLLLLLLLLLLL",
"LLLLLLLLLLLLLLLLLLLLLLLLLLLLLLLLLLLLLLLLLLLLLLLLLLLLLLLLLLLLLLLL",
"LLLLLLLLLLLLLLLLLLLLLLLLLLHGVfkfcAGHLLLLLLLLLLLLLLLLLLLLLLLLLLLL",
"LLLLLLLLLLLLLLLLLLLLLLNtttttttttttttttttsALLLLLLLLLLLLLLLLLLLLLL",
"LLLLLLLLLLLLLLLLLLLNttttttttttttttttttttttttyALLLLLLLLLLLLLLLLLL",
"LLLLLLLLLLLLLLLLLittttttyjllllxxxxxljjattttttttaLLLLLLLLLLLLLLLL",
"LLLLLLLLLLLLLLLfttttyhkxlxllxmMSSZZZZZMxlxjpttttyfLLLLLLLLLLLLLL",
"LLLLLLLLLLLLLKttttiklxMZZZZSMMMMSSZZZZZZZZnxllyttttKLLLLLLLLLLLL",
"LLLLLLLLLLLLftttykxmZZZZSZZZPMPMMSZZZZZZZZZZMlllttttDLLLLLLLLLLL",
"LLLLLLLLLLLytttjlnZZZSZZZZZMy3;;-----0SZZZZZZZMlxfrttfLLLLLLLLLL",
"LLLLLLLLLLytttxxZZSZZZZZM7-------------;6gMZZZZZxlxtttdLLLLLLLLL",
"LLLLLLLLLtttyxxSZZZZZZq------8TTTTT:------->jZZZSnlltrtfLLLLLLLL",
"LLLLLLLLtttilxZZZZSn>-------UTTTTTTT:---------bZSSxlxsjtfLLLLLLL",
"LLLLLLLtttillZZZZZ4--------PTT,---uTT----------5ZSSxxkkxtVLLLLLL",
"LLLLLLVtttllnZZZM----------TT--%#--YT<----------5SSSxkxxdtLLLLLL",
"LLLLLLtttkllZZZM-----------TT-    -IT<-----------mZZZllllytLLLLL",
"LLLLLatttllbZZZ;-----------TTM    +TT------------3ZZZlllljtxLLLL",
"LLLLLttthllZZZu------------1Te     U2-------------ZZZnllllttLLLL",
"LLLLJtttlllZZZ,---------------    o---------------MZZZllllttLLLL",
"LLLLGttylllSZZ++--------------=  o----------------gSSSllkxytLLLL",
"LLLLGttylllZZg  @---------------------------------tZSSxlxxytLLLL",
"LLLLHttylllZZM   ---------------------------------3ZSZxlkxytLLLL",
"LLLLLtttklxMZM    --------------------------------;ZZZlllktrLLLL",
"LLLLLtttkllnZZu   o----------------------------=--1ZSmxxllttLLLL",
"LLLLLVttylllZZZ     #-------------------------. X-lSSxjxxstcLLLL",
"LLLLLLtttkllZZZl      +*--------------------=    ;SMMxxjxttKLLLL",
"LLLLLLKttyhlvZZZ9       .@*------------*O       *MSSkkxxttaLLLLL",
"LLLLLLLctttkkZZZZ5           @*---*$X          -mZMxkxjdttLLLLLL",
"LLLLLLLLitttllZZZZM%                         #tZZZllkxxrtGLLLLLL",
"LLLLLLLLLtttylllZZZMM6                     -yZZZmlllxjtrHLLLLLLL",
"LLLLLLLLLLyttyllllMSSZSx2               $0ZZZZZlxlllittLLLLLLLLL",
"LLLLLLLLLLLitttsxkllmMMSZZZbrw2*&&>6ebSSSMZSMjjxlyurtfLLLLLLLLLL",
"LLLLLLLLLLLLcttttykllxxMZZSSZSZZZZZZSZSMMmxkxxxattttKLLLLLLLLLLL",
"LLLLLLLLLLLLLLytttttillllxxxxnMSZZZmxxxkxxxxhytttrdLLLLLLLLLLLLL",
"LLLLLLLLLLLLLLLLdtttttttajlkllxxllxlllxkdtttttttyLLLLLLLLLLLLLLL",
"LLLLLLLLLLLLLLLLLLFittttttttttyyiyytttttttttttaKLLLLLLLLLLLLLLLL",
"LLLLLLLLLLLLLLLLLLLLLHzyttttttttttttttttttycKLLLLLLLLLLLLLLLLLLL",
"LLLLLLLLLLLLLLLLLLLLLLLLLLCatytttttytaBKLLLLLLLLLLLLLLLLLLLLLLLL",
"LLLLLLLLLLLLLLLLLLLLLLLLLLLLLLLLLLLLLLLLLLLLLLLLLLLLLLLLLLLLLLLL",
"LLLLLLLLLLLLLLLLLLLLLLLLLLLLLLLLLLLLLLLLLLLLLLLLLLLLLLLLLLLLLLLL",
"LLLLLLLLLLLLLLLLLLLLLLLLLLLLLLLLLLLLLLLLLLLLLLLLLLLLLLLLLLLLLLLL",
"LLLLLLLLLLLLLLLLLLLLLLLLLLLLLLLLLLLLLLLLLLLLLLLLLLLLLLLLLLLLLLLL",
"LLLLLLLLLLLLLLLLLLLLLLLLLLLLLLLLLLLLLLLLLLLLLLLLLLLLLLLLLLLLLLLL",
"LLLLLLLLLLLLLLLLLLLLLLLLLLLLLLLLLLLLLLLLLLLLLLLLLLLLLLLLLLLLLLLL",
"LLLLLLLLLLLLLLLLLLLLLLLLLLLLLLLLLLLLLLLLLLLLLLLLLLLLLLLLLLLLLLLL",
"LLLLLLLLLLLLLLLLLLLLLLLLLLLLLLLLLLLLLLLLLLLLLLLLLLLLLLLLLLLLLLLL",
"LLLLLLLLLLLLLLLLLLLLLLLLLLLLLLLLLLLLLLLLLLLLLLLLLLLLLLLLLLLLLLLL"
};
