/* XPM */
static char *result[] = {
/* columns rows colors chars-per-pixel */
"64 64 109 2 ",
"   c #77C774",
".  c #79C572",
"X  c #77C977",
"o  c #7BC875",
"O  c #73CB7B",
"+  c #7DD27E",
"@  c #80D07C",
"#  c #6ECF81",
"$  c #6DD285",
"%  c #69D78B",
"&  c #6DD88D",
"*  c #7CD685",
"=  c #7DD887",
"-  c #73DB8C",
";  c #79DD8C",
":  c #6ED690",
">  c #6FD990",
",  c #72D695",
"<  c #73DA92",
"1  c #7ADC96",
"2  c #76D69A",
"3  c #7CDC9A",
"4  c #7FE097",
"5  c #7FD7A2",
"6  c #86CE83",
"7  c #8CCE86",
"8  c #8ECF89",
"9  c #88DC86",
"0  c #88D589",
"q  c #84DE8B",
"w  c #8ADF89",
"e  c #94D18E",
"r  c #93D897",
"t  c #82E48F",
"y  c #8BE08A",
"u  c #8DE990",
"i  c #83E19C",
"p  c #8AE49E",
"a  c #92E394",
"s  c #92EC91",
"d  c #98EC96",
"f  c #92E199",
"g  c #97EA9C",
"h  c #9BED9B",
"j  c #81D6A6",
"k  c #88DFA1",
"l  c #86D6AB",
"z  c #8AD6AF",
"x  c #9DDFA6",
"c  c #8DD5B2",
"v  c #90D5B6",
"b  c #95D5BB",
"n  c #98D5BE",
"m  c #B3DEAF",
"M  c #B5DFB1",
"N  c #87E2A1",
"B  c #8DE2A4",
"V  c #9BE6A4",
"C  c #97EBA6",
"Z  c #9BEBA5",
"A  c #95E4AD",
"S  c #9CE4AF",
"D  c #9CECA8",
"F  c #9CE5B1",
"G  c #A1ECAD",
"H  c #ABEEAA",
"J  c #A5E5B5",
"K  c #A4EDB2",
"L  c #A9EEB5",
"P  c #AAE7B8",
"I  c #A2E9B9",
"U  c #AEEBBB",
"Y  c #BFE5BC",
"T  c #B4E9BF",
"R  c #BCF0BB",
"E  c #9DD5C2",
"W  c #A0D5C6",
"Q  c #A3D4CA",
"!  c #A8D4CF",
"~  c #ADD5D5",
"^  c #B5D4DD",
"/  c #B8D4DF",
"(  c #AEEEC1",
")  c #B4EDC2",
"_  c #B4F0C7",
"`  c #B6F0C8",
"'  c #BBF1CA",
"]  c #B7D4E0",
"[  c #BBD4E4",
"{  c #C4EDC9",
"}  c #CCECCC",
"|  c #C4F1C3",
" . c #C4F2CC",
".. c #CFF1CD",
"X. c #CFEFD1",
"o. c #CDF2D2",
"O. c #D4F1D5",
"+. c #D8F2D7",
"@. c #DCF3DA",
"#. c #C0D7E6",
"$. c #C2D9E7",
"%. c #CADEEA",
"&. c #C9E1E4",
"*. c #D2E2ED",
"=. c #E7FAEA",
"-. c #EAFBED",
";. c #EEF4F8",
":. c #F4FCF6",
">. c #FFFFFF",
/* pixels */
"[ [ [ [ [ [ [ [ [ [ [ [ [ [ [ [ [ [ [ [ [ [ [ [ [ [ [ [ [ [ [ [ [ [ [ [ [ [ [ [ [ [ [ [ [ [ [ [ [ [ [ [ [ [ [ [ [ [ [ [ [ [ [ [ ",
"[ [ [ [ [ [ [ [ [ [ [ [ [ [ [ [ [ [ [ [ [ [ [ [ [ [ [ [ [ [ [ ~ [ [ [ [ [ [ [ [ [ [ [ [ [ [ [ [ [ [ [ [ [ [ [ [ [ [ [ [ [ [ [ [ ",
"[ [ [ [ [ [ [ [ [ [ [ [ [ [ [ [ [ [ [ [ [ [ [ [ [ [ [ [ b % % % % 2 [ [ [ [ [ [ [ [ [ [ [ [ [ [ [ [ [ [ [ [ [ [ [ [ [ [ [ [ [ [ ",
"[ [ [ [ [ [ [ [ [ [ [ [ [ [ [ [ [ [ [ [ [ [ [ [ [ [ ] % % % % % % % % E [ [ [ [ [ [ [ [ [ [ [ [ [ [ [ [ [ [ [ [ [ [ [ [ [ [ [ [ ",
"[ [ [ [ [ [ [ [ [ [ [ [ [ [ [ [ [ [ [ [ [ [ [ [ [ l % % % % J { : % % % : ! [ [ [ [ [ [ [ [ [ [ [ [ [ [ [ [ [ [ [ [ [ [ [ [ [ [ ",
"[ [ [ [ [ [ [ [ [ [ [ [ [ #.[ [ [ [ [ [ [ [ [ ] % % % % J @.@.@.@.o.% % % % , [ [ [ [ [ [ [ [ [ [ [ [ [ [ [ [ [ [ [ [ [ [ [ [ [ ",
"[ [ [ [ [ [ [ [ [ [ [ [ $.>.>.[ [ [ [ [ [ [ ^ % % % % @.@.@.@.@.@.@.@.F % % % % ~ [ [ [ [ [ [ [ [ [ [ [ [ [ [ [ [ [ [ [ [ [ [ [ ",
"[ [ [ [ [ [ [ [ [ [ [ [ ;.>.>.[ [ [ [ [ [ 2 % % % A @.@.@.@.@.@.@.@.@.@.@.: % % % E [ [ [ [ [ [ [ [ [ [ [ [ [ [ [ [ [ [ [ [ [ [ ",
"[ [ [ [ [ [ [ [ [ [ [ [ >.>.>.[ [ [ [ [ > % % %  .O._ _ _ _ _ _ _ ` O.@.@.@.K % % % ~ [ [ [ [ [ [ [ [ [ [ [ [ [ [ [ [ [ [ [ [ [ ",
"[ [ [ [ [ [ [ [ [ [ [ %.>.>.>.[ [ [ / % % % % U _ _ _ _ _ _ _ _ _ _ _ _ O.@.@.O.% % % c [ [ [ [ [ [ [ [ [ [ [ [ [ [ [ [ [ [ [ [ ",
"[ [ [ [ [ [ [ [ [ [ [ >.>.>.>.>.[ / % % % < D U _ _ _ _ _ _ _ _ _ _ _ _ _ _ @.@.O.% % % 5 [ [ [ [ [ [ [ [ [ [ [ [ [ [ [ [ [ [ [ ",
"[ [ [ [ [ [ [ [ [ [ >.>.>.>.>.>.&.% % % i D D ) _ _ _ _ _ _ _ _ _ _ _ _ _ _ _ @.@.+.% % % z [ [ [ [ [ [ [ [ [ [ [ [ [ [ [ [ [ [ ",
"[ [ [ [ [ [ [ $.*.>.>.>.>.>.>.>.>.1 % i D D D ( _ _ _ _ _ _ _ _ _ _ _ _ _ _ _ _ o.@.@.% % % 5 [ [ [ [ [ [ [ [ [ [ [ [ [ [ [ [ [ ",
"[ [ [ [ [ [ *.>.>.>.>.>.>.>.>.>.>.>.:.D D D D D _ _ _ _ _ C I _ _ _ _ _ _ _ _ _ `  .@.+.% % % z [ [ [ [ [ [ [ [ [ [ [ [ [ [ [ [ ",
"[ [ [ [ [ [ %.>.>.>.>.>.>.>.>.>.>.>.>.K D D D D _ _ _ _ > % % L _ _ _ _ _ _ _ _ ` _ ' @.+.% % % 5 [ [ [ [ [ [ [ [ [ [ [ [ [ [ [ ",
"[ [ [ [ [ [ [ [ *.>.>.>.>.>.>.>.>.>._ D D D D D K _ _ > % % - s d _ _ _ _ _ _ _ _ _ _ ' @.+.% % : E [ [ [ [ [ [ [ [ [ [ [ [ [ [ ",
"[ [ [ [ [ [ [ [ [ [ ;.>.>.>.>.-.D D D D D D D D D _ % % % - s s s s _ _ _ _ _ _ _ _ _ _ ' @.+.% % % ] [ [ [ [ [ [ [ [ [ [ [ [ [ ",
"[ [ [ [ [ [ [ [ [ [ [ :.>.>.>.D D D D D D K D D D % % % - s s s s s s _ _ _ _ _ _ _ _ _ _ ' @...% % % ] [ [ [ [ [ [ [ [ [ [ [ [ ",
"[ [ [ [ [ [ [ [ [ [ % N >.>.=.Z D D D D D L D D % % % - s s s s s s s Z _ _ _ _ _ _ _ _ _ _ ' @.( % % % [ [ [ [ [ [ [ [ [ [ [ [ ",
"[ [ [ [ [ [ [ [ [ , % % >.>. .Z D D D D D D K % % % - s s s s s s s s s Z _ _ _ _ _ _ _ _ _ _ o.@.J % % 2 [ [ [ [ [ [ [ [ [ [ [ ",
"[ [ [ [ [ [ [ [ l % % > -.:.D D D D D D D D : % % - s s s s s s s s s s s s _ _ _ _ _ _ _ _ _ _ O.@.: % % c [ [ [ [ [ [ [ [ [ [ ",
"[ [ [ [ [ [ [ ~ % % % D D D D D D D D D D & % % % s s s s s s s s s s s s s s _ _ _ _ _ _ _ _ _ _ X.@.% % % ! [ [ [ [ [ [ [ [ [ ",
"[ [ [ [ [ [ [ % % % Z D D D D D D D D D < % % % s s s s s s s s s s s s s s s d _ _ _ _ _ _ _ _ _ _ @.O.% % % [ [ [ [ [ [ [ [ [ ",
"[ [ [ [ [ [ , % % B D D D D D D D D D & % % % s s s s s s s s s s s s s s s s u d _ _ _ _ _ _ _ _ ( r @.F % % 2 [ [ [ [ [ [ [ [ ",
"[ [ [ [ [ Q % % 1 D D D D D D D D D 4 % % % u s s s s s s s s s s s s s s s s s s h _ _ _ _ _ _ f o . . @.& % % c [ [ [ [ [ [ [ ",
"[ [ [ [ [ % % % a L D D D D D D D Z % % % s s s s s s s s s s s s s s s s s s s s s G _ _ _ V 8 } . . . 7 @.% % % [ [ [ [ [ [ [ ",
"[ [ [ [ & % % q y y V D D D D D D % % % u s s s s s s s s s s s s s s s s s s s s s s L G . . >.>.e o . . Y X.% % : [ [ [ [ [ [ ",
"[ [ [ Q % % - y y y y C D D D D % % % ; s s s s s s s s s s s s s s s s s s s s s s s s 0 . e >.>.m . . . . +.1 % % v [ [ [ [ [ ",
"[ [ [ % % % y y y y y y V Z D N % % & s s s s s s s s s s s s s s s s s s s s s s s s s 9 >.>.>.>.>.>.e . . 6 @.% % % [ [ [ [ [ ",
"[ [ v % % q y y y y y y y Z Z % % % s s s s s s s s s s s s s s s s s s s s s s s s s s s >.>.>.>.>.>.M . . . +.o.% % l [ [ [ [ ",
"[ [ % % % y y y y y y y y Z < % % u s s s s s s s s s s s s s s s s s s s s s s s s s s s @ } >.>.>.M . . . . o @.% % % [ [ [ [ ",
"[ ^ % % % y y y y y y y y y % % % d s s s s s s s s s s s s s s s s s s s s s s s s s s s s L >.>.D D D D D D D K U % % ] [ [ [ ",
"[ [ % % % a a a a y y y y y % % & @.| s s s s s s s s s s s s s s s s s s s s s s s s s s s D >.>.D D D D D D D D o.% % ~ [ [ [ ",
"[ [ , % % _ _ _ _ _ _ _ _ _ 4 % $ +.@.| s s s s s s s s s s s s s s s s s s s s s s s s s D D D Z D D D D D D D D D % % ~ [ [ [ ",
"[ [ ~ % % A _ _ _ _ _ _ _ _ ( % % B @.@.d s s s s s s s s s s s s s s s s s s s s s s s Z D D D D D D D D D D D D B % % ^ [ [ [ ",
"[ [ [ % % % _ _ _ _ _ _ _ _ _ % % % @.@.@.s s s s s s s s s s s s s s s s s s s s t % D D D D D D D D D D D Z D D % % % [ [ [ [ ",
"[ [ [ , % % ( _ _ _ _ _ _ _ _ r % % - @.@.| s s s s s s s s s s s s s s s s s s s % % i D D D D D D D D D Z D D < % % v [ [ [ [ ",
"[ [ [ [ % % : _ _ _ _ _ _ _ G w % % % k @.@.H s s s s s s s s s s s s s s s s s u % % C D D D D D D D D D D D p % % % [ [ [ [ [ ",
"[ [ [ [ : % % A _ _ _ _ _ V w w w % % % J @.@.s s s s s s s s s s s s s s s s s ; % & D D D D D D D D D D D D % % % ^ [ [ [ [ [ ",
"[ [ [ [ [ % % % _ _ _ _ x . . o . o % % & P @.+.s s s s s s s s s s s s s s s s % % % g D D D D D D D D D D < % % W [ [ [ [ [ [ ",
"[ [ [ [ [ E % % < ) _ r o . . . . .   % % % P @.@.{ s s s s s s s s s s s s s - % % ; y y D D D D D D D Z 1 % % : [ [ [ [ [ [ [ ",
"[ [ [ [ [ [ % % % S 6   . . . . . . . O % % % J @.@.@.s s s s s s s s s s s & % % % y y w a D D D D D D p % % % [ [ [ [ [ [ [ [ ",
"[ [ [ [ [ [ [ % % % + . . . . . . . . . o % % % 3 @.@.@.H s s s s s s R R - % % % 9 y y y y y Z D D D D % % % ^ [ [ [ [ [ [ [ [ ",
"[ [ [ [ [ [ [ ~ % % % . . . . . . . . .     % % % % +.@.@.@.d h h ..+.+.& % % % y y y y y w w u D D K % % % E [ [ [ [ [ [ [ [ [ ",
"[ [ [ [ [ [ [ [ j % % % . . . . . . . . . . . % % % % ) @.@.@.@.@.@.O.% % % % y y y y y y y y y D D % % % b [ [ [ [ [ [ [ [ [ [ ",
"[ [ [ [ [ [ [ [ [ % % % & . . . . . . . . . . . # % % % > +.@.@.@.T % % % & y y y y y y y y y y y < % % 5 [ [ [ [ [ [ [ [ [ [ [ ",
"[ [ [ [ [ [ [ [ [ ^ % % $ ; . . . . . . . . . . .   % % % % J @.p % % % $ 9 y y y y y y y y y y & % % : [ [ [ [ [ [ [ [ [ [ [ [ ",
"[ [ [ [ [ [ [ [ [ [ ^ % % % O . . . . . . . . . . . . % % % % % % % % X . . 9 y y y y y y y y & % % % [ [ [ [ [ [ [ [ [ [ [ [ [ ",
"[ [ [ [ [ [ [ [ [ [ [ E : % % * . . . . . . . . . o . . O % % % % %   . . . . y y y y y y y & % % % ] [ [ [ [ [ [ [ [ [ [ [ [ [ ",
"[ [ [ [ [ [ [ [ [ [ [ [ ~ % % % * . . . . . . . o . . . . .   O X . . . . . . . y y y y y & % % % [ [ [ [ [ [ [ [ [ [ [ [ [ [ [ ",
"[ [ [ [ [ [ [ [ [ [ [ [ [ Q % % % - . . . . . . . . . . . . . . . . . . . . . . @ y y y & % % % [ [ [ [ [ [ [ [ [ [ [ [ [ [ [ [ ",
"[ [ [ [ [ [ [ [ [ [ [ [ [ [ Q % % % = . . . . . . . . . . . . . . . . . . . . . o y y & % % % ] [ [ [ [ [ [ [ [ [ [ [ [ [ [ [ [ ",
"[ [ [ [ [ [ [ [ [ [ [ [ [ [ [ ~ % % % & o . . . . . . . . . . . . . . . . . . . . @ 1 % % % [ [ [ [ [ [ [ [ [ [ [ [ [ [ [ [ [ [ ",
"[ [ [ [ [ [ [ [ [ [ [ [ [ [ [ [ ! % % % % . . . . . . . . . . . . . . . . . . . . $ % % % [ [ [ [ [ [ [ [ [ [ [ [ [ [ [ [ [ [ [ ",
"[ [ [ [ [ [ [ [ [ [ [ [ [ [ [ [ [ ^ % % % %   . . . . . . . . . . . . . . . . . $ % % % [ [ [ [ [ [ [ [ [ [ [ [ [ [ [ [ [ [ [ [ ",
"[ [ [ [ [ [ [ [ [ [ [ [ [ [ [ [ [ [ [ > % % %   . . . . . . . . . . . . . . . % % % % ^ [ [ [ [ [ [ [ [ [ [ [ [ [ [ [ [ [ [ [ [ ",
"[ [ [ [ [ [ [ [ [ [ [ [ [ [ [ [ [ [ [ [ l % % % # . . . . . . . . . . . .   % % % : ] [ [ [ [ [ [ [ [ [ [ [ [ [ [ [ [ [ [ [ [ [ ",
"[ [ [ [ [ [ [ [ [ [ [ [ [ [ [ [ [ [ [ [ [ b % % % % X . . . . . . . . .   $ % % > [ [ [ [ [ [ [ [ [ [ [ [ [ [ [ [ [ [ [ [ [ [ [ ",
"[ [ [ [ [ [ [ [ [ [ [ [ [ [ [ [ [ [ [ [ [ [ ! % % % % %   .   . . . . O % % % , [ [ [ [ [ [ [ [ [ [ [ [ [ [ [ [ [ [ [ [ [ [ [ [ ",
"[ [ [ [ [ [ [ [ [ [ [ [ [ [ [ [ [ [ [ [ [ [ [ [ c % % % % % O . .   % % % % 5 [ [ [ [ [ [ [ [ [ [ [ [ [ [ [ [ [ [ [ [ [ [ [ [ [ ",
"[ [ [ [ [ [ [ [ [ [ [ [ [ [ [ [ [ [ [ [ [ [ [ [ [ [ , % % % % % % % % % % E [ [ [ [ [ [ [ [ [ [ [ [ [ [ [ [ [ [ [ [ [ [ [ [ [ [ ",
"[ [ [ [ [ [ [ [ [ [ [ [ [ [ [ [ [ [ [ [ [ [ [ [ [ [ [ ] 5 % % % % % % 2 ] [ [ [ [ [ [ [ [ [ [ [ [ [ [ [ [ [ [ [ [ [ [ [ [ [ [ [ ",
"[ [ [ [ [ [ [ [ [ [ [ [ [ [ [ [ [ [ [ [ [ [ [ [ [ [ [ [ [ [ Q : > n [ [ [ [ [ [ [ [ [ [ [ [ [ [ [ [ [ [ [ [ [ [ [ [ [ [ [ [ [ [ ",
"[ [ [ [ [ [ [ [ [ [ [ [ [ [ [ [ [ [ [ [ [ [ [ [ [ [ [ [ [ [ [ [ [ [ [ [ [ [ [ [ [ [ [ [ [ [ [ [ [ [ [ [ [ [ [ [ [ [ [ [ [ [ [ [ "
};
