/* XPM */
static char *result[] = {
/* columns rows colors chars-per-pixel */
"64 64 114 2 ",
"   c #77C774",
".  c #79C572",
"X  c #77C977",
"o  c #7BC975",
"O  c #73CB7B",
"+  c #7EC878",
"@  c #7DD27E",
"#  c #6ECF81",
"$  c #6DD285",
"%  c #69D78B",
"&  c #6DD88D",
"*  c #7CD685",
"=  c #7DD887",
"-  c #73DB8C",
";  c #79DD8C",
":  c #6ED690",
">  c #6FD990",
",  c #72D695",
"<  c #73DA92",
"1  c #7ADC96",
"2  c #76D69A",
"3  c #79D69C",
"4  c #7CDC9A",
"5  c #7FE097",
"6  c #7FD7A2",
"7  c #8BCD85",
"8  c #83D580",
"9  c #88DC86",
"0  c #84DE8B",
"q  c #8ADF89",
"w  c #93D897",
"e  c #82E48F",
"r  c #8BE08A",
"t  c #8DE990",
"y  c #83E19C",
"u  c #8AE49E",
"i  c #92E394",
"p  c #92EC91",
"a  c #98EC96",
"s  c #94E29C",
"d  c #97EA9C",
"f  c #9CED9C",
"g  c #81D6A6",
"h  c #88DFA1",
"j  c #86D6AB",
"k  c #8AD6AF",
"l  c #9DDFA6",
"z  c #8DD5B2",
"x  c #90D5B6",
"c  c #95D5BB",
"v  c #A6D9A1",
"b  c #87E2A1",
"n  c #8FE4A3",
"m  c #9CE4A3",
"M  c #96E9A4",
"N  c #9BEBA5",
"B  c #95E4AD",
"V  c #9CE4AF",
"C  c #9CECA8",
"Z  c #9CE5B1",
"A  c #A1ECAD",
"S  c #ABEEAA",
"D  c #A5E5B4",
"F  c #A4EDB2",
"G  c #A9EEB4",
"H  c #AAE7B8",
"J  c #A2E9B9",
"K  c #ADEBBB",
"L  c #BFE5BC",
"P  c #B4E9BF",
"I  c #BCF0BB",
"U  c #9DD5C2",
"Y  c #A3D4CA",
"T  c #A8D4CF",
"R  c #ADD4D5",
"E  c #B5D4DD",
"W  c #B8D4DF",
"Q  c #AEEEC1",
"!  c #B7EAC1",
"~  c #BDEBC8",
"^  c #B4F0C7",
"/  c #BBF2C3",
"(  c #B6F0C8",
")  c #BBF1CB",
"_  c #B7D4E0",
"`  c #BBD4E4",
"'  c #C4EDC9",
"]  c #CAEFCE",
"[  c #C3F1C2",
"{  c #C6F1CF",
"}  c #CFF1CD",
"|  c #CFEFD1",
" . c #D5EDD3",
".. c #CEF4D3",
"X. c #D3F1D5",
"o. c #D8F2D7",
"O. c #DCF3DA",
"+. c #DBF8DF",
"@. c #CEE0EC",
"#. c #D9EEE9",
"$. c #DEF6E3",
"%. c #DBF8E4",
"&. c #DCE9F1",
"*. c #E2F5E0",
"=. c #E8F7E7",
"-. c #E2FAE6",
";. c #E9F6E8",
":. c #E7FAEC",
">. c #E9FBEC",
",. c #E4EEF4",
"<. c #ECF3F7",
"1. c #F7FCF6",
"2. c #F4F8FB",
"3. c #FFFFFF",
/* pixels */
"` ` ` ` ` ` ` ` ` ` ` ` ` ` ` ` ` ` ` ` ` ` ` ` ` ` ` ` ` ` ` ` ` ` ` ` ` ` ` ` ` ` ` ` ` ` ` ` ` ` ` ` ` ` ` ` ` ` ` ` ` ` ` ` ",
"` ` ` ` ` ` ` ` ` ` ` ` ` ` ` ` ` ` ` ` ` ` ` ` ` ` ` ` ` ` ` R ` ` ` ` ` ` ` ` ` ` ` ` ` ` ` ` ` ` ` ` ` ` ` ` ` ` ` ` ` ` ` ` ",
"` ` ` ` ` ` ` ` ` ` ` ` ` ` ` ` ` ` ` ` ` ` ` ` ` ` ` ` c % % % % 3 ` ` ` ` ` ` ` ` ` ` ` ` ` ` ` ` ` ` ` ` ` ` ` ` ` ` ` ` ` ` ",
"` ` ` ` ` ` ` ` ` ` ` ` ` ` ` ` ` ` ` ` ` ` ` ` ` ` _ % % % % % % % % U ` ` ` ` ` ` ` ` ` ` ` ` ` ` ` ` ` ` ` ` ` ` ` ` ` ` ` ` ",
"` ` ` ` ` ` ` ` ` ` ` ` ` ` ` ` ` ` ` ` ` ` ` ` ` j % % % % H ' < % % % % R ` ` ` ` ` ` ` ` ` ` ` ` ` ` ` ` ` ` ` ` ` ` ` ` ` ` ",
"` ` ` ` ` ` ` ` ` ` ` ` ` ` ` ` ` ` ` ` ` ` ` _ % % % % Z O.O.O.O.] % % % % , ` ` ` ` ` ` ` ` ` ` ` ` ` ` ` ` ` ` ` ` ` ` ` ` ` ",
"` ` ` ` ` ` ` ` ` ` ` ` ` ` ` ` ` ` ` ` ` ` R & % % & o.+.O.O.O.O.O.O.V % % % % R ` ` ` ` ` ` ` ` ` ` ` ` ` ` ` ` ` ` ` ` ` ` ` ",
"` ` ` ` ` ` ` ` ` ` ` ` ` ` ` ` ` ` ` ` _ 6 % % % B O.O.O.O.O.O.O.O.O.O.O.: % % % U ` ` ` ` ` ` ` ` ` ` ` ` ` ` ` ` ` ` ` ` ` ` ",
"` ` ` ` ` ` ` ` ` ` ` ` ` ` ` ` ` ` ` ` : % % % { ..^ ^ ^ ^ ^ ^ ^ ( X.O.O.O.Z % % % R ` ` ` ` ` ` ` ` ` ` ` ` ` ` ` ` ` ` ` ` ` ",
"` ` ` ` ` ` ` ` ` ` ` ` ` ` ` ` ` ` W & % % & K ( ^ ^ ^ ^ ^ ^ ^ ^ ^ ^ ^ X.O.O.o.% % % z ` ` ` ` ` ` ` ` ` ` ` ` ` ` ` ` ` ` ` ` ",
"` ` ` ` ` ` ` ` ` ` ` ` ` @.` ` ` _ % % % < C K ^ ^ ^ ^ ^ ^ ^ ^ ^ ^ ^ ^ ^ ( O.O.X.% % % g ` ` ` ` ` ` ` ` ` ` ` ` ` ` ` ` ` ` ` ",
"` ` ` ` ` ` ` ` ` ` ` ` ` 3.` ` R % % % 5 C C ^ ^ ^ ^ ^ ^ ^ ^ ^ ^ ^ ^ ^ ^ ^ ^ o.O.o.% % % j ` ` ` ` ` ` ` ` ` ` ` ` ` ` ` ` ` ` ",
"` ` ` ` ` ` ` ` ` ` ` ` ` 3.&.R % % % y C C C Q ^ ^ ^ ^ ^ ^ ^ ^ ^ ^ ^ ^ ^ ^ ^ ^ ..O.O.% % % 6 ` ` ` ` ` ` ` ` ` ` ` ` ` ` ` ` ` ",
"` ` ` ` ` ` ` ` ` ` ` ` ` 3.#.% % % M C C C C C ^ ^ ^ ^ ^ B J ^ ^ ^ ^ ^ ^ ^ ^ ^ ( { O.o.% % % k ` ` ` ` ` ` ` ` ` ` ` ` ` ` ` ` ",
"` ` ` ` ` ` ` ` ` 2.<.,.3.3.3.3.3.C C C C C C C ^ ^ ^ ^ > % % G ^ ^ ^ ^ ^ ^ ^ ^ ^ ^ ~ O.o.& % % g ` ` ` ` ` ` ` ` ` ` ` ` ` ` ` ",
"` ` ` ` ` ` ` ` ` ` ` 3.3.3.3.$.M C C C C C C C G ^ ^ > % % - p a ^ ^ ^ ^ ^ ^ ^ ^ ^ ^ ) O.X.% % : U ` ` ` ` ` ` ` ` ` ` ` ` ` ` ",
"` ` ` ` ` ` ` ` ` ` ` _ 3.3.& M C C C C C C C C N ^ % % % - p p p p ^ ^ ^ ^ ^ ^ ^ ^ ^ ^ ) O.O.% % % _ ` ` ` ` ` ` ` ` ` ` ` ` ` ",
"` ` ` ` ` ` ` ` ` ` ` % < 3.n C C C C C C A C C N % % % - p p p p p p ^ ^ ^ ^ ^ ^ ^ ^ ^ ^ ) O.] % % % _ ` ` ` ` ` ` ` ` ` ` ` ` ",
"` ` ` ` ` ` ` ` ` ` % % % 3.C C C C C C C G C C % % % - p p p p p p p N ^ ^ ^ ^ ^ ^ ^ ^ ^ ^ ) 1.3.% % % ` ` ` ` ` ` ` ` ` ` ` ` ",
"` ` ` ` ` ` ` ` ` : % % J -.C C C C C C C C F % % % - p p p p p p p p t f ^ ^ ^ ^ ^ ^ ^ ^ ^ ^ 3.3.( % % 2 ` ` ` ` ` ` ` ` ` ` ` ",
"` ` ` ` ` ` ` ` j % % > G C C C C C C C C C : % % - p p p p p p p p p p p a ^ ^ ^ ^ ^ ^ ^ ^ ^ 3.3.*.& % % z ` ` ` ` ` ` ` ` ` ` ",
"` ` ` ` ` ` ` R % % % C C C C C C C C C C & % % % p p p p p p p p p p p p p p ^ ^ ^ ^ ^ ^ ^ ( 3.3.$.O.% % % T ` ` ` ` ` ` ` ` ` ",
"` ` ` ` ` ` ` % % % N C C C C C C C C C < % % & p p p p p p p p p p p p p p t a ^ ^ ^ ^ ^ ^ 3.3.3.%.O.X.% % % ` ` ` ` ` ` ` ` ` ",
"` ` ` ` ` ` , % % n C C C C C C C C C & % % % t p p p p p p p p p p p p p p p p a ^ ^ ^ ^ ^ 3.3.3.3.w O.V % % 2 ` ` ` ` ` ` ` ` ",
"` ` ` ` ` Y % % 1 F C C C C C N C C 5 % % % p p p p p p p p p p p p p p p p p p p a ^ ^ ^ >.3.3.3.3.v o O.% % % z ` ` ` ` ` ` ` ",
"` ` ` ` ` % % % i G C C C C C C C C % % % p p p p p p p p p p p p p p p p p p p p p C ^ ) 3.3.3.3.3.;.o 7 O.% % & ` ` ` ` ` ` ` ",
"` ` ` ` & % % 0 r r d C C C C C N % % % t p p p p p p p p p p p p p p p p p p p p p p 3.3.3.3.3.3.3.3.+ . L | % % : ` ` ` ` ` ` ",
"` ` ` Y % % - r r q q M C C C C & % % ; p p p p p p p p p p p p p p p p p p p p p I 3.3.3.3.3.3.3.3.3.3.7 . O.1 % % z ` ` ` ` ` ",
"` ` ` % % % q r r r r r N C C b % % & p p p p p p p p p p p p p p p p p p p p 3.3.3.3.3.3.3.3.3.3.3.3.3.3.3.3.=.& % % ` ` ` ` ` ",
"` ` x % % 0 r r r r r r r C C % % % p p p p p p p p p p p p p p p p p p p p p 3.3.3.3.3.3.3.3.3.3.3.3.3.3.3.3.3...% % j ` ` ` ` ",
"` ` % % % r r r r r q r r N - % % t t p p p p p p p p p p p p p p p p p p p p p f 3.3.3.3.3.3.3.3.3.3.3.3.3.3. .O.% % % ` ` ` ` ",
"` E % % % r r r r r r r r r % % % a p p p p p p p p p p p p p p p p p p p p p p p p p p 3.3.3.3.3.3.3.3.3.A C C F K % % E ` ` ` ",
"` ` % % % i i i i r r r r r % % & O.[ p p p p p p p p p p p p p p p p p p p p p p p p p p 3.3.3.3.3.3./ C C C C C } % % T ` ` ` ",
"` ` , % % ^ ! ^ ^ ^ ^ ^ ^ ^ 4 % % O.O.[ p p p p p p p p p p p p p t p p p p p p p p p p p C 3.3.3.3.A C C C C C C C % % R ` ` ` ",
"` ` E % % B ^ ^ ^ ^ ^ ^ ^ ^ Q % % h O.O.a p p p p p p p p p p p p p p p p p p p p p p p C C 1.3.3.>.C C C C C C C b & % E ` ` ` ",
"` ` ` % % % ^ ^ ^ ^ ^ ^ ^ ^ ^ % % & O.O.O.p p p p p p p p p p p p p p p p p p p p e % M C C ..3.3.I C C C C C C C % & % ` ` ` ` ",
"` ` ` , % % Q ^ ^ ^ ^ ^ ^ ^ ^ s % % < O.O.[ p p p p p p p p p p p p p p p p p p p % % u C C G 3.3.C C C C C C C < & % z ` ` ` ` ",
"` ` ` _ % % : ^ ^ ^ ^ ^ ^ ^ A q & % % h O.O.S p p p p p p p p p p p p p p p p p t % % N C C C :.+.C C C C C C u & % % ` ` ` ` ` ",
"` ` ` ` : % % B ^ ^ ^ ^ ( m r r q % % % D O.O.p p p p p p p p p p p p p p p p p - % % C C C C C C C C C C C C % % % _ ` ` ` ` ` ",
"` ` ` ` _ % % % ^ ^ ^ ^ l . . . . . % % % K O.o.p t p p p p p p p p p p p p p p % % % N C C C C C C C C C C & & : U ` ` ` ` ` ` ",
"` ` ` ` ` U % % < ^ ^ w . . . . . . . % % % H O.O.[ p p p p p p p p p p p p p - % % - q r C C C C C C C C 1 % % : ` ` ` ` ` ` ` ",
"` ` ` ` ` ` % % % V 8 . . . . . . . . X % % % H O.O.O.p p p p p p p p p p p & % % % r r r i C C C C C C b % % % _ ` ` ` ` ` ` ` ",
"` ` ` ` ` ` ` % % % @ . . . . . . . . . X % % % 4 O.O.O.S p p p p p p I I - % % % q r r r r r C C C C C & % % E ` ` ` ` ` ` ` ` ",
"` ` ` ` ` ` ` R % % % . . . . . . . . . . . % % % % o.O.O.o.a f f } O.o.& % % % q r r r r r r p C C F % % % U ` ` ` ` ` ` ` ` ` ",
"` ` ` ` ` ` ` ` g % % $ . . . . . . . . . . . % % % % ! O.O.O.O.O.O.X.% % % % q r r r r r q r r C C % % % c ` ` ` ` ` ` ` ` ` ` ",
"` ` ` ` ` ` ` ` ` & % % % . . . . . . . . . . . $ % % % > o.O.O.O.P % % % & r r r r r r r r r r r > % % 6 ` ` ` ` ` ` ` ` ` ` ` ",
"` ` ` ` ` ` ` ` ` W % % % - . . . . . . . . . . . X % % % % J O.u % % % $ 9 q r r r r r r r r r & % % : ` ` ` ` ` ` ` ` ` ` ` ` ",
"` ` ` ` ` ` ` ` ` ` E % % % O . . . . . . . . . . . . $ % % % % % % % . . . q q r r r r r r r $ % % % ` ` ` ` ` ` ` ` ` ` ` ` ` ",
"` ` ` ` ` ` ` ` ` ` ` U : % % = . . . . . . . . o . . . O % % % % % . . . . . q r r r r r r & % % % _ ` ` ` ` ` ` ` ` ` ` ` ` ` ",
"` ` ` ` ` ` ` ` ` ` ` ` R % % % = . . . . . . . . o . . . .   O X . . . . . . . r r r r r & % % % ` ` ` ` ` ` ` ` ` ` ` ` ` ` ` ",
"` ` ` ` ` ` ` ` ` ` ` ` ` T % % % * . . . . . . . . . . . . . . . . . . . . . . 8 r r q & % % % ` ` ` ` ` ` ` ` ` ` ` ` ` ` ` ` ",
"` ` ` ` ` ` ` ` ` ` ` ` ` ` U % % % ; . . . . . . . . . . . . . . . . . . . . . . r r & % % % _ ` ` ` ` ` ` ` ` ` ` ` ` ` ` ` ` ",
"` ` ` ` ` ` ` ` ` ` ` ` ` ` ` R % % % & X . . . . . . . . . . . . . . . . . . . . @ 1 % & % ` ` ` ` ` ` ` ` ` ` ` ` ` ` ` ` ` ` ",
"` ` ` ` ` ` ` ` ` ` ` ` ` ` ` ` T % % % : . . . . . . . . . . . . . . . . . . . . $ % % % ` ` ` ` ` ` ` ` ` ` ` ` ` ` ` ` ` ` ` ",
"` ` ` ` ` ` ` ` ` ` ` ` ` ` ` ` ` _ % % % % . . . . . . . . . . . . . . . . . . $ % % % ` ` ` ` ` ` ` ` ` ` ` ` ` ` ` ` ` ` ` ` ",
"` ` ` ` ` ` ` ` ` ` ` ` ` ` ` ` ` ` ` : % % % . . . . . . . . . . . . . . . . % % % % W ` ` ` ` ` ` ` ` ` ` ` ` ` ` ` ` ` ` ` ` ",
"` ` ` ` ` ` ` ` ` ` ` ` ` ` ` ` ` ` ` ` j % % % # . . . . . . . . . . . . . % % : % _ ` ` ` ` ` ` ` ` ` ` ` ` ` ` ` ` ` ` ` ` ` ",
"` ` ` ` ` ` ` ` ` ` ` ` ` ` ` ` ` ` ` ` ` z % % % % X . . . . . . . . . . % % % : ` ` ` ` ` ` ` ` ` ` ` ` ` ` ` ` ` ` ` ` ` ` ` ",
"` ` ` ` ` ` ` ` ` ` ` ` ` ` ` ` ` ` ` ` ` ` T % % % % %   .   . . . . O % % % : ` ` ` ` ` ` ` ` ` ` ` ` ` ` ` ` ` ` ` ` ` ` ` ` ",
"` ` ` ` ` ` ` ` ` ` ` ` ` ` ` ` ` ` ` ` ` ` ` ` z % % % % % O   . . % % % % 6 ` ` ` ` ` ` ` ` ` ` ` ` ` ` ` ` ` ` ` ` ` ` ` ` ` ",
"` ` ` ` ` ` ` ` ` ` ` ` ` ` ` ` ` ` ` ` ` ` ` ` ` ` 2 % % % % % % % % % % U ` ` ` ` ` ` ` ` ` ` ` ` ` ` ` ` ` ` ` ` ` ` ` ` ` ` ",
"` ` ` ` ` ` ` ` ` ` ` ` ` ` ` ` ` ` ` ` ` ` ` ` ` ` ` ` 6 % % % % % % 2 ` ` ` ` ` ` ` ` ` ` ` ` ` ` ` ` ` ` ` ` ` ` ` ` ` ` ` ` ",
"` ` ` ` ` ` ` ` ` ` ` ` ` ` ` ` ` ` ` ` ` ` ` ` ` ` ` ` ` ` U : : U ` ` ` ` ` ` ` ` ` ` ` ` ` ` ` ` ` ` ` ` ` ` ` ` ` ` ` ` ` ` ",
"` ` ` ` ` ` ` ` ` ` ` ` ` ` ` ` ` ` ` ` ` ` ` ` ` ` ` ` ` ` ` ` ` ` ` ` ` ` ` ` ` ` ` ` ` ` ` ` ` ` ` ` ` ` ` ` ` ` ` ` ` ` ` ` "
};
