/* XPM */
static char *result[] = {
/* columns rows colors chars-per-pixel */
"64 64 105 2 ",
"   c #77C774",
".  c #79C572",
"X  c #77C977",
"o  c #7BC875",
"O  c #73CB7B",
"+  c #7DD27E",
"@  c #84C97D",
"#  c #80D07C",
"$  c #6ECF81",
"%  c #70CF80",
"&  c #6DD285",
"*  c #69D78B",
"=  c #6DD88D",
"-  c #7CD685",
";  c #7DD887",
":  c #73DB8C",
">  c #6ED690",
",  c #6FD990",
"<  c #72D695",
"1  c #73DA92",
"2  c #7ADC96",
"3  c #76D69A",
"4  c #79D69C",
"5  c #7CDC9A",
"6  c #7FE097",
"7  c #7FD7A2",
"8  c #8CCE86",
"9  c #88DC86",
"0  c #88D589",
"q  c #84DE8B",
"w  c #8ADF89",
"e  c #93D897",
"r  c #82E48F",
"t  c #8BE08A",
"y  c #8DE990",
"u  c #83E19C",
"i  c #8AE49E",
"p  c #92E394",
"a  c #92EC91",
"s  c #98EC96",
"d  c #92E19A",
"f  c #97EA9C",
"g  c #9CED9C",
"h  c #81D6A6",
"j  c #88DFA1",
"k  c #86D6AB",
"l  c #9DDFA6",
"z  c #8DD5B2",
"x  c #90D5B6",
"c  c #98D5BE",
"v  c #87E2A1",
"b  c #8FE3A4",
"n  c #9CE4A3",
"m  c #97EBA6",
"M  c #9AEBA5",
"N  c #95E4AD",
"B  c #9CE4AF",
"V  c #9CECA8",
"C  c #9CE5B1",
"Z  c #A1ECAD",
"A  c #ABEEAA",
"S  c #A5E5B5",
"D  c #A4EDB2",
"F  c #A9EEB5",
"G  c #AAE7B8",
"H  c #AEEBBC",
"J  c #B4E9BF",
"K  c #BCF1BC",
"L  c #C3E5BF",
"P  c #9DD5C2",
"I  c #A0D5C6",
"U  c #A3D4CA",
"Y  c #A8D4CF",
"T  c #ADD4D5",
"R  c #B5D4DD",
"E  c #AEEEC1",
"W  c #B3ECC1",
"Q  c #B4F0C7",
"!  c #BAF1C2",
"~  c #B6F0C8",
"^  c #BCF1CB",
"/  c #B7D4E0",
"(  c #BBD4E4",
")  c #CAEFCE",
"_  c #C4F1C3",
"`  c #C6F3CE",
"'  c #CEF4CD",
"]  c #CFEFD1",
"[  c #CCF3D3",
"{  c #CDF5DA",
"}  c #D4F1D5",
"|  c #D8F2D7",
" . c #D0F6DC",
".. c #DCF3DA",
"X. c #C2D9E7",
"o. c #D9E7F0",
"O. c #DBE9F1",
"+. c #ECF7EB",
"@. c #E7FAEA",
"#. c #EBFAEE",
"$. c #EAF2F7",
"%. c #F4FDF6",
"&. c #F2F7F9",
"*. c #F5F9FC",
"=. c #FFFFFF",
/* pixels */
"( ( ( ( ( ( ( ( ( ( ( ( ( ( ( ( ( ( ( ( ( ( ( ( ( ( ( ( ( ( ( ( ( ( ( ( ( ( ( ( ( ( ( ( ( ( ( ( ( ( ( ( ( ( ( ( ( ( ( ( ( ( ( ( ",
"( ( ( ( ( ( ( ( ( ( ( ( ( ( ( ( ( ( ( ( ( ( ( ( ( ( ( ( ( ( ( T ( ( ( ( ( ( ( ( ( ( ( ( ( ( ( ( ( ( ( ( ( ( ( ( ( ( ( ( ( ( ( ( ",
"( ( ( ( ( ( ( ( ( ( ( ( ( ( ( ( ( ( ( ( ( ( ( ( ( ( ( ( c * * * * 4 ( ( ( ( ( ( ( ( ( ( ( ( ( ( ( ( ( ( ( ( ( ( ( ( ( ( ( ( ( ( ",
"( ( ( ( ( ( ( ( ( ( ( ( ( ( ( ( ( ( ( ( ( ( ( ( ( ( / * * * * * * * * P ( ( ( ( ( ( ( ( ( ( ( ( ( ( ( ( ( ( ( ( ( ( ( ( ( ( ( ( ",
"( ( ( ( ( ( ( ( ( ( ( ( ( ( ( ( ( ( ( ( ( ( ( ( ( k * * * * S ^ 1 * * * * T ( ( ( ( ( ( ( ( ( ( ( ( ( ( ( ( ( ( ( ( ( ( ( ( ( ( ",
"( ( ( ( ( ( ( ( ( ( ( ( ( ( ( ( ( ( ( ( ( ( ( / * * * * S ........) * * * * < ( ( ( ( ( ( ( ( ( ( ( ( ( ( ( ( ( ( ( ( ( ( ( ( ( ",
"( ( ( ( ( ( ( ( ( ( ( ( ( ( ( ( ( ( ( ( ( ( T * * * * ................B * * * * T ( ( ( ( ( ( ( ( ( ( ( ( ( ( ( ( ( ( ( ( ( ( ( ",
"( ( ( ( ( ( ( ( ( ( ( ( ( ( ( ( ( ( ( ( / 7 * * * N ....................| 1 * * * P ( ( ( ( ( ( ( ( ( ( ( ( ( ( ( ( ( ( ( ( ( ( ",
"( ( ( ( ( ( ( ( ( ( ( ( ( ( ( ( ( ( ( ( > * = * ` { ~ Q ~ Q Q Q Q ~ } ......C > * * T ( ( ( ( ( ( ( ( ( ( ( ( ( ( ( ( ( ( ( ( ( ",
"( ( ( ( ( ( ( ( ( ( ( ( ( $.( ( ( ( R * * * = H Q Q Q Q Q Q Q Q Q Q Q Q } ....} * * * z ( ( ( ( ( ( ( ( ( ( ( ( ( ( ( ( ( ( ( ( ",
"( ( ( ( ( ( ( ( ( ( ( ( O.=.( ( ( ( * * * 1 V H Q Q Q Q Q Q Q Q Q Q Q Q Q ~ ....[ * * * h ( ( ( ( ( ( ( ( ( ( ( ( ( ( ( ( ( ( ( ",
"( ( ( ( ( ( ( ( ( ( ( X.*.=.( ( T * * * u V V W Q Q Q Q Q Q Q ~ Q Q Q Q Q Q ~ ......* * * k ( ( ( ( ( ( ( ( ( ( ( ( ( ( ( ( ( ( ",
"( ( ( ( ( ( ( ( ( ( ( *.=.=.*.T * * * u V V V E Q Q Q Q Q Q Q ~ Q Q Q Q Q Q Q Q } ..| * * * 7 ( ( ( ( ( ( ( ( ( ( ( ( ( ( ( ( ( ",
"( ( ( ( ( ( ( ( ( O.=.=.=.=.=.H * * m V V V V V Q Q Q Q Q m C ~ Q Q Q Q Q Q Q Q Q ` ....* * * z ( ( ( ( ( ( ( ( ( ( ( ( ( ( ( ( ",
"( ( ( ( ( ( X.$.=.=.=.=.=.=.=.=.=.=.! V V V V V Q Q Q Q , * = F Q Q Q Q Q Q Q Q Q Q ~ ..| * * * h ( ( ( ( ( ( ( ( ( ( ( ( ( ( ( ",
"( ( ( ( ( ( ( ( ( o.=.=.=.=.=.=.! V M V V V V V F Q Q * * = : a a Q Q Q Q Q Q Q Q Q ~ ^ ..} * * * P ( ( ( ( ( ( ( ( ( ( ( ( ( ( ",
"( ( ( ( ( ( ( ( ( ( ( &.=.=.=.Z V V V V V V V V V Q * * * = a a a a Q Q Q Q Q Q Q Q Q Q ~ ....* * * / ( ( ( ( ( ( ( ( ( ( ( ( ( ",
"( ( ( ( ( ( ( ( ( ( ( * =.=.^ V V V V V V D V V M * * * : a a a a a a Q Q Q Q Q Q Q Q Q W ` ..` * * * / ( ( ( ( ( ( ( ( ( ( ( ( ",
"( ( ( ( ( ( ( ( ( ( * * #.=.V V V V V V V F V V * * * : a a a a a a a g Q Q Q Q Q Q Q Q ~ Q ^ ..W * * * ( ( ( ( ( ( ( ( ( ( ( ( ",
"( ( ( ( ( ( ( ( ( , * * W =.V V V V V V V V Z * * * : a a a a a a a a a M Q Q Q Q Q Q Q Q Q Q [ ..S * * 3 ( ( ( ( ( ( ( ( ( ( ( ",
"( ( ( ( ( ( ( ( k * * = F #.V V V V V V V V * * * : a a a a a a a a a a a a ~ Q Q Q Q Q Q Q Q Q } | , * * z ( ( ( ( ( ( ( ( ( ( ",
"( ( ( ( ( ( ( R * * * M M V V V V V V V V , * * * a a a a a a a a a a a a a a Q Q Q Q Q Q Q Q { ^ } | * * * Y ( ( ( ( ( ( ( ( ( ",
"( ( ( ( ( ( ( * * * M V V V V V V V V V 1 * * * a a a a a a a a a a a a a a a a Q Q Q Q Q Q Q =.{ ~ ..} * * * ( ( ( ( ( ( ( ( ( ",
"( ( ( ( ( ( > * * N V V V V V V V V V , * * * a a a a a a a a a a a a a a a a a f Q Q Q Q Q ^ =.&.E e ..B * * 3 ( ( ( ( ( ( ( ( ",
"( ( ( ( ( U * * 2 Z V V V V V V V V 6 * * * y a a a a a a a a a a a a a a a a a a s Q Q Q Q  .=.=.. . o ..= * * z ( ( ( ( ( ( ( ",
"( ( ( ( ( * * * d F V V V V V V V V * * * a a a a a a a a a a a a a a a a a a a a a V Q Q Q #.=.=.o . o 8 ..* * * ( ( ( ( ( ( ( ",
"( ( ( ( = * * q w t f V V V V V M * * * y a a a a a a a a a a a a a a a a a a a a a y F D . =.=.=.+.o . . L ] * * > ( ( ( ( ( ( ",
"( ( ( I * * : t t t w m V V V V * * * : a a a a a a a a a a a a a a a a a a a a a a a a 9 =.=.=.=.=.@ . . . | 2 * * z ( ( ( ( ( ",
"( ( ( * * * t t t t t t M M M v * * : a a a a a a a a a a a a a a a a a a a y a s g s ' =.=.=.=.=.=.=.L . . @ ..* * * ( ( ( ( ( ",
"( ( x * * q t t t t t t t M M * * * a a a a a a a a a a a a a a a a a a a a a a =.=.=.=.=.=.=.=.=.=.=.=.=.@ . } [ * * k ( ( ( ( ",
"( ( * * * t t t t t t t t M 1 * * y a a a a a a a a a a a a y a a a a a a a a a s a K =.=.=.=.=.=.=.=.=.=.+.. o ..* * * ( ( ( ( ",
"( R * * * t t t t t t t t t = * * s a a a a a a a a a a a a a a a a a a a a a a a a a a =.=.=.=.=.=.=.%.F V V M D J * * / ( ( ( ",
"( ( * * * p p p p t t t t t * * * .._ a a a a a a a a a a a a a a a a a a a a a a a a a a =.=.=.=.=.Z M V V V V V [ * * T ( ( ( ",
"( ( > * * Q Q Q Q Q Q Q Q Q 5 * * | .._ a a a a a a a a a a a a a a a a a a a a a a a a a M =.=.=.D V V V V V V M Z * * T ( ( ( ",
"( ( R * * N Q Q Q Q Q Q Q Q E * * j ....s a a a a a a a a a a a a a a a a a a a a a a a V V =.=.=.M V V V V V V M b * * T ( ( ( ",
"( ( ( * * * Q Q Q Q Q Q Q Q Q > * = ......a a a a a a a a a a a a a a a a a a a a r * m V V [ =.` M Z V V V V V V * * * ( ( ( ( ",
"( ( ( < * * E Q Q Q Q Q ~ Q Q d * * 1 ...._ a a a a a a a a a a a a a a a a a a a * * i V V F =.V M V V V V V V 6 * * x ( ( ( ( ",
"( ( ( / * * > Q Q Q Q Q W ~ V t = * * j ....A a a a a a a a a a a a a a a a a a y * * M V V V @.F V V V V V V i * * * ( ( ( ( ( ",
"( ( ( ( > * * N Q Q Q Q ~ n w w w * * * S ..| a a a a a a a y a a a a a a a a a : = * M V V V V V V V V V V V * * * ( ( ( ( ( ( ",
"( ( ( ( / * * * Q Q Q Q l . .   . . * * & J ..| a a a a a a a a a a a a a a a a * * * M M V V V V V V V V V : * * P ( ( ( ( ( ( ",
"( ( ( ( ( P > * 1 W Q e . . . . . .   * * * G ...._ a a a a a a a a a a a a a : * * : w t Z M V V V V V V 2 * * > ( ( ( ( ( ( ( ",
"( ( ( ( ( ( * * * B 0 . . . . . . . . O * * * S ......a a a a a a a a a a a = * * * t t t t V V V V V V b * * * / ( ( ( ( ( ( ( ",
"( ( ( ( ( ( ( * * * + . . . . . . . . . o * * * u | ....A a a a a a a K K : * * * w t t t t y V V V M V * * * / ( ( ( ( ( ( ( ( ",
"( ( ( ( ( ( ( T * * * . . . . . . . . . .   * * * = | ....| s g g ' | | * * * * w t t t t t t p V V D * * * P ( ( ( ( ( ( ( ( ( ",
"( ( ( ( ( ( ( ( h * * * . . . . . . . . . . . * * * * W ............} * * * * w t t t w t t t t V V * * * x ( ( ( ( ( ( ( ( ( ( ",
"( ( ( ( ( ( ( ( ( = * * = . . . . . . . . . . . $ * * * , | ......J * * * = t t t t t t t t t t t , * * 7 ( ( ( ( ( ( ( ( ( ( ( ",
"( ( ( ( ( ( ( ( ( R * * * -   . . . . . . . . . . O * * * * S ..v * * * % w w t t t t t t t t t = * * , ( ( ( ( ( ( ( ( ( ( ( ( ",
"( ( ( ( ( ( ( ( ( ( R * * * O . . . . . . . . . .     & * * * * * * *   . . w t t t t t t t t & * * * ( ( ( ( ( ( ( ( ( ( ( ( ( ",
"( ( ( ( ( ( ( ( ( ( ( P > * * - . . . . . . . . o . . . O * * * * *   . . . . t t t t t t t * * * * / ( ( ( ( ( ( ( ( ( ( ( ( ( ",
"( ( ( ( ( ( ( ( ( ( ( ( T * * * - . . . . . . . . o . . . . . O X . . . . . . . t t t t t = * * * ( ( ( ( ( ( ( ( ( ( ( ( ( ( ( ",
"( ( ( ( ( ( ( ( ( ( ( ( ( U * * * : . . . . . . . . . . . . . . . . . . . . . . # t t t = * * * ( ( ( ( ( ( ( ( ( ( ( ( ( ( ( ( ",
"( ( ( ( ( ( ( ( ( ( ( ( ( ( I * * * ; . . . . . . . . . . . . . . . . . . . . . . t t = * * * ( ( ( ( ( ( ( ( ( ( ( ( ( ( ( ( ( ",
"( ( ( ( ( ( ( ( ( ( ( ( ( ( ( T * * * = o . . . . . . . . . . . . . . . . . . . . # 2 * * * ( ( ( ( ( ( ( ( ( ( ( ( ( ( ( ( ( ( ",
"( ( ( ( ( ( ( ( ( ( ( ( ( ( ( ( Y * * * 1 . . . . . . . . . . . . . . . . . . . . & * * * ( ( ( ( ( ( ( ( ( ( ( ( ( ( ( ( ( ( ( ",
"( ( ( ( ( ( ( ( ( ( ( ( ( ( ( ( ( R * * * *   . . . . . . . . . . . . . . . . . & * * * ( ( ( ( ( ( ( ( ( ( ( ( ( ( ( ( ( ( ( ( ",
"( ( ( ( ( ( ( ( ( ( ( ( ( ( ( ( ( ( ( > * * *   . . . . . . . . . . . . . . . * * * * / ( ( ( ( ( ( ( ( ( ( ( ( ( ( ( ( ( ( ( ( ",
"( ( ( ( ( ( ( ( ( ( ( ( ( ( ( ( ( ( ( ( k * * * $ . . . . . . . . . . . .   * * > * / ( ( ( ( ( ( ( ( ( ( ( ( ( ( ( ( ( ( ( ( ( ",
"( ( ( ( ( ( ( ( ( ( ( ( ( ( ( ( ( ( ( ( ( x * * * * X . . . . . . . . .   & * * > ( ( ( ( ( ( ( ( ( ( ( ( ( ( ( ( ( ( ( ( ( ( ( ",
"( ( ( ( ( ( ( ( ( ( ( ( ( ( ( ( ( ( ( ( ( ( U * * * * *   .   . . . . O * * * < ( ( ( ( ( ( ( ( ( ( ( ( ( ( ( ( ( ( ( ( ( ( ( ( ",
"( ( ( ( ( ( ( ( ( ( ( ( ( ( ( ( ( ( ( ( ( ( ( ( z * * * * * O   .   * * * * 7 ( ( ( ( ( ( ( ( ( ( ( ( ( ( ( ( ( ( ( ( ( ( ( ( ( ",
"( ( ( ( ( ( ( ( ( ( ( ( ( ( ( ( ( ( ( ( ( ( ( ( ( ( < * * * * * * * * * * P ( ( ( ( ( ( ( ( ( ( ( ( ( ( ( ( ( ( ( ( ( ( ( ( ( ( ",
"( ( ( ( ( ( ( ( ( ( ( ( ( ( ( ( ( ( ( ( ( ( ( ( ( ( ( ( 7 * * * * * * 4 / ( ( ( ( ( ( ( ( ( ( ( ( ( ( ( ( ( ( ( ( ( ( ( ( ( ( ( ",
"( ( ( ( ( ( ( ( ( ( ( ( ( ( ( ( ( ( ( ( ( ( ( ( ( ( ( ( ( ( I > > c ( ( ( ( ( ( ( ( ( ( ( ( ( ( ( ( ( ( ( ( ( ( ( ( ( ( ( ( ( ( ",
"( ( ( ( ( ( ( ( ( ( ( ( ( ( ( ( ( ( ( ( ( ( ( ( ( ( ( ( ( ( ( ( ( ( ( ( ( ( ( ( ( ( ( ( ( ( ( ( ( ( ( ( ( ( ( ( ( ( ( ( ( ( ( ( "
};
