/* XPM */
static char *result[] = {
/* columns rows colors chars-per-pixel */
"64 64 111 2 ",
"   c #77C774",
".  c #79C572",
"X  c #77C977",
"o  c #7BC875",
"O  c #73CB7B",
"+  c #7DD27E",
"@  c #80D07C",
"#  c #6DD285",
"$  c #69D78B",
"%  c #6DD88D",
"&  c #7CD685",
"*  c #7DD887",
"=  c #73DB8C",
"-  c #79DD8C",
";  c #6ED690",
":  c #6FD990",
">  c #72D695",
",  c #73DA92",
"<  c #7ADC96",
"1  c #76D69A",
"2  c #79D69C",
"3  c #7CDC9A",
"4  c #7FE097",
"5  c #7FD7A2",
"6  c #86CE83",
"7  c #8CCE86",
"8  c #88DC86",
"9  c #88D589",
"0  c #84DE8B",
"q  c #8ADF89",
"w  c #93D897",
"e  c #82E48F",
"r  c #8BE08A",
"t  c #8DE990",
"y  c #83E19C",
"u  c #8AE49E",
"i  c #92E394",
"p  c #92EC91",
"a  c #98EC96",
"s  c #92E19A",
"d  c #9BED9B",
"f  c #81D6A6",
"g  c #88DFA1",
"h  c #86D6AB",
"j  c #8AD6AF",
"k  c #9DDFA6",
"l  c #8DD5B2",
"z  c #90D5B6",
"x  c #98D5BE",
"c  c #B2DEAE",
"v  c #87E2A1",
"b  c #8FE3A4",
"n  c #9BE6A4",
"m  c #97EBA6",
"M  c #9BEBA5",
"N  c #95E4AD",
"B  c #9CE4AF",
"V  c #9CECA8",
"C  c #9CE5B1",
"Z  c #A3EFA3",
"A  c #A8E8A7",
"S  c #A0ECAC",
"D  c #ABEEAA",
"F  c #A5E5B5",
"G  c #A4EDB2",
"H  c #A9EEB5",
"J  c #AAE7B8",
"K  c #A2E9B9",
"L  c #AEEBBB",
"P  c #BFE5BC",
"I  c #B4E9BF",
"U  c #BCF0BB",
"Y  c #9DD5C2",
"T  c #A0D5C6",
"R  c #A3D4CA",
"E  c #A8D4CF",
"W  c #ADD4D5",
"Q  c #B5D4DD",
"!  c #B8D4DF",
"~  c #AEEEC1",
"^  c #B4EDC2",
"/  c #B4F0C7",
"(  c #B8F1C0",
")  c #B6F0C8",
"_  c #BBF1CA",
"`  c #B7D4E0",
"'  c #BBD4E4",
"]  c #C4EDC9",
"[  c #CAEFCE",
"{  c #C4F1C3",
"}  c #C3F2CC",
"|  c #CFF1CD",
" . c #CFEFD1",
".. c #C4F4D2",
"X. c #CDF2D2",
"o. c #D4F1D5",
"O. c #D8F2D7",
"+. c #D5F4DF",
"@. c #DCF3DA",
"#. c #C5DAE8",
"$. c #CADDEA",
"%. c #CFE1EC",
"&. c #E6F4E5",
"*. c #E3FAE6",
"=. c #EBF6EA",
"-. c #E5FAEB",
";. c #EAFBEE",
":. c #EDFBF1",
">. c #EFF5F9",
",. c #F5FAFA",
"<. c #FFFFFF",
/* pixels */
"' ' ' ' ' ' ' ' ' ' ' ' ' ' ' ' ' ' ' ' ' ' ' ' ' ' ' ' ' ' ' ' ' ' ' ' ' ' ' ' ' ' ' ' ' ' ' ' ' ' ' ' ' ' ' ' ' ' ' ' ' ' ' ' ",
"' ' ' ' ' ' ' ' ' ' ' ' ' ' ' ' ' ' ' ' ' ' ' ' ' ' ' ' ' ' ' W ' ' ' ' ' ' ' ' ' ' ' ' ' ' ' ' ' ' ' ' ' ' ' ' ' ' ' ' ' ' ' ' ",
"' ' ' ' ' ' ' ' ' ' ' ' ' ' ' ' ' ' ' ' ' ' ' ' ' ' ' ' x $ $ $ $ 2 ' ' ' ' ' ' ' ' ' ' ' ' ' ' ' ' ' ' ' ' ' ' ' ' ' ' ' ' ' ' ",
"' ' ' ' ' ' ' ' ' ' ' ' ' ' ' ' ' ' ' ' ' ' ' ' ' ' ` $ $ $ $ $ $ $ $ Y ' ' ' ' ' ' ' ' ' ' ' ' ' ' ' ' ' ' ' ' ' ' ' ' ' ' ' ' ",
"' ' ' ' ' ' ' ' ' ' ' ' ' ' ' ' ' ' ' ' ' ' ' ' ' h $ $ $ $ K ] ; $ $ $ $ W ` ' ' ' ' ' ' ' ' ' ' ' ' ' ' ' ' ' ' ' ' ' ' ' ' ' ",
"' ' ' ' ' ' ' ' ' ' ' ' ' ' ' ' ' ' ' ' ' ' ' ` $ $ $ $ F @.@.@.@. .$ $ $ $ > ' ' ' ' ' ' ' ' ' ' ' ' ' ' ' ' ' ' ' ' ' ' ' ' ' ",
"' ' ' ' ' ' ' ' ' ' ' ' ' ' ' ' ' ' ' ' ' ' Q $ $ $ $ @.@.@.@.@.@.@.@.C $ $ $ $ W ' ' ' ' ' ' ' ' ' ' ' ' ' ' ' ' ' ' ' ' ' ' ' ",
"' ' ' ' ' ' ' ' ' ' ' ' ' ,.' ' ' ' ' ' ' 2 $ $ $ N @.@.@.O.@.@.@.@.@.@.O., $ $ $ Y ' ' ' ' ' ' ' ' ' ' ' ' ' ' ' ' ' ' ' ' ' ' ",
"' ' ' ' ' ' ' ' ' ' ' ' ' <.' ' ' ' ' ' % $ $ $ } X./ / / / / / / / o.@.@.@.C $ $ $ W ' ' ' ' ' ' ' ' ' ' ' ' ' ' ' ' ' ' ' ' ' ",
"' ' ' ' ' ' ' ' ' ' ' ' ' <.' ' ' ' ' $ $ $ $ L ) / / / / / / / / / / / O.@.@.o.$ $ $ l ' ' ' ' ' ' ' ' ' ' ' ' ' ' ' ' ' ' ' ' ",
"' ' ' ' ' ' ' ' ' ' ' ' ,.<.$.' ' ` $ $ $ : V L / / / / / / / / / / / / / / @.@.o.$ $ $ f ' ' ' ' ' ' ' ' ' ' ' ' ' ' ' ' ' ' ' ",
"' ' ' ' ' ' ' ' ' ' ' %.<.<.<.' W $ $ $ y V V ^ / / / / / / / / / / / / / / / @.@.@.$ $ $ h ' ' ' ' ' ' ' ' ' ' ' ' ' ' ' ' ' ' ",
"' ' ' ' ' ' ' #.' ' $.<.<.<.<.,.$ $ $ y V V V ~ / / / / / / / / / / / / / / / / X.@.@.$ $ $ 5 ' ' ' ' ' ' ' ' ' ' ' ' ' ' ' ' ' ",
"' ' ' ' ' ' ' ' ' >.<.<.<.<.<.<.<.-.V V V V V V / / / / / m K / / / / / / / / / ^ ..@.@.$ $ $ l ' ' ' ' ' ' ' ' ' ' ' ' ' ' ' ' ",
"' ' ' ' ' ' $.<.<.<.<.<.<.<.<.<.<.<.( V V V V V / / / / : $ $ H / / / / / / / / / / _ @.O.$ $ $ f ' ' ' ' ' ' ' ' ' ' ' ' ' ' ' ",
"' ' ' ' ' ' ' ' ' <.<.<.<.<.<.<.,.V V V V V V V H / / : $ % = p a / / / / / / / / / / _ @.o.$ $ $ Y ' ' ' ' ' ' ' ' ' ' ' ' ' ' ",
"' ' ' ' ' ' ' ' ' ' #.<.<.<.<.*.V V V V V V V V V / $ $ $ = p p p p / / / / / / / / / / ) @.@.$ $ $ ` ' ' ' ' ' ' ' ' ' ' ' ' ' ",
"' ' ' ' ' ' ' ' ' ' ' +.<.<.,.V V V V V V S V V M $ $ $ = p p p p p p / / / / / / / / / / } @.[ $ $ $ ` ' ' ' ' ' ' ' ' ' ' ' ' ",
"' ' ' ' ' ' ' ' ' ' $ $ <.<.V V V V V V V G V V $ $ $ = p p p p p p p d / / / / / / / / / / _ @.^ $ $ $ ' ' ' ' ' ' ' ' ' ' ' ' ",
"' ' ' ' ' ' ' ' ' ; $ $ :.<.V V V V V V V S G $ $ $ = p p p p p p p p p m / / / / / / / / / / X.@.F $ $ 1 ' ' ' ' ' ' ' ' ' ' ' ",
"' ' ' ' ' ' ' ' h $ $ : H ;.V V V V V V V V : $ $ = p p p p p p p p p p p a / / / / / / / / / / o.@.: $ $ l ' ' ' ' ' ' ' ' ' ' ",
"' ' ' ' ' ' ' W $ $ $ V V V V V V V V V V % $ $ $ p p p p p p p p p p p p p p / / / / / / / / / / X.@.$ $ $ E ' ' ' ' ' ' ' ' ' ",
"' ' ' ' ' ' ' $ $ $ M V V V V V V V V V , $ $ $ p p p p p p p p p p p p p p p p / / / / / / / / / / @.o.$ $ $ ' ' ' ' ' ' ' ' ' ",
"' ' ' ' ' ' ; $ $ b V V V V V V V V V % $ $ $ p p p p p p p p p p p p p p p p p a / / / / / / -.<.~ w @.B $ $ 1 ' ' ' ' ' ' ' ' ",
"' ' ' ' ' R $ $ 3 V V V V V V V V V 4 $ $ $ t p p p p p p p p p p p p p p p p p p a / / / / / ..<.. . o @.% $ $ l ' ' ' ' ' ' ' ",
"' ' ' ' ' $ $ $ i H V V V V V V V V $ $ $ p p p p p p p p p p p p p p p p p p p p p V / / / n :.<.. . o 7 @.$ $ $ ' ' ' ' ' ' ' ",
"' ' ' ' % $ $ 0 r r n V V V V V V $ $ $ t p p p p p p p p p p p p p p p p p p p p p p H G . o <.<.&.o . . P  .$ $ ; ' ' ' ' ' ' ",
"' ' ' R $ $ = r r q r m V V V V $ $ $ - p p p p p p p p p p p p p p p p p p p p p p p p 9 . <.<.<.<.. . . . O.< $ $ l ' ' ' ' ' ",
"' ' ' $ $ $ r r r r r r M M V v $ $ % p p p p p p p p p p p p p p p p p p p p p p p p p A <.<.<.<.<.<.c . . @ @.$ $ $ ' ' ' ' ' ",
"' ' z $ $ 0 r r r r r r r V V $ $ $ p p p p p p p p p p p p p p p p p p p p p p p p <.<.<.<.<.<.<.<.<.<.=.. . O.X.$ $ h ' ' ' ' ",
"' ' $ $ $ q r r r r r r r M = $ $ t p p p p p p p p p p p p p p p p p p p p p p p p { Z <.<.<.<.<.<.<.@.o . . o @.$ $ $ ' ' ' ' ",
"' Q $ $ $ q r r r r r r r r $ $ $ a p p p p p p p p p p p p p p p p p p p p p p p p p p p p <.<.<.<.} V V V V V G I $ $ Q ' ' ' ",
"' ' $ $ $ i i i i r r r r r $ $ $ @.{ p p p p p p p p p p p p p p p p p p p p p p p p p p p V <.<.*.V V V V V V V X.$ $ W ' ' ' ",
"' ' : $ $ / / / / / / / / / 3 $ $ O.@.{ p p p p p p p p p p p p p p p p p p p p p p p p p V V S <.V V V V V V V V S $ $ W ` ' ' ",
"' ' Q $ $ N / / / / / / / / ^ $ $ b @.@.a p p p p p p p p p p p p p p p p p p p p p t p V V V V ;.V V V V V V V V u $ $ Q ' ' ' ",
"' ' ' $ $ $ / / / / / / / / / $ $ $ @.@.O.p p p p p p p p p p p p p p p p p p p p e $ m V V V V V V V V V V V V V $ $ $ ` ' ' ' ",
"' ' ' 1 $ $ ~ / / / / / / / / s $ $ = @.@.{ p p p p p p p p p p p p p p p p p p p $ $ u V V V V V V V V V V V V < $ $ z ' ' ' ' ",
"' ' ' ` $ $ $ / / / / / / / S q $ $ % g @.@.D p p p p p p p p p p p p p p p p p t $ $ m V V V V V V V V V V V u $ $ % ' ' ' ' ' ",
"' ' ' ' ; ; $ N / / / / ^ n q q q $ $ $ F @.@.p p p p p p p p p p p p p p p p p - $ $ V V V V V V V V V V V V $ $ $ ` ' ' ' ' ' ",
"' ' ' ' ` $ $ $ / / / / k . . o . . $ $ % J @.O.p p p p p p p p p p p p t p p p $ $ $ M V V V V V V V V V V = $ $ T ' ' ' ' ' ' ",
"' ' ' ' ' Y $ $ , / / w . . . . . .   $ $ $ J @.@.{ p p p p p p p p p p p p p = $ $ - q r V V V V V V V V < $ $ ; ' ' ' ' ' ' ' ",
"' ' ' ' ' ' $ $ $ B 6 o . . . . . . o X $ $ $ F @.@.@.p p p p p p p p p p p % $ $ $ r r r t V V V V V V b $ $ $ ` ' ' ' ' ' ' ' ",
"' ' ' ' ' ' ` $ $ $ + . . . . . . . . . o $ $ $ 3 @.@.@.D p p p p p p U U = $ $ $ q r r r r r V V V V V $ $ $ Q ' ' ' ' ' ' ' ' ",
"' ' ' ' ' ' ' W $ $ $ . . . . . . . . . .   $ $ $ $ @.@.@.O.a d d | @.@.$ $ $ $ q r r r r r r i V V G $ $ $ Y ' ' ' ' ' ' ' ' ' ",
"' ' ' ' ' ' ' ' f $ $ $ . . . . . . . . . . . $ $ $ $ I @.@.@.@.@.@.o.$ $ $ $ q r r r r r r r r M V $ $ $ z ' ' ' ' ' ' ' ' ' ' ",
"' ' ' ' ' ' ' ' ' $ $ $ $ . . . . . . . . . . . # $ $ $ : O.@.@.@.I $ $ $ % r r r r q r r r r r r , $ $ f ' ' ' ' ' ' ' ' ' ' ' ",
"' ' ' ' ' ' ' ' ' ` $ $ $ & . . . . . . . . . . .   $ $ $ $ F @.u $ $ $ # 8 q r r r r r r r r r % $ $ ; ' ' ' ' ' ' ' ' ' ' ' ' ",
"' ' ' ' ' ' ' ' ' ' Q $ $ $ O . . . . . . . .   . . . $ $ $ $ $ $ $ $   . . q r r r r r r r r # $ $ $ ` ' ' ' ' ' ' ' ' ' ' ' ' ",
"' ' ' ' ' ' ' ' ' ' ' R $ $ $ & . . . . . . . . . . . . O $ $ $ $ $ . . . . . r r r r r r r % $ $ $ ' ' ' ' ' ' ' ' ' ' ' ' ' ' ",
"' ' ' ' ' ' ' ' ' ' ' ' W $ $ $ &   . . . . . . . o . . . .   O   . . . . . . . r r r r r % $ $ $ ' ' ' ' ' ' ' ' ' ' ' ' ' ' ' ",
"' ' ' ' ' ' ' ' ' ' ' ' ' R $ $ $ - . . . . . . . . . . . . . .   . . . . . . . @ r r r % $ $ $ ' ' ' ' ' ' ' ' ' ' ' ' ' ' ' ' ",
"' ' ' ' ' ' ' ' ' ' ' ' ' ' R $ $ $ * . . . . . . . . . . . . . . . . . . . . . . r r % $ $ $ ` ' ' ' ' ' ' ' ' ' ' ' ' ' ' ' ' ",
"' ' ' ' ' ' ' ' ' ' ' ' ' ' ' W $ $ $ $ o . . . . . . . . . . . . . . . . . . . . @ < $ $ $ ' ' ' ' ' ' ' ' ' ' ' ' ' ' ' ' ' ' ",
"' ' ' ' ' ' ' ' ' ' ' ' ' ' ' ' W $ $ $ ; . . . . . . . . . . . . . . . . . . . . # $ $ $ ' ' ' ' ' ' ' ' ' ' ' ' ' ' ' ' ' ' ' ",
"' ' ' ' ' ' ' ' ' ' ' ' ' ' ' ' ' ` $ $ $ $   . . . . . . . . . . . . . . . . . # $ $ $ ' ' ' ' ' ' ' ' ' ' ' ' ' ' ' ' ' ' ' ' ",
"' ' ' ' ' ' ' ' ' ' ' ' ' ' ' ' ' ' ` ; $ $ $ X . . . . . . . . . . . . . . . $ $ $ $ ! ' ' ' ' ' ' ' ' ' ' ' ' ' ' ' ' ' ' ' ' ",
"' ' ' ' ' ' ' ' ' ' ' ' ' ' ' ' ' ' ' ' j $ $ $ O . . . . . . . . . . . . . $ $ $ ; ` ' ' ' ' ' ' ' ' ' ' ' ' ' ' ' ' ' ' ' ' ' ",
"' ' ' ' ' ' ' ' ' ' ' ' ' ' ' ' ' ' ' ' ' z $ $ $ $   . . . . . . . . . . $ $ $ ; ' ' ' ' ' ' ' ' ' ' ' ' ' ' ' ' ' ' ' ' ' ' ' ",
"' ' ' ' ' ' ' ' ' ' ' ' ' ' ' ' ' ' ' ' ' ' E $ $ $ $ $   .     . . . O $ $ $ > ' ' ' ' ' ' ' ' ' ' ' ' ' ' ' ' ' ' ' ' ' ' ' ' ",
"' ' ' ' ' ' ' ' ' ' ' ' ' ' ' ' ' ' ' ' ' ' ` ' l $ $ $ $ $ O   .   $ $ $ $ f ` ' ' ' ' ' ' ' ' ' ' ' ' ' ' ' ' ' ' ' ' ' ' ' ' ",
"' ' ' ' ' ' ' ' ' ' ' ' ' ' ' ' ' ' ' ' ' ' ' ' ' ' > $ $ $ $ $ $ $ $ $ $ Y ' ' ' ' ' ' ' ' ' ' ' ' ' ' ' ' ' ' ' ' ' ' ' ' ' ' ",
"' ' ' ' ' ' ' ' ' ' ' ' ' ' ' ' ' ' ' ' ' ' ' ' ' ' ' ` 5 $ $ $ $ $ $ 2 ` ' ' ' ' ' ' ' ' ' ' ' ' ' ' ' ' ' ' ' ' ' ' ' ' ' ' ' ",
"' ' ' ' ' ' ' ' ' ' ' ' ' ' ' ' ' ' ' ' ' ' ' ' ' ' ' ' ' ' R ; : x ' ' ' ' ' ' ' ' ' ' ' ' ' ' ' ' ' ' ' ' ' ' ' ' ' ' ' ' ' ' ",
"' ' ' ' ' ' ' ' ' ' ' ' ' ' ' ' ' ' ' ' ' ' ' ' ' ' ' ' ' ' ' ' ' ' ' ' ' ' ' ' ' ' ' ' ' ' ' ' ' ' ' ' ' ' ' ' ' ' ' ' ' ' ' ' "
};
