/* XPM */
static char *result[] = {
/* columns rows colors chars-per-pixel */
"64 64 86 1 ",
"  c #7E76C5",
". c #7F78C4",
"X c #8077C7",
"o c #817AC7",
"O c #847DCA",
"+ c #8D9BAB",
"@ c #878CB7",
"# c #8382BD",
"$ c #8991B0",
"% c #8FA2A5",
"& c #91A3A6",
"* c #93A6AB",
"= c #95A8AD",
"- c #93A3B0",
"; c #97AAB0",
": c #99ADB3",
"> c #9CB0B6",
", c #9EB2B9",
"< c #A1B5BE",
"1 c #8682C9",
"2 c #8A83CD",
"3 c #8C8CCC",
"4 c #8E90CD",
"5 c #969FC5",
"6 c #9194CF",
"7 c #8D86D0",
"8 c #8F89D3",
"9 c #938CD4",
"0 c #9391D1",
"q c #969BD1",
"w c #9B94D9",
"e c #9F99DD",
"r c #A29BDE",
"t c #9CA5D5",
"y c #9FA9D5",
"u c #A3B7C0",
"i c #A5BBC4",
"p c #A8BEC8",
"a c #A0AAD6",
"s c #A8A6DD",
"d c #A3AFD8",
"f c #A5B2D9",
"g c #A8B6DA",
"h c #ACBCDC",
"j c #A39DE0",
"k c #A6A0E1",
"l c #ABA5E5",
"z c #AEA8E7",
"x c #AFAAE8",
"c c #B2ADEB",
"v c #BAAEEF",
"b c #B1B9E5",
"n c #B6B1ED",
"m c #B9B3EE",
"M c #B9B9EB",
"N c #B1ADF0",
"B c #B5B1F1",
"V c #BBB6F2",
"C c #BEBAF3",
"Z c #CCB3EB",
"A c #D4BCEF",
"S c #DBBCEC",
"D c #C0BBF4",
"F c #CCBBF1",
"G c #E7B8E7",
"H c #EAB9E5",
"J c #F7BDE5",
"K c #FFBDE2",
"L c #AAC1CC",
"P c #AFC1DE",
"I c #B2C9D6",
"U c #B4CCDA",
"Y c #B7D0DE",
"T c #B2C7E0",
"R c #B5CAE1",
"E c #B8CFE2",
"W c #BDCBEA",
"Q c #BBD4E4",
"! c #C5C1F4",
"~ c #C8C4F6",
"^ c #CECAF7",
"/ c #D9D6F8",
"( c #E5E4FB",
") c #E9E8FB",
"_ c #F3F2FD",
"` c #FFFFFF",
/* pixels */
"QQQQQQQQQQQQQQQQQQQQQQQQQQQQQQQQQQQQQQQQQQQQQQQQQQQQQQQQQQQQQQQQ",
"QQQQQQQQQQQQQQQQQQQQQQQQQQQQQQQQQQQQQQQQQQQQQQQQQQQQQQQQQQQQQQQQ",
"QQQQQQQQQQQQQQQQQQQQQQQQQQQQQQQQQQQQQQQQQQQQQQQQQQQQQQQQQQQQQQQQ",
"QQQQQQQQQQQQQQQQQQQQQQQQQQQQQQQQQQQQQQQQQQQQQQQQQQQQQQQQQQQQQQQQ",
"QQQQQQQQQQQQQQQQQQQQQQQQQQQQQQQQQQQQQQQQQQQQQQQQQQQQQQQQ^QQQQQQQ",
"QQQQQQQQQQQQQQQQQQQQQQQQQQQQQQQQQ^QQQQQQQQQQQQQQQQQQQQQQQQQQQQQQ",
"QQQQQQQQQQQQQQQQQQQQQQQQQQQQQQQQQQQQQQQQQQQQQQQQQQQQQQQQQQQQQQQQ",
"QQQQQQQQQQQQQQQQQQQQQQQQQQQQQQQQQQQQQQQQQQQQQQQQQQQQQQQQQQQQQQQQ",
"QQQQQQQQQQQQQQQQQQQQQQQQQQQQQQQQQQQQQQQQQQQQQQQQQQQQQQQWQQQQQQQQ",
"QQQQQQQQQQQQQQQQQQQQQQQQQQQQQQQQQQQQQQQQQQQQQQQQQQQh7   ...tQQQQ",
"QQQQQQQQQQQQQQQQQQQQQQQQQQQQQQQQQQQQQQQQQQQQQQQQt       .   gQQQ",
"QQQQQQQQT4oX.O8hQQQQQQQQQQQQQQUTPURYQQQQQQQQQQP..  8cBDDWBz .QQQ",
"QQQQQQ1      .    qQQQQQQho             WQQQQ1  OCDDDDDDDDC  QQQ",
"QQQQQ   OzmDCncO    PQEO      O282OO      6h3O1CDDDDDDDDDDD  QQQ",
"QQQQ1 oDDDDDDDCDDCX     XOcDDDDDCCCDCDDN     eCCDDDDDDDDDDW  QQQ",
"QQQQ  DDDDDDDDDDDCVO  ocDDDDDDDDWCDDCDDDCC8   wCDDDDDDDDDDC  QQQ",
"QQQQ oDDDDDDDDDDDc9O9VDDDDDDDDDDDDDDDDDDDDDDVOlDDDDDDDDDDDD  QQQ",
"QQQg 2DDDDDDDDDDCcrVDDDDDD^``)DDDDDDDDDDDDDDDDDDDDDDDDDDDDD  QQQ",
"QQQ1 cDDDDDDDDDDDCDDDDDDDD````~DDDVNNNNNNDDDDDDDDDDDDDDDDDD  QQQ",
"QQQo DDDDDDDDDDDDDDDDDDDDD````!NNNNNNNNNNNNDDDDDDDDDDDDDDDD  QQQ",
"QQQ  DDDDDDDDDDDDDDD^```^C````NNNNNNNNNNNNNNCDDDDDDDDDDDDDn oQQQ",
"QQQ  CDDDDDDDDDDDC_`````^DCDCNNNNNNNNNNNNNNNNDDDDDDDDDDDDD2 dQQQ",
"QQT oDDDDDDDDDDD(```````DDDDCVNNNNNNNNNNNNNNNNCDDDDDDDDDDD  QQQQ",
"QQR oDDDDDDDDDC````````DDDDDDDDVNNNNNNNNNNNNNNNDDDDVCDDDCC  QQQQ",
"QQR oDDDDDDDDD````````DDDDDDDDDDDDDDDDNNNNNNNNNNDDC9 oCDD1 yQQQQ",
"QQQ  DDDDDDDD_``````)DDDDDDDDDDDDDDDDDDDDNNNNNNNNDDl   cD .QQQQQ",
"QQQ  DDDDDDDD``````CDDDDDDDDDDDDDDDDDDDDDDVNNNNNNVDDD7  o 8QQQQQ",
"QQQ  DDDDDDDD````(DDDDDDDDDDDDDDDDDDDDDDDDDDNNNNNNCDDDl   WQQQQQ",
"QQQ  no2CDDDD/``DDDDDDDDDDDDDDDDDDDDDDDDDDDDDNNNNNVDDDDD   QQQQQ",
"QQQt   ODDDDDDDDDDDDDDDDDDDDDDDDDDDDDDDDDDDDDDNNNNNDDDDDC  oQQQQ",
"QQQE  2DDDDDDDDDDDDDDDDDDDDDDDDDDDDDDDDDDDDDDDDNNNNDDDDDDC  fQQQ",
"QQQ2 1DDDDDDDDDDDDDDDDDDDDDDDDDDDDDDDDDDDDDDDDDDNNVDDDDDDDm  QQQ",
"QQQOoCDDDDDDDDDDDDDDDDDDDDDDDDDDDDDDDDDDDDDDDDDDDDDDDDDDDDDOX2QQ",
"QQho2DDDDDDDDDDDDDDDDDDDDDDDDDDDDDDDDDDDDDDDDDDDDDDDDDDDDDDD  QQ",
"QQo mDDDDDDDDDDDDDDDDDDDDDDDDDDDDDDDDDDDDDDDDDDDDDDDDDDDDDDDo gQ",
"QQ  DDDDDDCDDDDDDDDDDDDDDDDDDDDDDDDDDDDDDDDDDDDDDDDDDDDDDDDDb OQ",
"Qd 2DDDDDDDDVe      lCDDDDDDDDDDDDDDDDDDDDDDDjO XXO9VDDDDDDDC  Q",
"Qo nDDDDDDC9o         wDDDDDDDDDDDDDDDDDDV7  XX       ODDDDDD  Q",
"Q  DDDDDDDl92lDDDDDcO  XDDDDDDDDDDDDDDDDc7X X9cvccmrX ODDDDDC. Q",
"Q  DDDDDDCVCDDDDDDDDDV  VDDDDDDDDDDDDDDDcrVDDDDDDDDDDDlDDDDDD. Q",
"U .DDDDCVBBCDDDDDDDDDDDVCDDDDDDDDDDDDDDDDDDDDDDDDDDDDDDDDDCDD  Q",
"R  DDDDCBNNVAFDDDDDDDDDDDDDDDC  X VDDDDDDDDDDDDDDFKKKJDDDDDDD  Q",
"Q  DDDDCNvKKKKKKDDDDDDDDDDDDDz   XODDDDDDDDDDDDDSKKKKKKDDDDDD  Q",
"Q  CDDDCNKKKKKKKFDDDDDDDDDDDDD   XjDDDDDDDDDDDDDKKKKKKKDDDDDm .Q",
"Q  VDCDDBGKKKKKJCCDDDDDDDDDDDDC8 wDDDDDDDDDDDDDDKKKKKKKDDDDD0 tQ",
"Qf oDDDDCNNZGHvNBCCCDDDDDDDDDDDCDDDDDDDDDDDDDDDDDSJKJADDDDDD. EQ",
"QQ  DDDDDBNNNNNNNNNVCVCDCD7CDDC9jDDDDjwDDDDDDDDDDDDDDDDDDDCC  QQ",
"QQ1.ODDDDCBNNNNNNNNNNNVVCV oDC   VDDD XDDDDDDDDDDDDDDDDDDDCO qQQ",
"QQQ  wCCDDCBNNNNNNcNNNNBBV.       oo  oDDDDDDDDDDDDDDDDDDDM. QQQ",
"QQQQ  rCDDDCBNNNNNNNNNNNBBN1  8B7   XoDDDDDDDDDDDDDDDDDDDc  yQQQ",
"QQQQd  7DDDDCVNNNNNNNNNNNNNNNNNNNVVmDDDDDDDDDDDDDDDDDDDD9  0QQQQ",
"QQQQQE  .xDDDCCBNNNNNNBNNBNNNNNNNCDDDDDDDDDDDDDDDDDDDDC X gQQQQQ",
"QQQQQQE    2CDDDCBBBNNNNNNBNNNBBVDDDDDDDDDDDDDDDDDDDDk   QQQQQQQ",
"QQQQQQQQPo    cDDDDCVVBVBBBBBBBCCDDDDDDDDDDDDDDDDDDM X 3QQQQQQQQ",
"QQQQQQQQQQE3    olmCCCDDCCCCCDDDDDDDDDDDDDDDDDDCDnX   UQQQQQQQQQ",
"QQQQQQQQQQQIu*    .  rMCDDCDCDDDDDDDDDDDDDDDDDV7    aQQQQQQQQQQQ",
"QQQQQQQQQQQUp:&&+1.       2znCDCDDDDDDDDCCs1.     5UQQQQQQQQQQQQ",
"QQQQQQQQQQQUL,;&&&%%+# .   .                   @=,LUQQQQQQQQQQQQ",
"QQQQQQQQQQQQIp,=&&&&%&%&&++#.  .        . #$&&&;>pUEQQQQQQQQQQQQ",
"QQQQQQQQQQQQQIp,:=&&%&&&&&&&&&%%&&&&&&*&&&&&*=:,pIQQQQQQQQQQQQQQ",
"QQQQQQQQQQQQQQULp,,>;=**===*========-;=;=;::><pLUEQQQQQQQQQQQQQQ",
"QQQQQQQQQQQQQQQQUILLLiuuu,,u<,uuuuu,uuuuuppLLIYQQQQQQQQQQQQQQQQQ",
"QQQQQQQQQQQQQQQQQQQYUUIUIUIIIUUIUUUUIUIUUUYYQQQQQQQQQQQQQQQQQQQQ",
"QQQQQQQQQQQQQQQQQQQQQQQQQQQQYQQQQQQQQQQQQQQQQQQQQQQQQQQQQQQQQQQQ"
};
