/* XPM */
static char *result[] = {
/* columns rows colors chars-per-pixel */
"64 64 88 1 ",
"  c #7E76C5",
". c #7E78C6",
"X c #817FBF",
"o c #8079C7",
"O c #837CC9",
"+ c #8F9FA7",
"@ c #8B97AF",
"# c #868CB6",
"$ c #8485BC",
"% c #8789BE",
"& c #8993B2",
"* c #8FA2A5",
"= c #91A3A6",
"- c #93A5AA",
"; c #95A8AD",
": c #97AAB0",
"> c #99ADB3",
", c #9CB0B6",
"< c #9EB2B9",
"1 c #A1B5BE",
"2 c #8380C7",
"3 c #8581CA",
"4 c #8984CD",
"5 c #8A8ACC",
"6 c #908ACF",
"7 c #8F91CD",
"8 c #9193CE",
"9 c #8D86D1",
"0 c #928CD4",
"q c #9592D5",
"w c #9891D7",
"e c #969CD2",
"r c #999DD3",
"t c #9B95DA",
"y c #9F9ADC",
"u c #A19BDE",
"i c #99A4C5",
"p c #9BA2D4",
"a c #A3B7C0",
"s c #A5BAC4",
"d c #A8BEC8",
"f c #A1ABD7",
"g c #A3A3DD",
"h c #A5B3DA",
"j c #A8B3DC",
"k c #ACBCDD",
"l c #A59EE0",
"z c #A7A1E2",
"x c #AAA4E5",
"c c #AEA8E7",
"v c #A8A5E8",
"b c #AEAAE9",
"n c #B1AFEF",
"m c #B5B1EE",
"M c #B9B3EF",
"N c #B0AFF0",
"B c #B3B1F1",
"V c #BAB6F2",
"C c #BEB9F3",
"Z c #CCB5EB",
"A c #D2B5EA",
"S c #C0BBF4",
"D c #C9BCF2",
"F c #EDBBE6",
"G c #F5BCE4",
"H c #FFBDE2",
"J c #AAC1CC",
"K c #ADC4D0",
"L c #AFC2DE",
"P c #B2C9D6",
"I c #B2C4DF",
"U c #B4CCDA",
"Y c #B7D0DE",
"T c #B2C6E0",
"R c #B4CAE1",
"E c #B9CFE2",
"W c #BBD4E4",
"Q c #C4C0F5",
"! c #CBC7F6",
"~ c #CCCBF5",
"^ c #D1CDF7",
"/ c #D6D5F7",
"( c #D9D6F8",
") c #DDDAF9",
"_ c #E0DEFA",
"` c #ECEBFC",
"' c #F5F4FD",
"] c #FEFEFF",
/* pixels */
"WWWWWWWWWWWWWWWWWWWWWWWWWWWWWWWWWWWWWWWWWWWWWWWWWWWWWWWWWWWWWWWW",
"WWWWWWWWWWWWWWWWWWWWWWWWWWWWWWWWWWWWWWWWWWWWWWWWWWWWWWWWWWWWWWWW",
"WWWWWWWWWWWWWWWWWWWWWWWWWWWWWWWWWWWWWWWWWWWWWWWWWWWWWWWWWWWWWWWW",
"WWWWWWWWWWWWWWWWWWWWWWWWWWWWWWWWWWWWWWWWWWWWWWWWWWWWWWWWWWWWWWWW",
"WWWWWWWWWWWWWWWWWWWWWWWWWWWWWWWWWWWWWWWWWWWWWWWWWWWWWWWWWWWWWWWW",
"WWWWWWWWWWWWWWWWWWWWWWWWWWWWWWWWWWWWWWWWWWWWWWWWWWWWReO...OpWWWW",
"WWWWWWWL82O33pRWWWWWWWWWWWWWWWWWWWWWWWWWWWWWWWWWR5.  .      WWWW",
"WWWWWWp     .    8EWWWWWWWWWWWWWWWWWWWWWWWWWWWq .    .9lbb..LWWW",
"WWWWWW  o9004.  o   8WWWWWWWWWWWWWWWEEWEWWWWe   .oxCSSSSSS  qWWW",
"WWWWWo  SSSSCSSSlo    hWWWTr4o..O. o  oogWT    xSSCSSSSSSS9 2WWW",
"WWWWE  VSSSSSSSSSSSz      .         o  o     lSSSSSSSSSSSSy .WWW",
"WWWW3 oSSSSSSSSSSSSS9     ..4wbmNSSSSSb0    .SSSSSSSSSSSSSv .WWW",
"WWWW  cSCSSSSSSSSSSM  onCSSSSSSSSSSSSSSSSSy oSSSSSSSSSSSSCx .WWW",
"WWWW  SSSSSSSSSSSSSSlMSSSSSSCCSSSSSSSSSSSSSSSSSSSSSSSSSSSCl .WWW",
"WWWW  SSSSSSSSSSSSSSSSSSSSSSQ``CCVVVVVSSSSSSSSSSSSSSSSSSSS0 OWWW",
"WWWR  SSSSSSSSSSSSSSSSSSSSSS]]]~NNNNNNNMVCSSSSSSSSSSSSSCSSo 7WWW",
"WWWT  CCSSSSSSSSSSSSSS(''SSS]]]~nNnnnnnNnnVSSSSSSSSSSSSSSS  kWWW",
"WWWR  SSSSSSSSSSSSSS']]]]`BN`]'mnnnNNnnnnnnBVSSSSSSSSSSSSS  WWWW",
"WWWW  SSSSSSSSSSSS_]]]]]]/nnmVBNnnnmnnnnnnnNNBCSSSSSSSSSSOooWWWW",
"WWWW  SSSSSSSSSSS']]]]]]/nNnbBNNNnNnnnnnnnnnnNBVSSSSn uSSo IWWWW",
"WWWW  CSSSSSSSSS]]]]]]!CNnnnnnNNnnnnNnnNnNnnnNnBVCSSb  n3ooWWWWW",
"WWWW  mSSSSSSSS]]]]]^SSCBnnnnnNNNBBBBNnnnnnnnNnnNVSSSO  oojWWWWW",
"WWWWo ySCSSSSS]]]]]QSSSSVBBBVVVCCSSSSSVBnnnnnmnnNNBSSS   oWWWWWW",
"WWWWq.oC .SSS']]]]SSSSSSSSSSSSCSSSCSSSSSVBNNnnNnNNNVSSO  fWWWWWW",
"WWWWT  . oSSQ]]]]SSSSSSSSSSCSSSSSSSSSSSSSSVNnnnnnnnnSSno  WWWWWW",
"WWWWW    SSSS]]]CCSSSSSSSSSSSSSSSSSSSSSSSSSCBnNnnnnnnSSS  eWWWWW",
"WWWWWk  0SSSS^)SSSSSSSSSSSSSSSSSSSSSSSSSSSSSSVNnnnnnnSSSuo WWWWW",
"WWWWWU  SSSSSSSSSSSSSSSSSSSSSSSSSSSSSSSSSSSSSSVNnnnnnSSSSo PWWWW",
"WWWWW3 oSSSSSSSSSSSSSSSSSSSSSSSSSCSSSSSSSSSSSSSCNNnnnSSSSO 3WWWW",
"WWWWW .MSSSSSSSSSSSSSSSSSSSSSSSSSSSSSSSSSSSSSSSSSBBBVSSSSn  WWWW",
"WWWWW  CSSSSSSSSSSSSSSSSSSSSSSSSSSSSSSSSSSSSSSSSSSSSSSSSSS  WWWW",
"WWWWk  CSSSSSSSSSSSSSSSSSSSSSSSSSSSSSSSSSSSSSSSSSSSSSSSSSS  WWWW",
"WWWW8 oSSSSSSSSSSSSSSSSSSSSSSSSSSSSSSSSSSSSSSSSSSSSSSSSSSS  kYY~",
"WWWW3 5SSSSSSSSSSSSSSSSSSSSSSSSSSSSSSSSSSSSSSSSSSSSSSSSSSS ok~WY",
"WWWWo.0SSSSSSSVcwOownSSSSSSSSSSSSSSSSSSSSS0o   olSSSSSSSSSooUWWW",
"WWWWo qSSSSSo   oo   oouSSSSSSSSSSSSSSSnoooo    ooo9SSSSSSooPWWW",
"WWWWoo0SSSSVo   owwo     SSSSSSSSSSSSSOoooooowuOoooocSSSCC  IWWW",
"WWWWO 6SSSSSMSSSSSSSSSco MSSSSSSSSSSSSlOOlSSSSSSSSSmSSSSCC. TWWW",
"WWWW5oOSSSSSSSSSSSSSSSSSMSSSSSSSSSSSSSSSSSSSSSSSSSSSSSSSSS. WWWW",
"WWWWpooSSSSBnBCSSSSSSSSSSSSSSSSSSSSSSSSSSSSSSSSVSSSSSSSSCC..WWWW",
"WWWWI .SSSBnAGHHFZSSSSSSSSSSSno onSSSSSSSSSSSSDHHHHGSSSSSw  WWWW",
"WWWWE .CSSNFHHHHHHDSSSSSSSSSSo oooSSSSSSSSSSSSHHHHHHGSSSS. jWWWW",
"WWWWW. MSSnGHHHHHHDSSSSSSSSSSuooo0SSSSSSSSSSSSHHHHHHHCSSx  WWWWW",
"WWWWW. 2SSBnFHHHHZNSSSSSSSSSSSSwlSSSSSSSSSSSSSSHHHHHDSSS. eWWWWW",
"WWWWWR  CSCnnnNnnnnBVSSSSSSSSSSCDSSSSSSSSSSSSSSSSDDSSSSt .WWWWWW",
"WWWWWW  gSSVnnnnnNnnNNVSSclSSSCCSSSSSSnSSSSSSSSSSSSSSSM  rWWWWWW",
"WWWWWWe  SSSVNnnnnnnNNNNV  CSV  9VVnn  SSSSSSSSSSSSSSS  oWWWWWWW",
"WWWWWWW  4SSSVNnNnnnnNNNnt      o     OSSSSSSSSSSSSSSO oEWWWWWWW",
"WWWWWWWh  yCSSCNnnNnnnnNnNt   vn0o   0nCSSSSSSSSSSSS0  kWWWWWWWW",
"WWWWWWWW5 .zSSCCBNnnnNnnnmNNnnmNnnnnNnnSSSSSSSSSSSSb ogWWWWWWWWW",
"WWWWWWWWW2. gCCCCBnNnnNnnnnnNnnnNnNnnnVSSSSSSSSSSSM  OWWWWWWWWWW",
"WWWWWWWWWW2 .3SSSSVBnnnnnNnnnnnNnnNNBCSSSSSSSSSSSV  oWWWWWWWWWWW",
"WWWWWWWWWWW5  oCSSSSVmmnnnnnnNnnnNBVSSSSSSSSSSSSl   WWWWWWWWWWWW",
"WWWWWWWWWWWPi   5CSSCCVmNNnnnnNBBCSSSSSSSSSSSSCo  oPWWWWWWWWWWWW",
"WWWWWWWWWWEPa-    OxCCSSSVVCVVCCSSSSSSSSSSSSSt   %sPEWWWWWWWWWWW",
"WWWWWWWWWWWPs;=@     .yCSSSSSSSSSSSSSSSSSSSy    @;sPWWWWWWWWWWWW",
"WWWWWWWWWWWUs>===*X      .o4xmMSSSMMSMMMlo    &+=:sUWWWWWWWWWWWW",
"WWWWWWWWWWWUK1;===**+#      o   oo  o       #**-;1JUWWWWWWWWWWWW",
"WWWWWWWWWWWWUd,;========+&$X       o o  o$=====;>dUWWWWWWWWWWWWW",
"WWWWWWWWWWWWWPd<>>============+=+===+==+====-;><dPWWWWWWWWWWWWWW",
"WWWWWWWWWWWWWEUJJ<,,>;;;;;;;;;;;;;;;;;;;;;>><1dJUWWWWWWWWWWWWWWW",
"WWWWWWWWWWWWWWWWUUJJJs111111111111111ss1sddJJPUWWWWWWWWWWWWWWWWW",
"WWWWWWWWWWWWWWWWWWWYUUUUPUPPPUPPUUUUUUPUUUYYWWWWWWWWWWWWWWWWWWWW",
"WWWWWWWWWWWWWWWWWWWWWYYWWYWWWWWWWWYWWWWWWWWWWWWWWWWWWWWWWWWWWWWW"
};
