/* XPM */
static char *result[] = {
/* columns rows colors chars-per-pixel */
"64 64 81 1 ",
"  c #7E76C5",
". c #7F78C6",
"X c #8077C6",
"o c #817AC6",
"O c #847DC9",
"+ c #8A94AF",
"@ c #8D9BAC",
"# c #8688B7",
"$ c #8382BD",
"% c #8A91B2",
"& c #91A3A6",
"* c #94A6AB",
"= c #95A8AD",
"- c #99ADB3",
"; c #9CB0B6",
": c #9DB2B9",
"> c #A1B5BE",
", c #8683C9",
"< c #8983CD",
"1 c #8C8BCC",
"2 c #8F91CD",
"3 c #9193CF",
"4 c #8D86D0",
"5 c #8F88D2",
"6 c #938CD4",
"7 c #9691D6",
"8 c #9891D7",
"9 c #9498D0",
"0 c #999BD5",
"q c #9B95DA",
"w c #9F98DC",
"e c #A19BDE",
"r c #9CA3D4",
"t c #9FA9D6",
"y c #A3B7C0",
"u c #A5BBC4",
"i c #A8BEC8",
"p c #A3A2D7",
"a c #A1ACD7",
"s c #A6B5DA",
"d c #A9B7DB",
"f c #ACBDDD",
"g c #A59FE1",
"h c #A9A3E3",
"j c #AEA9E7",
"k c #AFA9E8",
"l c #B3ADEB",
"z c #BDAFED",
"x c #B6B1ED",
"c c #B9B3EE",
"v c #B1ADF0",
"b c #B5B1F1",
"n c #BAB6F2",
"m c #BEBAF3",
"M c #FCB7DE",
"N c #CBB1EA",
"B c #CFBAEE",
"V c #DDB9E9",
"C c #C0BBF4",
"Z c #CBBAF0",
"A c #E3B5E5",
"S c #F4B7E1",
"D c #F4B8E1",
"F c #AAC1CC",
"G c #ADC4D0",
"H c #B2C9D6",
"J c #B0C3DE",
"K c #B4CCDA",
"L c #B7D0DE",
"P c #B3C7E0",
"I c #B5CBE1",
"U c #B9CFE2",
"Y c #BBD4E4",
"T c #C5C1F5",
"R c #C9C5F6",
"E c #D5D2F8",
"W c #DEDBF9",
"Q c #E1DFFA",
"! c #E7E5FB",
"~ c #EDEBFC",
"^ c #FFFFFF",
/* pixels */
"YYYYYYYYYYYYYYYYYYYYYYYYYYYYYYYYYYYYYRYYYYYYYYYYYYYYYYYYYYYYYYYY",
"YYYYYYYYYYYYYYYYYYYYYYYYYYYYYYYYYYYYYYYYYYYYYYYYYYYYYYYYYYYYYYYY",
"YYYYYYYYYYYYYYYYYYYYYYYYYYYYYYYYYYYYYYYYYYYYYYYYYYYYYYYYYYYYYYYY",
"YYYYYYYYYYYYYYYYYYYYYYYYYYYYYYYYYYYYYYYYYYYYYYYYYYYYYYYYYYYYYYYY",
"YYYYYYYYYYYYYYYYYYYYYYYYYYYYYYYYYYYYYYYYYYYYYYYYYYYYYYYYYYYYYYYY",
"YYYYYYYYYYYYYYYYYYYYYYYYYYYYYYYYYYYYYYYYYYYYYYYYYYYYYYYYYYYYYYYY",
"YYYYYYYYYYYYYYYYYYYYYYYYYYYYYYYYYYYYYYYYYYYYYYYYYYYYYYYYYYYYYYYY",
"YYYYYYYYYYYYYYYYYYYYYYYYYYYYYYYYYYYYYYYYYYYYYYYYYYYYYYYYYYYYYYYY",
"YYYYYYYYYYYYYYYYYYYYYYYYYYYYYYYYYYYYYYYYYYYYYYYYYYYYYYYYYYYYYYYY",
"YRYYYYYYYYYYYYYYYYYYYYYYYYYYYYYYYYYYYYYYYYYYYYYYYYYYYYYYYYYYYYYY",
"YYYYYYYYYYYYYYYYYYYYYYYYYYYYYYYYYYYYYYYYYYYYYYYYYYYYYYYYYYYYYYYY",
"YYYYYYYYYYYYYYYYYYYYYYYYYYYYYYYYYYYYYYYYYYYYYYYYYYYYYYYYYYYYYYYY",
"YYYYYYYYYYYYYYYYYYYYYYYYYYYYYYYYYYYYYYYYYYYYYYYYYYYYYYYYYYYYYYYY",
"YYYYYYYYYYYYYYYYYYYYYYYYYYYYYYYYYYYYYYYYYYYYYYYYYYYYYYYYYYYYYYYY",
"YYYYYYYYYYYYYYYYYYYYYYYYYYYYYYYYYYYYYYYYYYYYYYYYYYs.      1fYYYY",
"YYYYYYYYYYYYYYYYYYYYYYYYYYYYYYYYYYYYYYYYYYYYYYYr          ...2YY",
"YYYYYYP,       oIYYYYYYYYYYIPJsar31<<1dUYYYY0,XX  ObCCCCCCkOX YY",
"YYYY3.  ...    ...oIYI3.     ..X   X. .X .,,X .XbmPmCCCCCCCCX YY",
"YYY.   jCCCCmCCh.     . . ..o466whllxj5X    .olCCCCCCCCCCCCC  YY",
"YY$. mPmCCCCCCCCl     enCCCCCCCCCCCCCCCCCCg..XXlCCCCCCCCCCCC  YY",
"Yr OCCCCCCCCCCc.  .8CCCCCCCCCCCCCCCCCCCCCCCCCX XvCCCCCCCCCml OYY",
"Y  nCCCCCCCCCjo. lCCCCCCCCCCCCCCCCCCCCCCnCCCCCk4nCCCCCCCCCm4 dYY",
"Y  CCCCCCCCCCk5lCCCCCCCCCCCQ^^TmCmmmCbvvvvvCCCCCCCCCCCCCCCC  YYY",
"Y  CCCCCCCCCCCCCCCCCT^^^RmW^^^^CnvllvvvvvvvvvCCCCCCCCCCCCCm  UYY",
"Y  mCCCCCCCCCCCCCC~^^^^^^T^^^^^vvvvvvvvvvvvvvvCCCCCCCCCCCCb..YYY",
"Y  mCCCCCCCCCCCCW^^^^^^^^R~^^^CvvvvvvvvvvvvvvvvnCCCCnCCCCCo..YYY",
"Y  CCCCCCCCCCCC^^^^^^^^^^CmCCCmmvvvvvvvvvvvvvvvvCCCOXXCCCl .UYYY",
"Y  mCCCCCCCCCT^^^^^^^^^WCCCCCCCCmnvvvvvvvvvvvvvvvCCl .XOC  5YYYY",
"Y7 qmmCCCCCCC^^^^^^^^ECCCCCCCCCCCCCCmCCmvvvvvvvvvvCCCqXX  OUYYYY",
"YY  mnCCCCCCC^^^^^^!CCCCCCCCCCCCCCCCmCCCCCCvvvvvvvbCCCCO  4UYYYY",
"YY  qqbCCCmCCT^^^TCCCCCCCCCCCCCCCCCCCCCCCCCCnvvvvvvnCCCCn. 0YYYY",
"YY9  4mmCCCCCCCCmCCCCCCCCCCCCCCCCCCCCCCCCCCCCCvvvvvvCCCCCb .PYYY",
"YYU  CCCCCCCCCCCCCCCCCCCCCCCCCCCCCCCCCCCCCCCCCClvvvvnCCCCCg  YYY",
"YYO.6CCCCCCCCCCCCCCCCCCCCCCCCCCCCCCCCCCCCCCCCCCCvvvvvCCCCCCX rYY",
"YYX.CCCCCCCCCCCCCCCCCCCCCCCCCCCCCCCCCCCCCCCCCCCCCvvvvCCCCCCn  YY",
"Y9XOCCCCCCCCCCCCCCCCCCCCCCCCCCCCCCCCCCCCCCCCCCCCCCvvbCCCCCCCX aY",
"Y. nCCCCCCCCCCCCCCCCCCCCCCCCCCCCCCCCCCCCCCCCCCCmCCCCCCCCCCCCm .Y",
"U..CCCCCCCCCCCCbvlzbbmCCCmCCCCCCCCCCCCCCCCCClo.   XgbCCCCCCCC. Y",
"3.qCCCCCCCCC6. . .    4mCCCCCCCCCCCCCCCCCCq . ..    XX6CCCCCCX P",
"o.cCCCCCCC6X   XO4<O    mCCCCCCCCCCCCCCCCX. XgCCCCl4XX  CCCCC6 t",
"..CCCCCmCcX OCCCCCCCCmX.XCCCCCCCCCCmCCCCC.XnCCCCCCCmCCXXCCCCClXo",
"  CCCbxbCCgCCCCCCCCCCCC5OCCCCCCCCCCCCCCmCCCCCCCCmCCmCCCCCCCCCCXX",
"..mCmvvvbCCZCCCCCCCCCCCCCCCCCCnO 8CCCCCCCCCCCCCCCCmZMMMMBCCCCC..",
"o.CCmvvvzMMMMMDCCCCCCCCCCCCCCCX   8CCCCCCCCCCCCCCCZMMMMMSZCCCC .",
",.mCmvvvMMMMMMSBCCCCCCCCCCCCCC6X  bCCCCCCCCCCCCCCCSMMMMMSDCCCcXX",
"2.xCCvvbMMMMMMMZCCCCCCCCCCCCCCCg lCCCCmmCCCCCCCCCCVMMMMMMZCCCl.,",
"s.8CCmvvNMMMMACmCCCCCCCCCCmmCCCCmCCCCmX5CCCCCCCCCCCCSMMDCCCCCO a",
"Y..CCmbvvvvvvvvvbmnCCCCCCC5gCmmOOCCCCl.XCCCCCCCCCCCCCCCCCCCCC  Y",
"Y. xCCmvvvvvvvvvbkvnmmmmmCXXqb  XolcO..lCCCCCCCCCCCCCCCCCCCCc  Y",
"YJ  CCCmbvvvvvvvvvvvbnmmUCg     ..XXXX6CCCCCCCCCCCCCCCCCCCCC  fY",
"YY  oCCCmnvvvvvvvvvvvvvbbbbv6OgCCg<OeCCCCCCCCCCCCCCCCCCCCCCX.XYY",
"YYU .6CCCmnvvvvvvvvvvvvvvvvvvbbCCCCCCCCCCCCCCCCCCCCCCCCCCCO..YYY",
"YYYI  <CCCCCbvvvvvvvvvvvvvvvvvmCCCCCCCCCCCCCCCCCCCCCCCCCCX .UYYY",
"YYYYK  .lCCCmmbbbbvvvvvxvvvbbbCCCCCCCCCCCCCCCCCCCCCCCCCn.  YYYYY",
"YYYYYY..  gCCCmCmbbnbbxxbbbbCCCCCCCCCCCCCmCCCCCCCCCCCC<   YYYYYY",
"YYYYYYYd      .OhmmCCmmmmCCCCCCCCCCCCCCCCCCCCCCCCCCeXX..9YYYYYYY",
"YYYYYYYYYP,.... .    opxxmmmCCmmCCCCCCCCcxjq6<X    ...<YYYYYYYYY",
"YYYYYYYYYYYUG:*+$o   X  . .   . .X      ...... .   3JYYYYYYYYYYY",
"YYYYYYYYYYYYHi;=&&&&&+$X. .             Xo$#%@@*-iKYYYYYYYYYYYYY",
"YYYYYYYYYYYYYHi:-=&*&&&&&&&&&&&&&&&&&&&&&&&&&=->iHKYYYYYYYYYYYYY",
"YYYYYYYYYYYYYYHGi>:--===**=*==============--:>iFKUYYYYYYYYYYYYYY",
"YYYYYYYYYYYYYYYYKHFFiu>y>>>>>>y>y>y>yyyyuiiFFHKYYYYYYYYYYYYYYYYY",
"YYYYYYYYYYYYYYYYYYYLKKHHHHHHHHKHHKHKKKKKKKLLYYYYYYYYYYYYYYYYYYYY",
"YYYYYYYYYYYYYYYYYYYYYYYYYYYYYYYYYYUYYYYYYYYYYYYYYYYYYYYYYYYYYYYY"
};
