/* XPM */
static char *result[] = {
/* columns rows colors chars-per-pixel */
"64 64 89 1 ",
"  c #7E76C5",
". c #7F78C6",
"X c #817DBF",
"o c #8077C6",
"O c #8179C6",
"+ c #847CC9",
"@ c #8E9FA7",
"# c #8E9CAA",
"$ c #8484BC",
"% c #858AB8",
"& c #8992B1",
"* c #8FA2A5",
"= c #91A3A6",
"- c #93A5AA",
"; c #95A8AD",
": c #97AAB0",
"> c #99ADB3",
", c #9CB0B6",
"< c #9EB2B9",
"1 c #A1B5BE",
"2 c #8B8EC3",
"3 c #8681C9",
"4 c #8A83CD",
"5 c #8D8CCC",
"6 c #8F91CE",
"7 c #9293CE",
"8 c #8F88D1",
"9 c #938CD4",
"0 c #9691D6",
"q c #9891D7",
"w c #959AD1",
"e c #999FD2",
"r c #9B94DA",
"t c #9F98DD",
"y c #A19BDE",
"u c #9FB2C1",
"i c #9BA3D4",
"p c #9FAAD6",
"a c #A3B7C0",
"s c #A5BBC4",
"d c #A8BEC8",
"f c #A1ACD7",
"g c #A4A3DD",
"h c #A9ACDF",
"j c #A5B3D9",
"k c #ACBCDD",
"l c #A59FE0",
"z c #A7A1E2",
"x c #ABA4E5",
"c c #AEA8E7",
"v c #AFAAE8",
"b c #B1AEED",
"n c #B6B1ED",
"m c #B9B3EE",
"M c #B9B8EA",
"N c #B1ADF0",
"B c #B5B1F1",
"V c #BBB6F2",
"C c #BEBAF3",
"Z c #C3B1ED",
"A c #CEBBEF",
"S c #D6BCEF",
"D c #DBBCED",
"F c #C0BBF4",
"G c #EDBBE6",
"H c #E2BCEA",
"J c #E8BCE8",
"K c #F4BCE5",
"L c #FFBDE2",
"P c #AAC1CC",
"I c #ADC4D0",
"U c #B2C9D6",
"Y c #B1C5DF",
"T c #B4CCDA",
"R c #B7D0DE",
"E c #B2C7E0",
"W c #B5CAE0",
"Q c #B9CFE3",
"! c #BBD4E4",
"~ c #C5C0F5",
"^ c #CDC9F6",
"/ c #D0CCF7",
"( c #D8D5F8",
") c #DCDBF9",
"_ c #E1DEFA",
"` c #E4E2FA",
"' c #ECEAFC",
"] c #F4F3FD",
"[ c #FFFFFF",
/* pixels */
"!!!!!!!!!!!!!!!!!!!!!!!!!!!!!!!!!!!!!!!!!!!!!!!!!!!!!!!!!!!!!!!!",
"!!!!!!!!!!!!!!!!!!!!!!!!!!!!!!!!^!!!!!!!!!!!!!!!!!!!!!!!!!!!!!!!",
"!!!!!!!!!!!!!!!!!!!!!!!!!!!!!!!!!!!!!!!!!!!!!!!!!!!!!!!!!!!!!!!!",
"!!!!!!!!!!!!!!!!!!!!!!!!!!!!!!!!!!!!!!!!!!!!!!!!!!!!!!!!!!!!!!!!",
"!!!!!!!!!!!!!!!!!!!!!!!!!!!!!!!!!!!!!!!!!!!!!!!!!!!!!!!!!!!!!!!!",
"!!!!!!!!!!!!!!!!!!!!!!!!!!!!!!!!!!!!!!!!!!!!!!!!!!!!!!!!!!!!!!!!",
"!!!!!!!!!!!!!!!!!!!!!!!!!!!!!!!!!!!!!!!!!!!!!!!!!!!!!!!!!!!!!!!!",
"!!!!!!!!!!!!!!!!!!!!!!!!!!!!!!!!!!!!!!!!!!!!!!!!!!!!!!!QW!!!!!!!",
"!!!!!!!!!!!!!!!!!!!!!!!!!!!!!!!!!!!!!!!!!!!!!!!!!0.   .... i!!!!",
"!!!!!!!!!!7oo  Of!!!!!!!!!!!!!!!!!!!!!!!!!!!!!W        oo.  !!!!",
"!!!!!!!!+          w!!!!!!!!!!!!!!!!!!!!!!!!WO   9CFFFFFFF. !!!!",
"!!!!!!Q ..tBFFFn4  o W!!!!!!QYiw623336MW!!!5   xFCFFFFFFFF  !!!!",
"!!!!!!O +FFFFFFFFFFo  w!!w      ..oo  oo  3+ObFFFFFFFFFFFF+.W!!!",
"!!!!!j  FFFFFFFFFFFFl       O4yzcBBNBl+o    OmFFFFFFFFFFFFq.k!!!",
"!!!!!oobFFFFFFFFFFFb+O   qFFFFFFQFFFFFFFCV9  OmFFFFFFFFFFFl.j!!!",
"!!!!kooFFFFFFFFFFFl4O+tCFFFFFFFFCCFFFFFFCCCFz4VFFFFFFFFFFFz.p!!!",
"!!!!3 cFFFFFFFFFFVxrVFFFFFF_[[FFFFFFFFFFFFFFFFFFFFFFFFFFFFq f!!!",
"!!!!o FFFFFFFFFFFFFFFFFFFFF[[[`FFNNNNNBFFFFFFFFFFFFFFFFFFFo k!!!",
"!!!!  FFFFFFFFFFFFFFFFFFFF([[[(NNNNNNNNNBFFFFFFFFFFFFFFFFF. !!!!",
"!!!!  FFFFFFFFFFFFF^[[[[(F~[[_bNNNNNNNNNNNNFFFFFFFFFFFFFF9 O!!!!",
"!!!E +FFFFFFFFFFF~[[[[[[[FFFNNNNNNNNNNNNNNNNNFFFFFFFFFFFC .k!!!!",
"!!!k 5FFFFFFFFFF_[[[[[[[)FFFNNNNNNNNNNNNNNNNNNNFFFFqOOVC4  !!!!!",
"!!!k 6FFFFFFFFF/[[[[[['FFFFFCNNNNNNNNNNNNNNNNNNNFFFx.  q. k!!!!!",
"!!!E 3FFFFFFFFF[[[[[[FFFFFFFFFFVNNNNNNNNNNNNNNNNNFFFFr   e!!!!!!",
"!!!W  CFFFFFFF][[[[[FFFFFFFFFFFFFFFFFFNNNNNNNNNNNVFFFFm  k!!!!!!",
"!!!!  CbVFFFFF[[[[`FFFFFFFFFFFFFFFFFFFFFFNNNNNNNNNFFFFFb  Q!!!!!",
"!!!!  ztVFFFFF[[]FFFFFFFFFFFFFFFFFFFFFFFFFCNNNNNNNNFFFFF8  !!!!!",
"!!!!5 4qFFFFFFFFFFFFFFFFFFFFFFFFFFFFFFFFFFFFNNNNNNbVFFFFC  5!!!!",
"!!!!WOOnFFFFFFFFFFFFFFFFFFFFFFFFFFFFFFFFFFFFFNNNNNNBFFFFFV  !!!!",
"!!!!Q +FFFFFFFFFFFFFFFFFFFFFFFFFFFFFFFFFFFFFFFNNNNNCFFFFFF+ j!!!",
"!!!!5 hFFFFFFFFFFFFFFFFFFFFFFFFFFFFFFFFFFFFFFFFNNNNFFFFFFFB O!!!",
"!!!!  CCFFFFFFFFFFFFFFFFFFFFFFFFFFFFFFFFFFFFFFFFNNBFFFFFFFC .!!!",
"!!!T  FFFFFFFFFFFFFFFFFFFFFFFFFFFFFFFFFFFFFFFFFFFFFFFFFFFFF  !!!",
"!!!O yFFFFFFFFFFFFFFFFFFFFFFFFFFFFFFFFFFFFFFFFFFFFFFFFFFFFF  !!!",
"!!!  FFFFFFFFFCFFFFFFFFFFFFFFFFFFFFFFFFFFFFFFFFFFFFFFFFFFFF  !!!",
"!!!  FFFFFFFFFm9OO.  9mFFFFFFFFFFFFFFFFFFFFbqqymFFFFFFFFFFFo !!!",
"!!Y 4FFFFFFFv    o  O   yFFFFFFFFFFFFFFFq         rFFFFFFFF  !!!",
"!!e yFFFFFFFt.oznbnFVyo   FFFFFFFFFFFFBo   +ll9o   qFFFFFFF  !!!",
"!!5obFFFFFFFCFFFFFFFFFFV+8FFFFFFFFFFFFm+4FFFCFFFFBqbFFFFFFF  !!!",
"!!5 BFFFFCCBVFFFFFFFFFFFFFFFFFFFFFFFFFFFFFFFFFFFFFFFFFFFFFF  !!!",
"!!7 xFFCFFNbNFCFFFFFFFFFFFFFFFb4+tFFFFFFFFFFFFFFJL^FFFFFFFFOo!!!",
"!!k 8FFFFCNNZLLLFFFFFFFFFFFFFz  oorFFFFFFFFFFFALLLLLKFFFFFV  !!!",
"!!!  FFFFVNGLLLLLAFFFFFFFFFFFb.   lFFFFFFFFFFFLLLLLLLFFFFFg 5!!!",
"!!!  FFFFFNLLLLLLSFFFFFFFFFFFFm  cFFFFFFFFFFFCGLLLLLAFFFFFO Y!!!",
"!!!O bFFFFNZKLLLVCFFFFFFFFFFFFCCFFFFFFFFFFFFFFFADGHFFFFFFF  !!!!",
"!!!k OFFFFFNbNNNbNVVFFFFCCvCFFCvvFFFFNbFFFFFFFFFMFFFFFFFF4 3!!!!",
"!!!!  VFFFFNNNbNNNNNNVFFCr +FFm  FFFc 9FFFFFFFFFFFFFFFFFVO !!!!!",
"!!!!ioOFFFFFNNNNNNNNNNNbCV  .+   olroomFFFFFFFFFFFFFFFFF  i!!!!!",
"!!!!!  +FFFFBNNNNNNvBNNNNVC+   0 ooo qFFFFFFFFFFFFFFFFFO  !!!!!!",
"!!!!!!  +FFFFBNNNNNNNNNNNNBVCBCCFb9qFFFFFFFFFFFFFFFFFF+o !!!!!!!",
"!!!!!!!   FFFFVNNNNNNNNNNNNNNNNBbNNBFFFFFFFFFFFFFFFFV3  !!!!!!!!",
"!!!!!!!!   cFFCCNNbNNNNNNNNNNNNNNbNVFFFFFFFFFFFFFFFF+  Q!!!!!!!!",
"!!!!!!!!!O  OFFFFBNNNNNNNNNNNNNNNNNFFFFFFFFFFFFFFFFOo Q!!!!!!!!!",
"!!!!!!!!!!U   9FFVCBNNNNNNNNNNNNNNBFFFFFFFFFFFFFFl   !!!!!!!!!!!",
"!!!!!!!!!!!U2    zMVCCBbNNNNNNNNNFFFFFFFFFFFFFM7o  OQ!!!!!!!!!!!",
"!!!!!!!!!!!U1;3   . 4mFFCCCCVCCCFFFFFFFFFFFV9oo  ouU!!!!!!!!!!!!",
"!!!!!!!!!!!Td>==*X      9nmVFFFCFFFFFFmy+      $=>sT!!!!!!!!!!!!",
"!!!!!!!!!!!TI<;===**&                       %@==;<PT!!!!!!!!!!!!",
"!!!!!!!!!!!!Ud,;====*==@&X..         o $#======;,dT!!!!!!!!!!!!!",
"!!!!!!!!!!!!QUd1>;-=====*=*=================-;><dU!!!!!!!!!!!!!!",
"!!!!!!!!!!!!!!TIP<<,>;;-;;;-;;;;;;;;;;;;::>><1dPTQ!!!!!!!!!!!!!!",
"!!!!!!!!!!!!!!!!RUPPPs1111<1<1a1a1a1aaaaaddPPUT!!!!!!!!!!!!!!!!!",
"!!!!!!!!!!!!!!!!!R!RTRURUUTUUTUUTTUUTTTTTRTR!!!!!!!!!!!!!!!!!!!!",
"!!!!!!!!!!!!!!!!!!!!!R!!R!!!!!!!!!!!!!!!!!!!!!!!!!!!!!!!!!!!!!!!"
};
