/* XPM */
static char *result[] = {
/* columns rows colors chars-per-pixel */
"64 64 68 1 ",
"  c #F5943C",
". c #F59B3C",
"X c #F5A43C",
"o c #F5AC3D",
"O c #F5B33C",
"+ c #F5BC3C",
"@ c #F5C23C",
"# c #EF9B4D",
"$ c #F39643",
"% c #F39943",
"& c #F19848",
"* c #ED9D52",
"= c #EA9F5A",
"- c #EFAD4E",
"; c #F2AF43",
": c #F2BE43",
"> c #EDA755",
", c #EAA05C",
"< c #DFAD7E",
"1 c #E7A465",
"2 c #E8A262",
"3 c #E4A76C",
"4 c #E2A974",
"5 c #E0AC7A",
"6 c #F5C443",
"7 c #F5C64B",
"8 c #F5C84E",
"9 c #F5C954",
"0 c #F6CB5B",
"q c #F6CE63",
"w c #F6CF69",
"e c #F6D06E",
"r c #F6D274",
"t c #F6D47C",
"y c #DDAE82",
"u c #DBB189",
"i c #D6B695",
"p c #D8B491",
"a c #D4B89C",
"s c #CEBEAB",
"d c #D1BBA3",
"f c #F6D784",
"g c #F7D98C",
"h c #F7DB93",
"j c #F7DD9B",
"k c #CCC1B3",
"l c #C9C4BC",
"z c #F7DFA3",
"x c #F7E0A6",
"c c #F7E1AB",
"v c #F7E7BE",
"b c #BFCFD8",
"n c #BED1DC",
"m c #BBD4E4",
"M c #C7C7C1",
"N c #C5C8C5",
"B c #C3CBCC",
"V c #C1CED4",
"C c #F7E7C1",
"Z c #F7E8C2",
"A c #F8E9C5",
"S c #F8EACC",
"D c #F8ECD3",
"F c #F8EFDB",
"G c #F8F0DF",
"H c #F5EFE0",
"J c #F7F0E0",
"K c #F8F0E0",
/* pixels */
"mmmmmmmmmmmmmmmmmmmmmmmmmmmmmmmmmmmmmmmmmmmmmmmmmmmmmmmmmmmmmmmm",
"mmmmmmmmmmmmmmmmmmmmmmmmmmmmmmmmmmmmmmmmmmmmmmmmmmmmmmmmmmmmmmmm",
"mmmmmmmmmmmmmmmmmmmmmmmmmmmmmmmmmmmmmmmmmmmmmmmmmmmmmmmmmmmmmmmm",
"mmmmmmmmmmmmmmmmmmmmmmmmmmmmmmmmmmmmmmmmVBmmmmmmmmmmmmmmmmmmmmmm",
"mmmmmmmmmmmmmmmmmmmmmmmmmmnBVmmmmmmnp$       #kmmmmmmmmmmmmmmmmm",
"mmmmmmmmmmmmmmmmmmmmmmi$      amn<              smmmmmmmmmmmmmmm",
"mmmmmmmmmmmmmmmmmmmmy          $        %.       ummmmmmmmmmmmmm",
"mmmmmmmmmmmmmmmmmmm%     $*,       .o@@@@@@@@:%   Mmmmmmmmmmmmmm",
"mmmmmmmmmmmmmmmmmm4   &@@@@@     O@@@@@@@@@@@@@>   mmmmmmmmmmmmm",
"mmmmmmmmmmmmmmmmmm   :@@@@@@@O..+@@@@@@@@@@@@@@@&  immmmmmmmmmmm",
"mmmmmmmmmmmmmmmmmm   @@@@@@@@@@@@@@@@@fvKc@@@@@@+  &mmmmmmmmmmmm",
"mmmmmmmmmmmmmmmmmV   @@@@@@@@@@@@@@eGKKKKKKf@@@@@   mmmmmmmmmmmm",
"mmmmmmmmmmmmmV,     .@@@@@@@@@@@@jKKKKKKKKKKj@@@@   mmmmmmmmmmmm",
"mmmmmmmmmmmm4       +@@@@@@@@@@6FGKKKKKKKKKKK@@@@    #Mmmmmmmmmm",
"mmmmmmmmmmm4     %-@@@@7DKGGcqgKGJJKKKKKKKKKKx@@@      3mmmmmmmm",
"mmmmmmmmmma     .@@@@@fKGGGGKKKKGGKKKKKKKKKKKK@@@+      2mmmmmmm",
"mmmmmmmmmm     +@@@@7DKKKKKKKKKKKKKKKKKKKKKKKK@@@@@@@;   3mmmmmm",
"mmmmmmmmm=    @@@@cKKKKKKKKKKKKKHKKKKKKKKKKKKK@@@@@@@@+   Mmmmmm",
"mmmmmmmmm    +@@@gFKKKKKKKKKKKKKGKKKKKKKKKKKKKx@@@@@@@@O   mmmmm",
"mmmmmmmm3   o@@@6wKKKKKKKKKKKKKKKKKKKKKKKKKKKKKKGGg@@@@@.  ummmm",
"mmmmmmmm    @@@@6FKKKKKKKKKKKKKKKKKKKKKKJKKKKKKKGGKS@@@@+   mmmm",
"mmmmmmmB   o@@@@CKKKKKKKKKKKKKKKKKKKKKKKJKKKKKKKGGKKK6@@@.  mmmm",
"mmmmmmm<   @@@@6FKKKKKKKKKKKKKKKKKKKKDGKKKKKKKKKKKKKJG@@@O  ammm",
"mmmmmmm#  %@@@@FKKKKKKKKKKKKKKKKKKF6@@@@fKKKKKKKKKKKJK6@@@  =mmm",
"mmmmmmm&  O@@@@KKKKKKKKKKKKKKKKKKg@@@@@@@qKKKKKKKKKKKKr@@@  %mmm",
"mmmmmmm&  +@@@0KKKKKKKKKKKKKKKKKK@@@@8@@@@FKKKKKKKKKKKe@@@   mmm",
"mmmmmmm#  @@@@gKKKKKKKKKKKKKKK0@@@@qKKKw@@AKKKKKKKKKKK6@@@   mmm",
"mmmmmmm=  +@@@hKKKKKKKKKKKKKKz@@@@@DKGj@@@AKKKKKKKKKFF@@7@  $mmm",
"mmmmmmmu  ;@@@9FKKKKKKKKKKKKK6@@6@@KKh@@@@GKKKKKKKKKKw@@7@  %mmm",
"mmmmmmmV   @@@@zKKKKKKKKKKKKK@@@FxSKKf@@@DKKKKKKKKKKF@@@@+  1mmm",
"mmmmmmmm   .@@@@0KKKKKKKKKKKK@@@FKKKKF@@@cKKKKKKKKKK@@@6@o  kmmm",
"mmmmmmmmV    +@@@9KKKKKKKKKKKh@@6fDKKKv@@qKKKKKKKKKq@@@@@   mmmm",
"mmmmmmmmmB    O@@@KKKKKKKKKKKG@@@@vGGKG@@6KKKKKKKK9@@@@@X  1mmmm",
"mmmmmmmmmmB   O@@7KKKKKKKKKKKz@@@9GKKKK@@@KKKKKKS@@@@@@@   mmmmm",
"mmmmmmmmmm$  .@@@DKKKKKKKKKKK7@@zKD7wF9@@0KKKKHK6@@@@@@.  immmmm",
"mmmmmmmmmb   @@@@KKKKKKKKKKKK6@@rF6@@@@@@AKKKKJJ@@@@@@   $mmmmmm",
"mmmmmmmmmN  .@@@qKKJKKKKKKKKKz@@@@@@@@@@hKKKKKKKt@@@@    nmmmmmm",
"mmmmmmmmms  O@@@fGKJKKKKKKKKKK9@@@@@@@9vKKKKKKKKZ@@@    nmmmmmmm",
"mmmmmmmmmi  +@@@8KKKKKKKKKKKKKK8@@@fKKKKKKKKKKKKA@@@   nmmmmmmmm",
"mmmmmmmmms  O@@@@FKKKKKKKKKKKKKKDSKKKKKKKKKKKKKKe@@@X  nmmmmmmmm",
"mmmmmmmmmN  .@@@@8FKKKKKKKKKKKKKKKKKKKKKKKKKKKKG@@@@o  Nmmmmmmmm",
"mmmmmmmmmb   @@@@@fFKKKKKKKKKKKKKKKKKKKKKKKKKKK0@@@@O  Bmmmmmmmm",
"mmmmmmmmmm   +@@@@@6vSh6@@DGKKKKKKKKKKGGKKKKKKD@@@@@X  mmmmmmmmm",
"mmmmmmmmmmd   +@@@@@@@@@@@6GKKKKKKKKKKJGKKKKDr@@@@@+   mmmmmmmmm",
"mmmmmmmmmmm$   +@@@@@@@@@@@0KKKKKHKKKKKr606@@@@@@@@@  *mmmmmmmmm",
"mmmmmmmmmmmb    o@@@@@++@@@@FKKKJJKKKK6@@@@@@@@@@@@o  lmmmmmmmmm",
"mmmmmmmmmmmmB     O@@o  .@@@8GKKKKKKKj@@@@@@@@@@@@+   mmmmmmmmmm",
"mmmmmmmmmmmmmm>          @@@@qKKKKKKD@@@@@@@@@@@@o   ymmmmmmmmmm",
"mmmmmmmmmmmmmmms         O@@@@0ZGKGA@@@@++++++o     #mmmmmmmmmmm",
"mmmmmmmmmmmmmmmmml,$ 2s   +@@@@@@@@@@@@@           ymmmmmmmmmmmm",
"mmmmmmmmmmmmmmmmmmmmmmm    +@@@@@@@@@7@+         4nmmmmmmmmmmmmm",
"mmmmmmmmmmmmmmmmmmmmmmmn    X@@@@@@@@@@O  3<plBmmmmmmmmmmmmmmmmm",
"mmmmmmmmmmmmmmmmmmmmmmmmB     +@@@@@@@X   mmmmmmmmmmmmmmmmmmmmmm",
"mmmmmmmmmmmmmmmmmmmmmmmmmm5     ...      *mmmmmmmmmmmmmmmmmmmmmm",
"mmmmmmmmmmmmmmmmmmmmmmmmmmml            5mmmmmmmmmmmmmmmmmmmmmmm",
"mmmmmmmmmmmmmmmmmmmmmmmmmmmmmk%      *smmmmmmmmmmmmmmmmmmmmmmmmm",
"mmmmmmmmmmmmmmmmmmmmmmmmmmmmmmmmmmmmmmmmmmmmmmmmmmmmmmmmmmmmmmmm",
"mmmmmmmmmmmmmmmmmmmmmmmmmmmmmmmmmmmmmmmmmmmmmmmmmmmmmmmmmmmmmmmm",
"mmmmmmmmmmmmmmmmmmmmmmmmmmmmmmmmmmmmmmmmmmmmmmmmmmmmmmmmmmmmmmmm",
"mmmmmmmmmmmmmmmmmmmmmmmmmmmmmmmmmmmmmmmmmmmmmmmmmmmmmmmmmmmmmmmm",
"mmmmmmmmmmmmmmmmmmmmmmmmmmmmmmmmmmmmmmmmmmmmmmmmmmmmmmmmmmmmmmmm",
"mmmmmmmmmmmmmmmmmmmmmmmmmmmmmmmmmmmmmmmmmmmmmmmmmmmmmmmmmmmmmmmm",
"mmmmmmmmmmmmmmmmmmmmmmmmmmmmmmmmmmmmmmmmmmmmmmmmmmmmmmmmmmmmmmmm",
"mmmmmmmmmmmmmmmmmmmmmmmmmmmmmmmmmmmmmmmmmmmmmmmmmmmmmmmmmmmmmmmm"
};
