/* XPM */
static char *result[] = {
/* columns rows colors chars-per-pixel */
"64 64 244 2 ",
"   c #F4933C",
".  c #F5943C",
"X  c #F4953C",
"o  c #F5953C",
"O  c #F4943D",
"+  c #F5943D",
"@  c #F5953D",
"#  c #F5963C",
"$  c #F5973C",
"%  c #F4973D",
"&  c #F4953E",
"*  c #F5953E",
"=  c #F4943F",
"-  c #F4953F",
";  c #F4963E",
":  c #F5983C",
">  c #F59A3C",
",  c #F59B3C",
"<  c #F4983E",
"1  c #F59C3C",
"2  c #F59F3C",
"3  c #F5A13C",
"4  c #F5A23C",
"5  c #F5A63C",
"6  c #F5A73C",
"7  c #F4A53F",
"8  c #F5A83C",
"9  c #F5AB3C",
"0  c #F5AA3D",
"q  c #F5A83E",
"w  c #F5AE3C",
"e  c #F5AF3C",
"r  c #F5B03C",
"t  c #F5B13C",
"y  c #F5B03D",
"u  c #F5B43C",
"i  c #F5B53C",
"p  c #F5B43D",
"a  c #F5B63C",
"s  c #F5B73C",
"d  c #F5B63D",
"f  c #F5B73D",
"g  c #F5B83C",
"h  c #F5B93C",
"j  c #F5BA3C",
"k  c #F5BB3C",
"l  c #F5BC3C",
"z  c #F5BD3C",
"x  c #F5BE3C",
"c  c #F5BF3C",
"v  c #F5C03C",
"b  c #F5C13C",
"n  c #F5C23C",
"m  c #F5C23D",
"M  c #F5C33D",
"N  c #F5C33E",
"B  c #F5C33F",
"V  c #EF994A",
"C  c #EF9A4E",
"Z  c #EF9B4F",
"A  c #F39540",
"S  c #F39640",
"D  c #F39641",
"F  c #F39643",
"G  c #F49640",
"H  c #F49641",
"J  c #F29746",
"K  c #F39840",
"L  c #F29845",
"P  c #F29846",
"I  c #F19948",
"U  c #F09949",
"Y  c #F19949",
"T  c #F09A4C",
"R  c #ED9C52",
"E  c #EC9D54",
"W  c #ED9E55",
"Q  c #EB9F59",
"!  c #F0A948",
"~  c #EFBC4E",
"^  c #F2B445",
"/  c #F0B447",
"(  c #EDA552",
")  c #EAA35D",
"_  c #E8A15E",
"`  c #E9A25F",
"'  c #DFAC7B",
"]  c #DDAD7F",
"[  c #DEAD7E",
"{  c #DEAD7F",
"}  c #E6A466",
"|  c #E5A569",
" . c #E6A669",
".. c #E5A66A",
"X. c #E4A66D",
"o. c #E4A76E",
"O. c #E5B167",
"+. c #E3A870",
"@. c #E0AC7A",
"#. c #EFC24E",
"$. c #F3C340",
"%. c #F5C340",
"&. c #F5C440",
"*. c #F5C441",
"=. c #F5C442",
"-. c #F5C544",
";. c #F5C545",
":. c #F5C547",
">. c #F0C44A",
",. c #F5C648",
"<. c #F5C649",
"1. c #F5C64B",
"2. c #F5C74B",
"3. c #F0C44C",
"4. c #F5C74D",
"5. c #F5C74E",
"6. c #F5C850",
"7. c #F5C851",
"8. c #F5C955",
"9. c #F6CC5E",
"0. c #F6CD64",
"q. c #F6CE65",
"w. c #F6CE67",
"e. c #F6CF68",
"r. c #F6D06C",
"t. c #E2C673",
"y. c #F6D273",
"u. c #F6D275",
"i. c #F6D378",
"p. c #F6D379",
"a. c #F6D47A",
"s. c #F6D57D",
"d. c #DEAF82",
"f. c #DBAF85",
"g. c #DBB086",
"h. c #DCB085",
"j. c #DBB188",
"k. c #DAB38C",
"l. c #D8B38F",
"z. c #D6B594",
"x. c #D6B595",
"c. c #D5B797",
"v. c #D4B89D",
"b. c #CEBEAA",
"n. c #CFBEAC",
"m. c #D2BAA0",
"M. c #D1BBA2",
"N. c #D2BBA2",
"B. c #D1BCA5",
"V. c #F6D580",
"C. c #F6D581",
"Z. c #F6D682",
"A. c #F6D889",
"S. c #F6D88A",
"D. c #F6D98F",
"F. c #F7DA92",
"G. c #F7DB94",
"H. c #F7DB95",
"J. c #F7DD9A",
"K. c #CDC0B1",
"L. c #CBC1B4",
"P. c #CAC3B6",
"I. c #CBC3B7",
"U. c #C9C4BB",
"Y. c #CAC4BA",
"T. c #C9C5BD",
"R. c #F7DEA0",
"E. c #F7E0A5",
"W. c #F7E1AB",
"Q. c #F7E2AC",
"!. c #F6E2AE",
"~. c #F7E2AE",
"^. c #F7E2AF",
"/. c #F7E3B0",
"(. c #F7E3B1",
"). c #F7E4B6",
"_. c #F7E4B7",
"`. c #F7E5BA",
"'. c #F7E7BE",
"]. c #BED0DA",
"[. c #BED0DB",
"{. c #BED1DB",
"}. c #BDD1DC",
"|. c #BDD1DD",
" X c #BED1DC",
".X c #BED2DD",
"XX c #BDD2DF",
"oX c #BED2DE",
"OX c #BBD3E0",
"+X c #BBD3E3",
"@X c #BDD2E0",
"#X c #BCD3E0",
"$X c #BCD3E1",
"%X c #BCD3E2",
"&X c #BCD3E3",
"*X c #BBD4E3",
"=X c #BCD4E2",
"-X c #BBD4E4",
";X c #C7C7C1",
":X c #C7C7C2",
">X c #C8C6C0",
",X c #C7C8C2",
"<X c #C5C8C5",
"1X c #C6C8C4",
"2X c #C5C9C7",
"3X c #C4C9C8",
"4X c #C5C9C8",
"5X c #C4CACB",
"6X c #C3CBCC",
"7X c #C1CCCF",
"8X c #C2CCCE",
"9X c #C3CCCE",
"0X c #C2CCCF",
"qX c #C0CFD8",
"wX c #C0D0D8",
"eX c #F7E7C0",
"rX c #F7E8C2",
"tX c #F8E8C2",
"yX c #F8E8C3",
"uX c #F8E8C5",
"iX c #F8E9C5",
"pX c #F8E9C6",
"aX c #F8E9C7",
"sX c #F8E9C8",
"dX c #F8EAC9",
"fX c #F8EBCE",
"gX c #F8EBCF",
"hX c #F8ECD0",
"jX c #F8ECD1",
"kX c #F8ECD2",
"lX c #F8EDD6",
"zX c #F8EDD7",
"xX c #F8EED9",
"cX c #F8EEDA",
"vX c #F8EFDB",
"bX c #F8EFDC",
"nX c #F8EFDD",
"mX c #F8EFDE",
"MX c #F8F0DE",
"NX c #F8F0DF",
"BX c #F6EFE0",
"VX c #F7EFE0",
"CX c #F8F0E0",
"ZX c #F8F1E0",
/* pixels */
"-X-X-X-X-X-X-X-X-X-X-X-X-X-X-X-X-X-X-X-X-X-X-X-X-X-X-X-X-X-X-X-X-X-X-X-X-X-X-X-X-X-X-X-X-X-X-X-X-X-X-X-X-X-X-X-X-X-X-X-X-X-X-X-X",
"-X-X-X-X-X-X-X-X-X-X-X-X-X-X-X-X-X-X-X-X-X-X-X-X-X-X-X-X-X-X-X-X-X-X-X-X-X-X-X-X-X-X-X-X-X-X-X-X-X-X-X-X-X-X-X-X-X-X-X-X-X-X-X-X",
"-X-X-X-X-X-X-X-X-X-X-X-X-X-X-X-X-X-X-X-X-X-X-X-X-X-X-X-X-X-X-X-X-X-X-X-X-X-X-X-X-X-X-X-X-X-X-X-X-X-X-X-X-X-X-X-X-X-X-X-X-X-X-X-X",
"-X-X-X-X-X-X-X-X-X-X-X-X-X-X-X-X-X-X-X-X-X-X-X-X-X-X-X-X-X-X-X-X-X-X-X-X-X-X-X-X-X-X-X-X-X-X-X-X-X-X-X-X-X-X-X-X-X-X-X-X-X-X-X-X",
"-X-X-X-X-X-X-X-X-X-X-X-X-X-X-X-X-X-X-X-X-X-X-X-X-X-X-X-X-X-X-X-X-X-X-X-X-X-X-X-X-X-X-X-X-X-X-X-X-X-X-X-X-X-X-X-X-X-X-X-X-X-X-X-X",
"-X-X-X-X-X-X-X-X-X-X-X-X-X-X-X-X-X-X-X-X-X-X-X-X-X-X-X-X-X-X-X-X-X-X-X-X-X-X-X-X-X-X-X-X-X-X-X-X-X-X-X-X-X-X-X-X-X-X-X-X-X-X-X-X",
"-X-X-X-X-X-X-X-X-X-X-X-X-X-X-X-X-X-X-X-X-X-X-X-X-X-X-X-X-X-X-X-X-X-X-X-X-X-X-X-X-X-X-X-X-X-X-X-X-X-X-X-X-X-X-X-X-X-X-X-X-X-X-X-X",
"-X-X-X-X-X-X-X-X-X-X-X-X-X-X-X-X-X-X-X-X-X-X-X-X-X-X-X-X-X-X-X-X-X-X-X-X-X-X8Xj.` E R ' >X&X-X-X-X-X-X-X-X-X-X-X-X-X-X-X-X-X-X-X",
"-X-X-X-X-X-X-X-X-X-X-X-X-X-X-X-X-X-X-X-X-X-X-X-X-X-X-X-X#Xd.O . . . . D x.+ . . . . . . . . C 5X-X-X-X-X-X-X-X-X-X-X-X-X-X-X-X-X",
"-X-X-X-X-X-X-X-X-X-X-X-X-X-X-X-X-X-X-X-X-X-X-X-X-X-X=X+.. . . . . . . . . . . . . . . . . . . . V {.-X-X-X-X-X-X-X-X-X-X-X-X-X-X",
"-X-X-X-X-X-X-X-X-X-X-X-X-X-X-X-X-X-X-X-X-X-X-X-X-X|.& . . . . o > 1 . . . . % i b n n z ! @ . . . . h.-X-X-X-X-X-X-X-X-X-X-X-X-X",
"-X-X-X-X-X-X-X-X-X-X-X-X-X-X-X-X-X-X-X-X-X-X-X-X].+ . . . 8 b n n n n d $ u n n n n n n n n f * . . . c.-X-X-X-X-X-X-X-X-X-X-X-X",
"-X-X-X-X-X-X-X-X-X-X-X-X-X-X-X-X-X.X .+ . . . &   . . : n n n n &.n n n n n n n n B N n n n n n q . . . v.-X-X-X-X-X-X-X-X-X-X-X",
"-X-X-X-X-X-X-X-X-X-X-X-X-X-X-XXXC . . . . . . . . . , n n m '.CXCXxXN n n 5.yXCXCXCXCXCX`.*.n n n 9 . . . 3X-X-X-X-X-X-X-X-X-X-X",
"-X-X-X-X-X-X-X-X-X-X-X-X-X-Xn.. . . . . F R - . . . , n w.CXCXCXCXCXnX!.pXCXCXCXCXCXCXCXCXCXkXB n n 5 . . A -X-X-X-X-X-X-X-X-X-X",
"-X-X-X-X-X-X-X-X-X-X-X-X-X:X. . . + / n n n n ~ ; . k <.CXCXCXCXCXCXCXCXCXCXCXCXCXCXCXCXCXCXCXNX6.n n X . . 4X-X-X-X-X-X-X-X-X-X",
"-X-X-X-X-X-X-X-X-X-X-X-X-X* . . ( n n n n n n n n n M bXCXCXCXCXCXCXCXCXCXCXCXCXCXCXCXCXCXCXCXCXMXM n s . . } -X-X-X-X-X-X-X-X-X",
"-X-X-X-X-X-X-X-X-X-X-X-Xv.. . < n n n n 8.6.n n n n ).CXCXCXCXCXCXCXCXCXCXCXCXCXCXCXCXCXCXCXCXCXCXS.n n . . - -X-X-X-X-X-X-X-X-X",
"-X-X-X-X-X-X-X-X-X-X-X-X* . . v n n s.CXCXCXMXJ.7.A.CXCXCXCXCXCXCXCXCXCXCXCXCXCXCXCXCXCXCXCXCXCXCXW.n n . . + -X-X-X-X-X-X-X-X-X",
"-X-X-X-X-X-X-X-X-X-X-X-X. . o n n W.CXCXCXCXCXCXCXCXCXCXCXCXCXCXCXCXCXCXCXCXCXCXCXCXCXCXCXCXCXCXCX9.n n . . * -X-X-X-X-X-X-X-X-X",
"-X-X-X-X-X-X-X-X-X-X-X-X. . 1 n n CXCXCXCXCXCXCXCXCXCXCXCXCXCXCXCXCXCXCXCXCXCXCXCXCXCXCXCXCXCXCXNXn n j . . P @X-X-X-X-X-X-X-X-X",
"-X-X-X-X-X-X-X-X-X-X-X-X. . , n B CXZXCXCXCXCXCXCXCXCXCXCXCXCXCXCXCXCXCXCXCXCXCXCXCXCXCXCXCXCXCXjXn n s . . . G -X-X-X-X-X-X-X-X",
"-X-X-X-X-X-X-X-X-X-X-X-X. . o n N CXCXCXCXCXCXCXCXCXCXCXCXCXCXCXCXCXCXCXCXCXCXCXCXCXCXCXCXCXCXCXCXr.n n 1 . . . ] -X-X-X-X-X-X-X",
"-X-X-X-X-X-X-X-X-X-X-X-X= . . k n CXCXCXCXCXCXCXCXCXCXCXCXCXCXCXCXCXCXCXCXCXCXCXCXCXCXCXCXCXCXCXBXCXCX2.n v . . . *X-X-X-X-X-X-X",
"-X-X-X-X-X-X-X-X-X-X-XX.. . . r n E.CXCXCXCXCXCXCXCXCXCXCXCXCXCXCXCXCXCXCXCXCXCXCXCXCXCXCXCXCXCXCXVXCXxXn n 4 . . P.-X-X-X-X-X-X",
"-X-X-X-X-X-X-X-X-X-Xo.. . . o v n 8.CXCXCXCXCXCXCXCXCXCXCXCXCXCXNX_.8.N r.NXCXCXCXCXCXCXCXCXCXCXCXCXCXCX2.n l . . ..-X-X-X-X-X-X",
"-X-X-X-X-X-X-X-X-XqX. . . p n n n ~.CXCXCXCXCXCXCXCXCXCXCXCXCXp.n n n n n y.CXCXCXCXCXCXCXCXCXCXCXCXCXCXaX$.>.. . Y -X-X-X-X-X-X",
"-X-X-X-X-X-X-X-X-XT . . ^ n n M hXCXCXCXCXCXCXCXCXCXCXCXCXCXG.n n n n n n =.CXCXCXCXCXCXCXCXCXCXCXCXCXCXW.m 3.. . I -X-X-X-X-X-X",
"-X-X-X-X-X-X-X-X[.. . * n n n xXCXCXCXCXCXCXCXCXCXCXCXCXCXCXM n n n n n n :.CXCXCXCXCXCXCXCXCXCXCXCXCXCX;.n v . . Q -X-X-X-X-X-X",
"-X-X-X-X-X-X-X-Xz.. . O.n n i.CXCXCXCXCXCXCXCXCXCXCXCXCXCXjXn n n n n n n G.CXCXCXCXCXCXCXCXCXCXCXCXCXmXn n y . . v.-X-X-X-X-X-X",
"-X-X-X-X-X-X-X-XZ . . #.n n dXCXCXCXCXCXCXCXCXCXCXCXCXCXCXgXn n n n n n :.CXCXCXCXCXCXCXCXCXCXCXCXCXCXC.n b . . . }.-X-X-X-X-X-X",
"-X-X-X-X-X-X-X-XL . . >.n n uXCXCXCXCXCXCXCXCXCXCXCXCXCXCXCX%.n n n n M mXCXCXCXCXCXCXCXCXCXCXCXCXzXe.n n 1 . . C -X-X-X-X-X-X-X",
"-X-X-X-X-X-X-X-X_ . . t.n n H.CXCXCXCXCXCXCXCXCXCXCXCXCXCXCXbX9.n n B kXCXCXCXCXCXCXCXCXCXCXfX*.n n n b 2 . . . XX-X-X-X-X-X-X-X",
"-X-X-X-X-X-X-X-XL.. . ) n n *.CXCXCXCXCXCXCXCXCXCXCXCXCXCXCXCXCXCXCXCXCXCXCXCXCXCXCXCXCXCXCXH.n n l o . . . . K.-X-X-X-X-X-X-X-X",
"-X-X-X-X-X-X-X-X-X. . . v n n Q.CXCXCXCXCXCXCXCXCXCXCXCXCXCXCXCXCXCXCXCXCXCXCXCXCXCXCXCXCXCXtXn n $ . . . . b.-X-X-X-X-X-X-X-X-X",
"-X-X-X-X-X-X-X-X-X{ . . + v n n rXsXmXCXCXCXCXCXCXCXCXCXCXCXCXCXCXCXCXCXCXCXCXCXCXCXCXCXCXCXCXZ.n $ . . | oX-X-X-X-X-X-X-X-X-X-X",
"-X-X-X-X-X-X-X-X-X*X& . . . z n n n n cXCXCXCXCXCXCXCXCXCXCXCXCXCXCXCXCXCXCXCXCXCXCXCXCXCXCXCXzXn u . . <X-X-X-X-X-X-X-X-X-X-X-X",
"-X-X-X-X-X-X-X-X-X-XoX- . . . . c n n lXCXCXCXCXCXCXCXCXCXCXCXCXCXCXCXCXCXCXCXCXCXCXCXCXCXCXCXnXn k . . ,X-X-X-X-X-X-X-X-X-X-X-X",
"-X-X-X-X-X-X-X-X-X-X-X$XJ . . . 2 n ,.CXCXCXCXCXCXCXCXCXCXCXCXCXCXCXCXCXCXCXCXCXCXCXCXCXCXCXCX/.n g . . 1X-X-X-X-X-X-X-X-X-X-X-X",
"-X-X-X-X-X-X-X-X-X-X-X-X+XM.. . 8 n `.CXCXCXCXCXCXCXCXCXCXCXCXCXCXCXCXCXCXCXCXCXCXCXCXCXCXCXCX;.n 3 . . 0X-X-X-X-X-X-X-X-X-X-X-X",
"-X-X-X-X-X-X-X-X-X-X-X-X-X3X. . g n cXCXCXCXCXCXCXCXCXCXCXCXCXCXCXCXCXCXCXCXCXCXCXCXCXCXCXCX^.n n . . . -X-X-X-X-X-X-X-X-X-X-X-X",
"-X-X-X-X-X-X-X-X-X-X-X-X-X2X. . u n iXCXCXCXCXCXCXCXCXCXCXCXCXCXCXCXCXCXCXCXCXCXCXa.1.u.S.,.n n 9 . . R -X-X-X-X-X-X-X-X-X-X-X-X",
"-X-X-X-X-X-X-X-X-X-X-X-X-X3X. . 3 n V.CXCXCXCXCXCXCXCXCXCXCXCXCXCXCXCXCXCXCXCXCXgXn n n n n n 2 . . . [.-X-X-X-X-X-X-X-X-X-X-X-X",
"-X-X-X-X-X-X-X-X-X-X-X-X-X&X. . o n N CXCXCXCXCXCXCXCXCXCXCXCXCXCXCXCXCXCXCXCXCXtXn c u j i o . . . g.-X-X-X-X-X-X-X-X-X-X-X-X-X",
"-X-X-X-X-X-X-X-X-X-X-X-X-X-X. . . n n D.CXCXCXCXCXCXCXCX0.M F.CXCXCXCXCXCXCXCXCXeXb . . . . . . . I.-X-X-X-X-X-X-X-X-X-X-X-X-X-X",
"-X-X-X-X-X-X-X-X-X-X-X-X-X-X- . . v n n 4.dXCXCXCXCXCX^.n n n CXCXCXCXCXCXCXCXCXq.j . . . . . H wX-X-X-X-X-X-X-X-X-X-X-X-X-X-X-X",
"-X-X-X-X-X-X-X-X-X-X-X-X-X-Xf.. . . c n n n n =.6.=.n x x n n vXCXCXCXCXCXCXCXlXn b . . W m.[.-X-X-X-X-X-X-X-X-X-X-X-X-X-X-X-X-X",
"-X-X-X-X-X-X-X-X-X-X-X-X-X-X$X- . . . t n n n n n n w . . w n q.CXCXCXCXCXCXpXM n a . . l.-X-X-X-X-X-X-X-X-X-X-X-X-X-X-X-X-X-X-X",
"-X-X-X-X-X-X-X-X-X-X-X-X-X-X-X#XS . . . . 7 h k s 3 . . . . n n (.CXCXvXR.-.n n n # . . 7X-X-X-X-X-X-X-X-X-X-X-X-X-X-X-X-X-X-X-X",
"-X-X-X-X-X-X-X-X-X-X-X-X-X-X-X-X%XW . . . . . . . . . . . . e n n n n n n n n n 0 . . = -X-X-X-X-X-X-X-X-X-X-X-X-X-X-X-X-X-X-X-X",
"-X-X-X-X-X-X-X-X-X-X-X-X-X-X-X-X-X-X9XU . . . . . . . E . . . 6 b n n n n n u K . . . 2X-X-X-X-X-X-X-X-X-X-X-X-X-X-X-X-X-X-X-X-X",
"-X-X-X-X-X-X-X-X-X-X-X-X-X-X-X-X-X-X-X-X%X<XT.Y.;X6X-X-X@.. . . . . . . . . . . . . B.-X-X-X-X-X-X-X-X-X-X-X-X-X-X-X-X-X-X-X-X-X",
"-X-X-X-X-X-X-X-X-X-X-X-X-X-X-X-X-X-X-X-X-X-X-X-X-X-X-X-X-XN.. . . . . . . . . . * U.-X-X-X-X-X-X-X-X-X-X-X-X-X-X-X-X-X-X-X-X-X-X",
"-X-X-X-X-X-X-X-X-X-X-X-X-X-X-X-X-X-X-X-X-X-X-X-X-X-X-X-X-X-XOXk.L . . . . S [  X-X-X-X-X-X-X-X-X-X-X-X-X-X-X-X-X-X-X-X-X-X-X-X-X",
"-X-X-X-X-X-X-X-X-X-X-X-X-X-X-X-X-X-X-X-X-X-X-X-X-X-X-X-X-X-X-X-X-X-X-X-X-X-X-X-X-X-X-X-X-X-X-X-X-X-X-X-X-X-X-X-X-X-X-X-X-X-X-X-X",
"-X-X-X-X-X-X-X-X-X-X-X-X-X-X-X-X-X-X-X-X-X-X-X-X-X-X-X-X-X-X-X-X-X-X-X-X-X-X-X-X-X-X-X-X-X-X-X-X-X-X-X-X-X-X-X-X-X-X-X-X-X-X-X-X",
"-X-X-X-X-X-X-X-X-X-X-X-X-X-X-X-X-X-X-X-X-X-X-X-X-X-X-X-X-X-X-X-X-X-X-X-X-X-X-X-X-X-X-X-X-X-X-X-X-X-X-X-X-X-X-X-X-X-X-X-X-X-X-X-X",
"-X-X-X-X-X-X-X-X-X-X-X-X-X-X-X-X-X-X-X-X-X-X-X-X-X-X-X-X-X-X-X-X-X-X-X-X-X-X-X-X-X-X-X-X-X-X-X-X-X-X-X-X-X-X-X-X-X-X-X-X-X-X-X-X",
"-X-X-X-X-X-X-X-X-X-X-X-X-X-X-X-X-X-X-X-X-X-X-X-X-X-X-X-X-X-X-X-X-X-X-X-X-X-X-X-X-X-X-X-X-X-X-X-X-X-X-X-X-X-X-X-X-X-X-X-X-X-X-X-X",
"-X-X-X-X-X-X-X-X-X-X-X-X-X-X-X-X-X-X-X-X-X-X-X-X-X-X-X-X-X-X-X-X-X-X-X-X-X-X-X-X-X-X-X-X-X-X-X-X-X-X-X-X-X-X-X-X-X-X-X-X-X-X-X-X",
"-X-X-X-X-X-X-X-X-X-X-X-X-X-X-X-X-X-X-X-X-X-X-X-X-X-X-X-X-X-X-X-X-X-X-X-X-X-X-X-X-X-X-X-X-X-X-X-X-X-X-X-X-X-X-X-X-X-X-X-X-X-X-X-X",
"-X-X-X-X-X-X-X-X-X-X-X-X-X-X-X-X-X-X-X-X-X-X-X-X-X-X-X-X-X-X-X-X-X-X-X-X-X-X-X-X-X-X-X-X-X-X-X-X-X-X-X-X-X-X-X-X-X-X-X-X-X-X-X-X",
"-X-X-X-X-X-X-X-X-X-X-X-X-X-X-X-X-X-X-X-X-X-X-X-X-X-X-X-X-X-X-X-X-X-X-X-X-X-X-X-X-X-X-X-X-X-X-X-X-X-X-X-X-X-X-X-X-X-X-X-X-X-X-X-X",
"-X-X-X-X-X-X-X-X-X-X-X-X-X-X-X-X-X-X-X-X-X-X-X-X-X-X-X-X-X-X-X-X-X-X-X-X-X-X-X-X-X-X-X-X-X-X-X-X-X-X-X-X-X-X-X-X-X-X-X-X-X-X-X-X"
};
