/* XPM */
static char *result[] = {
/* columns rows colors chars-per-pixel */
"64 64 226 2 ",
"   c #F5943C",
".  c #F5953C",
"X  c #F4943D",
"o  c #F5943D",
"O  c #F5953D",
"+  c #F5963C",
"@  c #F5973C",
"#  c #F5963D",
"$  c #F5943E",
"%  c #F4953E",
"&  c #F5953E",
"*  c #F4943F",
"=  c #F4953F",
"-  c #F5983C",
";  c #F5993C",
":  c #F59A3C",
">  c #F59B3C",
",  c #F59D3C",
"<  c #F59E3C",
"1  c #F5A03C",
"2  c #F5A13C",
"3  c #F5A23C",
"4  c #F5A33C",
"5  c #F5A63C",
"6  c #F5A73C",
"7  c #F5A93C",
"8  c #F5AA3C",
"9  c #F5AB3C",
"0  c #F5AF3C",
"q  c #F4AF3E",
"w  c #F5B03C",
"e  c #F5B13C",
"r  c #F5B23C",
"t  c #F5B43C",
"y  c #F5B63C",
"u  c #F5B73C",
"i  c #F4B63E",
"p  c #F5B83C",
"a  c #F5B93C",
"s  c #F5B83D",
"d  c #F5BA3C",
"f  c #F5BB3C",
"g  c #F5BC3C",
"h  c #F4BE3C",
"j  c #F5BF3C",
"k  c #F5C03C",
"l  c #F5C13C",
"z  c #F5C23C",
"x  c #F5C33C",
"c  c #F5C23D",
"v  c #F5C33D",
"b  c #F5C23E",
"n  c #F5C33E",
"m  c #EF9C4E",
"M  c #F39540",
"N  c #F39641",
"B  c #F39542",
"V  c #F29643",
"C  c #F39643",
"Z  c #F49640",
"A  c #F19745",
"S  c #F19746",
"D  c #F39B40",
"F  c #F39B41",
"G  c #F29843",
"H  c #F19847",
"J  c #F09848",
"K  c #F19949",
"L  c #ED9C51",
"P  c #ED9D51",
"I  c #EE9C51",
"U  c #EE9F50",
"Y  c #EB9E57",
"T  c #ED9D54",
"R  c #ED9E55",
"E  c #EC9E57",
"W  c #EB9F58",
"Q  c #EB9F59",
"!  c #E99F5B",
"~  c #EC9E58",
"^  c #EFA04D",
"/  c #EFA64E",
"(  c #F2AD43",
")  c #F3BD40",
"_  c #F3BF42",
"`  c #F0B448",
"'  c #E9AF5F",
"]  c #E9B95F",
"[  c #DEAE7F",
"{  c #E6A466",
"}  c #E8A262",
"|  c #E6A568",
" . c #E1AA75",
".. c #E1A976",
"X. c #E0AC7A",
"o. c #F3C340",
"O. c #F3C241",
"+. c #F5C340",
"@. c #F5C443",
"#. c #F2C144",
"$. c #F2C344",
"%. c #F5C444",
"&. c #F5C545",
"*. c #F5C546",
"=. c #F5C547",
"-. c #F3C54B",
";. c #F5C548",
":. c #F5C549",
">. c #F4C648",
",. c #F5C648",
"<. c #F5C64A",
"1. c #F0C64F",
"2. c #F5C74D",
"3. c #F5C953",
"4. c #F6C954",
"5. c #F5CA59",
"6. c #F6CB5C",
"7. c #F6CC5F",
"8. c #E8C760",
"9. c #F0CB61",
"0. c #F2CB61",
"q. c #F6CF6A",
"w. c #F6D06E",
"e. c #EACE7B",
"r. c #F6D275",
"t. c #F6D276",
"y. c #DDAE81",
"u. c #DCAF82",
"i. c #DCAF83",
"p. c #DBB086",
"a. c #DCB187",
"s. c #DAB18A",
"d. c #D9B28A",
"f. c #DAB28B",
"g. c #D8B28D",
"h. c #D9B38E",
"j. c #D8B48F",
"k. c #D7B593",
"l. c #D6B595",
"z. c #D7B695",
"x. c #D3BA9F",
"c. c #CEBFAD",
"v. c #D2BBA2",
"b. c #D0BCA5",
"n. c #F6D785",
"m. c #F6D98C",
"M. c #F7DA91",
"N. c #F7DA92",
"B. c #F7DB94",
"V. c #F7DB96",
"C. c #F6DB97",
"Z. c #F7DC94",
"A. c #F7DC96",
"S. c #F7DC98",
"D. c #F7DE9E",
"F. c #CDC0B0",
"G. c #CCC1B3",
"H. c #CBC2B5",
"J. c #CBC3B7",
"K. c #C7C5BE",
"L. c #CAC3B8",
"P. c #F7DFA3",
"I. c #F7E0A5",
"U. c #F7E1AA",
"Y. c #F7E2AE",
"T. c #F7E3B1",
"R. c #F7E3B2",
"E. c #F7E6BE",
"W. c #BFCED7",
"Q. c #BFCFD7",
"!. c #BFD0D9",
"~. c #BED1DB",
"^. c #BFD1DB",
"/. c #BDD1DC",
"(. c #BED1DD",
"). c #BED2DD",
"_. c #BBD3E1",
"`. c #BCD3E0",
"'. c #BCD3E1",
"]. c #BCD3E2",
"[. c #BCD3E3",
"{. c #BCD4E2",
"}. c #BBD4E4",
"|. c #C7C7C2",
" X c #C6C7C3",
".X c #C7C8C2",
"XX c #C6C8C4",
"oX c #C5C8C7",
"OX c #C5C9C8",
"+X c #C4CAC9",
"@X c #C5CAC9",
"#X c #C3CBCD",
"$X c #C3CCCE",
"%X c #C2CCD0",
"&X c #C2CDD0",
"*X c #C0CFD5",
"=X c #C0CFD6",
"-X c #C0D0D8",
";X c #F7E8C2",
":X c #F8E8C4",
">X c #F8E9C6",
",X c #F8EAC9",
"<X c #F8EACA",
"1X c #F8EACB",
"2X c #F8EBCD",
"3X c #F8EBCE",
"4X c #F8EBCF",
"5X c #F8ECD0",
"6X c #F8ECD1",
"7X c #F8ECD2",
"8X c #F8EDD4",
"9X c #F8EDD6",
"0X c #F8EDD7",
"qX c #F6EDDC",
"wX c #F4EEDF",
"eX c #F8EED8",
"rX c #F8EED9",
"tX c #F8EEDA",
"yX c #F8EFDB",
"uX c #F8EFDC",
"iX c #F8EFDD",
"pX c #F8EFDE",
"aX c #F8F0DE",
"sX c #F8F0DF",
"dX c #F8F0E0",
"fX c #F8F0E1",
/* pixels */
"}.}.}.}.}.}.}.}.}.}.}.}.}.}.}.}.}.}.}.}.}.}.}.}.}.}.}.}.}.}.}.}.}.}.}.}.}.}.}.}.}.}.}.}.}.}.}.}.}.}.}.}.}.}.}.}.}.}.}.}.}.}.}.}.",
"}.}.}.}.}.}.}.}.}.}.}.}.}.}.}.}.}.}.}.}.}.}.}.}.}.}.}.}.}.}.}.}.}.}.}.}.}.}.}.}.}.}.}.}.}.}.}.}.}.}.}.}.}.}.}.}.}.}.}.}.}.}.}.}.",
"}.}.}.}.}.}.}.}.}.}.}.}.}.}.}.}.}.}.}.}.}.}.}.}.}.}.}.}.}.}.}.}.}.}.}.}.}.}.}.}.}.}.}.}.}.}.}.}.}.}.}.}.}.}.}.}.}.}.}.}.}.}.}.}.",
"}.}.}.}.}.}.}.}.}.}.}.}.}.}.}.}.}.}.}.}.}.}.}.}.}.}.}.}.}.}.}.}.}.}.}.}.}.}.}.}.}.}.}.}.}.}.}.}.}.}.}.}.}.}.}.}.}.}.}.}.}.}.}.}.",
"}.}.}.}.}.}.}.}.}.}.}.}.}.}.}.}.}.}.}.}.}.}.}.}.}.}.}.}.}.}.}.}.}.}.}.}.}.}.}.}.}.}.}.}.}.}.}.}.}.}.}.}.}.}.}.}.}.}.}.}.}.}.}.}.",
"}.}.}.}.}.}.}.}.}.}.}.}.}.}.}.}.}.}.}.}.}.}.}.}.}.}.}.}.}.}.}.}.}.}.}.}.}.}.}.}.}.}.}.}.}.}.}.}.}.}.}.}.}.}.}.}.}.}.}.}.}.}.}.}.",
"}.}.}.}.}.}.}.}.}.}.}.}.}.}.}.}.}.}.}.}.}.}.}.}.}.}.}.}.}.}.}.}.}.}.}.}.}.}.}.}.}.}.}.}.}.}.}.}.}.}.}.}.}.}.}.}.}.}.}.}.}.}.}.}.",
"}.}.}.}.}.}.}.}.}.}.}.}.}.}.}.}.}.}.}.}.}.}.}.}.}.}.}.}.}.}.}.}.}.}.}.}.}.}.}.}.}.}.}.}.}.}.}.}.}.}.}.}.}.}.}.}.}.}.}.}.}.}.}.}.",
"}.}.}.}.}.}.}.}.}.}.}.}.}.}.}.}.}.}.}.}.}.}.}.}.}.}.}.}.}.}.}.}.}.}.}.}.}.}.}.}.}.}.}.}.}.}.}.}.}.}.}.}.}.}.}.}.}.}.}.}.}.}.}.}.",
"}.}.}.}.}.}.}.}.}.}.}.}.}.}.}.}.}.}.}.}.}.}.}.}.}.].z.B         I #X}.}.}.}.}.[.+X@X*X}.}.}.}.}.}.}.}.}.}.}.}.}.}.}.}.}.}.}.}.}.",
"}.}.}.}.}.}.}.}.}.}.}.}.}.}.}.}.}.}.}.}.}.}.}.(.K                   % -X`.|           o G.}.}.}.}.}.}.}.}.}.}.}.}.}.}.}.}.}.}.}.",
"}.}.}.}.}.}.}.}.}.}.}.}.}.}.}.}.}.}.}.}.}.}.g.          $ ! W X         &                 s.}.}.}.}.}.}.}.}.}.}.}.}.}.}.}.}.}.}.",
"}.}.}.}.}.}.}.}.}.}.}.}.}.}.}.}.}.}.}.}.}.~       Z ] o.z z z z ) G           , r s U       b.}.}.}.}.}.}.}.}.}.}.}.}.}.}.}.}.}.",
"}.}.}.}.}.}.}.}.}.}.}.}.}.}.}.}.}.}.}.}.T       q z z z z z z z z z 5     . z z z z z '     o }.}.}.}.}.}.}.}.}.}.}.}.}.}.}.}.}.",
"}.}.}.}.}.}.}.}.}.}.}.}.}.}.}.}.}.}.}.{       j z z z z z z z z z z z d e l z z c z z z P     ~.}.}.}.}.}.}.}.}.}.}.}.}.}.}.}.}.",
"}.}.}.}.}.}.}.}.}.}.}.}.}.}.}.}.}.}.|.      j z z n C.iXdXdXdXdX>X,.z z z z M.dXdXw.z z `     N A p.'.}.}.}.}.}.}.}.}.}.}.}.}.}.",
"}.}.}.}.}.}.}.}.}.}.}.}.}.}.}.}.}.}.&     j z z n.sXdXdXdXdXdXdXdXdXR.v z U.dXdXdXsXz z f             Q.}.}.}.}.}.}.}.}.}.}.}.}.",
"}.}.}.}.}.}.}.}.}.}.}.}.}.}.}.}.}.h.    3 z z T.dXdXdXdXdXdXdXwXdXdXdXdXdXdXdXdXdXdX9.z z ;             &X}.}.}.}.}.}.}.}.}.}.}.",
"}.}.}.}.}.}.}.}.}.}.}.}.}.}.}.}.}.      z z q.dXdXdXdXdXdXdXdXdXdXdXdXdXdXdXdXdXdXdX<Xz z z z z z :       ^.}.}.}.}.}.}.}.}.}.}.",
"}.}.}.}.}.}.}.}.}.}.}.}.}.}.}.%XC     - l z dXdXdXdXdXdXdXdXdXdXdXdXdXdXdXdXdXdXdXdXdX6.z x @.z z z 3     H }.}.}.}.}.}.}.}.}.}.",
"}.}.}.}.}.}.}.}.}.}.}.}.}.}.v.      1 d z *.dXdXdXdXdXdXdXdXdXdXdXdXdXdXdXdXdXdXdXdXdXdXdXdXdXuX>.z z @     W.}.}.}.}.}.}.}.}.}.",
"}.}.}.}.}.}.}.}.}.}.}.}.}...    @ l z z z r.dXdXdXdXdXdXdXdXdXdXdXdXdXdXdXdXdXdXdXdXdXdXdXdXdXdXdX1.z k     = }.}.}.}.}.}.}.}.}.",
"}.}.}.}.}.}.}.}.}.}.}.}. .    9 z z z z z Z.dXdXdXdXdXdXdXdXdXdXdXdXdXdXdXdXdXdXdXdXdXdXdXdXdXdXdXdXz z 1     ).}.}.}.}.}.}.}.}.",
"}.}.}.}.}.}.}.}.}.}.}.~.    > z z z z z z >XdXdXdXdXdXdXdXdXdXdXdXdXdXdXdXdXdXdXdXdXdXdXdXdXdXdXdXdX&.z g     K.}.}.}.}.}.}.}.}.",
"}.}.}.}.}.}.}.}.}.}.}.L     b z z z v t.5XdXdXdXdXdXdXdXdXdXdXdXdXdXdXdXdXdXdXdXdXdXdXdXdXdXdXdXdXdX3.z z     i.}.}.}.}.}.}.}.}.",
"}.}.}.}.}.}.}.}.}.}.'.    % z z z 2XdXdXdXdXdXdXdXdXdXdXdXdXdXdXdXdXdXdXdXdXdXdXdXdXdXdXdXdXdXdXdXdX<.z z     Q }.}.}.}.}.}.}.}.",
"}.}.}.}.}.}.}.}.}.}.X.    i z z Y.dXdXdXdXdXdXdXdXdXdXdXdXdXdXdXdXdXdXdXdXdXdXdXdXdXdXdXdXdXdXdXdXdXv z z     E }.}.}.}.}.}.}.}.",
"}.}.}.}.}.}.}.}.}.}.&     z z %.dXdXdXdXdXdXdXdXdXdXdXdXdXdXdXdXdXdXdXdXdXdXdXdXdXdXdXdXdXdXdXdXdXrXz z l     f.}.}.}.}.}.}.}.}.",
"}.}.}.}.}.}.}.}.}.}.    O z z ,XdXdXdXdXdXdXdXdXdXdXdXdXdXdXdXdXdXdXdXdXdXdXdXdXdXdXdXdXdXdXdXdXrXn z z F     !.}.}.}.}.}.}.}.}.",
"}.}.}.}.}.}.}.}.}.}.      z z E.;XsXdXdXdXdXdXdXdXdXdXdXdXdXdXdXdXdXdXdXdXdXdXdXdXdXdXdXdXM.v z z z z 0     = }.}.}.}.}.}.}.}.}.",
"}.}.}.}.}.}.}.}.}.}.S     t z z z <.dXdXdXdXdXdXdXdXdXdXdXdXdXdXdXdXdXdXdXdXdXdXdXdXdXdX6Xz z z z z h       ^.}.}.}.}.}.}.}.}.}.",
"}.}.}.}.}.}.}.}.}.}.J.      + z z +.dXdXdXdXdXdXdXdXdXdXdXdXdXdXdXdXdXdXdXdXdXdXdXdXdXdXpX@.z z z z /     j.}.}.}.}.}.}.}.}.}.}.",
"}.}.}.}.}.}.}.}.}.}.}.[       z z >XdXdXdXdXdXdXdXdXdXdXdXdXdXdXdXdXdXdXdXdXdXdXdXdXdXdXdXpX7.z z z w     } }.}.}.}.}.}.}.}.}.}.",
"}.}.}.}.}.}.}.}.}.}.}.$X    > z P.dXdXdXdXdXdXdXdXdXdXdXdXdXdXdXdXdXdXdXdXdXdXdXdXdXdXdXdXdX1Xz z z z     o }.}.}.}.}.}.}.}.}.}.",
"}.}.}.}.}.}.}.}.}.}.}.x.    p z dXdXdXdXdXdXdXdXdXdXdXdXdXdXdXdXdXdXdXdXdXdXdXdXdXdXdXdXdXdXdXz z z z #     }.}.}.}.}.}.}.}.}.}.",
"}.}.}.}.}.}.}.}.}.}.}.k.    d z eXdXdXdXdXdXdXdXdXdXdXdXdXdXdXdXdXdXdXdXdXdXdXdXdXdXdXdXdXdX7Xz z z z D     }.}.}.}.}.}.}.}.}.}.",
"}.}.}.}.}.}.}.}.}.}.}.G.    a z e.dXdXP.v @.3XdXdXdXdXdXdXdXdXdXdXdXdXdXdXdXdXdXdXdXdXdXdXdXm.z z z z m     }.}.}.}.}.}.}.}.}.}.",
"}.}.}.}.}.}.}.}.}.}.}.=X    - z z 8.$.z z z N.dXdXdXdXdXdXdXdXdXdXdXdXdXdXdXdXdXdXdXdXdXdXA.z z z z ( =     }.}.}.}.}.}.}.}.}.}.",
"}.}.}.}.}.}.}.}.}.}.}.}.&     . k z j z z z 7XdXdXdXdXdXdXdXdXdXdXdXdXdXdXdXdXdXdXdXiXD.4.z z z z O.J     Z }.}.}.}.}.}.}.}.}.}.",
"}.}.}.}.}.}.}.}.}.}.}.}.oX              d n dXdXdXdXdXdXdXdXdXdXdXdXdXdXdXdXdXdXdX3Xv z z z z z _ N       H.}.}.}.}.}.}.}.}.}.}.",
"}.}.}.}.}.}.}.}.}.}.}.}.}./.N           < 2.dXdXdXdXdXdXdXdXdXiX0XdXdXdXdXdXdXdXdXI.z z z z z ^         K }.}.}.}.}.}.}.}.}.}.}.",
"}.}.}.}.}.}.}.}.}.}.}.}.}.}.}. XY o     @ %.dXdXdXdXdXdXdXdXiXz z =.9XdXdXdXdXdXdXyXz z z #.7         M }.}.}.}.}.}.}.}.}.}.}.}.",
"}.}.}.}.}.}.}.}.}.}.}.}.}.}.}.}.}.}.      z eXdXdXdXdXdXdXdX:Xz z z z V.dXdXdXdXdXdX0.e < 6         N _.}.}.}.}.}.}.}.}.}.}.}.}.",
"}.}.}.}.}.}.}.}.}.}.}.}.}.}.}.}.}.}.R     8 n tXdXdXdXdXdXaX4Xz l , @ f z 5.S.8XfXqX4.2         o c.}.}.}.}.}.}.}.}.}.}.}.}.}.}.",
"}.}.}.}.}.}.}.}.}.}.}.}.}.}.}.}.}.}.).      y z B.dXdXsXn.%.-.z >       1 z z c ;.:.z 3     |.{.}.}.}.}.}.}.}.}.}.}.}.}.}.}.}.}.",
"}.}.}.}.}.}.}.}.}.}.}.}.}.}.}.}.}.}.}.a.      y z c z z z z z l             . 4 u f 5     % }.}.}.}.}.}.}.}.}.}.}.}.}.}.}.}.}.}.",
"}.}.}.}.}.}.}.}.}.}.}.}.}.}.}.}.}.}.}.}.|       1 z z z z z k       ..o                   OX}.}.}.}.}.}.}.}.}.}.}.}.}.}.}.}.}.}.",
"}.}.}.}.}.}.}.}.}.}.}.}.}.}.}.}.}.}.}.}.}.u.      2 z l w <       V [.{.d.*           o L.}.}.}.}.}.}.}.}.}.}.}.}.}.}.}.}.}.}.}.",
"}.}.}.}.}.}.}.}.}.}.}.}.}.}.}.}.}.}.}.}.}.}.F.                  S }.}.}.}.}.}.{.XX.X%X}.}.}.}.}.}.}.}.}.}.}.}.}.}.}.}.}.}.}.}.}.",
"}.}.}.}.}.}.}.}.}.}.}.}.}.}.}.}.}.}.}.}.}.}.}.}.l.*           y.}.}.}.}.}.}.}.}.}.}.}.}.}.}.}.}.}.}.}.}.}.}.}.}.}.}.}.}.}.}.}.}.",
"}.}.}.}.}.}.}.}.}.}.}.}.}.}.}.}.}.}.}.}.}.}.}.}.}.}.}.}.}.}.}.}.}.}.}.}.}.}.}.}.}.}.}.}.}.}.}.}.}.}.}.}.}.}.}.}.}.}.}.}.}.}.}.}.",
"}.}.}.}.}.}.}.}.}.}.}.}.}.}.}.}.}.}.}.}.}.}.}.}.}.}.}.}.}.}.}.}.}.}.}.}.}.}.}.}.}.}.}.}.}.}.}.}.}.}.}.}.}.}.}.}.}.}.}.}.}.}.}.}.",
"}.}.}.}.}.}.}.}.}.}.}.}.}.}.}.}.}.}.}.}.}.}.}.}.}.}.}.}.}.}.}.}.}.}.}.}.}.}.}.}.}.}.}.}.}.}.}.}.}.}.}.}.}.}.}.}.}.}.}.}.}.}.}.}.",
"}.}.}.}.}.}.}.}.}.}.}.}.}.}.}.}.}.}.}.}.}.}.}.}.}.}.}.}.}.}.}.}.}.}.}.}.}.}.}.}.}.}.}.}.}.}.}.}.}.}.}.}.}.}.}.}.}.}.}.}.}.}.}.}.",
"}.}.}.}.}.}.}.}.}.}.}.}.}.}.}.}.}.}.}.}.}.}.}.}.}.}.}.}.}.}.}.}.}.}.}.}.}.}.}.}.}.}.}.}.}.}.}.}.}.}.}.}.}.}.}.}.}.}.}.}.}.}.}.}.",
"}.}.}.}.}.}.}.}.}.}.}.}.}.}.}.}.}.}.}.}.}.}.}.}.}.}.}.}.}.}.}.}.}.}.}.}.}.}.}.}.}.}.}.}.}.}.}.}.}.}.}.}.}.}.}.}.}.}.}.}.}.}.}.}.",
"}.}.}.}.}.}.}.}.}.}.}.}.}.}.}.}.}.}.}.}.}.}.}.}.}.}.}.}.}.}.}.}.}.}.}.}.}.}.}.}.}.}.}.}.}.}.}.}.}.}.}.}.}.}.}.}.}.}.}.}.}.}.}.}.",
"}.}.}.}.}.}.}.}.}.}.}.}.}.}.}.}.}.}.}.}.}.}.}.}.}.}.}.}.}.}.}.}.}.}.}.}.}.}.}.}.}.}.}.}.}.}.}.}.}.}.}.}.}.}.}.}.}.}.}.}.}.}.}.}.",
"}.}.}.}.}.}.}.}.}.}.}.}.}.}.}.}.}.}.}.}.}.}.}.}.}.}.}.}.}.}.}.}.}.}.}.}.}.}.}.}.}.}.}.}.}.}.}.}.}.}.}.}.}.}.}.}.}.}.}.}.}.}.}.}.",
"}.}.}.}.}.}.}.}.}.}.}.}.}.}.}.}.}.}.}.}.}.}.}.}.}.}.}.}.}.}.}.}.}.}.}.}.}.}.}.}.}.}.}.}.}.}.}.}.}.}.}.}.}.}.}.}.}.}.}.}.}.}.}.}.",
"}.}.}.}.}.}.}.}.}.}.}.}.}.}.}.}.}.}.}.}.}.}.}.}.}.}.}.}.}.}.}.}.}.}.}.}.}.}.}.}.}.}.}.}.}.}.}.}.}.}.}.}.}.}.}.}.}.}.}.}.}.}.}.}.",
"}.}.}.}.}.}.}.}.}.}.}.}.}.}.}.}.}.}.}.}.}.}.}.}.}.}.}.}.}.}.}.}.}.}.}.}.}.}.}.}.}.}.}.}.}.}.}.}.}.}.}.}.}.}.}.}.}.}.}.}.}.}.}.}.",
"}.}.}.}.}.}.}.}.}.}.}.}.}.}.}.}.}.}.}.}.}.}.}.}.}.}.}.}.}.}.}.}.}.}.}.}.}.}.}.}.}.}.}.}.}.}.}.}.}.}.}.}.}.}.}.}.}.}.}.}.}.}.}.}.",
"}.}.}.}.}.}.}.}.}.}.}.}.}.}.}.}.}.}.}.}.}.}.}.}.}.}.}.}.}.}.}.}.}.}.}.}.}.}.}.}.}.}.}.}.}.}.}.}.}.}.}.}.}.}.}.}.}.}.}.}.}.}.}.}."
};
