/* XPM */
static char *result[] = {
/* columns rows colors chars-per-pixel */
"64 64 178 2 ",
"   c #F3953F",
".  c #F4943C",
"X  c #F5943C",
"o  c #F5953C",
"O  c #F4943D",
"+  c #F5943D",
"@  c #F4953E",
"#  c #F5953E",
"$  c #F4943F",
"%  c #F4953F",
"&  c #F5953F",
"*  c #F5963E",
"=  c #F5983C",
"-  c #F59A3C",
";  c #F59C3D",
":  c #F59E3C",
">  c #F59E3E",
",  c #F5A13C",
"<  c #F5A23D",
"1  c #F5A33D",
"2  c #F3A43F",
"3  c #F5A43C",
"4  c #F5A53C",
"5  c #F5A63C",
"6  c #F5A73C",
"7  c #F5A73D",
"8  c #F5A83C",
"9  c #F5AD3C",
"0  c #F5AF3C",
"q  c #F5B03C",
"w  c #F5B13C",
"e  c #F5B43C",
"r  c #F5B53C",
"t  c #F5B63C",
"y  c #F5B73C",
"u  c #F5B83C",
"i  c #F5B93C",
"p  c #F5BA3C",
"a  c #F5BB3C",
"s  c #F5BE3C",
"d  c #F5BF3C",
"f  c #F5C03C",
"g  c #F5C13C",
"h  c #F5C23C",
"j  c #F5C23D",
"k  c #F5C33D",
"l  c #F5C33E",
"z  c #F5C33F",
"x  c #EF9A4E",
"c  c #F39741",
"v  c #F29643",
"b  c #F39643",
"n  c #F49641",
"m  c #F49642",
"M  c #F19745",
"N  c #F29745",
"B  c #F29D43",
"V  c #F29846",
"C  c #F09848",
"Z  c #F19848",
"A  c #F09948",
"S  c #F09949",
"D  c #F09A4C",
"F  c #F09C4C",
"G  c #ED9C52",
"H  c #EA9F58",
"J  c #EA9F5A",
"K  c #F3A040",
"L  c #F3AF42",
"P  c #F2B743",
"I  c #F2B344",
"U  c #E9A15F",
"Y  c #ECB254",
"T  c #DFAC7E",
"R  c #E6A466",
"E  c #E8A260",
"W  c #E8A262",
"Q  c #E9A262",
"!  c #E6A669",
"~  c #E4A76E",
"^  c #E3A871",
"/  c #E0AC78",
"(  c #E0AC7B",
")  c #F5C340",
"_  c #F4C342",
"`  c #F5C441",
"'  c #F5C442",
"]  c #F5C443",
"[  c #F1C144",
"{  c #F5C648",
"}  c #F5C64B",
"|  c #F5C74C",
" . c #F5C74E",
".. c #F5C74F",
"X. c #F0C753",
"o. c #F5C850",
"O. c #F5C851",
"+. c #F5C953",
"@. c #F4C855",
"#. c #F4C955",
"$. c #F5C956",
"%. c #F6CD62",
"&. c #E0C47D",
"*. c #F6D170",
"=. c #F6D273",
"-. c #F6D377",
";. c #DCB083",
":. c #DAB189",
">. c #DBB18A",
",. c #DAB28A",
"<. c #D6B594",
"1. c #D6B695",
"2. c #D5B797",
"3. c #D8B491",
"4. c #D4B89B",
"5. c #D2BBA2",
"6. c #D2BBA3",
"7. c #D1BCA3",
"8. c #D1BDA7",
"9. c #D0BDA8",
"0. c #F6D580",
"q. c #F6D682",
"w. c #F5D88D",
"e. c #F2D891",
"r. c #F7DA91",
"t. c #F7DB95",
"y. c #F7DE9F",
"u. c #CEC0AF",
"i. c #CDC0B0",
"p. c #CDC1B1",
"a. c #CCC1B3",
"s. c #CAC3B6",
"d. c #CBC3B9",
"f. c #F7DEA0",
"g. c #F7E2AE",
"h. c #F7E3B3",
"j. c #F7E5B7",
"k. c #F7E6BB",
"l. c #F7E6BD",
"z. c #BFCFD7",
"x. c #BFD0D9",
"c. c #BED0DA",
"v. c #BED0DB",
"b. c #BDD1DC",
"n. c #BCD2E0",
"m. c #BCD3E0",
"M. c #BCD3E1",
"N. c #BCD3E3",
"B. c #BBD4E3",
"V. c #BCD4E2",
"C. c #BBD4E4",
"Z. c #C5C9C6",
"A. c #C5C9C7",
"S. c #C4C9C8",
"D. c #C5CAC8",
"F. c #C5CAC9",
"G. c #C3CCCF",
"H. c #C0CED5",
"J. c #F8E8C4",
"K. c #F8E9C5",
"L. c #F8E9C6",
"P. c #F8E9C7",
"I. c #F5E9CB",
"U. c #F8EBCF",
"Y. c #F8EDD4",
"T. c #F8EDD5",
"R. c #F8EDD6",
"E. c #F8EDD7",
"W. c #F8EED8",
"Q. c #F8EEDA",
"!. c #F8EFDB",
"~. c #F8EFDD",
"^. c #F8EFDE",
"/. c #F8F0DE",
"(. c #F8F0DF",
"). c #F7F0E0",
"_. c #F8F0E0",
"`. c #F8F1E0",
/* pixels */
"C.C.C.C.C.C.C.C.C.C.C.C.C.C.C.C.C.C.C.C.C.C.C.C.C.C.C.C.C.C.C.C.C.C.C.C.C.C.C.C.C.C.C.C.C.C.C.C.C.C.C.C.C.C.C.C.C.C.C.C.C.C.C.C.",
"C.C.C.C.C.C.C.C.C.C.C.C.C.C.C.C.C.C.C.C.C.C.C.C.C.C.C.C.C.C.C.C.C.C.C.C.C.C.C.C.C.C.C.C.C.C.C.C.C.C.C.C.C.C.C.C.C.C.C.C.C.C.C.C.",
"C.C.C.C.C.C.C.C.C.C.C.C.C.C.C.C.C.C.C.C.C.C.C.C.C.C.C.C.C.C.C.C.C.C.C.C.C.C.C.C.C.C.C.C.C.C.C.C.C.C.C.C.C.C.C.C.C.C.C.C.C.C.C.C.",
"C.C.C.C.C.C.C.C.C.C.C.C.C.C.C.C.C.C.C.C.C.C.C.C.C.C.C.C.C.C.C.C.C.C.C.C.C.C.C.C.C.C.C.C.C.C.C.C.C.C.C.C.C.C.C.C.C.C.C.C.C.C.C.C.",
"C.C.C.C.C.C.C.C.C.C.C.C.C.C.C.C.C.C.C.C.C.C.C.C.C.C.C.C.C.C.C.C.C.C.C.C.C.C.C.C.C.C.C.C.C.C.C.C.C.C.C.C.C.C.C.C.C.C.C.C.C.C.C.C.",
"C.C.C.C.C.C.C.C.C.C.C.C.C.C.C.C.C.C.C.C.C.C.C.C.C.C.C.C.C.C.C.C.C.C.C.C.C.C.C.C.C.C.C.C.C.C.C.C.C.C.C.C.C.C.C.C.C.C.C.C.C.C.C.C.",
"C.C.C.C.C.C.C.C.C.C.C.C.C.C.C.C.C.C.C.C.C.C.C.C.C.C.C.C.C.C.C.C.C.C.C.C.C.C.C.C.C.C.C.C.C.C.C.C.C.C.C.C.C.C.C.C.C.C.C.C.C.C.C.C.",
"C.C.C.C.C.C.C.C.C.C.C.C.C.C.C.C.C.C.C.C.C.C.C.C.C.C.C.C.C.C.C.C.C.C.C.C.C.C.C.C.C.C.C.C.C.C.C.C.C.C.C.C.C.C.C.C.C.C.C.C.C.C.C.C.",
"C.C.C.C.C.C.C.C.C.C.C.C.C.C.C.C.C.C.C.C.C.C.C.C.C.C.C.C.C.C.C.C.C.C.C.C.C.C.C.C.C.C.C.C.C.C.C.C.C.C.C.C.C.C.C.C.C.C.C.C.C.C.C.C.",
"C.C.C.C.C.C.C.C.C.C.C.C.C.C.C.C.C.C.C.C.C.C.C.C.C.C.C.C.C.C.C.C.C.C.C.C.C.C.C.C.C.C.C.C.C.C.C.C.C.C.C.C.C.C.C.C.C.C.C.C.C.C.C.C.",
"C.C.C.C.C.C.C.C.C.C.C.C.C.C.C.C.C.C.C.C.C.C.C.C.C.C.C.C.C.C.C.C.C.C.C.C.C.C.C.C.C.C.C.C.C.C.C.C.C.C.C.C.C.C.C.C.C.C.C.C.C.C.C.C.",
"C.C.C.C.C.C.C.C.C.C.C.C.C.C.C.C.C.C.C.C.C.C.C.C.C.C.C.C.C.C.C.C.C.C.M.F.8.^ W / u.V.C.C.C.C.C.C.C.C.C.C.C.C.C.C.C.C.C.C.C.C.C.C.",
"C.C.C.C.C.C.C.C.C.C.C.C.C.C.C.C.C.C.C.C.C.C.C.C.C.C.C.C.C.C.C.C.,.+ X X X X X X X X $ i.C.C.C.C.C.C.C.C.C.C.C.C.C.C.C.C.C.C.C.C.",
"C.C.C.C.C.C.C.C.C.C.C.C.C.C.C.C.C.C.C.C.C.C.C.C.N.6.Z X X X X + X X X X X X X X X X X X % Z.C.C.C.C.C.C.C.C.C.C.C.C.C.C.C.C.C.C.",
"C.C.C.C.C.C.C.C.C.C.C.C.C.C.C.C.C.C.C.C.C.C.B.;.X X X X X X X X X X X , w u u y 3 X X X X X 4.C.C.C.C.C.C.C.C.C.C.C.C.C.C.C.C.C.",
"C.C.C.C.C.C.C.C.C.C.C.C.C.C.C.C.C.C.C.C.C.F.+ X X X X X X X X X X 0 h h h h h h h h r # X X X G.C.C.C.C.C.C.C.C.C.C.C.C.C.C.C.C.",
"C.C.C.C.C.C.C.C.C.C.C.C.C.C.C.C.C.C.C.C.p.X X X X & I h h h h h h h h  .t.k.y.O.h h h h B X X v C.C.C.C.C.C.C.C.C.C.C.C.C.C.C.C.",
"C.C.C.C.C.C.C.C.C.C.C.C.C.C.C.C.C.C.C.s.X X X + P h h h h h h h h { !._._._._._.!.#.h h h X X X b.C.C.C.C.C.C.C.C.C.C.C.C.C.C.C.",
"C.C.C.C.C.C.C.C.C.C.C.C.C.C.C.C.C.C.c.X X X % g h h h h ` ` h h *.(._._._._._._._._.e.h h 4 X X 1.C.C.C.C.C.C.C.C.C.C.C.C.C.C.C.",
"C.C.C.C.C.C.C.C.C.C.C.C.C.C.C.C.C.B.n X X + f h h h 0.~._._._._._._._._._._.)._._._._.X.h s X X N C.C.C.C.C.C.C.C.C.C.C.C.C.C.C.",
"C.C.C.C.C.C.C.C.C.C.C.C.C.C.C.C.C.9.X X X s h h ' R._._._._._._._._._._._._._._._._._.!.h h X X X C.C.C.C.C.C.C.C.C.C.C.C.C.C.C.",
"C.C.C.C.C.C.C.C.C.C.C.C.C.C.C.C.C.@ X X 7 h h } _._._._._._._._._._._._._._._._._._._._.@.h X X X C.C.C.C.C.C.C.C.C.C.C.C.C.C.C.",
"C.C.C.C.C.C.C.C.C.C.C.C.C.C.C.C.A.X X X h h l ~._._._._._._._._._._._._._._._._._._._._.j.h o X X m >.N.C.C.C.C.C.C.C.C.C.C.C.C.",
"C.C.C.C.C.C.C.C.C.C.C.C.C.C.C.C.U X X K h h g._._._._._._._._._._._._._._._._._._._._._.J.h X X X X X m n.C.C.C.C.C.C.C.C.C.C.C.",
"C.C.C.C.C.C.C.C.C.C.C.C.C.C.C.C.+ X X a h h _._._._._._._._._._._._._._._._._._._._._._.E.h 9 X X X X X M C.C.C.C.C.C.C.C.C.C.C.",
"C.C.C.C.C.C.C.C.C.C.C.C.C.C.C.C.X X X h h h _._._._._._._._._._._._._._._._._._._._._._._.f.j h h u X X X 6.C.C.C.C.C.C.C.C.C.C.",
"C.C.C.C.C.C.C.C.C.C.C.C.C.C.C.C.X X X h h k _._._._._._._._._._._._._._._._._._._._._._._._._.) h h t X X @ C.C.C.C.C.C.C.C.C.C.",
"C.C.C.C.C.C.C.C.C.C.C.C.C.C.C.C.# X X s h h k q._._._._._._._._._._._._._._._._._._._._._._._.L.h h h X X X v.C.C.C.C.C.C.C.C.C.",
"C.C.C.C.C.C.C.C.C.C.C.C.C.C.C.C.J X X L h h h +._._._._._._._._._._._._._._._._._._._._._._._._.' h h 8 X X 2.C.C.C.C.C.C.C.C.C.",
"C.C.C.C.C.C.C.C.C.C.C.C.C.C.C.C.d.X X * h h k (._._._._._._._._._._._._._._._._._._._._._._._._._.h h a X X G C.C.C.C.C.C.C.C.C.",
"C.C.C.C.C.C.C.C.C.C.C.C.C.C.C.C.z.X X X h h P._._._._._._._._._._._._._._._._._._._._._._._._._._.h h h X X b C.C.C.C.C.C.C.C.C.",
"C.C.C.C.C.C.C.C.C.C.C.C.C.C.C.C.x X X 6 h %._._._._._._._._._._._._._._._._._._._._._._._._._._._.h h a X X D C.C.C.C.C.C.C.C.C.",
"C.C.C.C.C.C.C.C.C.C.C.C.C.C.C.C.X X X g h ~._._._._._._._._._._._._._._._._._._._._._._._._._._.I.h h 1 X X <.C.C.C.C.C.C.C.C.C.",
"C.C.C.C.C.C.C.C.C.C.C.C.C.C.C.M.X X o h k _._._._._._._._.`._._._._._._._._._._._._._._._._._.Y.k h h X X X x.C.C.C.C.C.C.C.C.C.",
"C.C.C.C.C.C.C.C.C.C.C.C.C.C.C.D.X X - h h ^._._._._._._._._._._._._._._._._._._._._._./.K.h...h h h 6 X X % C.C.C.C.C.C.C.C.C.C.",
"C.C.C.C.C.C.C.C.C.C.C.C.C.C.C.A.X X > h h y._._._._._._._._._._._._._._._._._._._._.-.h h h h h h 5 X X X a.C.C.C.C.C.C.C.C.C.C.",
"C.C.C.C.C.C.C.C.C.C.C.C.C.C.C.Z.X X F h h z _._._._.)._._._._._._._._._._._._._._._.h h d a p 8 X X X X Q C.C.C.C.C.C.C.C.C.C.C.",
"C.C.C.C.C.C.C.C.C.C.C.C.C.C.C.H.X X O h h h w._._.T.U._._._._._._._._._._._._._._.r.h : X X X X X X X E C.C.C.C.C.C.C.C.C.C.C.C.",
"C.C.C.C.C.C.C.C.C.C.C.C.C.C.C.C.+ X X &.h h h _ k h h ` W._._._._._._._._._._._.T.h h X X X X X X + 5.C.C.C.C.C.C.C.C.C.C.C.C.C.",
"C.C.C.C.C.C.C.C.C.C.C.C.C.C.C.C.( X X + [ h h h h h h h l ~._._._._._._._._._.l.h h g X X X D T S.C.C.C.C.C.C.C.C.C.C.C.C.C.C.C.",
"C.C.C.C.C.C.C.C.C.C.C.C.C.C.C.C.m.$ X X X Y h h f = X w h ] _._._._._._._.Q.| h h h ; X X ! C.C.C.C.C.C.C.C.C.C.C.C.C.C.C.C.C.C.",
"C.C.C.C.C.C.C.C.C.C.C.C.C.C.C.C.C.b.+ X X X X c X X X X q h h o.=.=.$.z h h h h h 2 X X X v.C.C.C.C.C.C.C.C.C.C.C.C.C.C.C.C.C.C.",
"C.C.C.C.C.C.C.C.C.C.C.C.C.C.C.C.C.C.v.b X X X X X X X X X e h h h h h h h h h u + X X X :.C.C.C.C.C.C.C.C.C.C.C.C.C.C.C.C.C.C.C.",
"C.C.C.C.C.C.C.C.C.C.C.C.C.C.C.C.C.C.C.C.7.+ X X X V C X X X , f h h h f i < . X X X X ~ C.C.C.C.C.C.C.C.C.C.C.C.C.C.C.C.C.C.C.C.",
"C.C.C.C.C.C.C.C.C.C.C.C.C.C.C.C.C.C.C.C.C.C.C.C.C.C.V.A X X X X X X X X X X X X X @ s.C.C.C.C.C.C.C.C.C.C.C.C.C.C.C.C.C.C.C.C.C.",
"C.C.C.C.C.C.C.C.C.C.C.C.C.C.C.C.C.C.C.C.C.C.C.C.C.C.C.B.H X X X X X X X X X X   6.C.C.C.C.C.C.C.C.C.C.C.C.C.C.C.C.C.C.C.C.C.C.C.",
"C.C.C.C.C.C.C.C.C.C.C.C.C.C.C.C.C.C.C.C.C.C.C.C.C.C.C.C.C.V.3.S # X + N R i.c.C.C.C.C.C.C.C.C.C.C.C.C.C.C.C.C.C.C.C.C.C.C.C.C.C.",
"C.C.C.C.C.C.C.C.C.C.C.C.C.C.C.C.C.C.C.C.C.C.C.C.C.C.C.C.C.C.C.C.C.C.C.C.C.C.C.C.C.C.C.C.C.C.C.C.C.C.C.C.C.C.C.C.C.C.C.C.C.C.C.C.",
"C.C.C.C.C.C.C.C.C.C.C.C.C.C.C.C.C.C.C.C.C.C.C.C.C.C.C.C.C.C.C.C.C.C.C.C.C.C.C.C.C.C.C.C.C.C.C.C.C.C.C.C.C.C.C.C.C.C.C.C.C.C.C.C.",
"C.C.C.C.C.C.C.C.C.C.C.C.C.C.C.C.C.C.C.C.C.C.C.C.C.C.C.C.C.C.C.C.C.C.C.C.C.C.C.C.C.C.C.C.C.C.C.C.C.C.C.C.C.C.C.C.C.C.C.C.C.C.C.C.",
"C.C.C.C.C.C.C.C.C.C.C.C.C.C.C.C.C.C.C.C.C.C.C.C.C.C.C.C.C.C.C.C.C.C.C.C.C.C.C.C.C.C.C.C.C.C.C.C.C.C.C.C.C.C.C.C.C.C.C.C.C.C.C.C.",
"C.C.C.C.C.C.C.C.C.C.C.C.C.C.C.C.C.C.C.C.C.C.C.C.C.C.C.C.C.C.C.C.C.C.C.C.C.C.C.C.C.C.C.C.C.C.C.C.C.C.C.C.C.C.C.C.C.C.C.C.C.C.C.C.",
"C.C.C.C.C.C.C.C.C.C.C.C.C.C.C.C.C.C.C.C.C.C.C.C.C.C.C.C.C.C.C.C.C.C.C.C.C.C.C.C.C.C.C.C.C.C.C.C.C.C.C.C.C.C.C.C.C.C.C.C.C.C.C.C.",
"C.C.C.C.C.C.C.C.C.C.C.C.C.C.C.C.C.C.C.C.C.C.C.C.C.C.C.C.C.C.C.C.C.C.C.C.C.C.C.C.C.C.C.C.C.C.C.C.C.C.C.C.C.C.C.C.C.C.C.C.C.C.C.C.",
"C.C.C.C.C.C.C.C.C.C.C.C.C.C.C.C.C.C.C.C.C.C.C.C.C.C.C.C.C.C.C.C.C.C.C.C.C.C.C.C.C.C.C.C.C.C.C.C.C.C.C.C.C.C.C.C.C.C.C.C.C.C.C.C.",
"C.C.C.C.C.C.C.C.C.C.C.C.C.C.C.C.C.C.C.C.C.C.C.C.C.C.C.C.C.C.C.C.C.C.C.C.C.C.C.C.C.C.C.C.C.C.C.C.C.C.C.C.C.C.C.C.C.C.C.C.C.C.C.C.",
"C.C.C.C.C.C.C.C.C.C.C.C.C.C.C.C.C.C.C.C.C.C.C.C.C.C.C.C.C.C.C.C.C.C.C.C.C.C.C.C.C.C.C.C.C.C.C.C.C.C.C.C.C.C.C.C.C.C.C.C.C.C.C.C.",
"C.C.C.C.C.C.C.C.C.C.C.C.C.C.C.C.C.C.C.C.C.C.C.C.C.C.C.C.C.C.C.C.C.C.C.C.C.C.C.C.C.C.C.C.C.C.C.C.C.C.C.C.C.C.C.C.C.C.C.C.C.C.C.C.",
"C.C.C.C.C.C.C.C.C.C.C.C.C.C.C.C.C.C.C.C.C.C.C.C.C.C.C.C.C.C.C.C.C.C.C.C.C.C.C.C.C.C.C.C.C.C.C.C.C.C.C.C.C.C.C.C.C.C.C.C.C.C.C.C.",
"C.C.C.C.C.C.C.C.C.C.C.C.C.C.C.C.C.C.C.C.C.C.C.C.C.C.C.C.C.C.C.C.C.C.C.C.C.C.C.C.C.C.C.C.C.C.C.C.C.C.C.C.C.C.C.C.C.C.C.C.C.C.C.C.",
"C.C.C.C.C.C.C.C.C.C.C.C.C.C.C.C.C.C.C.C.C.C.C.C.C.C.C.C.C.C.C.C.C.C.C.C.C.C.C.C.C.C.C.C.C.C.C.C.C.C.C.C.C.C.C.C.C.C.C.C.C.C.C.C.",
"C.C.C.C.C.C.C.C.C.C.C.C.C.C.C.C.C.C.C.C.C.C.C.C.C.C.C.C.C.C.C.C.C.C.C.C.C.C.C.C.C.C.C.C.C.C.C.C.C.C.C.C.C.C.C.C.C.C.C.C.C.C.C.C.",
"C.C.C.C.C.C.C.C.C.C.C.C.C.C.C.C.C.C.C.C.C.C.C.C.C.C.C.C.C.C.C.C.C.C.C.C.C.C.C.C.C.C.C.C.C.C.C.C.C.C.C.C.C.C.C.C.C.C.C.C.C.C.C.C.",
"C.C.C.C.C.C.C.C.C.C.C.C.C.C.C.C.C.C.C.C.C.C.C.C.C.C.C.C.C.C.C.C.C.C.C.C.C.C.C.C.C.C.C.C.C.C.C.C.C.C.C.C.C.C.C.C.C.C.C.C.C.C.C.C."
};
