/* XPM */
static char *result[] = {
/* columns rows colors chars-per-pixel */
"64 64 167 2 ",
"   c #F4933C",
".  c #F4943C",
"X  c #F5943C",
"o  c #F5953C",
"O  c #F4943D",
"+  c #F5943D",
"@  c #F5963C",
"#  c #F5973C",
"$  c #F5963D",
"%  c #F5943E",
"&  c #F4953E",
"*  c #F5953E",
"=  c #F4943F",
"-  c #F5963E",
";  c #F4973E",
":  c #F5983C",
">  c #F5993C",
",  c #F59A3C",
"<  c #F59C3C",
"1  c #F59D3C",
"2  c #F59E3C",
"3  c #F59F3C",
"4  c #F5A13C",
"5  c #F5A33C",
"6  c #F5A53C",
"7  c #F5A93C",
"8  c #F5AE3C",
"9  c #F4AE3E",
"0  c #F5B13C",
"q  c #F5B23C",
"w  c #F5B43C",
"e  c #F5B53C",
"r  c #F5B63C",
"t  c #F5B83C",
"y  c #F5B93C",
"u  c #F5BA3C",
"i  c #F5BB3C",
"p  c #F5BB3D",
"a  c #F5BC3C",
"s  c #F5BF3C",
"d  c #F5C03C",
"f  c #F5C13C",
"g  c #F4C23C",
"h  c #F5C23C",
"j  c #F5C33D",
"k  c #F4C23E",
"l  c #F5C33E",
"z  c #F5C33F",
"x  c #F29541",
"c  c #F39640",
"v  c #F39641",
"b  c #F39642",
"n  c #F49641",
"m  c #F19745",
"M  c #F19845",
"N  c #F19847",
"B  c #F09948",
"V  c #F09949",
"C  c #F0994A",
"Z  c #EE9D53",
"A  c #EB9F58",
"S  c #EA9F59",
"D  c #EB9F59",
"F  c #EA9F5A",
"G  c #F1A147",
"H  c #F2A046",
"J  c #F2B440",
"K  c #F2BC45",
"L  c #E9A15F",
"P  c #DEAD7E",
"I  c #DEAE7F",
"U  c #E8A262",
"Y  c #E3A76F",
"T  c #E4A76E",
"R  c #E3A870",
"E  c #E1AB77",
"W  c #E0AB79",
"Q  c #F5C444",
"!  c #F5C544",
"~  c #F5C74B",
"^  c #F5C74E",
"/  c #F5C74F",
"(  c #F5C353",
")  c #F5C850",
"_  c #F5C852",
"`  c #F5CA56",
"'  c #F5CB5C",
"]  c #F5CD61",
"[  c #F5CD63",
"{  c #F6D16D",
"}  c #F7D374",
"|  c #F6D275",
" . c #F6D376",
".. c #F7D478",
"X. c #DCAF83",
"o. c #DAB38C",
"O. c #D8B48F",
"+. c #D5B797",
"@. c #D8B694",
"#. c #D5B89B",
"$. c #D2BA9F",
"%. c #D4B99C",
"&. c #D2BBA3",
"*. c #D1BDA7",
"=. c #F7D785",
"-. c #F7D787",
";. c #F7D88B",
":. c #F6DA93",
">. c #F6DB96",
",. c #F7DC97",
"<. c #F7DD9B",
"1. c #F7DD9C",
"2. c #CEC0AF",
"3. c #C9C5BC",
"4. c #F7DFA3",
"5. c #F7E1A9",
"6. c #F7E2AC",
"7. c #F7E4B5",
"8. c #F7E5B7",
"9. c #F8E5B7",
"0. c #F7E5BC",
"q. c #F7E7BE",
"w. c #BFCED7",
"e. c #BFD0D9",
"r. c #BFD1DA",
"t. c #BED0DB",
"y. c #BFD1DB",
"u. c #BDD1DC",
"i. c #BDD1DD",
"p. c #BED2DD",
"a. c #BED2DE",
"s. c #BCD3E0",
"d. c #BBD4E3",
"f. c #BCD4E2",
"g. c #BBD4E4",
"h. c #C8C6C0",
"j. c #C3CACA",
"k. c #C4C9C8",
"l. c #C5C9C8",
"z. c #C4CAC9",
"x. c #C5CAC9",
"c. c #C4CBCA",
"v. c #C3CCCF",
"b. c #C2CDD0",
"n. c #C1CDD3",
"m. c #C0CFD5",
"M. c #C0D0D9",
"N. c #F7E8C2",
"B. c #F7E9C4",
"V. c #F7EBCE",
"C. c #F8EACB",
"Z. c #F8EBCE",
"A. c #F7EDD4",
"S. c #F8ECD2",
"D. c #F7EFDE",
"F. c #F8EFD9",
"G. c #F8EFDD",
"H. c #F8EFDE",
"J. c #F8EFDF",
"K. c #F8F0DE",
"L. c #F8F0DF",
"P. c #F8EFE0",
"I. c #F8F0E0",
"U. c #F9F0E0",
"Y. c #F8F1E0",
"T. c #F9F1E0",
"R. c #F8F0E1",
/* pixels */
"g.g.g.g.g.g.g.g.g.g.g.g.g.g.g.g.g.g.g.g.g.g.g.g.g.g.g.g.g.g.g.g.g.g.g.g.g.g.g.g.g.g.g.g.g.g.g.g.g.g.g.g.g.g.g.g.g.g.g.g.g.g.g.g.",
"g.g.g.g.g.g.g.g.g.g.g.g.g.g.g.g.g.g.g.g.g.g.g.g.g.g.g.g.g.g.g.g.g.g.g.g.g.g.g.g.g.g.g.g.g.g.g.g.g.g.g.g.g.g.g.g.g.g.g.g.g.g.g.g.",
"g.g.g.g.g.g.g.g.g.g.g.g.g.g.g.g.g.g.g.g.g.g.g.g.g.g.g.g.g.g.g.g.g.g.g.g.g.g.g.g.g.g.g.g.g.g.g.g.g.g.g.g.g.g.g.g.g.g.g.g.g.g.g.g.",
"g.g.g.g.g.g.g.g.g.g.g.g.g.g.g.g.g.g.g.g.g.g.g.g.g.g.g.g.g.g.g.g.g.g.g.g.g.g.g.g.g.g.g.g.g.g.g.g.g.g.g.g.g.g.g.g.g.g.g.g.g.g.g.g.",
"g.g.g.g.g.g.g.g.g.g.g.g.g.g.g.g.g.g.g.g.g.g.g.g.g.g.g.g.g.g.g.g.g.g.g.g.g.g.g.g.g.g.g.g.g.g.g.g.g.g.g.g.g.g.g.g.g.g.g.g.g.g.g.g.",
"g.g.g.g.g.g.g.g.g.g.g.g.g.g.g.g.g.g.g.g.g.g.g.g.g.g.g.g.g.g.g.g.g.g.g.g.g.g.g.g.g.g.g.g.g.g.g.g.g.g.g.g.g.g.g.g.g.g.g.g.g.g.g.g.",
"g.g.g.g.g.g.g.g.g.g.g.g.g.g.g.g.g.g.g.g.g.g.g.g.g.g.g.g.g.g.g.g.g.g.g.g.g.g.g.g.g.g.g.g.g.g.g.g.g.g.g.g.g.g.g.g.g.g.g.g.g.g.g.g.",
"g.g.g.g.g.g.g.g.g.g.g.g.g.g.g.g.g.g.g.g.g.g.g.g.g.g.g.g.g.g.g.g.g.g.g.g.g.g.g.g.g.g.g.g.g.g.g.g.g.g.g.g.g.g.g.g.g.g.g.g.g.g.g.g.",
"g.g.g.g.g.g.g.g.g.g.g.g.g.g.g.g.g.g.g.g.g.g.g.g.g.g.g.g.g.g.g.g.g.g.g.g.g.g.g.g.g.g.g.g.g.g.g.g.g.g.g.g.g.g.g.g.g.g.g.g.g.g.g.g.",
"g.g.g.g.g.g.g.g.g.g.g.g.g.g.g.g.g.g.g.g.g.g.g.g.g.g.g.g.g.g.g.g.g.g.g.g.g.g.g.g.g.g.g.g.g.g.g.g.g.g.g.g.g.g.g.g.g.g.g.g.g.g.g.g.",
"g.g.g.g.g.g.g.g.g.g.g.g.g.g.g.g.g.g.g.g.g.g.g.g.g.g.g.g.g.g.g.g.g.g.g.g.g.g.g.g.g.g.g.g.g.g.g.g.g.g.g.g.g.g.g.g.g.g.g.g.g.g.g.g.",
"g.g.g.g.g.g.g.g.g.g.g.g.g.g.g.g.g.g.g.g.g.g.g.g.g.g.g.g.g.g.g.g.g.g.g.g.g.g.g.g.g.g.g.g.g.g.g.g.g.g.g.g.g.g.g.g.g.g.g.g.g.g.g.g.",
"g.g.g.g.g.g.g.g.g.g.g.g.g.g.g.g.g.g.g.g.g.g.g.g.g.g.g.g.g.g.g.g.g.g.g.g.g.g.g.g.g.g.g.g.g.g.g.g.g.g.g.g.g.g.g.g.g.g.g.g.g.g.g.g.",
"g.g.g.g.g.g.g.g.g.g.g.g.g.g.g.g.g.g.g.g.g.g.g.g.g.g.g.g.g.g.g.g.g.g.g.g.g.g.g.g.g.g.g.g.g.g.g.g.g.g.g.g.g.g.g.g.g.g.g.g.g.g.g.g.",
"g.g.g.g.g.g.g.g.g.g.g.g.g.g.g.g.g.g.g.g.g.g.g.g.g.g.g.g.g.g.g.g.g.g.g.g.g.g.g.g.g.g.g.g.g.g.g.g.g.g.g.g.g.g.g.g.g.g.g.g.g.g.g.g.",
"g.g.g.g.g.g.g.g.g.g.g.g.g.g.g.g.g.g.g.g.g.g.g.g.g.g.g.g.r.%.L D W 3.g.g.g.v.Z X X X C c.g.g.g.g.g.g.g.g.g.g.g.g.g.g.g.g.g.g.g.g.",
"g.g.g.g.g.g.g.g.g.g.g.g.g.g.g.g.g.g.g.g.g.g.g.g.g.g.$.* X X X X X X X I T X X X X X X X X.g.g.g.g.g.g.g.g.g.g.g.g.g.g.g.g.g.g.g.",
"g.g.g.g.g.g.g.g.g.g.g.g.g.g.g.g.g.g.g.g.g.g.g.g.t.= X X X X X X X X X X X X X X # . X X X &.g.g.g.g.g.g.g.g.g.g.g.g.g.g.g.g.g.g.",
"g.g.g.g.g.g.g.g.g.g.g.g.g.g.g.g.g.g.g.g.g.g.g.m.X X X X , r f h i 6 X X X X e h h h p X X X i.g.g.g.g.g.g.g.g.g.g.g.g.g.g.g.g.g.",
"g.g.g.g.g.g.g.g.g.g.g.g.g.g.g.g.g.g.g.g.g.g.g.O X X # s h h h h h h d 1 # t h h h h h u X X S g.g.g.g.g.g.g.g.g.g.g.g.g.g.g.g.g.",
"g.g.g.g.g.g.g.g.g.g.g.g.g.g.g.g.g.g.g.g.g.g.2.X X , h h j / [ =. .j h h h / L.I.I.) h h X X X g.g.g.g.g.g.g.g.g.g.g.g.g.g.g.g.g.",
"g.g.g.g.g.g.g.g.g.g.g.g.g.g.g.g.g.g.g.g.g.g.c X X f h 7.I.I.I.I.I.I.1.l _ H.I.I.I.I.l h 3 X X g.g.g.g.g.g.g.g.g.g.g.g.g.g.g.g.g.",
"g.g.g.g.g.g.g.g.g.g.g.g.g.g.g.g.g.g.g.g.g.U X X < h 8.I.I.L.I.I.I.I.I.I.I.I.I.I.I.I.;.h 6 X X g.g.g.g.g.g.g.g.g.g.g.g.g.g.g.g.g.",
"g.g.g.g.g.g.g.g.g.g.g.g.g.g.g.g.g.g.g.f.b X X X s ..I.J.I.I.Y.I.I.I.I.I.I.I.I.I.I.I.N.h 4 X X g.g.g.g.g.g.g.g.g.g.g.g.g.g.g.g.g.",
"g.g.g.g.g.g.g.g.g.g.g.g.g.g.g.g.g.g.d.n X X ; q h ] I.I.I.I.I.I.I.I.I.I.I.I.I.I.I.I.B.h : X X g.g.g.g.g.g.g.g.g.g.g.g.g.g.g.g.g.",
"g.g.g.g.g.g.g.g.g.g.g.g.g.g.g.g.g.g.Y X X $ h h h A.I.I.I.I.I.I.I.I.I.I.I.I.I.I.I.I.9.h X X   g.g.g.g.g.g.g.g.g.g.g.g.g.g.g.g.g.",
"g.g.g.g.g.g.g.g.g.g.g.g.g.g.g.g.g.e.X X X f h h V.I.I.U.I.I.I.I.I.I.I.I.U.I.I.I.I.I.' f X X A g.g.g.g.g.g.g.g.g.g.g.g.g.g.g.g.g.",
"g.g.g.g.g.g.g.g.g.g.g.g.g.g.g.g.g.M X X w h h S.I.I.I.I.I.I.I.I.I.I.I.I.I.L.I.I.I.4.h 5 X X h.g.g.g.g.g.g.g.g.g.g.g.g.g.g.g.g.g.",
"g.g.g.g.g.g.g.g.g.g.g.g.g.g.g.g.y.X X - h h >.I.I.P.I.I.T.I.I.I.I.R.I.I.I.I.I.I.5.h h X X X o.g.g.g.g.g.g.g.g.g.g.g.g.g.g.g.g.g.",
"g.g.g.g.g.g.g.g.g.g.g.g.g.g.g.g.z.X X J h h K.I.I.I.I.I.I.I.I.I.I.I.I.I.L.I.I.I.:.h h : X X X z.g.g.g.g.g.g.g.g.g.g.g.g.g.g.g.g.",
"g.g.g.g.g.g.g.g.g.g.g.g.g.g.g.g.z.X X K h h D.I.I.I.I.I.I.I.T.I.I.I.I.I.I.I.I.I.G.| h h 0 X X & g.g.g.g.g.g.g.g.g.g.g.g.g.g.g.g.",
"g.g.g.g.g.g.g.g.g.g.g.g.g.g.g.g.z.X X G h h 0.I.I.I.I.I.I.I.I.I.I.L.Y.I.I.I.I.I.I.I.q.h h H X X s.g.g.g.g.g.g.g.g.g.g.g.g.g.g.g.",
"g.g.g.g.g.g.g.g.g.g.g.g.g.g.g.g.a.X X X h h ~ I.I.I.I.I.I.I.I.I.I.I.I.I.I.I.I.I.I.I.I.h h p X X x.g.g.g.g.g.g.g.g.g.g.g.g.g.g.g.",
"g.g.g.g.g.g.g.g.g.g.g.g.g.g.g.g.g.X X X : f h ` ^ l ,.I.I.I.I.I.I.I.I.I.I.I.I.I.I.I.I.! h i X X k.g.g.g.g.g.g.g.g.g.g.g.g.g.g.g.",
"g.g.g.g.g.g.g.g.g.g.g.g.g.g.g.g.g.x X X X # h h h h h H.I.I.I.I.I.I.I.I.Y.I.I.I.I.I.I.k h i X X l.g.g.g.g.g.g.g.g.g.g.g.g.g.g.g.",
"g.g.g.g.g.g.g.g.g.g.g.g.g.g.g.g.g.j.X X X X 2 X > f h 6.I.I.I.I.I.I.C.{ Z.I.I.I.I.I.I.h h 9 X X M.g.g.g.g.g.g.g.g.g.g.g.g.g.g.g.",
"g.g.g.g.g.g.g.g.g.g.g.g.g.g.g.g.g.g.F X X X X X X : h z H.I.I.I.I.I.h f e ( Z.I.I.H.} h h X X X g.g.g.g.g.g.g.g.g.g.g.g.g.g.g.g.",
"g.g.g.g.g.g.g.g.g.g.g.g.g.g.g.g.g.g.g.I X X X X X X 7 h Q I.I.I.I.F.h X X X X t h h h y X X X +.g.g.g.g.g.g.g.g.g.g.g.g.g.g.g.g.",
"g.g.g.g.g.g.g.g.g.g.g.g.g.g.g.g.g.g.g.g.g.b.n.w.X X X 8 h g -.B.<.j a X X X X X X o X X X X V g.g.g.g.g.g.g.g.g.g.g.g.g.g.g.g.g.",
"g.g.g.g.g.g.g.g.g.g.g.g.g.g.g.g.g.g.g.g.g.g.g.g.*.X X X @ i h h h h # X X B X X X X X X X E d.g.g.g.g.g.g.g.g.g.g.g.g.g.g.g.g.g.",
"g.g.g.g.g.g.g.g.g.g.g.g.g.g.g.g.g.g.g.g.g.g.g.g.g.@.X X X X X X X X X X v g.p.P * X & R p.g.g.g.g.g.g.g.g.g.g.g.g.g.g.g.g.g.g.g.",
"g.g.g.g.g.g.g.g.g.g.g.g.g.g.g.g.g.g.g.g.g.g.g.g.g.g.t.N X X X X X X X % u.g.g.g.g.g.g.g.g.g.g.g.g.g.g.g.g.g.g.g.g.g.g.g.g.g.g.g.",
"g.g.g.g.g.g.g.g.g.g.g.g.g.g.g.g.g.g.g.g.g.g.g.g.g.g.g.g.y.O.m + + m #.g.g.g.g.g.g.g.g.g.g.g.g.g.g.g.g.g.g.g.g.g.g.g.g.g.g.g.g.g.",
"g.g.g.g.g.g.g.g.g.g.g.g.g.g.g.g.g.g.g.g.g.g.g.g.g.g.g.g.g.g.g.g.g.g.g.g.g.g.g.g.g.g.g.g.g.g.g.g.g.g.g.g.g.g.g.g.g.g.g.g.g.g.g.g.",
"g.g.g.g.g.g.g.g.g.g.g.g.g.g.g.g.g.g.g.g.g.g.g.g.g.g.g.g.g.g.g.g.g.g.g.g.g.g.g.g.g.g.g.g.g.g.g.g.g.g.g.g.g.g.g.g.g.g.g.g.g.g.g.g.",
"g.g.g.g.g.g.g.g.g.g.g.g.g.g.g.g.g.g.g.g.g.g.g.g.g.g.g.g.g.g.g.g.g.g.g.g.g.g.g.g.g.g.g.g.g.g.g.g.g.g.g.g.g.g.g.g.g.g.g.g.g.g.g.g.",
"g.g.g.g.g.g.g.g.g.g.g.g.g.g.g.g.g.g.g.g.g.g.g.g.g.g.g.g.g.g.g.g.g.g.g.g.g.g.g.g.g.g.g.g.g.g.g.g.g.g.g.g.g.g.g.g.g.g.g.g.g.g.g.g.",
"g.g.g.g.g.g.g.g.g.g.g.g.g.g.g.g.g.g.g.g.g.g.g.g.g.g.g.g.g.g.g.g.g.g.g.g.g.g.g.g.g.g.g.g.g.g.g.g.g.g.g.g.g.g.g.g.g.g.g.g.g.g.g.g.",
"g.g.g.g.g.g.g.g.g.g.g.g.g.g.g.g.g.g.g.g.g.g.g.g.g.g.g.g.g.g.g.g.g.g.g.g.g.g.g.g.g.g.g.g.g.g.g.g.g.g.g.g.g.g.g.g.g.g.g.g.g.g.g.g.",
"g.g.g.g.g.g.g.g.g.g.g.g.g.g.g.g.g.g.g.g.g.g.g.g.g.g.g.g.g.g.g.g.g.g.g.g.g.g.g.g.g.g.g.g.g.g.g.g.g.g.g.g.g.g.g.g.g.g.g.g.g.g.g.g.",
"g.g.g.g.g.g.g.g.g.g.g.g.g.g.g.g.g.g.g.g.g.g.g.g.g.g.g.g.g.g.g.g.g.g.g.g.g.g.g.g.g.g.g.g.g.g.g.g.g.g.g.g.g.g.g.g.g.g.g.g.g.g.g.g.",
"g.g.g.g.g.g.g.g.g.g.g.g.g.g.g.g.g.g.g.g.g.g.g.g.g.g.g.g.g.g.g.g.g.g.g.g.g.g.g.g.g.g.g.g.g.g.g.g.g.g.g.g.g.g.g.g.g.g.g.g.g.g.g.g.",
"g.g.g.g.g.g.g.g.g.g.g.g.g.g.g.g.g.g.g.g.g.g.g.g.g.g.g.g.g.g.g.g.g.g.g.g.g.g.g.g.g.g.g.g.g.g.g.g.g.g.g.g.g.g.g.g.g.g.g.g.g.g.g.g.",
"g.g.g.g.g.g.g.g.g.g.g.g.g.g.g.g.g.g.g.g.g.g.g.g.g.g.g.g.g.g.g.g.g.g.g.g.g.g.g.g.g.g.g.g.g.g.g.g.g.g.g.g.g.g.g.g.g.g.g.g.g.g.g.g.",
"g.g.g.g.g.g.g.g.g.g.g.g.g.g.g.g.g.g.g.g.g.g.g.g.g.g.g.g.g.g.g.g.g.g.g.g.g.g.g.g.g.g.g.g.g.g.g.g.g.g.g.g.g.g.g.g.g.g.g.g.g.g.g.g.",
"g.g.g.g.g.g.g.g.g.g.g.g.g.g.g.g.g.g.g.g.g.g.g.g.g.g.g.g.g.g.g.g.g.g.g.g.g.g.g.g.g.g.g.g.g.g.g.g.g.g.g.g.g.g.g.g.g.g.g.g.g.g.g.g.",
"g.g.g.g.g.g.g.g.g.g.g.g.g.g.g.g.g.g.g.g.g.g.g.g.g.g.g.g.g.g.g.g.g.g.g.g.g.g.g.g.g.g.g.g.g.g.g.g.g.g.g.g.g.g.g.g.g.g.g.g.g.g.g.g.",
"g.g.g.g.g.g.g.g.g.g.g.g.g.g.g.g.g.g.g.g.g.g.g.g.g.g.g.g.g.g.g.g.g.g.g.g.g.g.g.g.g.g.g.g.g.g.g.g.g.g.g.g.g.g.g.g.g.g.g.g.g.g.g.g.",
"g.g.g.g.g.g.g.g.g.g.g.g.g.g.g.g.g.g.g.g.g.g.g.g.g.g.g.g.g.g.g.g.g.g.g.g.g.g.g.g.g.g.g.g.g.g.g.g.g.g.g.g.g.g.g.g.g.g.g.g.g.g.g.g.",
"g.g.g.g.g.g.g.g.g.g.g.g.g.g.g.g.g.g.g.g.g.g.g.g.g.g.g.g.g.g.g.g.g.g.g.g.g.g.g.g.g.g.g.g.g.g.g.g.g.g.g.g.g.g.g.g.g.g.g.g.g.g.g.g.",
"g.g.g.g.g.g.g.g.g.g.g.g.g.g.g.g.g.g.g.g.g.g.g.g.g.g.g.g.g.g.g.g.g.g.g.g.g.g.g.g.g.g.g.g.g.g.g.g.g.g.g.g.g.g.g.g.g.g.g.g.g.g.g.g.",
"g.g.g.g.g.g.g.g.g.g.g.g.g.g.g.g.g.g.g.g.g.g.g.g.g.g.g.g.g.g.g.g.g.g.g.g.g.g.g.g.g.g.g.g.g.g.g.g.g.g.g.g.g.g.g.g.g.g.g.g.g.g.g.g.",
"g.g.g.g.g.g.g.g.g.g.g.g.g.g.g.g.g.g.g.g.g.g.g.g.g.g.g.g.g.g.g.g.g.g.g.g.g.g.g.g.g.g.g.g.g.g.g.g.g.g.g.g.g.g.g.g.g.g.g.g.g.g.g.g.",
"g.g.g.g.g.g.g.g.g.g.g.g.g.g.g.g.g.g.g.g.g.g.g.g.g.g.g.g.g.g.g.g.g.g.g.g.g.g.g.g.g.g.g.g.g.g.g.g.g.g.g.g.g.g.g.g.g.g.g.g.g.g.g.g."
};
