/* XPM */
static char *result[] = {
/* columns rows colors chars-per-pixel */
"64 64 94 2 ",
"   c #F5943C",
".  c #F59B3D",
"X  c #F5A43C",
"o  c #F5AC3C",
"O  c #F5B43C",
"+  c #F5BC3C",
"@  c #F5C23C",
"#  c #EF9A4D",
"$  c #F39642",
"%  c #F59943",
"&  c #F39B4A",
"*  c #ED9D53",
"=  c #EB9F59",
"-  c #F4A443",
";  c #F4AC41",
":  c #F1A348",
">  c #F0AF4C",
",  c #F3B240",
"<  c #F0BF47",
"1  c #EFAA51",
"2  c #E9A05D",
"3  c #EAAE59",
"4  c #F5A255",
"5  c #DFAC7D",
"6  c #E6A466",
"7  c #E9A263",
"8  c #E4A66C",
"9  c #F6B66C",
"0  c #E0AA77",
"q  c #E2B470",
"w  c #F6B77A",
"e  c #F6B97D",
"r  c #F5C442",
"t  c #F5C64B",
"y  c #F5C84F",
"u  c #F5C954",
"i  c #F6CB5C",
"p  c #F6CD64",
"a  c #F6D06D",
"s  c #F6D274",
"d  c #F6D37B",
"f  c #DDAE82",
"g  c #DBB086",
"h  c #DAB188",
"j  c #D7B592",
"k  c #D8B490",
"l  c #D5B799",
"z  c #D3B99E",
"x  c #F6BC84",
"c  c #CFBEAA",
"v  c #D2BBA3",
"b  c #D0BDA8",
"n  c #F6C08A",
"m  c #F6D684",
"M  c #F7D98C",
"N  c #F7C593",
"B  c #F7CA9C",
"V  c #F7DC97",
"C  c #F7DD9A",
"Z  c #CEC0AE",
"A  c #CCC1B2",
"S  c #C7C6BE",
"D  c #F7CDA2",
"F  c #F7D1A9",
"G  c #F7D7B2",
"H  c #F7D9B7",
"J  c #F7DCBC",
"K  c #F7E0A7",
"L  c #F7E1AA",
"P  c #F7E4B4",
"I  c #F7E6BB",
"U  c #BFCED7",
"Y  c #BFCFD8",
"T  c #BED1DD",
"R  c #BBD4E4",
"E  c #C6C7C2",
"W  c #C6C8C5",
"Q  c #C3CBCB",
"!  c #C1CDD2",
"~  c #F7DEC1",
"^  c #F8DFC3",
"/  c #F7E7C0",
"(  c #F8E0C4",
")  c #F8E9C6",
"_  c #F8E4CC",
"`  c #F6E9CD",
"'  c #F8EACB",
"]  c #F8E7D0",
"[  c #F8ECD4",
"{  c #F8EEDB",
"}  c #F8F0DF",
"|  c #F7EFE0",
" . c #F6F0E0",
".. c #F8F0E0",
/* pixels */
"R R R R R R R R R R R R R R R R R R R R R R R R R R R R R R ! 5             j R R R R R R R R R R R R R R R R R R R R R R R R R ",
"R R R R R R R R R R R R R R R R R R R R R R R R R R R R Z                       v R R R R T z = # = v T R R R R R R R R R R R R ",
"R R R R R R R R R R R R R R R R R R R R R R R R R R T #                           = T 7                 $ c R R R R R R R R R R ",
"R R R R R R R R R R R R R R R R ! 5 $           v Z         . + @ @ @ @ @ @ X                                 # T R R R R R R R ",
"R R R R R R R R R R R R R R T $                           + @ @ @ @ @ @ @ @ @ O           . + @ @ @ , $           f R R R R R R ",
"R R R R R R R R R R R R R v                 $         O @ @ @ @ @ @ @ @ @ @ @ @ o     o @ @ @ @ @ @ @ @ + >         c R R R R R ",
"R R R R R R R R R R R R k         O @ @ @ @ @ 2     @ @ @ @ @ @ @ u a r @ @ @ @ @ @ @ @ @ @ @ @ @ @ @ @ @ @ @ q       U R R R R ",
"R R R R R R R R R R R E       X @ @ @ @ @ @ @ O O @ @ @ @ @ p { .. .} } { r @ @ @ @ @ @ @ @ @ @ @ @ @ @ @ @ @ @ 1       T R R R ",
"R R R R R R R R R R R       o @ @ @ @ @ @ @ @ @ @ @ @ @ p ................} r @ @ @ @ @ @ @ @ @ u s u @ @ @ @ @ @ :     * R R R ",
"R R R R R R R R R R c     . @ @ r @ @ @ @ @ @ @ @ @ @ / ....................} @ @ @ @ @ @ M } } } } } } y @ @ @ @ @       R R R ",
"R R R R R R R R R R $     @ @ @ @ @ @ @ @ r @ @ @ @ { ........................) @ @ t ) ................} I @ @ @ @ X     Q R R ",
"R R R R R R R R R R       @ @ @ @ @ @ u ....P t r I ............................} [ ..} ....................d @ @ @ @     f R R ",
"R R R R R R R R R !     X @ t @ @ @ r ..........} ..............................} } ..........................@ @ @ @     * R R ",
"R R R R R R R R R Q     o @ u @ @ @ { ..........} } ..........................................................@ @ @ @       R R ",
"R R R R R R R R R Q     X @ i @ @ i .................................................................... ...P @ @ @ @       R R ",
"R R R R R R R R b         @ s @ @ V .................................................................... . .@ @ @ @ @       R R ",
"R R R R R R R 7         O @ @ @ @ @ ......................................................................{ @ @ @ @ @     $ R R ",
"R R R R R R 7       . @ @ @ @ @ @ @ [ ..................................................................} @ @ @ @ @ X     c R R ",
"R R R R R b       + @ @ @ @ @ @ @ r } ..................................................................C @ @ @ @ @       R R R ",
"R R R R R       + @ @ @ @ @ @ @ d } } ................................................................../ @ @ @ @ @       7 R R ",
"R R R R !     . @ @ @ @ @ @ { ..........................} } } x $   B { ..................................} I @ @ @ O       U R ",
"R R R R g     O @ r @ @ r } } ............................G           $ [ { ................................} P @ @ @ +     5 R ",
"R R R R $     @ @ @ @ @ } } ............................J                 w         $ G ........................@ @ @ @       R ",
"R R R R       @ @ @ @ i } } .........................._       % d 9                     $ { ....................r @ @ +       R ",
"R R R R       @ @ @ @ ' ........................{ 4             @ @ @                       [ ..................u @ @ @       R ",
"R R R R       @ @ @ @ } ......................D       X O .   O @ @ @ .     + @ @ @ O       $ ..................t @ @ @       R ",
"R R R R       @ @ @ @ m } ..................F       @ @ @ O @ @ M K @ @ + @ @ @ @ @ @ @       ^ ................@ @ @ @       R ",
"R R R R       @ @ @ @ @ ) ................{       + @ @ + @ @ V } } @ @ @ @ C } K @ @ @ O     4 ..............) @ @ @ @     $ R ",
"R R R R $     + @ @ @ @ @ m ..............&     . @ @ @ @ @ @ ......p @ r } } } ....@ @ @       ............[ @ @ @ @ @     6 R ",
"R R R R v       o @ @ @ @ @ } ............      @ @ @ @ @ @ P ......} ' } ....} ....d @ @ $     ] ........} @ @ @ i @ X     E R ",
"R R R R R &       @ @ @ @ @ [ ..........J       @ @ @ i [ ..........................] @ @ O     n ......I @ @ @ y @ +       R R ",
"R R R R R b       @ @ @ @ @ } } ........n     X @ @ V ..} } } ........................@ @ @     & ..} t @ @ @ r @ @       z R R ",
"R R R R R       O @ @ @ @ I ............w     ; @ @ / ......} } ................} ....@ @ @     % .._ @ @ @ @ @ X       * R R R ",
"R R R R E       @ @ @ @ u ..............N     - @ @ L ........} ................} } I @ @ o     w ..{ @ @ @ @ .       % R R R R ",
"R R R R 2     + @ @ @ @ [ } ............H     % @ @ @ ` ..[ K V } } } ..........} } r @ @       { ....V @ @ @       7 R R R R R ",
"R R R T       @ @ @ @ @ ..} ............]       @ @ @ @ @ @ @ @ i } } ......L s P y + @ o     % ........@ @ @ +       R R R R R ",
"R R R T       @ y @ @ u ..................      % @ @ @ @ + + @ @ ..........@ @ @ @ o         ] ........t @ @ @ X     A R R R R ",
"R R R S     o @ m @ @ y ................{ D           .       . @ ..........@ @ @ O         e ..........C @ @ @ @     % R R R R ",
"R R R Z     + @ s @ @ @ ....................w                   @ p } ..} [ @ @ @ @       D ............[ @ @ @ @       R R R R ",
"R R R Z     + @ r @ @ @ } ...................._ &               @ @ @ @ @ @ @ @ + r     ^ ................@ @ @ @ X     R R R R ",
"R R R W     O @ @ r @ @ I ..........................( ~ ~ &     O @ @ @ @ @ @ @ @ %     [ ..............} r @ @ @ X     R R R R ",
"R R R !       @ @ t @ @ r ................................H     $ @ @ @ @ @ @ @ 9       ................} t @ @ @ X     R R R R ",
"R R R R       @ @ @ @ @ @ r } ..............................    % - @ @ @ @ u %       ( ..................@ @ @ @ o     R R R R ",
"R R R R h     3 @ @ @ @ @ @ @ @ I ..........................B       . .             x } ................} @ @ @ @ O     W R R R ",
"R R R R R       @ @ @ @ @ @ @ @ @ [ ..........................x                   H ..............} ....d @ @ d @ +     W R R R ",
"R R R R R 7       + @ @ @ @ @ @ @ I ..............................B %       & F ................[ ) P p @ @ @ u @ o     ! R R R ",
"R R R R R R &       . . . + @ @ @ d ..........................................................p @ @ @ @ @ @ M @ @ .     R R R R ",
"R R R R R R R =           $ @ @ @ @ ..........................................................@ @ @ @ @ @ s @ @ @       R R R R ",
"R R R R R R R R l           + @ @ @ { ........................[ } } ..........................@ @ @ @ @ @ @ @ @ X     2 R R R R ",
"R R R R R R R R R R R       @ @ @ @ V  .....................a @ @ s } ........................@ @ @ @ @ @ @ @ %       R R R R R ",
"R R R R R R R R R R Y       @ @ @ @ t | ................} I @ @ @ @ a ......................[ @ @ @ @ + O ,         Q R R R R R ",
"R R R R R R R R R R R       @ @ @ @ @ [ ................[ @ @ @ @ @ @ L ....................M @ @ @ X             Q R R R R R R ",
"R R R R R R R R R R R       @ @ r @ @ @ p {  . .....} P @ @ @ @ @ @ @ @ i } ............} } @ @ @ @ .       $ 8 R R R R R R R R ",
"R R R R R R R R R R R #     O @ @ @ @ @ @ @ r p m p @ @ @ @ @ @ @ @ @ @ @ @ u P } ......} r @ @ @ @ o     A R R R R R R R R R R ",
"R R R R R R R R R R R W       @ @ @ @ @ @ @ @ @ @ @ @ @ @ @ @ @ @ @ r @ @ @ @ @ @ @ @ @ @ @ @ @ @ @ .     ! R R R R R R R R R R ",
"R R R R R R R R R R R R $     . @ @ @ @ @ @ @ @ @ @ @ @ r @ @ < @ @ @ @ y @ @ @ @ @ @ @ @ @ @ @ @ +       R R R R R R R R R R R ",
"R R R R R R R R R R R R T           + @ @ @ @ @ @ @ @ @ @ @     $ @ @ @ @ @ @ @ @ @ @ @ @ @ + @ o       z R R R R R R R R R R R ",
"R R R R R R R R R R R R R T             O @ @ @ @ @ @ @ @           o @ @ @ @ @ @ @ @ @ @ @ +         7 R R R R R R R R R R R R ",
"R R R R R R R R R R R R R R R b             . + + + + o                     o O + + O o             0 R R R R R R R R R R R R R ",
"R R R R R R R R R R R R R R R R R Z                           Q 2                               * T R R R R R R R R R R R R R R ",
"R R R R R R R R R R R R R R R R R R R U 2                 & T R R T j &   $ .               6 ! R R R R R R R R R R R R R R R R ",
"R R R R R R R R R R R R R R R R R R R R R R U c f 6 8 b T R R R R R R R R ! W W W E E W R R R R R R R R R R R R R R R R R R R R ",
"R R R R R R R R R R R R R R R R R R R R R R R R R R R R R R R R R R R R R R R R R R R R R R R R R R R R R R R R R R R R R R R R ",
"R R R R R R R R R R R R R R R R R R R R R R R R R R R R R R R R R R R R R R R R R R R R R R R R R R R R R R R R R R R R R R R R "
};
