/* XPM */
static char *result[] = {
/* columns rows colors chars-per-pixel */
"64 64 92 1 ",
"  c #F5943C",
". c #F59C3C",
"X c #F5A33C",
"o c #F5AC3C",
"O c #F5B43C",
"+ c #F5BC3C",
"@ c #F5C23C",
"# c #EF9B4E",
"$ c #F39642",
"% c #F49944",
"& c #F19A4B",
"* c #EE9C52",
"= c #EA9F58",
"- c #F4A241",
"; c #F1AE47",
": c #EAA05C",
"> c #F6A255",
", c #F6A55C",
"< c #DFAD7D",
"1 c #E6A467",
"2 c #E8A362",
"3 c #E4A66C",
"4 c #F6AA63",
"5 c #F6AE6A",
"6 c #E9BD61",
"7 c #F6B164",
"8 c #E2A972",
"9 c #E0AB79",
"0 c #F6B77B",
"q c #F6B97F",
"w c #EFC44A",
"e c #F5C443",
"r c #F5C64A",
"t c #F5C84F",
"y c #F5C954",
"u c #F5CB5A",
"i c #F6C761",
"p c #F6CE64",
"a c #F6CF69",
"s c #F6D06D",
"d c #F6D274",
"f c #F6D378",
"g c #DDAF82",
"h c #DBB189",
"j c #D6B594",
"k c #D8B491",
"l c #D5B89A",
"z c #F6BB82",
"x c #CEBEAC",
"c c #D1BCA4",
"v c #D8CB90",
"b c #F7CB85",
"n c #F7C28E",
"m c #F6D684",
"M c #F7D98C",
"N c #F7C99B",
"B c #F7DA92",
"V c #F7DD9A",
"C c #CEC0AF",
"Z c #CBC1B4",
"A c #C9C5BB",
"S c #F7CDA2",
"D c #F7DFA3",
"F c #F7D3AC",
"G c #F7DAB9",
"H c #F7E0A7",
"J c #F7E2AC",
"K c #F7E4B4",
"L c #F8E4B6",
"P c #F7E6BB",
"I c #BED1DD",
"U c #BBD4E4",
"Y c #C6C7C2",
"T c #C8C6C0",
"R c #C6C8C5",
"E c #C4CACB",
"W c #C1CED3",
"Q c #C2D1D1",
"! c #F8DFC2",
"~ c #F7E6C1",
"^ c #F8E3C5",
"/ c #F7E8C4",
"( c #F8E9C6",
") c #F8E4CB",
"_ c #F7EBCE",
"` c #F8EBCD",
"' c #F8EBD3",
"] c #F8EFDC",
"[ c #F7F0DF",
"{ c #F8F0DF",
"} c #F7F0E0",
"| c #F8F0E0",
/* pixels */
"UUUUUUUUUUUUUUUUUUUUUUUUUUA3$    &cUUUUUUUUUIAg1==8AUUUUUUUUUUUU",
"UUUUUUUUUUUUUUUUUUUUUUI1             ZUUI9           AUUUUUUUUUU",
"UUUUUUUUUUUUUUUUUUUUT$                #W              3UUUUUUUUU",
"UUUUUUUUUUc#   $%cU&      XO@@@@@+.          XO+O+o     WUUUUUUU",
"UUUUUUUUj              o@@@@@@@@@@@@O     +@@@@@@@@@.    UUUUUUU",
"UUUUUUU$             +@@@@@@@@@@@@@@@+   +@@@@@@@@@@@+   *UUUUUU",
"UUUUUI    X@@@@@@   @@@@@@@@@@@@@@@@@@@+@@@@@@@@@@@@@@+   IUUUUU",
"UUUUU$   +@@@@@@@O+@@@@@@@V]{||{V@@@@@@@@@@@@@@@@@@@@@@-  8UUUUU",
"UUUUk   @@@@@@@@@@@@@@@@f]||||||J@@@@@@@@@@@@@@@@@@@@@@+   UUUUU",
"UUUU   @@@@@@@y]]e@@@@@]|||||||||__{HB@@@@@@eMPPd@@@@@@@   UUUUU",
"UUUj  .@@@@@@P}[|]Js@@J|||||||||||||||@@@@@_|||||}@@@@@@   UUUUU",
"UUU   @@@@@@'||||||||||||||||||||||||{`pe@y{||||||/@@@@@   UUUUU",
"UUU   @@@@@K{|||||||||||||||||||||||||||{{||||||||{@@@@+   UUUUU",
"UUU   @@@@@|{|||||||||||||||||||||||||||||||||||||y@@@@%  hUUUUU",
"UUU2  O@@@J{||||||||||||||||||||||||||||||||||||{{@@@@+   $AUUUU",
"UUUW   @@@~|||||||||||||||||||||||||||||||||||||{'@@@@@     lUUU",
"UUUg   +@@V|||{{{||||||||||{{||]^^|||||||||||||||P@@@@@+.    IUU",
"UUI   X@@@r||_MaJ||||||||||{,      ,{||||||||||||H@@@@@@@+   $UU",
"UUx  .+@@@@H@@@@a{{|||||||z          '{||||||||||'e@e@@@@@@   UU",
"UU1   O@@@@@@@@r'{||||||^     XooX    N{|||||||||{{`/@@@@@@.  CU",
"UU*  &@@@@@@@@'||||||||'    o@@@@@@X   N||||||||||||`@@@@@@O  *U",
"UU*  c@@@@@@@'{|||||||{&  X@@@@@@@@@O   4$$,!]||||||{@@@@@@@   U",
"UU8  ;@@@@@@_||||||||{S   @@@@@@@@@@@o       0|||||||@@@@@@@   I",
"UUA   O@@@@P|||||||{z    O@@@@@@@@@@@@X       ^||||||@@@@@@@   R",
"UUU   .@@@e{|||||||,     @@@@@rBr@@@@@@@@@@+  ${|||{[e@@@@@@   R",
"UUUA   @@@L{{{||||^   $  @@@@e'||@@@@@@@@@@@   ||||{[H@@@@@@   R",
"UUU$   +@@@e{{|||{,  '% X@@m]{|||t@@ad@@@@t@.  {||[{[m@@@@@@   U",
"UU<   X@@@@@@{|||]%  'OX@@@@D|||||P'{{]e@@r@   {||[[{@@@@@@o   U",
"UU   +@@@@@@@H||||4  r@@@@@@e||||||||||]@@@b  X||||]@@@@@@@   CU",
"Ux  X@@@@@@@@M||||'   .+@r@@~|||||||||{{s@@   +|||_@@@@@@@X   UU",
"U2  +@@@@@@@@~|||||N   .J|||||||||||||{|/@+  oe|||r@@@@@@@   RUU",
"U$  @@@@@@@@@{|{|||N    ]|||||||||||||||m@@   V|||u@@@@@@   $UUU",
"U%  @@@@@@@@p|||||'   X@{|||||||||||||'y@@@o  >||||`P@@@+   kUUU",
"U1  O@@@@@@@~|||||,  O@@y|||||||||||V@@@@@@@   ||||||@@@@    CUU",
"UE   @@@@@@@a|||||   @@@@K'MB{|{|||'@@@@@@@@q  ||||||L@@@O    UU",
"UU$  -@@@@@@@M||||  4@@@@@@@@r|||||`@@@@@@@@7  |||||||t@@@@   EU",
"UUW    +@@@@@@{|||  ,V@@@@@@@@{{{{|{s@@@@@@@   |||||||{@@@@.  hU",
"UUUc     @@@@J||||   {P@@@@@@@/{|{{BKd@@@@@X  ,||||||||@@@@O  *U",
"UUUUE$   +@@@|||||5  %{{f@@@@@_{||y@@a@@@+    ]||||||||@@@@+  $U",
"UUUUUQ   @@@@|||||]$   4/@OO@@|{|P@@@@@+    $'|||||||||@@@@+   U",
"UUUUU$  .@@@e||||||'$       O@pVr@@@@@@    >]||||||||||@@@@@   U",
"UUUUR   @@@@r||||||||N      o@@@@@@@@@@   m{||||||||||P@@@@@   U",
"UUUU>  O@@@@e{|||||||||)0%   +@@@@@@@@   i||||||||||||@@@@@@   U",
"UUUU   +@@@@@{||||||||||||4   o+@@++X   $||||||||||||V@@@@@@   U",
"UUUA   +@@@@@L|||||||||||||%            ]|||||||||||`@@@@@@+   U",
"UUU2   @@@@@@@]|||||||||||||0         n||||||||||||m@@@@@@@   &U",
"UUU    X@@@@@@e|||||||||||||]|^FnNG)|||||||||||||_@@@@@@@@.   WU",
"UUU$    O@@@@@@e'||||||||||||||||||||||||||||||||u@@@@@@+.   gUU",
"UUU2     @@@@@@@@@f`||||||||||||{|||||||{{||||{Vue@@@@@+    9UUU",
"UUUR     r@@@@@@@@@@_|{|||||||||||||||||Hem{Kr@@@@@@@@o    gUUUU",
"UUUU     w@@@@@@@@@@V|||||||||||||||||(u@@@@@@@@@@@@+     cUUUUU",
"UUUU2   .@@@@@@@@@@@@{|||||||||||||||P@@@@@@@@@@@@@@.    WUUUUUU",
"UUUUW   XX  .@@@@@@@@@{||||||||||||||m@@@@@@@@@@@@@@.   IUUUUUUU",
"UUUUU*       +@w@@@@@@r|||||||||||{{p@@@@@@@@@@@@@@+    YUUUUUUU",
"UUUUUU%      o@@@@@@@@@@m{{|||||{{m@@@@@@@@@@@@@@@O     AUUUUUUU",
"UUUUUUUWZAI   @@@@@@@@@@@@@@@@@e@@@@@@@@@@@@@@@@@       AUUUUUUU",
"UUUUUUUUUUU   v@@@@@@@+@@@@@@@@@@@@@@@@@@@@@@@@.        UUUUUUUU",
"UUUUUUUUUUU*  :Q@@@@@o  +@@@@@@@@@@@@@@@@@@@+.         jUUUUUUUU",
"UUUUUUUUUUUI    36+.     @@@@@@@@@@@@oO++o.           AUUUUUUUUU",
"UUUUUUUUUUUU<            .@@@@@@@@@@                gUUUUUUUUUUU",
"UUUUUUUUUUUUUI       %Z   .+@@@@++O.             $xUUUUUUUUUUUUU",
"UUUUUUUUUUUUUUIIc8<ZUUU8                      =cUUUUUUUUUUUUUUUU",
"UUUUUUUUUUUUUUUUUUUUUUUU8            2URYYRUUUUUUUUUUUUUUUUUUUUU",
"UUUUUUUUUUUUUUUUUUUUUUUUUI3    $%*8AUUUUUUUUUUUUUUUUUUUUUUUUUUUU"
};
