/* XPM */
static char *result[] = {
/* columns rows colors chars-per-pixel */
"64 64 5 1 ",
"  c #FECDBF",
". c #FFD6BD",
"X c #FFE3BB",
"o c #FFC3C2",
"O c #FFC8C3",
/* pixels */
"OOOOOOOO................        ........XXXXXXXX................",
"OOOOOOOO................        ........XXXXXXXX................",
"OOOOOOOO................        ........XXXXXXXX................",
"OOOOOOOO................        ........XXXXXXXX................",
"OOOOOOOO................        ........XXXXXXXX................",
"OOOOOOOO................        ........XXXXXXXX................",
"OOOOOOOO................        ........XXXXXXXX................",
"OOOOOOOO................        ........XXXXXXXX................",
"........OOOOOOOOOOOOOOOO........................        ........",
"........OOOOOOOOOOOOOOOO........................        ........",
"........OOOOOOOOOOOOOOOO........................        ........",
"........OOOOOOOOOOOOOOOO........................        ........",
"........OOOOOOOOOOOOOOOO........................        ........",
"........OOOOOOOOOOOOOOOO........................        ........",
"........OOOOOOOOOOOOOOOO........................        ........",
"........OOOOOOOOOOOOOOOO........................        ........",
"........XXXXXXXX................................................",
"........XXXXXXXX................................................",
"........XXXXXXXX................................................",
"........XXXXXXXX................................................",
"........XXXXXXXX................................................",
"........XXXXXXXX................................................",
"........XXXXXXXX................................................",
"........XXXXXXXX................................................",
"........................XXXXXXXX        ........................",
"........................XXXXXXXX        ........................",
"........................XXXXXXXX        ........OOOOOOOO........",
"........................XXXXXXXX        ........OOOOOOOO........",
"........................XXXXXXXX        ........OOOOOOOO........",
"........................XXXXXXXX        ........OOOOOOOO........",
"........................XXXXXXXX        ........OOOOOOOO........",
"........................XXXXXXXX        ........OOOOOOOO........",
"        ........................        ........OOOOOOOO........",
"        ........................        ........OOOOOOOO........",
"        ........................        ........OOOOOOOO........",
"        ........................        ........OOOOOOOO........",
"        ........................        ........OOOOOOOO........",
"        ........................        ........OOOOOOOO........",
"        ........................        ........OOOOOOOO........",
"        ........................        ........OOOOOOOO........",
"................................................OOOOOOOO........",
"...............XXXXXXXX.........................OOOOOOOO........",
"...............XXXXXXXX.................................OOOOOOOO",
"...............XXXXXXXX.................................OOOOOOOO",
"...............XXXXXXXX.................................OOOOOOOO",
"...............XXXXXXXX.................................OOOOOOOO",
"...............XXXXXXXX.................................OOOOOOOO",
"...............XXXXXXXX.................................OOOOOOOO",
"...............XXXXXXXX.................................OOOOOOOO",
".......oooooooo.........................................OOOOOOOO",
".......oooooooo.........................XXXXXXXX................",
".......oooooooo.........................XXXXXXXX................",
".......oooooooo.........................XXXXXXXX................",
".......oooooooo.........................XXXXXXXX................",
".......oooooooo.........................XXXXXXXX................",
".......oooooooo.........................XXXXXXXX................",
".......oooooooo        .................XXXXXXXX................",
"...............        .................XXXXXXXX................",
"...............        .........................................",
"...............        .........................................",
"...............        .........................................",
"...............        .........................................",
"...............        .........................................",
"...............        ........................................."
};
