/* XPM */
static char *result[] = {
/* columns rows colors chars-per-pixel */
"64 64 7 1 ",
"  c #705AA3",
". c #715BA3",
"X c #725CA3",
"o c #715AA4",
"O c #705BA4",
"+ c #715BA4",
"@ c None",
/* pixels */
"@@@@@@@@@@@@@@@@@@@@@@@@@@@@@@@@@@@@@@@@@@@@@@@@@@@@@@@@@@@@@@@@",
"@@@@@@@@@@@@@@@@@@@@@@@O++++++++++++++++O@@@@@@@@@@@@@@@@@@@@@@@",
"@@@@@@@@@@@@@@@@@@@@O.++++++++@@@@++++++++.O@@@@@@@@@@@@@@@@@@@@",
"@@@@@@@@@@@@@@@@@@+++++.X@@@@@@@@@@@@@@X.+++++@@@@@@@@@@@@@@@@@@",
"@@@@@@@@@@@@@@@@+++++X@@@@@@@@@@@@@@@@@@@@X+++++@@@@@@@@@@@@@@@@",
"@@@@@@@@@@@@@@O++++O@@@@@@@@@@@@@@@@@@@@@@@@O++++O@@@@@@@@@@@@@@",
"@@@@@@@@@@@@@++++ @@@@@@@@@@@@@@@@@@@@@@@@@@@@ ++++@@@@@@@@@@@@@",
"@@@@@@@@@@@@.++o@@@@@@@@@@@@@@@@@@@@@@@@@@@@@@@@o++.@@@@@@@@@@@@",
"@@@@@@@@@@@+++ @@@@@@@@@@@@@@@@@@@@@@@@@@@@@@@@@@ +++@@@@@@@@@@@",
"@@@@@@@@@O+++@@@@@@@@@@@@@@@@@@@@@@@@@@@@@@@@@@@@@@+++O@@@@@@@@@",
"@@@@@@@@@+++@@@@@@@@@@@@@@@@@@@@@@@@@@@@@@@@@@@@@@@@+++@@@@@@@@@",
"@@@@@@@@+++@@@@@@@@@@@@@@@@@@@@@@@@@@@@@@@@@@@@@@@@@@+++@@@@@@@@",
"@@@@@@@.++@@@@@@@@@@@@@@@@@@@@@@@@@@@@@@@@@@@@@@@@@@@@++.@@@@@@@",
"@@@@@@+++@@@@@@@@@@@@@@@@@@@@@@@@@@@@@@@@@@@@@@@@@@@@@@+++@@@@@@",
"@@@@@O++ @@@@@@@@@@@o+++++++++++++++++++++@@@@@@@@@@@@@ ++O@@@@@",
"@@@@@++o@@@@@@@@@@@@++++++++++++++++++++++@@@@@@@@@@@@@@o++@@@@@",
"@@@@+++@@@@@@@@@@@@@++@@@@@@@@@@@@@@@@@@@@@@@@@@@@@@@@@@@+++@@@@",
"@@@@++ @@@@@@@@@@@@@++@@@@@@@@@@@@@@@@@@@@@@@@@@@@@@@@@@@ ++@@@@",
"@@@+++@@@@@@@@@@@@@@++@@@@@@@@@@@@@@@@@@@@@@@@@@@@@@@@@@@@+++@@@",
"@@@++O@@@@@@@@@@@@@@++@@@@@@@@@@@@@@@@@@@@@@@@@@@@@@@@@@@@O++@@@",
"@@O++@@@@@@@@@@@@@@@++@@@@@@@@@@@@@@@@@@@@@@@@@@@@@@@@@@@@@++O@@",
"@@.+X@@@@@@@@@@@@@@@++@@@@@@@@@@@@@@@@@@@@@@@@@@@@@@@@@@@@@X+.@@",
"@@++@@@@@@@@@@@@@@@@++@@@@@@@@@@@@@@@@@@@@@@@@@@@@@@@@@@@@@@++@@",
"@O+.@@@@@@@@@@@@@@@@++@@@@@@@@@@@@@@@@@@@@@@@@@@@@@@@@@@@@@@.+O@",
"@++X@@@@@@@@@@@@@@@@++@@@@@@@@@@@@@@@@@@@@@@@@@@@@@@@@@@@@@@X++@",
"@++@@@@@@@@@@@@@@@@@++@@@@@@@@@@@@@@@@@@@@@@@@@@@@@@@@@@@@@@@++@",
"@++@@@@@@@@@@@@@@@@@++@@@@@@@@@@@@@@@@@@@@@@@@@@@@@@@@@@@@@@@++@",
"@++@@@@@@@@@@@@@@@@@+X@@@@@@@@@@@@@@@@@@@@@@@@@@@@@@@@@@@@@@@++@",
"@++@@@@@@@@@@@@@@@@@+O@@@@@@@@@@@@@@@@@@@@@@@@@@@@@@@@@@@@@@@++@",
"@++@@@@@@@@@@@@@@@@@++++++++++++++++@@@@@@@@@@@@@@@@@@@@@@@@@++@",
"@+@@@@@@@@@@@@@@@@@@+o++++++++++++++@@@@@@@@@@@@@@@@@@@@@@@@@@+@",
"@+@@@@@@@@@@@@@@@@@@+@@@@@@@@@@@@@@@@@@@@@@@@@@@@@@@@@@@@@@@@@+@",
"@+@@@@@@@@@@@@@@@@@@+@@@@@@@@@@@@@@@@@@@@@@@@@@@@@@@@@@@@@@@@@+@",
"@+@@@@@@@@@@@@@@@@@@+@@@@@@@@@@@@@@@@@@@@@@@@@@@@@@@@@@@@@@@@@+@",
"@++@@@@@@@@@@@@@@@@@+@@@@@@@@@@@@@@@@@@@@@@@@@@@@@@@@@@@@@@@@++@",
"@++@@@@@@@@@@@@@@@@@+@@@@@@@@@@@@@@@@@@@@@@@@@@@@@@@@@@@@@@@@++@",
"@++@@@@@@@@@@@@@@@@@+@@@@@@@@@@@@@@@@@@@@@@@@@@@@@@@@@@@@@@@@++@",
"@++@@@@@@@@@@@@@@@@@+@@@@@@@@@@@@@@@@@@@@@@@@@@@@@@@@@@@@@@@@++@",
"@++@@@@@@@@@@@@@@@@@+@@@@@@@@@@@@@@@@@@@@@@@@@@@@@@@@@@@@@@@@++@",
"@++X@@@@@@@@@@@@@@@@+O@@@@@@@@@@@@@@@@@@@@@@@@@@@@@@@@@@@@@@X++@",
"@O+.@@@@@@@@@@@@@@@@++@@@@@@@@@@@@@@@@@@@@@@@@@@@@@@@@@@@@@@.+O@",
"@@++@@@@@@@@@@@@@@@@++@@@@@@@@@@@@@@@@@@@@@@@@@@@@@@@@@@@@@@++@@",
"@@.+X@@@@@@@@@@@@@@@+o@@@@@@@@@@@@@@@@@@@@@@@@@@@@@@@@@@@@@X+.@@",
"@@O++@@@@@@@@@@@@@@@++@@@@@@@@@@@@@@@@@@@@@@@@@@@@@@@@@@@@@++O@@",
"@@@++O@@@@@@@@@@@@@@++@@@@@@@@@@@@@@@@@@@@@@@@@@@@@@@@@@@@O++@@@",
"@@@+++@@@@@@@@@@@@@@++@@@@@@@@@@@@@@@@@@@@@@@@@@@@@@@@@@@@+++@@@",
"@@@@++ @@@@@@@@@@@@@++++++++++++++++++@@@@@@@@@@@@@@@@@@@ ++@@@@",
"@@@@+++@@@@@@@@@@@@@++++++++++++o+O@@@@@@@@@@@@@@@@@@@@@@+++@@@@",
"@@@@@++o@@@@@@@@@@@@@@@@@@@@@@@@@@@@@@@@@@@@@@@@@@@@@@@@o++@@@@@",
"@@@@@O++ @@@@@@@@@@@@@@@@@@@@@@@@@@@@@@@@@@@@@@@@@@@@@@ ++O@@@@@",
"@@@@@@+++@@@@@@@@@@@@@@@@@@@@@@@@@@@@@@@@@@@@@@@@@@@@@@+++@@@@@@",
"@@@@@@@.++@@@@@@@@@@@@@@@@@@@@@@@@@@@@@@@@@@@@@@@@@@@@++.@@@@@@@",
"@@@@@@@@+++@@@@@@@@@@@@@@@@@@@@@@@@@@@@@@@@@@@@@@@@@@+++@@@@@@@@",
"@@@@@@@@@+++@@@@@@@@@@@@@@@@@@@@@@@@@@@@@@@@@@@@@@@@+++@@@@@@@@@",
"@@@@@@@@@O+++@@@@@@@@@@@@@@@@@@@@@@@@@@@@@@@@@@@@@@+++O@@@@@@@@@",
"@@@@@@@@@@@+++ @@@@@@@@@@@@@@@@@@@@@@@@@@@@@@@@@@ +++@@@@@@@@@@@",
"@@@@@@@@@@@@.++o@@@@@@@@@@@@@@@@@@@@@@@@@@@@@@@@o++.@@@@@@@@@@@@",
"@@@@@@@@@@@@@++++ @@@@@@@@@@@@@@@@@@@@@@@@@@@@ ++++@@@@@@@@@@@@@",
"@@@@@@@@@@@@@@O++++O@@@@@@@@@@@@@@@@@@@@@@@@O++++O@@@@@@@@@@@@@@",
"@@@@@@@@@@@@@@@@+++++X@@@@@@@@@@@@@@@@@@@@X+++++@@@@@@@@@@@@@@@@",
"@@@@@@@@@@@@@@@@@@+++++.X@@@@@@@@@@@@@@X.+++++@@@@@@@@@@@@@@@@@@",
"@@@@@@@@@@@@@@@@@@@@O.++++++++@@@@++++++++.O@@@@@@@@@@@@@@@@@@@@",
"@@@@@@@@@@@@@@@@@@@@@@@O++++++++++++++++O@@@@@@@@@@@@@@@@@@@@@@@",
"@@@@@@@@@@@@@@@@@@@@@@@@@@@@@@@@@@@@@@@@@@@@@@@@@@@@@@@@@@@@@@@@"
};
