/* XPM */
static char *_706f4fbc3514f63e432aac66e43596bYeLrURAjqOOfkhrl[] = {
/* columns rows colors chars-per-pixel */
"64 64 2 1 ",
"  c None",
". c #715BA4",
/* pixels */
"                                                                ",
"                                                                ",
"                                                                ",
"                                                                ",
"                                                                ",
"                                                                ",
"                                                                ",
"                                                                ",
"                                                                ",
"                                                                ",
"                         .............                          ",
"                    .....             .....                     ",
"                 ...                       ...                  ",
"               ..                             ..                ",
"             ..                                 ..              ",
"           ..                                     ..            ",
"          .                                         .           ",
"         .              .............                .          ",
"       ..               .           ...               ..        ",
"      .                 .             ..                .       ",
"     .                  .              ..                .      ",
"     .                  .               .                .      ",
"    .                   .               .                 .     ",
"   .                    .                .                 .    ",
"  .                     .                .                  .   ",
"  .                     .                .                  .   ",
" .                      .                .                   .  ",
" .                      .                .                   .  ",
" .                      .                .                   .  ",
".                       .                .                    . ",
".                       .                .                    . ",
".                       .               .                     . ",
".                       .             ...                     . ",
".                       ..      ......                        . ",
".                       ........                              . ",
".                       .                                     . ",
".                       .                                     . ",
".                       .                                     . ",
" .                      .                                    .  ",
" .                      .                                    .  ",
" .                      .                                    .  ",
"  .                     .                                   .   ",
"  .                     .                                   .   ",
"   .                    .                                  .    ",
"    .                   .                                 .     ",
"     .                  .                                .      ",
"     .                  .                                .      ",
"      .                 .                               .       ",
"       ..               .                             ..        ",
"         .              .                            .          ",
"          .             .                           .           ",
"           ..           .                         ..            ",
"             ..                                 ..              ",
"               ..                             ..                ",
"                 ...                       ...                  ",
"                    .....             .....                     ",
"                         .............                          ",
"                                                                ",
"                                                                ",
"                                                                ",
"                                                                ",
"                                                                ",
"                                                                ",
"                                                                "
};
