/* XPM */
static char *result[] = {
/* columns rows colors chars-per-pixel */
"64 64 58 1 ",
"  c #7EB0D2",
". c #83B3D3",
"X c #89B7D5",
"o c #8CB9D6",
"O c #8CB9D8",
"+ c #95BDD7",
"@ c #92BDDA",
"# c #98BFD8",
"$ c #A1B9ED",
"% c #ABBBEA",
"& c #97C0DB",
"* c #9CC2DB",
"= c #A4C6DC",
"- c #A6C8DD",
"; c #ADCADE",
": c #B0CCDF",
"> c #A3C7E0",
", c #A5C9E0",
"< c #AACCE2",
"1 c #A7C3EE",
"2 c #AAC6EF",
"3 c #ADC9EF",
"4 c #B2CEE0",
"5 c #B5C4E9",
"6 c #B9C6E9",
"7 c #B5CBEE",
"8 c #BBCCEC",
"9 c #B5D2E4",
"0 c #BBD4E4",
"q c #B5D3EF",
"w c #BAD4EE",
"e c #BDDAEE",
"r c #ADC7F0",
"t c #AEC8F0",
"y c #B3CBF0",
"u c #B7D3F0",
"i c #BCD4F0",
"p c #BEDBF0",
"a c #C4CEE9",
"s c #C3D3EA",
"d c #CCD5EC",
"f c #C1DEEF",
"g c #CADFEE",
"h c #C4DEF0",
"j c #C9DEF1",
"k c #CDE2EF",
"l c #C6E0F0",
"z c #CCE2F0",
"x c #D3E6F1",
"c c #D6E8F3",
"v c #DBEAF4",
"b c #E3EFF6",
"n c #E3EEF9",
"m c #E5F0F7",
"M c #ECF4F9",
"N c #F2F6FB",
"B c #F5F9FC",
"V c #FFFFFF",
/* pixels */
"0000000000000000000000000000000000000000000000000000000000000000",
"0000000000000000000000000000000000000000000000000000000000000000",
"000000000000000000000000000=o.     o-000000000000000000000000000",
"00000000000000000000000o                +00000000000000000000000",
"00000000000000000000+      @0fgxxkf0o.     *00000000000000000000",
"000000000000000000X    =xxxxxxxxxxxxxxxg&    +000000000000000000",
"0000000000000000#   Xxxxxxxxxxxxxxxxxxxxxxk.   =0000000000000000",
"000000000000009.  .xxxxxxxxxxxxxxxxxxxxxxxxxx.  .000000000000000",
"0000000000000*  .xxxxxxxxxxxxxxxxxxxxxxxcxxxxxg   ;0000000000000",
"000000000000X  *xxxxxxxxxxxxxxxxxcxxxxxxxxxxxxxxo  *000000000000",
"00000000000.  fxxxxxxxxxcvxcxxxxNVNcxxxxxxxxcxxxx9  o00000000000",
"0000000000.  xxxxxxxcbNVVVVBxxxMVVVNxxxxxxxxxxxxxxg  X0000000000",
"000000000.  xxxxxxnBVVVVVVVVMxxBVVVBxxxxxxxxxxxxxxxk  +000000000",
"00000000+  xxxxxcBVVVVVVVVVVMxxMVVVmxxxxxcxxxxxxxxxxg  :00000000",
"00000004. gxxxxbVVVVVVVVVVVVmxxxbMmxxxxxxxxxccxxxxxxx9  00000000",
"0000000  4xxxcBVVVVVVVVVVVVMxxxxxxxxxxxxxxxxxxxxxxxxxxo .0000000",
"000000X .xxxcVVVVVVVVVVVMmvxxxxxxxxxxxxxxxcxxxxxxxxxxxx  *000000",
"000009  xxxcVVVVVVVVVnzfzzxxxxxxxxxxxxxxxxxxxxxxxxxxxxxk .000000",
"00000  =xxxBVVVVVVVMzfffllxxxxxxxxxxxxxxxxxxxxxxcxxxxxcx. X00000",
"00009  xxxmVVVVVVVxfhfffllzzxxxxxxxxxxxxxxxxxxxxxxxxxxxxx  00000",
"0000. =xxxBVVVVVNsffeffffllzxxxxxxxxxxxxxxxxxxxxxxxxcxxxxX +0000",
"0000  xxxxVVVVVbasefffffffllzxxxcxxxxxxxxxxxxxxxxxxxxxxxxx  0000",
"000# XxxxxnVVBdaaaelffplfffllllzzxxxxxxxxxcxxxxxxxxxxxxxxx  :000",
"000  kxxxzfzdaaaaaeffffffffffllllzzzzxxxxxxxxxxxxxxxxxxxxx4 .000",
"000  xxxxllsaaaaaaffeffffffffffflllllllzzzxxkxxxxxxxxxxxxxx  000",
"004  xxxzlfaaaaaaa8wffffffehfffffffflflllllllllkkkxxbxxxxxc  000",
"00@ =xxxkffaaaaaaa87ffffffleffffffffffflfffflfllkzkVVVvcxxx. -00",
"00  jxxzlffaaaaaas68ffffffffffffffffffffffffffffelkVVVVxxxx*  00",
"00  xxxzlffaaaaaayy7whfffffffffffffffffffffffffflflVVVVxxxxf  00",
"00  xxxzheq568aas7687hffffffffffffffffffffffffffffffVVBxxxxx  00",
"00  xxxju221%%687y78wfffffffffffffffffffffffffffffffllkxxxxx  00",
"00  xxxi2222%%%%5677efffffffffffffffffffffffffffffffflkxxxxx  00",
"00  xxx7222211$$$13qfffffffffffffffffffffffffflffffffllzxxxx  00",
"00  xxjy2r122$$$$$2qffffffffffffffffffefffffffelfffffflzxxxx  00",
"00  xxjyr2222$$$$$$effffffffffffffeffffffffffffeffffffllzxxx  00",
"00 .xxjyt2222$$$$$2qffffffffpffffffffffffffffffw0ffffhfkxxxx  00",
"00  xxzyt22222222222ppfffffffffffffffffffffffsaaaaeffffzkxxf  00",
"00. sxxiy222222222223pffffffffffffffffffleffffaaaaslffflkxx* *00",
"00=.Xxxj7r222222222223qffffffpffffffffffelffffaaaaaefffzxxx. 400",
"004 .xxzur2222222222222qpffffffffffffffffffffaaaaaaffffkkxx  000",
"000..xxxjt22222222222222teeffffffffffffffffffsaaaa0fffllkxk  000",
"000. >xxxit222222222222222qupffffffeffffffffffaaashffflzxxX @000",
"0009  xxxzyr22222222222222223qefffffffffeffffse0aafffflzxx  0000",
"0000  xxxxir2222222222222222221tqqqqqqqqqefff0sqspfffllkx0  0000",
"0000# .xxxxu2222222222222222222r22222222223effffffffellxx  40000",
"00000  gxxxzq322222222222222222222222222222qeffffflellkxe  00000",
"00000#  xxxxf7332222222222222222222222222222qfffffellkxk  -00000",
"000000  <xxxzj3222222222222222222222222222223fffffellkx&  000000",
"0000004. xxxxxjyr222222222222222222222rrryy23effffllzxk  9000000",
"0000000.  xxxxxjyr2222222222222222222r1jVVVMqffeffllkx  *0000000",
"00000000  Xxxxxxjit32222r2222222222222tVVVVVhpfflllkx   00000000",
"000000009. #xxxxxxh7r22222222222222222uVVVVVvlllllxxX  000000000",
"0000000004  #xxxxxxki73222222222222222yVVVVVxlflkzxX  0000000000",
"0000000000<  Oxxxxxxzgw7r22222222222222nVVVmlllzxx   90000000000",
"000000000004  .xxxxxxxkkhwy222222r2233yilvzzkkxxx   900000000000",
"0000000000004   fxxxxxxxzzjfhiwiiipppjllzzzxxxx-   9000000000000",
"00000000000000.. .xxxxxcxxxxkkkkzzzzzxxxxxxxxk   o00000000000000",
"000000000000000*   Xxxxxxxxxxxxxxxxxxxxxxxxk.   4000000000000000",
"00000000000000000o    exxxxxxxxxxxxxxxxxx9.   &00000000000000000",
"0000000000000000000o     <zxxxxxxxxxxz,     &0000000000000000000",
"000000000000000000000-            .       ;000000000000000000000",
"000000000000000000000000:X            o9000000000000000000000000",
"s000000000000000000000000000000449000000000000000000000000000000",
"0000000000000000000000000000000000000000000000000000000000000000"
};
