/* XPM */
static char *result[] = {
/* columns rows colors chars-per-pixel */
"64 64 9 1 ",
"  c #705AA3",
". c #715BA3",
"X c #725CA3",
"o c #715AA4",
"O c #705BA4",
"+ c #715BA4",
"@ c #725BA4",
"# c #725DA4",
"$ c None",
/* pixels */
"$$$$$$$$$$$$$$$$$$$$$$$$$$$$$$$$$$$$$$$$$$$$$$$$$$$$$$$$$$$$$$$$",
"$++++++++++++++++++++++++++++++++++++++++++++++++++++++++++++++$",
"$+O$$$$$$$$$$$$$$$$$$$$$$$$$$$$$$$$$$$$$$$$$$$$$$$$$$$$$$$$$$O+$",
"$+$$$$$$$$$$$$$$$$$$$$$$$$$$$$$$$$$$$$$$$$$$$$$$$$$$$$$$$$$$$$+$",
"$+$$$$$$$$$$$$$$$$$$$$$$$$$$$$$$$$$$$$$$$$$$$$$$$$$$$$$$$$$$$$+$",
"$+$$$$$$$$$$$$$$$$$$$$$$$$$$$$$$$$$$$$$$$$$$$$$$$$$$$$$$$$$$$$+$",
"$+$$$$$$$$$$$$$$$$$$$$$$$$$$$$$$$$$$$$$$$$$$$$$$$$$$$$$$$$$$$$+$",
"$+$$$$$$$$$$$$$$$$$$$$$$$$$$$$$$$$$$$$$$$$$$$$$$$$$$$$$$$$$$$$+$",
"$+$$$$$$$$$$$$$$$$$$$$$$$$$$$$$$$$$$$$$$$$$$$$$$$$$$$$$$$$$$$$+$",
"$+$$$$$$$$$$$$$$$$$$$$$$$$$$$$$$$$$$$$$$$$$$$$$$$$$$$$$$$$$$$$+$",
"$+$$$$$$$$$$$$$$$$$$$$$$$$$$$$$$$$$$$$$$$$$$$$$$$$$$$$$$$$$$$$+$",
"$+$$$$$$$$$$$$$$$$$$$$$$$$$$$$$$$$$$$$$$$$$$$$$$$$$$$$$$$$$$$$+$",
"$+$$$$$$$$$$$$$$$$$$$$$$$$$$$$$$$$$$$$$$$$$$$$$$$$$$$$$$$$$$$$+$",
"$+$$$$$$$$$$$$$$$$$$$$$$$$$$$$$$$$$$$$$$$$$$$$$$$$$$$$$$$$$$$$+$",
"$+$$$$$$$$$$$$$$$$$$$$$$$$$$$$$$$$$$$$$$$$$$$$$$$$$$$++$$$$$$$+$",
"$+$$$$$+O$$$$$$$$$$$$$$$$$$$$$$$$$$$$$$$$$$$$$$$$$$$$++$$$$$$$+$",
"$+$$$$$+.$$$$$$$$$$$$$$$$$$$$$$$$$$$$$$$$$$$$$$$$$$$.++$$$$$$$+$",
"$+$$$$$++$$$$$$$$$$$$$$$$$$$$$$$$$$$$$$$$$$$$$$$$$$$++$$$$$$$$+$",
"$+$$$$$.+O$$$$$$$$$$$$$$$$$$$$$$$$$$$$$$$$$$$$$$$$$$++$$$$$$$$+$",
"$+$$$$$O++$$$$$$$$$$$$$$$$$$$$$$$$$$$$$$$$$$$$$$$$$$++$$$$$$$$+$",
"$+$$$$$$++$$$$$$$$$$$$$$$$$$$$$$$$$$$$$$$$$$$$$$$$$O++$$$$$$$$+$",
"$+$$$$$$++$$$$$$$$$$$$$$$$$$$$$$$$$$$$$$$$$$$$$$$$$++$$$$$$$$$+$",
"$+$$$$$$o+X$$$$$$$$$$$$$$$$$$$$$$$$$$$$$$$$$$$$$$$$++$$$$$$$$$+$",
"$+$$$$$$$+o$$$$$$$$$$$$$$$$$$$$$$$$$$$$$$$$$$$$$$$$++$$$$$$$$$+$",
"$+$$$$$$$++$$$$$$$$$$$$$$$$$$$$$$$$$$$$$$$$$$$$$$$$++$$$$$$$$$+$",
"$+$$$$$$$++$$$$$$$$$$$$$$$$$$$$$$$$$$$$$$$$$$$$$$$X++$$$$$$$$$+$",
"$+$$$$$$$+++$$$$$$$$$$$$$$$$$$$$$$$$$$$$$$$$$$$$$$.+$$$$$$$$$$+$",
"$+$$$$$$$$++$$$$$$$$$$$$$$$$$+@$$$$$$$$$$$$$$$$$$$++$$$$$$$$$$+$",
"$+$$$$$$$$++$$$$$$$$$$$$$$$$o+.$$$$$$$$$$$$$$$$$$O++$$$$$$$$$$+$",
"$+$$$$$$$$o+$$$$$$$$$$$$$$$$+++O$$$$$$$$$$$$$$$$$++O$$$$$$$$$$+$",
"$+$$$$$$$$+++$$$$$$$$$$$$$$+++++$$$$$$$$$$$$$$$$$++$$$$$$$$$$$+$",
"$+$$$$$$$$O++$$$$$$$$$$$$$$++#++O$$$$$$$$$$$$$$$$++$$$$$$$$$$$+$",
"$+$$$$$$$$$++$$$$$$$$$$$$$o++$+++$$$$$$$$$$$$$$$$++$$$$$$$$$$$+$",
"$+$$$$$$$$$++O$$$$$$$$$$$$++$$$++O$$$$$$$$$$$$$$+++$$$$$$$$$$$+$",
"$+$$$$$$$$$O+o$$$$$$$$$$$++.$$$+++$$$$$$$$$$$$$$++$$$$$$$$$$$$+$",
"$+$$$$$$$$$$++$$$$$$$$$$$++$$$$$++O$$$$$$$$$$$$$++$$$$$$$$$$$$+$",
"$+$$$$$$$$$$++O$$$$$$$$$++.$$$$$+++$$$$$$$$$$$$++o$$$$$$$$$$$$+$",
"$+$$$$$$$$$$O++$$$$$$$$$++O$$$$$$+++$$$$$$$$$$$++$$$$$$$$$$$$$+$",
"$+$$$$$$$$$$$++$$$$$$$$$++$$$$$$$ ++$$$$$$$$$$$++$$$$$$$$$$$$$+$",
"$+$$$$$$$$$$$++$$$$$$$$++O$$$$$$$$.+.$$$$$$$$$$++$$$$$$$$$$$$$+$",
"$+$$$$$$$$$$$+++$$$$$$$++$$$$$$$$$$++$$$$$$$$$X++$$$$$$$$$$$$$+$",
"$+$$$$$$$$$$$O++$$$$$$$++$$$$$$$$$$o+.$$$$$$$$.+$$$$$$$$$$$$$$+$",
"$+$$$$$$$$$$$$++O$$$$$o++$$$$$$$$$$$+++$$$$$$$++$$$$$$$$$$$$$$+$",
"$+$$$$$$$$$$$$X+.$$$$$++$$$$$$$$$$$$+++$$$$$$O+o$$$$$$$$$$$$$$+$",
"$+$$$$$$$$$$$$$++$$$$O+.$$$$$$$$$$$$$.+.$$$$$++O$$$$$$$$$$$$$$+$",
"$+$$$$$$$$$$$$$.+O$$$++O$$$$$$$$$$$$$$++ $$$$++$$$$$$$$$$$$$$$+$",
"$+$$$$$$$$$$$$$O++$$+++$$$$$$$$$$$$$$$+++$$$o+o$$$$$$$$$$$$$$$+$",
"$+$$$$$$$$$$$$$$++$O++ $$$$$$$$$$$$$$$$++o$$++$$$$$$$$$$$$$$$$+$",
"$+$$$$$$$$$$$$$$++@++o$$$$$$$$$$$$$$$$$$++$O+.$$$$$$$$$$$$$$$$+$",
"$+$$$$$$$$$$$$$$+++++$$$$$$$$$$$$$$$$$$$o+o.+O$$$$$$$$$$$$$$$$+$",
"$+$$$$$$$$$$$$$$O+++$$$$$$$$$$$$$$$$$$$$$++++$$$$$$$$$$$$$$$$$+$",
"$+$$$$$$$$$$$$$$$+++$$$$$$$$$$$$$$$$$$$$$o++o$$$$$$$$$$$$$$$$$+$",
"$+$$$$$$$$$$$$$$$++$$$$$$$$$$$$$$$$$$$$$$$++$$$$$$$$$$$$$$$$$$+$",
"$+$$$$$$$$$$$$$$$$$$$$$$$$$$$$$$$$$$$$$$$$$$$$$$$$$$$$$$$$$$$$+$",
"$+$$$$$$$$$$$$$$$$$$$$$$$$$$$$$$$$$$$$$$$$$$$$$$$$$$$$$$$$$$$$+$",
"$+$$$$$$$$$$$$$$$$$$$$$$$$$$$$$$$$$$$$$$$$$$$$$$$$$$$$$$$$$$$$+$",
"$+$$$$$$$$$$$$$$$$$$$$$$$$$$$$$$$$$$$$$$$$$$$$$$$$$$$$$$$$$$$$+$",
"$+$$$$$$$$$$$$$$$$$$$$$$$$$$$$$$$$$$$$$$$$$$$$$$$$$$$$$$$$$$$$+$",
"$+$$$$$$$$$$$$$$$$$$$$$$$$$$$$$$$$$$$$$$$$$$$$$$$$$$$$$$$$$$$$+$",
"$+$$$$$$$$$$$$$$$$$$$$$$$$$$$$$$$$$$$$$$$$$$$$$$$$$$$$$$$$$$$$+$",
"$+$$$$$$$$$$$$$$$$$$$$$$$$$$$$$$$$$$$$$$$$$$$$$$$$$$$$$$$$$$$$+$",
"$+O$$$$$$$$$$$$$$$$$$$$$$$$$$$$$$$$$$$$$$$$$$$$$$$$$$$$$$$$$$O+$",
"$++++++++++++++++++++++++++++++++++++++++++++++++++++++++++++++$",
"$$$$$$$$$$$$$$$$$$$$$$$$$$$$$$$$$$$$$$$$$$$$$$$$$$$$$$$$$$$$$$$$"
};
